<svg width="168" height="49" viewBox="0 0 168 49" fill="none" xmlns="http://www.w3.org/2000/svg">
<path fill-rule="evenodd" clip-rule="evenodd" d="M146.202 36.995C146.116 36.97 146.057 36.9533 146.069 36.9648C146.069 36.9648 135.491 35.4869 134.909 33.0166C134.289 30.3737 130.877 31.0066 130.835 28.8959C130.816 27.8445 132.102 28.2308 132.41 27.7726C132.795 27.1929 132.268 26.9479 130.662 25.9909C126.424 23.4627 127.038 19.4801 127.726 18.8587C128.618 18.0539 129.678 19.7345 130.229 18.976C130.781 18.2171 127.648 13.9322 134.263 9.06031C134.263 9.06031 135.048 11.5729 137.458 12.433C140.017 13.3468 135.865 16.7888 136.768 19.0991C137.277 20.397 138.311 18.7686 139.258 17.8584C140.069 17.0765 141.191 15.0779 142.599 15.5148C143.839 15.8995 143.408 17.5112 143.686 18.3672C144.047 19.4806 144.942 19.1314 145.426 20.102C145.893 21.034 145.561 21.425 144.147 22.6354C141.564 24.8545 142.796 27.3227 143.527 26.8369C144.615 26.1123 144.411 25.3158 146.177 25.2188C147.503 25.1448 147.959 26.4412 147.605 27.3769C147.248 28.3121 147.039 28.6108 147.254 29.2827C147.8 31.0029 147.479 30.4764 146.579 32.0403C145.809 33.3747 145.836 34.631 146.737 36.7641C149.995 38.4077 149.601 35.2758 152.501 35.9326C158.998 37.4042 155.468 35.3035 156.573 34.2333C157.577 33.2595 158.164 34.1212 159.517 33.5838C161.521 32.3358 161.713 31.9131 164.352 33.9643C166.473 30.5995 167.707 26.6216 167.707 22.3591C167.707 18.6518 166.775 15.1603 165.136 12.0962C164.216 11.2465 163.458 10.7169 163.678 12.0848C163.803 12.839 167.155 19.0448 162.124 23.8411L162.113 23.7097C162.057 23.1431 161.713 20.9157 159.745 20.6222C157.349 20.2662 159.34 16.6308 158.174 14.932C156.531 12.543 156.106 15.8244 155.529 16.5427C154.939 17.2777 152.501 18.6445 152.501 16.7585C152.501 14.6119 150.984 14.345 150.402 13.6475C149.843 12.9761 150.073 12.6206 151.118 11.4582C153.033 9.33659 151.656 8.00316 151.096 8.49212C150.256 9.21982 150.456 9.37829 148.919 9.70669C147.768 9.95534 147.822 8.00003 147.961 7.20457C148.756 2.66946 145.719 0.946642 141.367 0.859589C131.218 2.83523 123.564 11.7084 123.564 22.3607C123.564 34.4647 133.444 44.2762 145.634 44.2762C148.642 44.2762 151.511 43.6752 154.124 42.5925C151.046 43.3024 149.314 42.14 149.145 41.6938C148.813 40.817 151.397 41.4149 148.962 40.1706C147.491 39.42 146.862 37.927 146.705 37.2754L146.202 36.9981" fill="black"/>
<path fill-rule="evenodd" clip-rule="evenodd" d="M147.445 37.6675C147.445 37.6675 132.937 32.0742 132.433 17.8996C132.433 17.8996 133.835 28.676 147.445 37.6664V37.6675ZM147.337 0.479584C147.752 0.524414 150.876 0.937264 154.175 3.02863C155.401 4.16918 157.138 6.96791 154.457 12.7046C154.457 12.7046 157.892 8.10169 157.024 5.30765C159.905 8.17623 162.327 12.7254 162.418 19.9336C162.418 19.9336 165.62 1.87452 147.337 0.479584ZM161.838 36.2996C160.732 36.9669 158.936 38.5385 156.002 37.62C156.002 37.62 157.15 38.4958 158.997 38.4488C156.641 39.6561 154.088 39.9449 150.046 38.9409C150.046 38.9409 158.229 43.7336 163.946 34.5612C163.946 34.5612 162.527 35.8852 161.839 36.2991" fill="black"/>
<path fill-rule="evenodd" clip-rule="evenodd" d="M7.32906 16.9457C7.32906 18.5251 7.63146 18.963 8.76126 18.963V19.354H4.07301V18.963C5.02011 18.963 5.57451 18.6867 5.57451 16.8768V6.86H3.65773C1.88166 6.86 1.07316 7.36199 0.958181 8.73763H0.566006V5.73665H0.958181C1.14193 5.89616 1.35193 6.01032 1.67533 6.10154C1.97458 6.17452 2.38933 6.21622 2.94583 6.21622H9.86953C11.023 6.21622 11.5548 6.07912 11.9695 5.73665H12.3843V8.73763H12.1323C11.875 7.63931 11.4393 6.86 9.33928 6.86H7.32906V16.9457ZM21.6001 17.4023C21.6001 18.6414 21.8301 18.9625 22.9142 18.9625V19.3534H18.667V18.9625C19.7784 18.9625 20.0304 18.7091 20.0304 17.6556V13.646C20.0304 12.5669 19.3846 11.8788 18.3934 11.8788C17.4684 11.8788 16.7985 12.3146 16.0136 13.4156V17.8641C16.0136 18.7086 16.3585 18.9625 17.3734 18.9625V19.3534H12.9896V18.9625C14.2129 18.939 14.446 18.7091 14.446 17.4023V6.83602C14.446 5.782 14.143 5.62144 12.9896 5.62144V5.23257L15.6214 4.95629H16.0136V12.6357C17.0521 11.4431 17.8144 11.0094 18.8738 11.0094C20.2388 11.0094 21.6001 11.9028 21.6001 13.8269V17.4028V17.4023ZM29.8757 14.0119C29.945 12.2229 28.7207 11.49 27.6812 11.49C26.3204 11.49 25.5119 12.4981 25.4185 14.0119H29.8757ZM25.4185 14.4013C25.3749 18.045 27.5657 18.9625 28.6745 18.9625C29.8085 18.9625 30.3829 18.5731 31.562 17.2662V17.8641C30.5687 19.1236 29.6195 19.6021 28.1915 19.6021C25.6285 19.6021 23.7799 17.8402 23.7799 15.385C23.7799 12.936 25.5807 11.0099 27.8881 11.0099C29.7823 11.0099 31.5368 12.5226 31.4229 14.4018H25.419L25.4185 14.4013ZM52.6523 24.279H52.0307L37.2467 6.18546H37.1732V20.7916C37.1732 22.8986 38.0158 23.6613 39.919 23.6613V24.2795H33.5518V23.6607C35.3053 23.6607 36.1474 23.1171 36.1474 20.1004V7.93018C36.1474 5.60528 35.5252 4.29688 33.0373 4.07794V3.46127H38.4154L51.5183 19.6646H51.5908V7.49283C51.5908 4.76759 50.8584 4.07742 49.0303 4.07742V3.46127H55.3618V4.07742C53.3133 4.07742 52.6528 4.91355 52.6528 7.34687V24.279H52.6523ZM71.9986 11.3805H76.4989V12.324H71.9981V20.6097C71.9981 22.3899 72.9126 23.2985 74.3395 23.2985C75.2924 23.2985 75.9881 22.9336 76.7546 22.063L77.1577 22.5343C76.0227 23.9511 74.707 24.6767 73.2423 24.6767C71.0478 24.6767 69.5096 23.152 69.5096 20.935V12.3235H67.0589V11.7084C68.8145 10.8363 70.2771 9.27246 71.377 7.056H71.9975V11.38L71.9986 11.3805ZM91.2503 21.8441C91.2503 23.262 91.7265 23.6613 93.4816 23.6613V24.2795L88.7629 24.5334V22.172H88.6904C87.4084 23.8432 85.909 24.6778 84.1518 24.6778C81.5888 24.6778 79.9077 22.7532 79.9077 20.3553V13.7784C79.9077 12.543 79.4683 12.0707 77.6009 12.0707V11.4524L81.7736 11.0531H82.3957V20.2453C82.3957 22.0625 83.5664 23.1525 85.3231 23.1525C86.5663 23.1525 87.7013 22.4623 88.7629 21.045V14.1057C88.7629 12.3245 88.4689 12.1077 86.2376 12.0707V11.4524L90.6287 11.0531H91.2509V21.8436L91.2503 21.8441ZM99.2912 21.8441C99.2912 23.262 99.7296 23.6613 101.449 23.6613V24.2795H94.6067V23.6607C96.5838 23.6607 96.8038 23.1525 96.8038 21.1909V14.1787C96.8038 12.2891 96.326 12.0707 94.1315 12.0707V11.4524L98.6691 11.0531H99.2918V13.8508C101.707 11.7814 102.841 11.0537 103.72 11.0537C104.452 11.0537 105.44 11.4905 106.099 12.0712L105.11 14.3596C104.05 13.7789 102.913 13.2336 102.036 13.2336C101.194 13.2336 100.461 13.67 99.2907 14.7964V21.8441H99.2912ZM115.961 15.814C116.071 12.9793 114.131 11.8158 112.483 11.8158C110.326 11.8158 109.044 13.4161 108.898 15.814H115.961ZM108.898 16.4317C108.825 22.2085 112.3 23.6618 114.059 23.6618C115.851 23.6618 116.764 23.043 118.632 20.972V21.9181C117.059 23.9162 115.557 24.6772 113.289 24.6772C109.226 24.6772 106.298 21.8811 106.298 17.9934C106.298 14.1057 109.153 11.0531 112.814 11.0531C115.814 11.0531 118.594 13.451 118.412 16.4317H108.899H108.898ZM13.607 29.3844C12.8405 26.447 11.2235 25.1672 8.51293 25.1672C4.73083 25.1672 2.70328 28.187 2.70328 32.1867C2.70328 36.8636 5.14138 39.9371 8.67463 39.9371C11.1406 39.9371 12.977 38.7955 14.1556 36.5097L14.5651 36.8902C13.5256 39.3652 11.0319 40.9155 8.01838 40.9155C4.23838 40.9155 0.29248 38.3581 0.29248 33.1641C0.29248 28.2151 3.71758 24.5693 8.40216 24.5693C10.3746 24.5693 11.854 25.2225 12.7843 25.2225C13.197 25.2225 13.4695 25.0578 13.6333 24.7325H14.0727V29.3838H13.6054L13.607 29.3844ZM20.8594 31.1796C18.8066 31.1796 17.5713 32.9744 17.5713 35.7471C17.5713 38.2242 18.6124 40.291 20.8588 40.291C23.1583 40.291 24.1464 38.0881 24.1464 35.7471C24.1464 33.3273 23.1069 31.1796 20.8588 31.1796H20.8594ZM20.8594 40.8352C17.818 40.8352 15.5453 38.6589 15.5453 35.7476C15.5453 32.8118 17.8186 30.6354 20.8594 30.6354C23.9002 30.6354 26.1734 32.8118 26.1734 35.7471C26.1734 38.6589 23.9002 40.8347 20.8594 40.8347V40.8352ZM37.4289 38.4426C37.4289 39.6916 37.7029 40.0731 39.0721 40.0731V40.5371H33.8956V40.0731C35.2097 40.0731 35.5667 39.7739 35.5667 38.8773V33.8449C35.5667 32.2967 34.4422 31.6436 33.4021 31.6436C32.443 31.6436 31.594 32.241 30.6354 33.5191V38.2252C30.6354 39.6926 30.826 40.0742 32.2786 40.0742V40.5381H27.1562V40.0742C28.4425 40.0742 28.7711 39.9647 28.7711 38.2252V32.8118C28.7711 31.643 28.4703 31.3975 27.1562 31.3975V30.9357L30.1681 30.6354H30.6354V32.5641C31.7851 31.261 32.9086 30.6354 34.1408 30.6354C35.7562 30.6354 37.4289 31.7791 37.4289 34.0894V38.4421V38.4426ZM45.4467 33.5994C45.2551 31.9954 44.1867 31.1796 43.0354 31.1796C42.0767 31.1796 41.4184 31.6967 41.4184 32.4844C41.4184 34.9328 46.5135 34.2791 46.5135 37.8692C46.5135 39.4747 45.118 40.8352 43.4464 40.8352C42.3775 40.8352 41.4472 40.1263 40.9805 40.1263C40.6256 40.1263 40.3768 40.4271 40.3495 40.78H39.8848V37.4892H40.35C40.7632 39.5023 42.2699 40.2915 43.4737 40.2915C44.4345 40.2915 45.1732 39.5826 45.1732 38.6308C45.1732 35.941 40.0219 36.6728 40.0219 33.4102C40.0219 31.9141 41.3659 30.6359 42.9808 30.6359C43.9966 30.6359 44.2975 31.0999 44.9548 31.0999C45.2005 31.0999 45.3916 30.9633 45.5286 30.6359H45.9948V33.5999H45.4472L45.4467 33.5994ZM54.7807 34.1973C54.862 32.0757 53.4104 31.2078 52.1777 31.2078C50.5607 31.2078 49.6036 32.4036 49.4918 34.1973H54.7807ZM49.4918 34.6612C49.4377 38.9847 52.0407 40.0731 53.3548 40.0731C54.6977 40.0731 55.3828 39.6113 56.7799 38.061V38.7663C55.6012 40.2624 54.4777 40.8358 52.7794 40.8358C49.7396 40.8358 47.5472 38.7413 47.5472 35.8294C47.5472 32.9191 49.6829 30.6354 52.4229 30.6354C54.6688 30.6354 56.7526 32.4323 56.6155 34.6607H49.4918V34.6612ZM61.4429 38.7142C61.4429 39.7739 61.771 40.0731 63.0599 40.0731V40.5371H57.9359V40.0731C59.4148 40.0731 59.5792 39.6916 59.5792 38.2242V32.9749C59.5792 31.5607 59.2222 31.3975 57.58 31.3975V30.9357L60.9757 30.6354H61.4429V32.7294C63.2505 31.1796 64.0994 30.6354 64.7578 30.6354C65.3059 30.6354 66.044 30.9628 66.5386 31.3975L65.7983 33.1089C65.003 32.6762 64.154 32.2675 63.4962 32.2675C62.8662 32.2675 62.3186 32.5939 61.4435 33.4368V38.7147L61.4429 38.7142ZM73.0029 38.1955L74.8929 33.3268C75.3601 32.0757 75.3602 31.5075 73.9348 31.3981V30.9357H77.4964V31.3975C76.3729 31.507 76.0999 31.7504 75.6326 32.7831L72.5089 40.7534H72.0453L68.9478 33.1912C68.2905 31.6159 68.0432 31.4512 66.8935 31.3981V30.9357H71.578V31.3975C70.6462 31.4799 70.401 31.9954 70.8388 33.0552L73.0018 38.195L73.0029 38.1955ZM96.8321 38.4426C96.8321 39.6916 97.1078 40.0731 98.4764 40.0731V40.5371H93.2999V40.0731C94.6151 40.0731 94.9705 39.7739 94.9705 38.8773V33.8449C94.9705 32.2967 93.8454 31.6436 92.8054 31.6436C91.8462 31.6436 90.9994 32.241 90.0386 33.5191V38.2252C90.0386 39.6926 90.2313 40.0742 91.684 40.0742V40.5381H86.56V40.0742C87.8483 40.0742 88.177 39.9647 88.177 38.2252V32.8118C88.177 31.643 87.8735 31.3975 86.56 31.3975V30.9357L89.5735 30.6354H90.0386V32.5641C91.19 31.261 92.3129 30.6354 93.5446 30.6354C95.1632 30.6354 96.8321 31.7791 96.8321 34.0894V38.4421V38.4426ZM107.615 34.0341H107.147C106.735 32.2962 105.504 31.1796 103.887 31.1796C101.971 31.1796 100.628 32.8112 100.628 35.1763C100.628 37.815 102.298 40.02 104.271 40.02C105.449 40.02 106.874 39.3944 107.887 38.0063V38.7142C106.847 40.1268 105.367 40.8358 103.615 40.8358C100.737 40.8358 98.7374 38.8487 98.7374 35.9655C98.7374 33.0015 100.984 30.6354 103.75 30.6354C105.203 30.6354 105.997 31.1796 106.491 31.1796C106.735 31.1796 106.984 30.9899 107.148 30.6354H107.615V34.0341H107.615ZM114.572 38.3044L116.272 33.2178C116.656 32.0762 116.574 31.4507 115.506 31.3975V30.9357H118.93V31.3975C117.888 31.3975 117.259 32.0507 116.711 33.6547L112.848 44.9966C112.08 47.2266 110.82 48.5048 109.641 48.5048C109.232 48.5048 108.93 48.3974 108.436 48.0982L109.067 46.439C109.449 46.6021 109.667 46.6558 109.998 46.6558C111.174 46.6558 111.861 45.9755 112.463 44.2892L113.725 40.8071L110.245 32.8383C109.751 31.7228 109.394 31.4246 108.271 31.3975V30.9357H112.928V31.3975C112.188 31.507 111.887 32.0507 112.244 32.8654L114.571 38.3044H114.572ZM62.7943 21.6627C62.2819 22.7522 60.8912 23.2985 60.1236 23.2985C59.062 23.2985 58.147 22.2439 58.147 20.9355C58.147 18.3187 60.3415 18.3578 62.7948 17.3033V21.6627H62.7943ZM65.2775 21.4766L65.2828 15.777C65.2828 12.2896 62.7586 11.0531 60.5971 11.0531C58.2556 11.0531 56.3536 12.617 55.8039 15.0148L56.4638 15.1957C57.0135 13.3431 58.4389 12.4361 59.9036 12.4361C61.7322 12.4361 62.7943 13.7435 62.7943 15.5606V16.5026C60.6733 17.7406 55.6212 17.5941 55.6212 21.2634C55.6212 23.153 57.3043 24.6778 59.3172 24.6778C60.6733 24.6778 61.666 24.1471 62.9481 22.7668L62.9554 22.7615V24.3097H67.5019V23.6842C65.6497 23.6842 65.2775 23.1681 65.2775 21.4771V21.4766ZM82.7138 38.5666C82.3358 39.3746 81.3037 39.7791 80.7335 39.7791C79.9471 39.7791 79.2688 38.9988 79.2688 38.0276C79.2688 36.0885 80.8963 36.1172 82.7143 35.3347V38.5666H82.7138ZM84.5545 38.4269L84.5597 34.202C84.5597 31.6175 82.687 30.7006 81.0853 30.7006C79.3502 30.7006 77.9395 31.8594 77.5321 33.638L78.0224 33.7725C78.4282 32.3984 79.4856 31.7249 80.5713 31.7249C81.9274 31.7249 82.7133 32.6955 82.7133 34.0425V34.741C81.1409 35.6584 77.3961 35.5505 77.3961 38.2711C77.3961 39.6718 78.6446 40.8019 80.1366 40.8019C81.1409 40.8019 81.878 40.4073 82.8288 39.384L82.8341 39.3809V40.5277H86.2019V40.0627C84.8296 40.0627 84.5534 39.6822 84.5534 38.4269H84.5545Z" fill="black"/>
</svg>
