<svg width="112" height="47" viewBox="0 0 112 47" fill="none" xmlns="http://www.w3.org/2000/svg">
<path d="M50 16C47.5 15.2 45.7 12.9 45.7 10.1C45.7 9.60001 45.8 9.10001 45.9 8.60001L49.9 9.10001C49.9 9.10001 51.4 9.20001 51.4 11.9C51.3 14.6 50 16 50 16Z" fill="white"/>
<path d="M53.6 16C56.1 15.2 57.9 12.9 57.9 10.1C57.9 9.60001 57.8 9.10001 57.7 8.60001L53.7 9.10001C53.7 9.10001 52.2 9.20001 52.2 11.9C52.4 14.6 53.6 16 53.6 16Z" fill="white"/>
<path d="M51.8 5.8C52.3 5.8 52.7 6.2 52.7 6.7C52.7 7.1 52.4 7.4 52.1 7.6C52.1 7.6 52 7.6 52 7.7C52 7.8 52.2 7.8 52.3 7.8L57.6 8.4C56.8 5.9 54.5 4 51.7 4C48.9 4 46.6 5.8 45.8 8.4L51.1 7.8C51.2 7.8 51.4 7.8 51.4 7.7C51.4 7.6 51.4 7.6 51.3 7.6C51 7.4 50.7 7.1 50.7 6.7C50.9 6.2 51.3 5.8 51.8 5.8Z" fill="white"/>
<path d="M54.3 20.3L54.7 20.1C54.7 20.1 53 17.8 49.2 17.8C47.2 17.8 46.2 18.6 44.8 18.6C44.8 18.6 44.2 18.7 43.7 18.3C43.7 18.3 44.3 19.3 46.7 19.3C48.4 19.3 49.7 18.3 50.9 18.3C52.5 18.2 53.7 19.7 54.3 20.3Z" fill="white"/>
<path d="M48.9 20.3L48.5 20.1C48.5 20.1 50.2 17.8 54 17.8C56 17.8 57 18.6 58.4 18.6C58.4 18.6 59 18.7 59.5 18.3C59.5 18.3 58.9 19.3 56.5 19.3C54.8 19.3 53.5 18.3 52.3 18.3C50.7 18.2 49.4 19.7 48.9 20.3Z" fill="white"/>
<path d="M47.1 17.6C47 17.8 46.3 17.6 45.8 17.7C45.3 17.9 42.3 18.2 41 15.2C41 15.2 42.2 16.5 43.2 16.6C44.2 16.7 45.2 16.9 46.1 17.4H46.3C46.3 17.4 46.3 17.3 46.2 17.3C46.1 17.2 45.2 16.9 44.7 15.5C44.5 14.8 44.5 14.2 44.4 13.8C44.4 13.8 45.4 14.9 45.8 15.6C46.2 16.3 46.3 17.1 47.1 17.6Z" fill="white"/>
<path d="M44.1 16.1C44 16.2 43.8 16.1 43.8 16C43.7 16 43.3 15.7 42.4 15.5C41.6 15.2 40 13.9 40.2 11.7C40.2 11.7 40.4 12.5 41.1 13.1C41.7 13.7 42 13.7 42.3 14.2C42.6 14.7 43.5 15.7 43.6 15.7V15.6C43.5 15.5 43.3 15 43.2 14.8C43.1 14.6 42.6 13.3 43.3 11.7C43.3 11.7 44 12.9 43.9 14.1C43.9 15.3 43.8 15 44.1 16C44 15.8 44.1 16 44.1 16.1Z" fill="white"/>
<path d="M42.2 13.2C42.2 13.2 42 13 41.8 12.7C41.7 12.5 40.7 11.5 40.6 11.2C40.5 11 39.4 9.69999 40.2 7.79999C40.2 7.79999 40.3 7.79999 40.3 8.19999C40.3 8.59999 40.7 9.69999 41.1 10.1C41.4 10.5 41.7 11.2 41.8 12C41.8 12 41.8 12.1 41.9 12.1C42 12.2 42 12 42 12C42 12 42 11.3 42 10.9C42 10.5 42.2 9.69999 42.6 9.19999C42.6 9.19999 42.8 8.99999 42.9 8.69999C42.9 8.69999 43 8.49999 43.1 8.39999C43.1 8.39999 43.2 9.69999 42.7 10.9C42.3 12.1 42.1 12.3 42.2 13V13.2Z" fill="white"/>
<path d="M41.5 9.60001C41.5 9.60001 41.4 9.40001 41.4 9.30001C41.4 9.20001 41.2 8.40001 41.2 8.30001C41.1 8.10001 40.8 7.40001 40.8 6.60001C40.8 5.80001 41.2 4.60001 42 3.70001C42 3.70001 42 4.00001 41.7 4.60001C41.4 5.20001 41.6 5.80001 41.6 5.90001C41.6 6.00001 41.7 6.70001 41.7 7.00001C41.7 7.30001 41.6 8.10001 41.6 8.30001V8.40001L41.7 8.30001C41.7 8.30001 41.7 7.60001 42.3 7.00001C42.8 6.40001 43.8 6.00001 43.9 5.70001C43.9 5.70001 43.8 6.70001 42.7 7.80001C41.7 8.80001 42 8.30001 41.7 9.20001C41.7 9.20001 41.5 9.50001 41.5 9.60001Z" fill="white"/>
<path d="M42.1 6.20001C42.1 6.20001 42.1 6.10001 42.2 5.80001C42.4 5.50001 42.2 4.90001 42.4 4.20001C42.6 3.40001 43 2.10001 44.6 1.20001C44.6 1.20001 44.4 1.30001 44.4 1.50001C44.4 1.70001 43.9 2.40001 43.8 3.00001C43.7 3.60001 43.1 4.50001 42.9 4.70001C42.7 4.90001 42.8 4.90001 42.8 4.90001C42.8 4.90001 42.9 4.90001 43 4.70001C43.1 4.50001 43.6 4.00001 44.2 3.80001C44.8 3.70001 45.7 3.40001 45.7 3.30001C45.7 3.30001 44.7 4.30001 43.8 4.80001C42.9 5.30001 42.8 5.20001 42.2 5.90001C42.3 6.00001 42.1 6.20001 42.1 6.20001Z" fill="white"/>
<path d="M44.2 3.2C44.2 3.2 44.2 3.1 44.4 3C44.6 2.9 44.7 2.4 45 1.9C45.3 1.4 46 0.3 47.7 0C47.7 0 47.2 0.4 47.1 0.5C47 0.6 46.5 1.3 46.3 1.5C46.1 1.7 45.4 2.2 45.2 2.3L45.1 2.4H45.2C45.2 2.4 45.9 2 46.6 2C47.3 2 48.1 2 48.2 2C48.2 2 47.5 2.5 45.9 2.8C44.3 3.1 44.6 3.1 44.2 3.2C44.3 3.2 44.3 3.3 44.2 3.2Z" fill="white"/>
<path d="M47.1 1.4C47.1 1.4 47.1 1.3 47.4 1.2C47.7 1.1 47.6 0.9 48.4 0.5C49.2 0 50 -0.1 50.9 0.2C50.9 0.2 50.5 0.2 50.5 0.3C50.5 0.4 49.9 0.5 49.7 0.6C49.5 0.7 48.7 1.1 48.3 1.1C47.9 1.2 48.1 1.2 48.1 1.2H48.2C48.2 1.2 49.1 1.1 49.6 1.3C50.1 1.5 50.1 1.5 50.3 1.6C50.5 1.7 50.7 1.7 50.8 1.8C50.8 1.8 50.3 1.8 50 1.8C49.7 1.8 48.9 1.7 48.5 1.5C48.1 1.3 47.7 1.2 47.5 1.3C47.3 1.4 47.2 1.4 47.1 1.4Z" fill="white"/>
<path d="M50.3 0.999991C50.3 0.999991 50.3 0.999991 50.6 0.899991C50.9 0.799991 50.9 0.699991 51.4 0.599991C51.9 0.499991 52.8 0.399991 53.5 0.899991C53.5 0.899991 53 0.899991 52.9 0.899991C52.8 0.899991 52 0.999991 51.8 0.999991C51.6 0.999991 51.2 0.899991 51.1 0.999991C51 1.09999 51.5 1.19999 51.5 1.19999C51.5 1.19999 51.9 1.19999 52.3 1.59999C52.7 1.99999 52.9 2.19999 53 2.19999C53 2.19999 51.9 1.89999 51.6 1.79999C51.3 1.69999 50.8 1.19999 50.7 1.09999C50.6 1.09999 50.3 0.999991 50.3 0.999991Z" fill="white"/>
<path d="M52.9 1.39999C52.9 1.39999 53.6 1.39999 54.1 1.69999C54.6 1.99999 55 2.49999 55.1 2.69999C55.1 2.69999 54.8 2.49999 54.6 2.39999C54.4 2.29999 53.9 1.99999 53.7 1.99999C53.7 1.99999 53 1.49999 52.9 1.39999Z" fill="white"/>
<path d="M56.3 17.7C56.3 17.7 56.4 17.6 56.7 17.3C57 17 57.1 16.6 57.5 15.9C57.9 15.2 58.2 14.8 58.9 14.1C58.9 14.1 58.8 14.6 58.8 14.8C58.8 15 58.7 15.8 58.2 16.3C57.8 16.8 57.7 16.9 57.2 17.2C57.2 17.2 57 17.3 57 17.4C57 17.5 57.3 17.4 57.3 17.4C57.3 17.4 57.7 17.3 57.8 17.2C57.9 17.1 58.4 16.9 58.6 16.8C58.8 16.7 59 16.6 59.4 16.5C59.9 16.4 61.5 16 62.1 14.9C62.1 14.9 61.9 15.5 61.7 15.8C61.5 16.1 60.1 17.8 58.3 17.8C58.3 17.8 57.6 17.7 57.2 17.7C56.8 17.6 56.7 17.6 56.6 17.6C56.7 17.7 56.3 17.7 56.3 17.7Z" fill="white"/>
<path d="M60.4 11.4C60.4 11.4 59.7 12.5 59.5 14.1C59.3 15.7 59.6 15.2 59.4 15.9L59.3 16.1C59.3 16.1 59.5 16 60 15.7C60.5 15.4 61 15.5 62 14.5C63 13.5 63.3 11.5 63.3 11.3C63.3 11.3 63.1 11.5 63.1 11.7C63.1 11.9 62.9 12.2 62.8 12.2C62.8 12.2 61.6 13.5 61.5 13.6C61.4 13.7 60.7 14.5 60.5 14.8C60.4 15 59.9 15.5 59.9 15.4C59.9 15.4 59.9 15.3 59.9 15.2C59.9 15.1 60.3 14.7 60.4 14.2C60.5 13.7 60.6 13.4 60.6 13.1C60.6 12.8 60.4 11.6 60.4 11.4Z" fill="white"/>
<path d="M61.4 12.9C61.4 12.9 61.3 12.7 61.4 12.6C61.4 12.5 61.5 12 61.3 11.6C61.1 11.2 60.7 9.90001 60.7 9.10001C60.7 8.30001 60.8 8.20001 60.8 8.20001C60.8 8.20001 61 8.90001 61 9.00001C61.1 9.10001 61.7 10.3 61.7 11C61.6 11.6 61.6 11.9 61.6 11.9C61.6 11.9 61.7 11.8 61.7 11.7C61.7 11.6 61.8 11.2 62 10.6C62.2 10.1 63.1 8.90001 63.3 8.10001C63.3 8.10001 63.6 9.50001 62.8 10.7C62 12 62 11.7 61.7 12.3C61.5 12.8 61.4 12.9 61.4 12.9Z" fill="white"/>
<path d="M62.1 9.29999C62 9.29999 62.1 8.79999 61.9 8.59999C61.7 8.39999 60.6 7.09999 60.4 5.69999C60.4 5.69999 61.1 6.39999 61.3 6.49999C61.4 6.59999 61.9 7.09999 62.1 7.49999C62.2 7.89999 62.2 8.29999 62.3 8.29999C62.4 8.29999 62.4 7.79999 62.4 7.79999C62.4 7.79999 62.4 6.79999 62.5 6.39999C62.6 5.89999 62.8 5.19999 62.7 4.79999C62.7 4.79999 63.1 5.49999 63.1 6.49999C63.1 7.49999 62.7 8.29999 62.6 8.39999C62.5 8.49999 62.4 8.99999 62.4 9.09999C62.2 9.29999 62.1 9.29999 62.1 9.29999Z" fill="white"/>
<path d="M60.7 2.29999C60.7 2.29999 62.2 3.19999 62 6.19999C62 6.19999 62 6.29999 61.9 6.19999C61.8 6.09999 61.5 5.59999 61.3 5.59999C61.2 5.49999 59.8 4.69999 59.2 3.39999C59.2 3.39999 59.3 3.39999 59.4 3.49999C59.5 3.59999 59.9 3.79999 60 3.89999C60.1 3.99999 60.6 3.99999 61 4.39999C61.4 4.79999 61.5 5.09999 61.6 5.29999C61.6 5.29999 61.7 5.39999 61.6 5.19999C61.5 4.99999 61.5 4.79999 61.3 4.59999C61.2 4.19999 61 3.69999 61 3.29999C60.9 2.99999 60.8 2.49999 60.7 2.29999Z" fill="white"/>
<path d="M60.4 3.29999C60.4 3.29999 60.4 3.09999 60.3 2.79999C60.2 2.49999 60.3 2.19999 59.8 1.49999C59.5 1.09999 58.6 0.799988 58.6 0.799988C58.6 0.799988 58.9 1.19999 59 1.39999C59.2 1.59999 59.2 1.79999 59.3 1.89999C59.4 1.99999 59.7 2.29999 59.8 2.49999C59.8 2.49999 59.9 2.59999 59.9 2.69999C59.9 2.79999 59.8 2.69999 59.7 2.59999C59.7 2.59999 59.1 2.09999 58.8 2.09999C58.5 2.09999 57.8 1.99999 57.6 1.89999C57.6 1.89999 58.4 2.59999 59.2 2.79999C60.1 2.89999 60.4 3.29999 60.4 3.29999Z" fill="white"/>
<path d="M58.6 1.49999C58.6 1.49999 57.8 0.399988 56.4 0.499988C56.4 0.499988 56.5 0.599988 56.6 0.599988C56.7 0.599988 57 0.899988 57.2 0.999988C57.4 0.999988 57.7 1.29999 58.6 1.49999Z" fill="white"/>
<path d="M15.4 0V13.3C15.4 14.5 15.2 15.5 14.8 16.4C14.4 17.3 13.9 18 13.2 18.6C12.5 19.2 11.7 19.6 10.8 19.9C9.9 20.2 8.8 20.4 7.7 20.4C6.6 20.4 5.6 20.2 4.6 19.9C3.6 19.6 2.8 19.1 2.2 18.6C1.6 18.1 1 17.2 0.6 16.3C0.2 15.4 0 14.4 0 13.3V0H4.1V13.3C4.1 14.6 4.4 15.6 5 16.2C5.6 16.8 6.6 17 7.7 17C8.8 17 9.7 16.7 10.3 16.1C10.9 15.5 11.2 14.5 11.2 13.2V0H15.4Z" fill="white"/>
<path d="M35.1 20.1H30.9L22.9 6.9V20.1H18.8V0H22.9L31 13.2V0H35.1V20.1Z" fill="white"/>
<path d="M3 33C2.1 33 1.4 32.7 0.9 32.2C0.3 31.7 0 31 0 30.1V29.9C0 29.3 0.1 28.7 0.4 28.3C0.7 27.9 0.9 27.5 1.4 27.2C1.8 26.9 2.3 26.8 2.8 26.8C3.6 26.8 4.3 27.1 4.7 27.6C5.1 28.1 5.4 28.9 5.4 29.8V30.5H1.6C1.6 30.9 1.8 31.2 2.1 31.5C2.4 31.7 2.7 31.9 3.1 31.9C3.7 31.9 4.2 31.7 4.5 31.2L5.3 32.1C5.1 32.4 4.7 32.7 4.3 32.9C3.9 32.9 3.5 33 3 33ZM2.8 28.1C2.5 28.1 2.2 28.2 2 28.4C1.8 28.6 1.7 28.9 1.6 29.3H3.8V29.2C3.8 28.8 3.7 28.6 3.5 28.4C3.4 28.2 3.1 28.1 2.8 28.1Z" fill="white"/>
<path d="M7.79999 26.9V27.6C8.19999 27.1 8.79999 26.8 9.49999 26.8C10.1 26.8 10.6 27 10.9 27.4C11.2 27.8 11.4 28.3 11.4 29.1V33H9.89999V29.1C9.89999 28.8 9.79999 28.5 9.69999 28.4C9.59999 28.3 9.29999 28.2 8.99999 28.2C8.49999 28.2 8.19999 28.4 7.99999 28.8V33.1H6.29999V27.1L7.79999 26.9Z" fill="white"/>
<path d="M14.9 31L16 26.9H17.7L15.7 32.9H14.2L12.2 26.9H13.8L14.9 31Z" fill="white"/>
<path d="M18.4 25.3C18.4 25.1 18.5 24.9 18.6 24.7C18.7 24.5 19 24.5 19.2 24.5C19.5 24.5 19.7 24.6 19.8 24.7C20 24.9 20 25.1 20 25.3C20 25.5 19.9 25.8 19.8 25.9C19.6 26.1 19.4 26.1 19.2 26.1C18.9 26.1 18.7 26 18.6 25.9C18.5 25.8 18.4 25.6 18.4 25.3ZM20.1 32.9H18.5V26.9H20.1V32.9Z" fill="white"/>
<path d="M24.8 28.4C24.6 28.4 24.4 28.4 24.2 28.4C23.6 28.4 23.2 28.6 23 29V32.9H21.4V26.9H23V27.6C23.3 27.1 23.8 26.8 24.3 26.8C24.5 26.8 24.6 26.8 24.8 26.9V28.4Z" fill="white"/>
<path d="M25.2 29.9C25.2 29.3 25.3 28.8 25.5 28.3C25.7 27.8 26 27.5 26.5 27.2C26.9 26.9 27.4 26.8 28 26.8C28.8 26.8 29.5 27 30 27.6C30.5 28.1 30.8 28.8 30.9 29.6V30C30.9 30.9 30.7 31.7 30.1 32.2C29.6 32.8 28.9 33 28.1 33C27.3 33 26.6 32.7 26.1 32.2C25.5 31.6 25.2 30.9 25.2 29.9ZM26.8 30C26.8 30.6 26.9 31 27.1 31.3C27.3 31.6 27.6 31.8 28 31.8C28.4 31.8 28.7 31.6 28.9 31.3C29.1 31 29.2 30.5 29.2 29.9C29.2 29.3 29.1 28.9 28.9 28.6C28.7 28.3 28.4 28.1 28 28.1C27.6 28.1 27.3 28.3 27.1 28.6C26.9 28.9 26.8 29.3 26.8 30Z" fill="white"/>
<path d="M33.3 26.9V27.6C33.7 27.1 34.3 26.8 35 26.8C35.6 26.8 36.1 27 36.4 27.4C36.7 27.8 36.9 28.3 36.9 29.1V33H35.3V29.1C35.3 28.8 35.2 28.5 35.1 28.4C35 28.3 34.7 28.2 34.4 28.2C33.9 28.2 33.6 28.4 33.4 28.8V33.1H31.8V27.1L33.3 26.9Z" fill="white"/>
<path d="M39.7 26.9V27.6C40.1 27.1 40.7 26.8 41.4 26.8C42.2 26.8 42.7 27.1 43 27.7C43.4 27.1 44 26.8 44.8 26.8C45.4 26.8 45.9 27 46.2 27.4C46.5 27.8 46.7 28.4 46.7 29.1V33H45.1V29.2C45.1 28.9 45 28.6 44.9 28.4C44.8 28.2 44.5 28.2 44.2 28.2C43.7 28.2 43.4 28.4 43.2 28.9V33H41.6V29.2C41.6 28.9 41.5 28.6 41.4 28.4C41.3 28.2 41 28.2 40.7 28.2C40.2 28.2 39.9 28.4 39.7 28.8V33.1H38.1V27.1C38.2 26.9 39.7 26.9 39.7 26.9Z" fill="white"/>
<path d="M50.7 33C49.8 33 49.1 32.7 48.6 32.2C48.1 31.7 47.8 30.9 47.8 30V29.8C47.8 29.2 47.9 28.6 48.2 28.2C48.5 27.8 48.7 27.4 49.2 27.1C49.6 26.8 50.1 26.7 50.6 26.7C51.4 26.7 52.1 27 52.5 27.5C52.9 28 53.2 28.8 53.2 29.7V30.4H49.4C49.4 30.8 49.6 31.1 49.9 31.4C50.2 31.6 50.5 31.8 50.9 31.8C51.5 31.8 52 31.6 52.3 31.1L53.1 32C52.9 32.3 52.5 32.6 52.1 32.8C51.6 32.9 51.2 33 50.7 33ZM50.5 28.1C50.2 28.1 49.9 28.2 49.7 28.4C49.5 28.6 49.4 28.9 49.3 29.3H51.5V29.2C51.5 28.8 51.4 28.6 51.2 28.4C51.1 28.2 50.8 28.1 50.5 28.1Z" fill="white"/>
<path d="M55.5 26.9V27.6C55.9 27.1 56.5 26.8 57.2 26.8C57.8 26.8 58.3 27 58.6 27.4C58.9 27.8 59.1 28.3 59.1 29.1V33H57.5V29.1C57.5 28.8 57.4 28.5 57.3 28.4C57.2 28.3 56.9 28.2 56.6 28.2C56.1 28.2 55.8 28.4 55.6 28.8V33.1H54V27.1L55.5 26.9Z" fill="white"/>
<path d="M62.3 25.4V26.9H63.3V28.1H62.3V31.1C62.3 31.3 62.3 31.5 62.4 31.6C62.5 31.7 62.6 31.7 62.9 31.7C63.1 31.7 63.2 31.7 63.4 31.7V32.9C63.1 33 62.8 33.1 62.4 33.1C61.3 33.1 60.7 32.5 60.7 31.4V28.2H59.8V27H60.7V25.5H62.3V25.4Z" fill="white"/>
<path d="M5.4 40.8C5.4 41.7 5.2 42.5 4.8 43C4.4 43.5 3.8 43.8 3.1 43.8C2.5 43.8 2 43.6 1.6 43.2V46.1H0V37.7H1.5V38.3C1.9 37.8 2.4 37.6 3 37.6C3.7 37.6 4.3 37.9 4.7 38.4C5.1 39 5.4 39.8 5.4 40.8ZM3.8 40.7C3.8 40.1 3.7 39.7 3.5 39.4C3.3 39.1 3 39 2.6 39C2.1 39 1.8 39.2 1.6 39.6V42C1.8 42.4 2.1 42.6 2.6 42.6C3.4 42.6 3.8 42 3.8 40.7Z" fill="white"/>
<path d="M9.69999 39.3C9.49999 39.3 9.29999 39.3 9.09999 39.3C8.49999 39.3 8.09999 39.5 7.89999 39.9V43.9H6.39999V37.9H7.89999V38.6C8.19999 38.1 8.69999 37.8 9.19999 37.8C9.39999 37.8 9.49999 37.8 9.69999 37.9V39.3Z" fill="white"/>
<path d="M10.1 40.7C10.1 40.1 10.2 39.6 10.4 39.1C10.6 38.6 10.9 38.3 11.4 38C11.8 37.7 12.3 37.6 12.9 37.6C13.7 37.6 14.4 37.8 14.9 38.4C15.4 38.9 15.7 39.6 15.8 40.4V40.8C15.8 41.7 15.6 42.5 15 43C14.4 43.5 13.8 43.8 13 43.8C12.2 43.8 11.5 43.5 11 43C10.5 42.5 10.1 41.7 10.1 40.7ZM11.7 40.8C11.7 41.4 11.8 41.8 12 42.1C12.2 42.4 12.5 42.6 12.9 42.6C13.3 42.6 13.6 42.4 13.8 42.1C14 41.8 14.1 41.3 14.1 40.7C14.1 40.1 14 39.7 13.8 39.4C13.6 39.1 13.3 38.9 12.9 38.9C12.5 38.9 12.2 39.1 12 39.4C11.8 39.7 11.7 40.2 11.7 40.8Z" fill="white"/>
<path d="M16.5 40.7C16.5 39.8 16.7 39 17.1 38.5C17.5 37.9 18.1 37.7 18.9 37.7C19.5 37.7 20 37.9 20.4 38.4L20.5 37.8H22V43.6C22 44.1 21.9 44.6 21.6 45C21.3 45.4 21 45.7 20.6 45.9C20.2 46.1 19.7 46.2 19.1 46.2C18.7 46.2 18.2 46.1 17.8 45.9C17.4 45.7 17.1 45.5 16.9 45.2L17.6 44.2C18 44.7 18.5 44.9 19 44.9C19.4 44.9 19.8 44.8 20 44.6C20.2 44.4 20.4 44.1 20.4 43.6V43.3C20 43.7 19.6 43.9 19 43.9C18.3 43.9 17.7 43.6 17.3 43.1C16.9 42.6 16.5 41.7 16.5 40.7ZM18.1 40.8C18.1 41.3 18.2 41.8 18.4 42.1C18.6 42.4 18.9 42.6 19.3 42.6C19.8 42.6 20.1 42.4 20.3 42.1V39.6C20.1 39.2 19.8 39.1 19.3 39.1C18.9 39.1 18.6 39.3 18.4 39.6C18.2 39.7 18.1 40.2 18.1 40.8Z" fill="white"/>
<path d="M26.6 39.3C26.4 39.3 26.2 39.3 26 39.3C25.4 39.3 25 39.5 24.8 39.9V43.9H23.2V37.9H24.7V38.6C25 38.1 25.5 37.8 26 37.8C26.2 37.8 26.3 37.8 26.5 37.9L26.6 39.3Z" fill="white"/>
<path d="M30.6 43.8C30.5 43.6 30.5 43.5 30.4 43.3C30 43.7 29.5 44 28.9 44C28.3 44 27.8 43.8 27.5 43.5C27.2 43.2 27 42.6 27 42.1C27 41.5 27.2 41 27.7 40.6C28.2 40.2 28.8 40.1 29.7 40.1H30.4V39.8C30.4 39.5 30.3 39.3 30.2 39.1C30.1 38.9 29.8 38.9 29.5 38.9C29.2 38.9 29 39 28.9 39.1C28.8 39.2 28.7 39.4 28.7 39.6H27.1C27.1 39.3 27.2 38.9 27.4 38.6C27.6 38.3 27.9 38.1 28.3 37.9C28.7 37.7 29.1 37.7 29.6 37.7C30.3 37.7 30.9 37.9 31.3 38.3C31.7 38.7 31.9 39.2 31.9 39.9V42.5C31.9 43.1 32 43.5 32.1 43.8V43.9L30.6 43.8ZM29.3 42.7C29.5 42.7 29.8 42.7 29.9 42.5C30.1 42.4 30.2 42.3 30.3 42.1V41.1H29.7C28.9 41.1 28.5 41.4 28.4 41.9V42C28.4 42.2 28.5 42.4 28.6 42.5C28.9 42.6 29.1 42.7 29.3 42.7Z" fill="white"/>
<path d="M34.8 37.8V38.5C35.2 38 35.8 37.7 36.5 37.7C37.3 37.7 37.8 38 38.1 38.6C38.5 38 39.1 37.7 39.9 37.7C40.5 37.7 41 37.9 41.3 38.3C41.6 38.7 41.8 39.3 41.8 40V43.9H40.2V40.1C40.2 39.8 40.1 39.5 40 39.3C39.9 39.1 39.6 39 39.3 39C38.8 39 38.5 39.2 38.3 39.7V43.9H36.7V40.1C36.7 39.8 36.6 39.5 36.5 39.3C36.4 39 36.2 39 35.8 39C35.3 39 35 39.2 34.8 39.6V43.9H33.2V37.9C33.3 37.8 34.8 37.8 34.8 37.8Z" fill="white"/>
<path d="M44.5 37.8V38.5C44.9 38 45.5 37.7 46.2 37.7C47 37.7 47.5 38 47.8 38.6C48.2 38 48.8 37.7 49.6 37.7C50.2 37.7 50.7 37.9 51 38.3C51.3 38.7 51.5 39.3 51.5 40V43.9H50V40.1C50 39.8 49.9 39.5 49.8 39.3C49.7 39.1 49.4 39 49.1 39C48.6 39 48.3 39.2 48.1 39.7V43.9H46.5V40.1C46.5 39.8 46.4 39.5 46.3 39.3C46.2 39 45.9 39 45.6 39C45.1 39 44.8 39.2 44.6 39.6V43.9H43V37.9C43.1 37.8 44.5 37.8 44.5 37.8Z" fill="white"/>
<path d="M55.6 43.9C54.7 43.9 54 43.6 53.5 43.1C53 42.6 52.7 41.8 52.7 40.9V40.7C52.7 40.1 52.8 39.5 53.1 39.1C53.4 38.7 53.6 38.3 54.1 38C54.5 37.7 55 37.6 55.5 37.6C56.3 37.6 57 37.9 57.4 38.4C57.8 38.9 58.1 39.7 58.1 40.6V41.3H54.3C54.3 41.7 54.5 42 54.8 42.3C55.1 42.5 55.4 42.7 55.8 42.7C56.4 42.7 56.9 42.5 57.2 42L58 42.9C57.8 43.2 57.4 43.5 57 43.7C56.5 43.8 56 43.9 55.6 43.9ZM55.4 38.9C55.1 38.9 54.8 39 54.6 39.2C54.4 39.4 54.3 39.7 54.2 40.1H56.4V40C56.4 39.6 56.3 39.4 56.1 39.2C56 39 55.7 38.9 55.4 38.9Z" fill="white"/>
<path d="M69.8 0H68.9V43.9H69.8V0Z" fill="white"/>
<path d="M77.4 36.7H76.3V32.3H75.2V31.5L77.4 31.3V36.7Z" fill="white"/>
<path d="M82.8 14.3C82.1 14.3 81.5 14.4 81 14.6C80.4 14.8 80 15 79.6 15.3L80.1 10.6H87.9V7.39999H76.8L75.6 18.6L79.1 18.8C79.3 18.3 79.6 17.9 80 17.6C80.4 17.3 81 17.2 81.8 17.2C82.7 17.2 83.4 17.5 83.9 18.2C84.4 18.9 84.6 19.8 84.6 21C84.6 22.2 84.4 23 83.9 23.7C83.5 24.3 82.8 24.6 81.8 24.6C81 24.6 80.3 24.4 79.8 23.9C79.3 23.4 79 22.8 79 21.9L75.2 22.1V22.2C75.2 23.9 75.8 25.2 77.1 26.2C78.4 27.2 80 27.7 81.8 27.7C84.1 27.7 85.8 27.1 86.9 25.8C88 24.6 88.6 23 88.6 21C88.6 18.9 88.1 17.2 87.1 16.1C86.1 15 84.6 14.3 82.8 14.3Z" fill="white"/>
<path d="M80.7 35.9C81 35.9 81.2 35.8 81.4 35.6C81.6 35.4 81.6 35.1 81.6 34.8V34.5C81.5 34.7 81.3 34.8 81.2 34.8C81 34.9 80.9 34.9 80.7 34.9C80.2 34.9 79.8 34.7 79.5 34.4C79.2 34.1 79.1 33.6 79.1 33.1C79.1 32.6 79.3 32.1 79.6 31.8C79.9 31.5 80.4 31.3 80.9 31.3C81.4 31.3 81.9 31.5 82.2 31.8C82.5 32.2 82.7 32.7 82.7 33.3V34.7C82.7 35.3 82.5 35.8 82.2 36.2C81.9 36.6 81.4 36.7 80.8 36.7C80.6 36.7 80.4 36.7 80.2 36.6C80 36.5 79.8 36.5 79.7 36.4L79.9 35.6C80.1 35.7 80.2 35.7 80.4 35.7C80.4 35.9 80.5 35.9 80.7 35.9ZM80.8 34.2C81 34.2 81.1 34.2 81.3 34.1C81.4 34 81.5 33.9 81.6 33.8V33.2C81.6 32.9 81.5 32.6 81.4 32.4C81.3 32.2 81.1 32.1 80.9 32.1C80.7 32.1 80.5 32.2 80.4 32.4C80.3 32.6 80.2 32.8 80.2 33.1C80.2 33.4 80.3 33.6 80.4 33.8C80.5 34.1 80.6 34.2 80.8 34.2Z" fill="white"/>
<path d="M87.1 32.2C86.5 32.9 86.1 33.5 85.9 34.1C85.7 34.7 85.6 35.3 85.6 36V36.7H84.5V36C84.5 35.3 84.6 34.6 84.9 34C85.2 33.4 85.6 32.8 86.1 32.2H83.4V31.4H87.1V32.2Z" fill="white"/>
<path d="M91.3 36.7H87.7V36L89.3 34.1C89.5 33.8 89.7 33.6 89.8 33.4C89.9 33.2 90 33 90 32.9C90 32.7 90 32.5 89.8 32.4C89.6 32.3 89.5 32.2 89.3 32.2C89.1 32.2 88.9 32.3 88.8 32.4C88.7 32.5 88.6 32.8 88.6 33H87.6C87.6 32.5 87.7 32.1 88.1 31.8C88.4 31.5 88.9 31.3 89.4 31.3C89.9 31.3 90.4 31.4 90.7 31.7C91 32 91.2 32.3 91.2 32.8C91.2 33.1 91.1 33.4 91 33.7C90.9 34 90.5 34.3 90.1 34.8L89.2 35.8H91.4L91.3 36.7Z" fill="white"/>
<path d="M94.4 34H92.2V34.8H94.4V34Z" fill="white"/>
<path d="M98.9 36.7H95.3V36L96.9 34.1C97.1 33.8 97.3 33.6 97.4 33.4C97.5 33.2 97.6 33 97.6 32.9C97.6 32.7 97.6 32.5 97.4 32.4C97.2 32.3 97.1 32.2 96.9 32.2C96.7 32.2 96.5 32.3 96.4 32.4C96.3 32.5 96.2 32.8 96.2 33H95.2C95.2 32.5 95.3 32.1 95.7 31.8C96 31.5 96.5 31.3 97 31.3C97.5 31.3 98 31.4 98.3 31.7C98.6 32 98.8 32.3 98.8 32.8C98.8 33.1 98.7 33.4 98.6 33.7C98.5 34 98.1 34.3 97.7 34.8L96.8 35.8H99L98.9 36.7Z" fill="white"/>
<path d="M103.1 34.8C103.1 35.4 102.9 35.9 102.6 36.3C102.3 36.7 101.8 36.8 101.3 36.8C100.8 36.8 100.3 36.6 100 36.3C99.7 36 99.5 35.5 99.5 34.8V33.3C99.5 32.7 99.7 32.2 100 31.8C100.3 31.4 100.8 31.3 101.3 31.3C101.8 31.3 102.3 31.5 102.6 31.8C102.9 32.2 103.1 32.6 103.1 33.3V34.8ZM102 33.2C102 32.9 101.9 32.6 101.8 32.4C101.7 32.2 101.5 32.1 101.3 32.1C101.1 32.1 100.9 32.2 100.8 32.4C100.7 32.6 100.6 32.9 100.6 33.2V34.9C100.6 35.2 100.7 35.5 100.8 35.7C100.9 35.9 101.1 36 101.3 36C101.5 36 101.7 35.9 101.8 35.7C101.9 35.5 102 35.2 102 34.9V33.2Z" fill="white"/>
<path d="M107.4 36.7H103.8V36L105.4 34.1C105.6 33.8 105.8 33.6 105.9 33.4C106 33.2 106.1 33 106.1 32.9C106.1 32.7 106.1 32.5 105.9 32.4C105.7 32.3 105.6 32.2 105.4 32.2C105.2 32.2 105 32.3 104.9 32.4C104.8 32.5 104.7 32.8 104.7 33H103.7C103.7 32.5 103.8 32.1 104.2 31.8C104.5 31.5 105 31.3 105.5 31.3C106 31.3 106.5 31.4 106.8 31.7C107.1 32 107.3 32.3 107.3 32.8C107.3 33.1 107.2 33.4 107.1 33.7C107 34 106.6 34.3 106.2 34.8L105.3 35.8H107.5L107.4 36.7Z" fill="white"/>
<path d="M111.7 36.7H108.1V36L109.7 34.1C109.9 33.8 110.1 33.6 110.2 33.4C110.3 33.2 110.4 33 110.4 32.9C110.4 32.7 110.4 32.5 110.2 32.4C110 32.3 109.9 32.2 109.7 32.2C109.5 32.2 109.3 32.3 109.2 32.4C109.1 32.5 109 32.8 109 33H108C108 32.5 108.1 32.1 108.5 31.8C108.8 31.5 109.3 31.3 109.8 31.3C110.3 31.3 110.8 31.4 111.1 31.7C111.4 32 111.6 32.3 111.6 32.8C111.6 33.1 111.5 33.4 111.4 33.7C111.3 34 110.9 34.3 110.5 34.8L109.6 35.8H111.8L111.7 36.7Z" fill="white"/>
</svg>
