<svg width="184" height="54" viewBox="0 0 184 54" fill="none" xmlns="http://www.w3.org/2000/svg">
<path d="M94.8737 52.0899L93.1991 49.6528C93.544 49.5382 93.8482 49.3153 94.0714 49.0135C94.2947 48.7118 94.4267 48.3452 94.4499 47.9622C94.4816 47.5113 94.3441 47.0654 94.0674 46.7217C93.7183 46.4469 93.32 46.2506 92.897 46.1449C92.474 46.0392 92.0351 46.0263 91.6072 46.1069H90.0049V46.4912H90.16C90.4391 46.4912 90.5838 46.6778 90.5838 47.062V51.8264C90.5838 52.3314 90.3564 52.3972 90.16 52.3972H90.0049V52.7924H92.2791V52.3972H92.1447C91.8346 52.3972 91.7106 52.2326 91.7106 51.8264V49.8394H91.938L94.0054 52.8254H95.4629V52.4302H95.3285C95.1011 52.4302 95.0081 52.2655 94.8737 52.0899ZM93.2611 47.9622C93.2625 48.126 93.2333 48.2885 93.1752 48.4403C93.1171 48.592 93.0313 48.7301 92.9227 48.8465C92.8141 48.9628 92.6848 49.0552 92.5424 49.1182C92.4 49.1812 92.2473 49.2137 92.093 49.2137H91.7106V46.8424C91.8279 46.7769 91.9622 46.7538 92.093 46.7766C92.2436 46.7707 92.3937 46.7969 92.5345 46.8538C92.6754 46.9106 92.804 46.9968 92.9129 47.1073C93.0218 47.2179 93.1087 47.3505 93.1686 47.4973C93.2284 47.6441 93.2598 47.8022 93.2611 47.9622ZM120.003 46.5241H120.158C120.355 46.5241 120.592 46.59 120.592 47.0949V51.8593C120.592 52.2655 120.458 52.4302 120.158 52.4302H120.003V52.8254H122.277V52.4302H122.153C121.843 52.4302 121.709 52.2655 121.709 51.8593V47.0949C121.709 46.59 121.967 46.5241 122.153 46.5241H122.277V46.1069H120.003V46.5241ZM85.2706 46.1069H80.4845C80.4496 46.1095 80.4168 46.1254 80.3922 46.1516C80.3675 46.1778 80.3525 46.2126 80.3501 46.2496V47.8524H80.6292V47.7536C80.6292 47.1169 80.867 46.8095 81.2598 46.8095H82.2935V51.8703C82.2935 52.2435 82.1488 52.3972 81.8283 52.3972H81.7043V52.7924H83.9578V52.3972H83.844C83.5236 52.3972 83.3996 52.2545 83.3996 51.8703V46.8424H84.4333C84.6917 46.8424 85.0018 46.9412 85.0535 47.7865V47.8853H85.3946L85.3223 46.2826C85.3326 46.2513 85.3332 46.2173 85.3239 46.1856C85.3146 46.154 85.2959 46.1264 85.2706 46.1069ZM65.7231 46.4912H65.9816C66.0232 46.4893 66.0647 46.497 66.1033 46.5138C66.1418 46.5306 66.1765 46.556 66.205 46.5883C66.2334 46.6206 66.255 46.659 66.2682 46.701C66.2814 46.743 66.2859 46.7875 66.2813 46.8315V50.6188C66.2776 50.8318 66.2332 51.0417 66.1506 51.2358C66.0681 51.4299 65.9492 51.6041 65.8013 51.7479C65.6533 51.8917 65.4794 52.002 65.29 52.0721C65.1006 52.1422 64.8998 52.1707 64.6998 52.1557C64.512 52.148 64.3278 52.0991 64.1587 52.0122C63.9895 51.9253 63.8391 51.8023 63.7168 51.6508C63.5946 51.4993 63.5031 51.3226 63.4481 51.1318C63.3931 50.941 63.3758 50.7402 63.3973 50.542V47.04C63.3981 46.9161 63.44 46.7965 63.5156 46.7021C63.5912 46.6078 63.6957 46.5447 63.8108 46.5241H63.9348V46.1069H61.7227V46.4912H61.8157C61.9336 46.505 62.042 46.5661 62.1189 46.662C62.1957 46.7579 62.2352 46.8813 62.2292 47.0071V50.4981C62.2268 50.8238 62.2882 51.1466 62.4096 51.4458C62.531 51.745 62.7096 52.0142 62.9342 52.2361C63.1587 52.4581 63.4243 52.628 63.714 52.7351C64.0037 52.8423 64.3113 52.8842 64.6171 52.8583C64.9079 52.8941 65.2025 52.8638 65.4814 52.7696C65.7604 52.6754 66.0173 52.5194 66.2352 52.3118C66.4531 52.1043 66.6271 51.8499 66.7455 51.5656C66.864 51.2813 66.9242 50.9736 66.9222 50.6627V46.8644C66.9222 46.7107 66.9222 46.5241 67.2013 46.5241H67.4804V46.1069H65.7231V46.4912ZM115.083 50.8823C114.845 51.7276 114.452 52.1118 113.811 52.1118H112.467C112.364 52.1118 112.25 51.9471 112.25 51.8044V47.084C112.25 46.6668 112.395 46.4802 112.705 46.4802H112.84V46.1069H110.607V46.4912H110.741C110.855 46.4912 111.175 46.4912 111.175 47.0949V51.8154C111.175 52.3423 110.927 52.3972 110.741 52.3972H110.607V52.7924H114.979L115.507 50.8164H115.145L115.083 50.8823ZM73.7344 48.5111L73.6207 48.4452C73.4505 48.3594 73.304 48.2285 73.1953 48.065C73.0867 47.9016 73.0196 47.7111 73.0005 47.5121C73.0027 47.3675 73.0412 47.2261 73.1121 47.1026C73.183 46.9791 73.2836 46.8779 73.4036 46.8095C73.5474 46.7129 73.7141 46.6616 73.8843 46.6616C74.0544 46.6616 74.2211 46.7129 74.3649 46.8095C74.5975 46.9671 74.7886 47.1846 74.9206 47.4419C75.0525 47.6991 75.121 47.9876 75.1195 48.2805V48.3903H75.4607V46.1069H75.1195V46.1838C75.1173 46.2244 75.1069 46.264 75.0891 46.2999C75.0713 46.3359 75.0464 46.3674 75.0162 46.3924C74.9689 46.4144 74.9179 46.4258 74.8663 46.4258C74.8147 46.4258 74.7636 46.4144 74.7164 46.3924C74.3941 46.1589 74.0064 46.0491 73.6175 46.0811C73.2285 46.113 72.8614 46.2848 72.5766 46.568C72.3942 46.7667 72.2544 47.005 72.167 47.2665C72.0795 47.528 72.0465 47.8066 72.0701 48.0829C72.0952 48.3498 72.1771 48.607 72.3096 48.8353C72.4421 49.0635 72.6218 49.2567 72.8351 49.4003L73.2899 49.7186C73.7765 49.9987 74.2109 50.3707 74.5717 50.8164C74.7041 51.0046 74.763 51.2398 74.7361 51.473C74.7091 51.7062 74.5984 51.9193 74.427 52.0679C74.2869 52.1978 74.1128 52.279 73.928 52.3006C73.7431 52.3222 73.5565 52.2831 73.3933 52.1887C73.1165 52.027 72.8865 51.7882 72.7281 51.4981C72.5696 51.2079 72.4887 50.8774 72.4939 50.542V50.4981H72.1321V52.8912H72.3596V52.8034C72.365 52.7556 72.3809 52.7099 72.4061 52.6698C72.4312 52.6298 72.4648 52.5966 72.5043 52.5729C72.5379 52.5546 72.5751 52.545 72.6128 52.545C72.6506 52.545 72.6878 52.5546 72.7213 52.5729C73.094 52.7962 73.5133 52.917 73.9411 52.9242C74.3164 52.9219 74.6802 52.7867 74.9748 52.5399C75.2924 52.2783 75.516 51.9089 75.6082 51.4933C75.7003 51.0778 75.6556 50.6413 75.4813 50.2566C75.0339 49.5386 74.4222 48.9531 73.7034 48.555L73.7344 48.5111ZM105.438 51.9362L103.174 46.1069C103.161 46.0719 103.14 46.0407 103.113 46.0159C103.086 45.9912 103.054 45.9734 103.019 45.9642C102.981 45.9583 102.942 45.9646 102.907 45.9821C102.872 45.9997 102.843 46.0278 102.823 46.063L100.673 51.8703C100.569 52.1008 100.404 52.3863 100.166 52.3863H99.9595V52.7815H101.686V52.3863H101.52C101.478 52.3868 101.435 52.376 101.398 52.3549C101.36 52.3339 101.327 52.3031 101.303 52.2655C101.289 52.2388 101.281 52.2085 101.281 52.1777C101.281 52.1468 101.289 52.1166 101.303 52.0899L101.82 50.7176H103.753L104.28 52.0899C104.294 52.1207 104.301 52.1545 104.301 52.1887C104.301 52.2228 104.294 52.2566 104.28 52.2875C104.261 52.3176 104.234 52.3423 104.204 52.3595C104.173 52.3767 104.139 52.3858 104.105 52.3863H103.846V52.7815H106.058V52.3863H105.903C105.697 52.4302 105.552 52.2765 105.438 51.9362ZM103.474 50.0699H102.048L102.751 48.3025L103.474 50.0699ZM132.749 52.4302C132.573 52.4302 132.428 52.2765 132.304 51.9362L130.04 46.1069C130.04 46.1069 130.04 45.9752 129.885 45.9642C129.847 45.9583 129.808 45.9646 129.773 45.9821C129.738 45.9997 129.709 46.0278 129.689 46.063L127.529 51.8703C127.436 52.1008 127.26 52.3863 127.022 52.3863H126.815V52.7815H128.552V52.3863H128.387C128.342 52.3867 128.299 52.376 128.259 52.355C128.22 52.334 128.185 52.3033 128.159 52.2655C128.143 52.2392 128.135 52.2088 128.135 52.1777C128.135 52.1466 128.143 52.1161 128.159 52.0899L128.676 50.7176H130.599L131.136 52.0899C131.153 52.1199 131.161 52.154 131.161 52.1887C131.161 52.2233 131.153 52.2574 131.136 52.2875C131.117 52.3183 131.091 52.3435 131.06 52.3608C131.03 52.378 130.995 52.3868 130.96 52.3863H130.712V52.7815H132.914V52.3863L132.749 52.4302ZM130.34 50.0699H128.903L129.617 48.2586L130.34 50.0699ZM56.5955 51.9362L54.3317 46.1069C54.3182 46.0719 54.2971 46.0407 54.2702 46.0159C54.2432 45.9912 54.2112 45.9734 54.1766 45.9642C54.1766 45.9642 54.0629 45.9642 53.9802 46.063L51.8301 51.8703C51.7267 52.1008 51.5613 52.3863 51.3236 52.3863H51.1169V52.7815H52.8535V52.3863H52.7191C52.6763 52.3868 52.6341 52.376 52.5962 52.3549C52.5583 52.3339 52.526 52.3031 52.502 52.2655C52.4893 52.2382 52.4826 52.2081 52.4826 52.1777C52.4826 52.1472 52.4893 52.1171 52.502 52.0899L53.0292 50.7176H54.8899L55.4171 52.0899C55.4309 52.1207 55.438 52.1545 55.438 52.1887C55.438 52.2228 55.4309 52.2566 55.4171 52.2875C55.3973 52.3176 55.3711 52.3423 55.3405 52.3595C55.3099 52.3767 55.2759 52.3858 55.2413 52.3863H54.9829V52.7815H57.1951V52.3863H57.04C56.8539 52.4302 56.7092 52.2765 56.5748 51.9362H56.5955ZM54.6315 50.0699H53.2049L53.9079 48.3025L54.6315 50.0699ZM151.707 8.62858L152.441 9.13356C153.3 9.61346 154.082 10.2361 154.756 10.9778C154.887 11.1487 154.982 11.3467 155.036 11.5592C155.09 11.7717 155.101 11.9938 155.069 12.2112C155.037 12.4286 154.962 12.6363 154.85 12.821C154.737 13.0057 154.589 13.1632 154.415 13.2832C154.168 13.5243 153.855 13.6772 153.521 13.7205C153.188 13.7638 152.85 13.6954 152.555 13.5247C152.063 13.2441 151.652 12.8278 151.364 12.3196C151.077 11.8115 150.924 11.2303 150.921 10.6375V10.4838H150.342V14.6554H150.921V14.5456C150.941 14.4506 150.98 14.3613 151.036 14.2837C151.091 14.206 151.161 14.1419 151.242 14.0955C151.296 14.0638 151.356 14.0472 151.418 14.0472C151.479 14.0472 151.539 14.0638 151.593 14.0955C152.222 14.4812 152.934 14.6891 153.661 14.6993C154.182 14.7082 154.696 14.5751 155.155 14.3127C155.614 14.0504 156.002 13.6676 156.282 13.2008C156.562 12.734 156.724 12.1988 156.754 11.6463C156.784 11.0938 156.68 10.5424 156.452 10.0447C155.852 8.77129 154.384 7.84915 152.968 7.02581C152.695 6.87501 152.461 6.65658 152.284 6.38903C152.108 6.12148 151.995 5.81272 151.955 5.48892C151.954 5.22586 152.016 4.96686 152.135 4.73637C152.255 4.50588 152.428 4.3115 152.637 4.17158C152.908 4.01296 153.215 3.93814 153.524 3.9556C153.833 3.97307 154.131 4.08212 154.384 4.27038C154.795 4.5436 155.132 4.92447 155.364 5.3763C155.596 5.82813 155.714 6.33571 155.707 6.85017V7.00386H156.245V2.97499H155.728V3.10672C155.727 3.17041 155.712 3.23302 155.686 3.29C155.659 3.34697 155.62 3.39687 155.573 3.43606C155.473 3.46684 155.368 3.47492 155.264 3.45979C155.161 3.44466 155.062 3.40666 154.973 3.34824C153.433 2.56881 152.265 2.67859 151.273 3.68855C150.951 4.02922 150.704 4.4408 150.548 4.89418C150.393 5.34756 150.333 5.83166 150.373 6.31225C150.418 6.78515 150.565 7.24063 150.804 7.64266C151.042 8.04468 151.366 8.38222 151.748 8.62858H151.707ZM138.372 11.2962H137.773V11.406C137.369 12.855 136.667 13.5027 135.529 13.5027H132.966C132.916 13.5028 132.867 13.4922 132.821 13.4716C132.775 13.4511 132.734 13.421 132.699 13.3831C132.664 13.3453 132.637 13.3004 132.619 13.2512C132.601 13.2019 132.592 13.1494 132.594 13.0966V9.05672H135.374C135.85 9.05672 135.984 9.63854 135.984 9.97885V10.1984H136.449V6.74039H135.871V6.97092C135.871 7.32222 135.705 7.88209 135.261 7.88209H132.521V4.0618H135.54C136.263 4.0618 136.77 4.72047 136.822 5.74141V5.8951H137.369L137.152 2.97499H129.565V3.60073H129.772C130.309 3.60073 130.547 3.91908 130.547 4.63264V12.9978C130.547 13.7223 130.32 14.0297 129.772 14.0297H129.565V14.6554H137.359L138.372 11.2962ZM162.602 14.0297H162.396C161.848 14.0297 161.6 13.7113 161.6 12.9978V4.63264C161.6 3.93006 161.848 3.60073 162.396 3.60073H162.602V2.97499H158.653V3.60073H158.902C159.439 3.60073 159.677 3.91908 159.677 4.63264V12.9978C159.677 13.7223 159.439 14.0297 158.902 14.0297H158.653V14.6554H162.602V14.0297ZM65.9919 14.0297H65.7852C65.258 14.0297 65.0202 13.7113 65.0202 12.9978V9.25432H69.0724V12.9978C69.0724 13.7223 68.8346 14.0297 68.2661 14.0297H68.0593V14.6554H72.0288V14.0297H71.7393C71.1915 14.0297 70.964 13.7223 70.964 12.9978V4.63264C70.964 3.91908 71.2018 3.60073 71.7393 3.60073H71.9874V2.97499H68.018V3.60073H68.2247C68.7726 3.60073 69.031 3.93006 69.031 4.63264V8.1236H64.9789V4.63264C64.9789 3.94104 65.227 3.60073 65.7438 3.60073H65.9506V2.97499H62.0225V3.60073H62.2292C62.7874 3.60073 63.0045 3.89713 63.0045 4.63264V12.9978C63.0045 13.7552 62.7978 14.0297 62.2292 14.0297H62.0225V14.6554H65.9506L65.9919 14.0297ZM82.3348 11.2962H81.6629V11.406C81.2804 12.855 80.6292 13.5027 79.4094 13.5027H76.8562C76.8064 13.5028 76.7572 13.4922 76.7113 13.4716C76.6655 13.4511 76.624 13.421 76.5893 13.3831C76.5546 13.3453 76.5274 13.3004 76.5094 13.2512C76.4913 13.2019 76.4827 13.1494 76.484 13.0966V9.05672H79.2854C79.6885 9.05672 79.8746 9.52876 79.8746 9.97885V10.1984H80.4535V6.74039H79.8746V6.97092C79.8746 7.35515 79.6885 7.88209 79.2854 7.88209H76.4944V4.0618H79.5128C80.2467 4.0618 80.7429 4.69851 80.7946 5.74141V5.8951H81.3321L81.1461 2.97499H73.538V3.60073H73.7447C74.2926 3.60073 74.5407 3.93006 74.5407 4.63264V12.9978C74.5407 13.7113 74.2926 14.0297 73.7447 14.0297H73.538V14.6554H81.3528L82.3348 11.2962ZM175.069 4.457L178.17 9.73734V13.0307C178.17 13.7772 177.932 14.1285 177.364 14.1285H177.167V14.7542H181.157V14.0516H180.899C180.31 14.0516 180.082 13.7772 180.082 13.0417V9.6605L182.832 4.39113C182.925 4.17578 183.07 3.98978 183.251 3.85126C183.432 3.71274 183.644 3.62643 183.866 3.60073H184V2.97499H181.219V3.62268H181.622C181.665 3.62873 181.705 3.64739 181.738 3.67652C181.771 3.70566 181.795 3.74407 181.809 3.78735C181.84 3.84204 181.856 3.90466 181.856 3.96849C181.856 4.03231 181.84 4.09493 181.809 4.14962L179.596 8.36511L177.178 4.22646C177.142 4.16138 177.124 4.08755 177.124 4.0124C177.124 3.93724 177.142 3.86341 177.178 3.79833C177.202 3.74927 177.237 3.70746 177.28 3.67676C177.324 3.64606 177.374 3.62747 177.426 3.62268H177.798V2.97499H173.911V3.62268H174.056C174.314 3.62268 174.645 3.72148 175.007 4.457H175.069ZM102.337 3.88615C102.471 4.05082 102.575 4.19353 102.689 4.34722L102.978 4.72047V13.3381C102.973 13.4359 102.949 13.5316 102.908 13.6192C102.867 13.7068 102.809 13.7844 102.738 13.8473C102.667 13.9101 102.585 13.9568 102.496 13.9844C102.408 14.012 102.315 14.0199 102.223 14.0077H101.975V14.6554H105.076V14.0077H104.87C104.477 14.0077 104.074 13.7772 104.074 13.3381V6.23541L110.607 14.6005H111.031V4.30331C111.036 4.20221 111.06 4.10326 111.102 4.01249C111.145 3.92172 111.204 3.84102 111.276 3.7753C111.349 3.70958 111.433 3.66021 111.524 3.6302C111.615 3.60019 111.711 3.59016 111.806 3.60073H112.013V2.97499H108.911V3.60073H109.139C109.233 3.59008 109.327 3.60018 109.417 3.63041C109.507 3.66064 109.59 3.71033 109.661 3.77635C109.732 3.84237 109.789 3.92328 109.829 4.01398C109.869 4.10468 109.891 4.2032 109.893 4.30331V10.3631L104.198 2.97499H101.407V3.60073H101.541C101.944 3.60073 102.182 3.60073 102.358 3.88615H102.337ZM119.362 4.457L123.239 14.4907C123.275 14.5416 123.322 14.5828 123.376 14.6114C123.429 14.6399 123.489 14.655 123.549 14.6554C123.604 14.6526 123.657 14.6336 123.703 14.6007C123.748 14.5678 123.784 14.5221 123.807 14.4688L127.332 4.47895C127.611 3.82028 127.828 3.56779 128.138 3.56779H128.283V2.97499H125.699V3.60073H125.999C126.06 3.60451 126.12 3.62331 126.174 3.65567C126.228 3.68802 126.274 3.73308 126.309 3.78735C126.334 3.84385 126.348 3.90576 126.348 3.96849C126.348 4.03121 126.334 4.09312 126.309 4.14962L123.921 10.8022L121.357 4.14962C121.327 4.09455 121.312 4.03208 121.312 3.96849C121.312 3.90489 121.327 3.84242 121.357 3.78735C121.387 3.73556 121.428 3.69178 121.476 3.65941C121.525 3.62704 121.58 3.60696 121.636 3.60073H122.122V2.97499H118.38V3.60073H118.525C118.845 3.60073 119.083 3.8642 119.331 4.457H119.362ZM89.1263 1.92112V9.69343C89.1263 12.7233 91.2661 14.853 94.2948 14.853C97.3236 14.853 99.36 12.8221 99.36 9.88005V1.59178C99.36 1.00996 99.5978 0.746489 100.094 0.746489H100.662V-4.30434e-06H96.693V0.746489H97.3236C97.7784 0.746489 98.0368 1.04289 98.0368 1.59178V9.88005C98.0367 10.3592 97.9434 10.8331 97.7628 11.2721C97.5822 11.7112 97.3182 12.1059 96.9873 12.4316C96.6564 12.7572 96.2657 13.0068 95.8398 13.1647C95.4138 13.3226 94.9618 13.3853 94.5119 13.3491C92.7546 13.3491 91.5245 11.8561 91.5245 9.71539V1.92112C91.5145 1.77062 91.5339 1.61957 91.5814 1.47738C91.6289 1.33519 91.7034 1.20492 91.8004 1.0947C91.8974 0.984476 92.0148 0.89667 92.1452 0.836759C92.2755 0.776848 92.4161 0.746119 92.5582 0.746489H92.8683V-4.30434e-06H87.8652V0.746489H88.1546C88.2967 0.746119 88.4373 0.776848 88.5676 0.836759C88.698 0.89667 88.8154 0.984476 88.9124 1.0947C89.0094 1.20492 89.0839 1.33519 89.1314 1.47738C89.1789 1.61957 89.1983 1.77062 89.1883 1.92112H89.1263ZM117.233 13.9967H117.047C116.499 13.9967 116.251 13.6784 116.251 12.9648V4.63264C116.251 3.93006 116.509 3.60073 117.047 3.60073H117.233V2.97499H113.325V3.60073H113.511C114.09 3.60073 114.349 3.91908 114.349 4.63264V12.9978C114.349 13.7223 114.101 14.0297 113.511 14.0297H113.325V14.6554H117.233V13.9967ZM172.867 2.97499H164.473C164.419 2.98237 164.369 3.00932 164.331 3.0513C164.294 3.09327 164.271 3.14773 164.267 3.20553L164.173 5.98292H164.69V5.84021C164.752 4.74242 165.124 4.14962 165.827 4.14962H167.729V13.0746C167.729 13.7443 167.481 14.0297 166.892 14.0297H166.706V14.6554H170.613V14.0297H170.427C169.859 14.0297 169.631 13.7662 169.631 13.0746V4.14962H171.523C171.957 4.14962 172.557 4.32527 172.629 5.84021V5.98292H173.167L173.053 3.20553C173.051 3.14701 173.029 3.09137 172.99 3.04896C172.952 3.00655 172.901 2.98026 172.846 2.97499H172.867ZM142.445 4.1606C142.669 4.05457 142.915 4.01292 143.158 4.03984C143.694 4.03949 144.209 4.26023 144.595 4.65551C144.981 5.05078 145.207 5.58969 145.226 6.15857C145.226 6.74087 145.008 7.29932 144.62 7.71107C144.232 8.12282 143.707 8.35413 143.158 8.35413H142.445V4.1606ZM143.479 14.0407H143.272C142.724 14.0407 142.476 13.7223 142.476 13.0087V9.41898H142.92L146.487 14.6554H148.999V14.0297H148.792C148.502 14.0297 148.285 13.7333 148.037 13.4149L145.081 9.10063C145.689 8.9091 146.226 8.52442 146.622 7.9984C147.017 7.47237 147.252 6.83027 147.293 6.15857C147.319 5.7578 147.266 5.35568 147.138 4.97771C147.01 4.59975 146.809 4.2542 146.549 3.963C145.784 3.15064 144.399 2.86521 142.331 2.94206H139.551V3.56779H139.799C140.316 3.56779 140.574 3.90811 140.574 4.66558V13.0197C140.574 13.7333 140.336 14.0516 139.799 14.0516H139.551V14.6774H143.499L143.479 14.0407ZM71.4085 24.6123H63.356V25.249H63.5627C64.1106 25.249 64.3587 25.5784 64.3587 26.3468V34.69C64.3587 35.4035 64.1106 35.7219 63.5627 35.7219H63.356V36.3257H67.3047V35.7219H67.0566C66.5191 35.7219 66.2813 35.4255 66.2813 34.7119V30.738H69.1034C69.6616 30.738 69.6823 31.5174 69.6823 31.6711V31.8357H70.2921V28.3777H69.7236V28.6082C69.7236 28.7619 69.7236 29.5194 69.1447 29.5194H66.2813V25.7101H69.7856C70.4989 25.7101 71.0157 26.3907 71.0778 27.4007V27.5544H71.6049L71.4085 24.6123ZM102.337 35.689H102.13V36.2927H109.945L110.865 32.9225H110.286V33.0323C109.873 34.5034 109.18 35.162 108.043 35.162H105.438C105.384 35.1635 105.329 35.1532 105.278 35.1317C105.227 35.1101 105.181 35.0778 105.143 35.0368C105.104 34.9957 105.074 34.9467 105.053 34.8927C105.033 34.8388 105.023 34.781 105.025 34.7229V30.738H107.847C108.229 30.738 108.457 31.21 108.457 31.6711V31.8357H108.994V28.3667H108.457V28.5973C108.457 29.0474 108.24 29.5194 107.847 29.5194H105.025V25.7101H108.043C108.808 25.7101 109.315 26.3578 109.346 27.3897V27.5434H109.862L109.676 24.6123H102.12V25.249H102.337C102.895 25.249 103.133 25.5674 103.133 26.3468V34.7119C103.133 35.4255 102.895 35.7439 102.337 35.7439V35.689ZM128.593 25.249H128.8C128.992 25.2306 129.182 25.2927 129.331 25.422C129.48 25.5514 129.575 25.7376 129.596 25.9406V32.0224L123.9 24.6782H121.047V25.249H121.192C121.626 25.249 121.853 25.3259 121.978 25.5235L122.133 25.7101C122.308 25.9187 122.453 26.0943 122.67 26.3797V34.9754C122.665 35.0765 122.641 35.1754 122.598 35.2662C122.556 35.357 122.497 35.4377 122.424 35.5034C122.352 35.5691 122.268 35.6185 122.177 35.6485C122.085 35.6785 121.99 35.6885 121.895 35.678H121.667V36.3037H124.769V35.678H124.562C124.467 35.6902 124.37 35.6813 124.279 35.652C124.187 35.6226 124.102 35.5733 124.029 35.5073C123.956 35.4413 123.897 35.3599 123.855 35.2683C123.814 35.1768 123.79 35.077 123.787 34.9754V27.8618L130.247 36.2269V36.2818H130.671V25.9297C130.676 25.831 130.7 25.7345 130.741 25.6458C130.782 25.5572 130.84 25.4782 130.91 25.4137C130.98 25.3491 131.062 25.3003 131.151 25.2701C131.24 25.24 131.333 25.2291 131.426 25.2381H131.643V24.6123H128.542L128.593 25.249ZM149.267 32.9335V33.0433C148.854 34.5473 148.161 35.2389 147.024 35.2389H144.657C144.461 35.2389 144.264 34.9534 144.264 34.679V26.3468C144.264 25.6003 144.523 25.249 145.081 25.249H145.288V24.6233H141.339V25.249H141.566C142.083 25.249 142.342 25.6003 142.342 26.3468V34.6351C142.342 35.5792 141.897 35.7329 141.566 35.7329H141.339V36.3586H148.978L149.888 32.9335H149.267ZM182.181 30.4745C182.181 33.5373 180.568 35.2938 177.777 35.2938C177.488 35.302 177.198 35.265 176.919 35.184V25.6662C177.181 25.5394 177.473 25.5011 177.756 25.5564C178.375 25.4921 178.999 25.5805 179.58 25.8148C180.161 26.049 180.683 26.4227 181.106 26.9067C181.815 27.9193 182.18 29.158 182.139 30.4196L182.181 30.4745ZM182.667 26.4017C182.029 25.7417 181.262 25.2392 180.42 24.9299C179.579 24.6206 178.683 24.5122 177.798 24.6123H173.787V25.249H174.014C174.345 25.249 174.79 25.3698 174.79 26.3468V34.6351C174.79 35.3596 174.552 35.7329 174.014 35.7329H173.787V36.3586H178.645C179.361 36.3573 180.07 36.2044 180.73 35.9088C181.39 35.6132 181.987 35.1808 182.488 34.637C182.988 34.0932 183.382 33.4489 183.645 32.7417C183.908 32.0345 184.036 31.2787 184.021 30.5184C184.081 29.0424 183.616 27.5963 182.718 26.4676L182.667 26.4017ZM153.826 31.5832L155.108 28.2899L156.379 31.5832H153.826ZM159.77 34.8766L155.842 24.7221C155.819 24.6624 155.784 24.6089 155.739 24.5653C155.694 24.5216 155.641 24.489 155.583 24.4696C155.519 24.4622 155.455 24.4737 155.396 24.5027C155.338 24.5317 155.288 24.5773 155.253 24.6343L151.48 34.8217C151.304 35.2498 151.004 35.7548 150.57 35.7548H150.229V36.3806H153.216V35.7548H152.947C152.868 35.7519 152.79 35.7295 152.72 35.6896C152.651 35.6496 152.59 35.593 152.544 35.5243C152.521 35.4728 152.509 35.4166 152.509 35.3596C152.509 35.3027 152.521 35.2464 152.544 35.195L153.475 32.7579H156.886L157.827 35.184C157.855 35.2417 157.869 35.3057 157.869 35.3706C157.869 35.4355 157.855 35.4995 157.827 35.5572C157.79 35.6158 157.741 35.6643 157.684 35.6987C157.626 35.7331 157.562 35.7523 157.496 35.7548H157.082V36.3806H160.907V35.7548H160.649C160.338 35.7548 160.07 35.4694 159.842 34.8766H159.77ZM169.27 25.3259H169.404C169.596 25.3074 169.786 25.3695 169.935 25.4989C170.084 25.6282 170.179 25.8144 170.2 26.0175V32.0992L164.525 24.755H161.724V25.249H161.858C162.282 25.249 162.499 25.3259 162.633 25.5235L162.788 25.7101L163.316 26.3797V34.9754C163.31 35.0765 163.286 35.1754 163.244 35.2662C163.202 35.357 163.142 35.4377 163.07 35.5034C162.997 35.5691 162.913 35.6185 162.822 35.6485C162.731 35.6785 162.635 35.6885 162.54 35.678H162.333V36.3037H165.435V35.678H165.249C165.152 35.6918 165.054 35.6842 164.961 35.6557C164.867 35.6271 164.78 35.5783 164.705 35.5123C164.631 35.4462 164.569 35.3644 164.526 35.272C164.482 35.1796 164.457 35.0786 164.453 34.9754V27.8618L170.727 36.2269V36.2818H171.151V25.9297C171.156 25.831 171.18 25.7345 171.221 25.6458C171.262 25.5572 171.32 25.4782 171.39 25.4137C171.46 25.3491 171.542 25.3003 171.631 25.2701C171.72 25.24 171.813 25.2291 171.906 25.2381H172.154V24.6123H169.125L169.27 25.3259ZM119.91 33.0323C119.517 34.5253 118.876 35.1291 117.688 35.1291H115.124C115.072 35.1278 115.021 35.1152 114.973 35.0921C114.926 35.069 114.884 35.0359 114.849 34.9947C114.814 34.9536 114.787 34.9054 114.771 34.853C114.754 34.8006 114.748 34.7451 114.752 34.69V30.738H117.533C117.956 30.738 118.184 31.21 118.184 31.6711V31.8357H118.721V28.3667H118.184V28.5973C118.184 29.0474 117.977 29.5194 117.533 29.5194H114.742V25.7101H117.76C118.494 25.7101 118.99 26.3578 119.042 27.4007V27.5434H119.559L119.373 24.6123H111.806V25.249H111.992C112.529 25.249 112.788 25.5893 112.788 26.3468V34.7119C112.788 35.4145 112.54 35.7439 111.992 35.7439H111.806V36.3476H119.579L120.541 32.9774H119.951L119.91 33.0323ZM79.5955 28.9595C79.5955 26.5115 80.1227 24.7331 81.1254 23.6682C81.6724 23.0736 82.411 22.7206 83.1928 22.6802C85.0328 22.6802 86.8935 24.6233 86.8935 28.9595C86.8935 32.0772 85.7667 35.2279 83.2445 35.2279C81.0117 35.2279 79.5748 32.7689 79.5748 28.9595H79.5955ZM89.4054 39.619H89.5398V38.9274H89.4157C88.5742 38.8514 87.7658 38.5443 87.0699 38.0362C86.3739 37.5281 85.8144 36.8365 85.4463 36.0293C87.9479 35.0413 89.4984 32.3846 89.4984 29.0583C89.4261 23.0754 85.3636 21.4836 83.1928 21.4836C79.5852 21.4836 76.9906 24.6562 76.9906 28.9595C76.9906 32.714 78.996 35.667 81.9627 36.3257C82.9162 37.4075 84.0761 38.2609 85.3649 38.8288C86.6537 39.3967 88.0418 39.6661 89.4364 39.619H89.4054ZM99.8769 32.5054V25.8638C99.8769 25.4576 100.063 25.2381 100.394 25.2381H100.859V24.6123H97.7578V25.249H98.2022C98.2796 25.2436 98.3571 25.2563 98.4293 25.2863C98.5014 25.3163 98.5665 25.3629 98.6198 25.4226C98.6731 25.4824 98.7133 25.5539 98.7376 25.632C98.7619 25.7102 98.7697 25.7931 98.7605 25.8748V32.5164C98.7557 32.8946 98.6783 33.2679 98.5329 33.6132C98.3875 33.9586 98.1772 34.2687 97.9149 34.5247C97.6526 34.7806 97.3438 34.977 97.0075 35.1017C96.6712 35.2264 96.3144 35.2768 95.9591 35.2498C95.6252 35.2357 95.2977 35.1483 94.9972 34.9931C94.6967 34.8379 94.4298 34.6183 94.2132 34.348C93.9966 34.0778 93.8351 33.7629 93.7389 33.423C93.6426 33.0832 93.6137 32.7259 93.6539 32.3736V26.1712C93.6466 25.947 93.7175 25.7278 93.8529 25.5556C93.9883 25.3834 94.1788 25.2704 94.3879 25.2381H94.5946V24.6123H90.7802V25.0734V25.2381H90.9663C91.1801 25.2629 91.377 25.3731 91.5171 25.5464C91.6572 25.7197 91.73 25.943 91.7209 26.1712V32.2968C91.7181 32.8613 91.8252 33.4204 92.0356 33.9388C92.2459 34.4573 92.5549 34.924 92.9432 35.3095C93.3315 35.6951 93.7907 35.9912 94.2919 36.1793C94.7931 36.3674 95.3255 36.4434 95.8557 36.4025C98.2643 36.4025 99.8769 34.8437 99.8769 32.5054ZM55.7582 35.2279C55.3696 35.2261 54.9856 35.1394 54.6299 34.9732C54.2742 34.807 53.9546 34.5649 53.6908 34.2618C52.5562 32.7633 51.9919 30.8674 52.1092 28.9486C52.1092 27.5214 52.3573 22.8668 55.7685 22.6692C57.1124 22.7571 59.3762 23.6572 59.4485 28.8388C59.4485 32.6591 57.9703 35.2169 55.7789 35.2169L55.7582 35.2279ZM55.7789 21.4727C54.2455 21.463 52.7664 22.0756 51.644 23.1852C50.2702 24.7443 49.5278 26.8139 49.5766 28.9486C49.5766 33.2629 52.1919 36.3915 55.7789 36.3915C59.3658 36.3915 61.9811 33.2629 61.9811 28.9486C61.9811 24.6343 59.4175 21.5385 55.7789 21.4727ZM139.333 31.7589C138.755 30.5074 137.266 29.5633 136.057 28.8498L135.85 28.718C135.548 28.5659 135.288 28.3332 135.096 28.0427C134.904 27.7522 134.786 27.4137 134.754 27.0604C134.759 26.8022 134.828 26.5499 134.953 26.3284C135.078 26.107 135.255 25.9241 135.467 25.7979C135.722 25.6261 136.018 25.5349 136.32 25.5349C136.622 25.5349 136.918 25.6261 137.173 25.7979C137.606 26.0876 137.959 26.4944 138.195 26.9767C138.431 27.4591 138.542 27.9994 138.517 28.5424V28.6961H139.096V24.6123H138.517V24.7331C138.51 24.8064 138.49 24.8775 138.456 24.9418C138.422 25.0061 138.376 25.0621 138.32 25.1063C138.229 25.137 138.133 25.146 138.038 25.1327C137.944 25.1194 137.853 25.0842 137.773 25.0295C137.21 24.623 136.533 24.433 135.854 24.4909C135.175 24.5488 134.536 24.8511 134.041 25.3478C133.721 25.6917 133.477 26.106 133.325 26.5613C133.173 27.0166 133.118 27.5018 133.162 27.9825C133.213 28.4562 133.364 28.9117 133.604 29.3147C133.844 29.7177 134.166 30.0579 134.547 30.3098L135.333 30.8368C136.184 31.3142 136.95 31.9457 137.597 32.703C137.722 32.8756 137.813 33.0734 137.864 33.2844C137.916 33.4954 137.926 33.7153 137.895 33.9307C137.864 34.1461 137.793 34.3527 137.684 34.5379C137.576 34.7231 137.434 34.8831 137.266 35.0083C137.012 35.2461 136.694 35.3939 136.357 35.4313C136.02 35.4687 135.68 35.3937 135.385 35.2169C134.893 34.9372 134.484 34.5183 134.203 34.0067C133.922 33.4951 133.78 32.9109 133.793 32.3188V32.1651H133.204V36.2927H133.762V36.1939C133.775 36.1033 133.806 36.0168 133.855 35.9408C133.903 35.8648 133.966 35.8013 134.041 35.7548C134.101 35.7182 134.168 35.6989 134.237 35.6989C134.306 35.6989 134.374 35.7182 134.434 35.7548C135.087 36.1364 135.818 36.3436 136.563 36.3586C137.244 36.374 137.91 36.1373 138.444 35.689C138.986 35.2369 139.367 34.6029 139.525 33.8908C139.682 33.1788 139.608 32.4309 139.313 31.7699L139.333 31.7589ZM60.4822 0.274442C60.4822 0.153685 60.3789 -4.30434e-06 60.2652 -4.30434e-06H49.9281C49.8903 -0.00625954 49.8518 -0.00389906 49.815 0.00691977C49.7782 0.0177386 49.7439 0.0367672 49.7146 0.0627372C49.6852 0.0887072 49.6614 0.121022 49.6448 0.157527C49.6281 0.194032 49.619 0.23389 49.618 0.274442L49.4836 3.8642H50.0831V3.71051C50.0831 2.68957 50.4139 1.51494 51.582 1.51494H53.8148V12.7343C53.8235 13.0386 53.7205 13.3346 53.5277 13.5598C53.3349 13.7851 53.0672 13.9221 52.7811 13.9419H52.0679V14.6554H57.8876V13.9419H57.2674C56.9813 13.9221 56.7137 13.7851 56.5208 13.5598C56.328 13.3346 56.2251 13.0386 56.2337 12.7343V1.46005H58.5079C59.676 1.46005 59.9654 2.68957 60.0171 3.71051V3.8642H60.627L60.4822 0.274442ZM39.7047 1.09778V27.9715C39.7047 38.3346 31.6211 48.9063 20.3744 52.8254C9.08629 48.9063 1.03371 38.3346 1.03371 27.9715V1.09778H39.7047ZM40.7384 -4.30434e-06H0V27.9715C0 38.9494 8.44539 49.8614 20.0746 53.9012L20.3744 54L20.6742 53.9012C32.2827 49.8614 40.7074 38.9494 40.7074 27.9715V-4.30434e-06H40.7384ZM10.213 19.5076C10.0063 19.5076 9.80989 19.7491 9.73753 20.0675H10.6885C10.6162 19.7601 10.4198 19.5076 10.213 19.5076ZM10.213 21.1982C10.4198 21.1982 10.6162 20.9567 10.6885 20.6383H9.73753C9.80989 20.9567 10.0063 21.1982 10.213 21.1982ZM10.213 26.0065C10.4198 26.0065 10.6162 25.765 10.6885 25.4466H9.73753C9.80989 25.765 10.0063 26.0065 10.213 26.0065ZM10.213 24.3159C10.0063 24.3159 9.80989 24.5574 9.73753 24.8758H10.6885C10.6162 24.5574 10.4198 24.3159 10.213 24.3159ZM35.4355 9.19943C34.0297 12.4928 31.8382 14.6883 26.804 15.5446C27.6103 9.88005 29.5227 7.46493 32.4791 5.8951H8.26966C11.1847 7.46493 13.1074 9.88005 13.9034 15.5446C8.86921 14.6554 6.66742 12.5038 5.27191 9.19943V36.3147C6.67775 33.0213 8.86921 30.8258 13.9034 29.9695C13.1074 35.6011 11.1847 38.0492 8.22831 39.619H32.4791C29.5227 38.0492 27.6103 35.6011 26.804 29.9695C31.8382 30.8587 34.04 32.9994 35.4355 36.3147V9.19943ZM20.8602 17.9817C20.8602 17.1474 21.6355 16.6424 22.6485 16.6424C24.1578 16.6424 24.964 17.1913 25.8013 17.0047V26.0175H23.1757C22.3794 25.9341 21.5771 26.0901 20.8602 26.4676V17.9817ZM14.9061 16.9827C15.7434 17.1584 16.5497 16.6095 18.0072 16.6095C19.0409 16.6095 19.7955 17.1145 19.7955 17.9488V26.4346C19.1014 26.0939 18.3338 25.9574 17.573 26.0394H14.9061V16.9827ZM30.2566 24.261C30.4677 24.261 30.6702 24.3501 30.8195 24.5086C30.9687 24.6671 31.0526 24.8821 31.0526 25.1063C31.0526 25.3305 30.9687 25.5455 30.8195 25.704C30.6702 25.8626 30.4677 25.9516 30.2566 25.9516H27.8171V28.1472H23.1757C22.6468 28.0674 22.1077 28.1673 21.6355 28.4326C21.2364 28.6461 20.7999 28.7694 20.3537 28.7949C19.9064 28.7683 19.4695 28.641 19.0719 28.4216C18.6036 28.1932 18.0821 28.1168 17.573 28.2021H12.8903V26.0065H11.0193C10.944 26.1676 10.8296 26.3045 10.6879 26.4029C10.5461 26.5013 10.3822 26.5577 10.213 26.5664C9.94597 26.5438 9.69522 26.4209 9.50578 26.2197C9.31634 26.0185 9.2006 25.7522 9.17933 25.4686H8.95191C8.88063 25.4686 8.81227 25.4385 8.76187 25.385C8.71146 25.3315 8.68315 25.2589 8.68315 25.1832C8.68315 25.1075 8.71146 25.0349 8.76187 24.9813C8.81227 24.9278 8.88063 24.8977 8.95191 24.8977H9.22067C9.24396 24.6149 9.36035 24.3498 9.54939 24.1491C9.73844 23.9483 9.98805 23.8247 10.2544 23.8C10.4243 23.8108 10.5885 23.8693 10.7302 23.9696C10.8719 24.0699 10.9859 24.2084 11.0607 24.3708H12.9317V21.1982H11.0193C10.944 21.3593 10.8296 21.4962 10.6879 21.5946C10.5461 21.693 10.3822 21.7495 10.213 21.7581C9.94597 21.7355 9.69522 21.6126 9.50578 21.4114C9.31634 21.2102 9.2006 20.9439 9.17933 20.6603H8.95191C8.88063 20.6603 8.81227 20.6302 8.76187 20.5767C8.71146 20.5232 8.68315 20.4506 8.68315 20.3749C8.68315 20.2992 8.71146 20.2266 8.76187 20.173C8.81227 20.1195 8.88063 20.0894 8.95191 20.0894H9.22067C9.24396 19.8066 9.36035 19.5415 9.54939 19.3408C9.73844 19.14 9.98805 19.0164 10.2544 18.9917C10.4243 19.0025 10.5885 19.061 10.7302 19.1613C10.8719 19.2616 10.9859 19.4001 11.0607 19.5625H12.9317V17.9049L13.9654 17.2681V27.0714H17.573C18.2381 26.985 18.9122 27.1151 19.5061 27.4446C19.7821 27.5984 20.0844 27.6918 20.3951 27.719C20.706 27.6933 21.0086 27.5998 21.284 27.4446C21.8781 27.1158 22.552 26.9857 23.2171 27.0714H26.8557V17.3999L27.8894 17.9049V19.5076H30.329C30.5401 19.5076 30.7425 19.5967 30.8918 19.7552C31.0411 19.9137 31.1249 20.1287 31.1249 20.3529C31.1249 20.5771 31.0411 20.7921 30.8918 20.9506C30.7425 21.1091 30.5401 21.1982 30.329 21.1982H27.8171V24.3159L30.2566 24.261Z" fill="black"/>
</svg>
