<svg width="49" height="72" viewBox="0 0 49 72" fill="none" xmlns="http://www.w3.org/2000/svg">
<g clip-path="url(#clip0_787_1290)">
<path d="M16.8688 58.8654C16.4095 58.8654 16.0266 59.0951 15.8733 59.4761L13.9589 64.4386L13.8056 64.9731L13.6528 64.4386L12.1212 59.6288V59.5527C11.968 59.1709 11.5851 58.8654 11.1258 58.8654H8.67522C8.13909 58.9416 7.7562 59.3233 7.7562 59.9344C7.7562 60.0868 7.83263 60.2395 7.83263 60.3915L8.13871 61.4605L6.99004 64.4374L6.76038 64.9723L6.60715 64.4374L5.15201 59.6281V59.5519H5.07558C4.99916 59.1702 4.61627 58.8646 4.15657 58.8646H1.70638C1.17025 58.9408 0.710938 59.3222 0.710938 59.9336C0.710938 60.086 0.787747 60.2388 0.863785 60.3908L4.46265 71.2324C4.61588 71.6896 4.99877 71.9951 5.45847 71.9951C5.91779 71.9951 6.30068 71.6895 6.45391 71.3082L8.98091 64.8954L9.21057 64.2847L9.3638 64.8954L11.5079 71.2324C11.5843 71.6896 12.044 71.9951 12.5034 71.9951C12.9631 71.9951 13.3459 71.6895 13.4992 71.3082L17.7874 60.315C17.8638 60.1626 17.8638 60.0098 17.8638 59.857C17.8642 59.3233 17.4045 58.8654 16.8688 58.8654ZM35.0175 58.8654C34.5582 58.8654 34.1745 59.0951 34.022 59.4761L32.1076 64.4386L31.9547 64.9731L31.8019 64.4386L30.2699 59.6288V59.5527C30.1171 59.1709 29.7338 58.8654 29.2749 58.8654H26.8239C26.2878 58.9416 25.9049 59.3233 25.9049 59.9344C25.9049 60.0868 25.9049 60.2395 25.9813 60.3915L26.2878 61.4605L25.1387 64.4374L24.9087 64.9723L24.7559 64.4374L23.3007 59.6281L23.2243 59.5519C23.1479 59.1702 22.765 58.8646 22.3057 58.8646H19.8551C19.319 58.9408 18.8596 59.3222 18.8596 59.9336C18.8596 60.086 18.9365 60.2388 19.0129 60.3908L22.6121 71.2324C22.765 71.6896 23.1483 71.9951 23.608 71.9951C24.0669 71.9951 24.4502 71.6895 24.603 71.3082L27.1308 64.8954L27.3604 64.2847L27.5133 64.8954L29.6582 71.2324C29.7342 71.6896 30.1943 71.9951 30.6532 71.9951C31.1125 71.9951 31.4962 71.6895 31.649 71.3082L35.9369 60.315C36.0133 60.1626 36.0133 60.0098 36.0133 59.857C36.0129 59.3233 35.5532 58.8654 35.0175 58.8654ZM46.8099 58.8654H38.3095C37.7734 58.8654 37.3913 59.2471 37.3913 59.7816V71.0042C37.4673 71.5391 37.8502 71.9204 38.3863 71.9204H40.7597C41.2958 71.9204 41.6787 71.5391 41.6787 71.0042V65.7369H45.2015C45.6601 65.7369 46.1202 65.279 46.1202 64.8207C46.1202 64.2862 45.6612 63.8279 45.2015 63.8279H41.6787V60.851H46.8095C47.346 60.851 47.805 60.3935 47.805 59.8586C47.8053 59.3237 47.3464 58.8654 46.8099 58.8654ZM33.6388 22.9838C35.1707 24.6635 35.3232 29.855 39.2285 27.7935C41.5255 26.5722 41.5255 21.3807 38.3863 19.472C35.8585 18.0213 34.4806 20.0065 33.5616 22.4493C33.4855 22.6783 33.4855 22.831 33.6388 22.9838ZM27.5893 22.1442C25.9049 23.4421 24.8327 27.1828 21.8464 25.8849C19.3962 24.6635 19.1665 19.93 23.3779 17.7161C26.2878 16.342 27.7429 19.0141 27.7429 21.8386C27.7426 21.9148 27.6661 22.0676 27.5893 22.1442ZM31.5715 31.5343C33.1795 31.3819 32.7966 29.855 31.5715 29.5494C30.4992 29.1677 28.8912 28.9387 27.6661 29.0149C25.5984 29.0149 25.6753 30.618 26.7467 30.9236C27.5893 31.1525 28.1247 31.2287 28.814 32.145C29.427 33.3667 29.1209 31.7632 31.5715 31.5343ZM39.1525 4.96664C41.1433 1.60763 44.6658 2.21833 46.4274 3.89802C48.3422 5.7301 48.7247 7.86772 47.9593 9.31845C46.9635 11.3033 44.3605 13.6703 42.6757 11.3799C41.9107 10.3113 40.3783 9.08949 39.4597 8.78395C38.1566 8.17325 37.9274 7.02768 39.1525 4.96664Z" fill="#272728"/>
<path d="M47.1932 19.7011C47.0404 19.0904 46.7335 19.1666 46.7335 19.6249C46.8867 25.7322 43.2115 32.2982 35.4008 32.3744C33.4099 32.3744 34.0229 35.5048 30.3468 33.9013C27.743 32.1454 26.2114 35.6572 24.3734 31.9165C23.9141 30.8475 23.3011 30.3895 22.5354 30.1606C14.8011 28.2519 12.3505 17.64 19.1661 9.08955C20.4681 9.92959 21.0038 10.082 22.4589 8.70782C23.1483 8.02055 24.4498 7.25709 25.1388 7.02813C26.7468 6.41743 27.6662 5.73016 26.2106 2.60012C25.5406 1.12553 24.6277 0.340135 23.6551 0.00419617H21.054C20.3103 0.22486 19.6168 0.587967 19.0125 1.0732C17.0217 2.67631 15.7197 5.19566 18.1696 8.17332C11.2787 12.8303 10.0536 18.5559 10.2064 23.5946C10.3593 28.8622 9.05775 28.4043 10.7426 33.7481C10.8954 34.2065 10.5129 34.2065 10.2832 34.0541C3.08512 29.4733 -0.820213 15.4258 10.4365 7.71501C10.6661 7.48605 10.5897 7.18051 9.67069 7.71501C-0.0548171 12.8303 -0.973446 22.7549 0.634541 29.4733C1.40032 32.6795 0.25165 33.2906 1.47713 37.5658C4.38703 46.4218 6.83722 47.1845 10.3597 47.4143C16.7156 47.4143 12.3505 43.9025 12.657 39.5507C12.657 39.2448 12.9635 39.169 13.1163 39.7031C16.6388 47.4897 19.0893 54.5902 28.2783 53.9029C33.5616 53.216 30.6517 50.6201 30.2688 49.0928C26.3639 36.1913 35.8586 33.1375 33.1787 45.7338C31.4179 52.9867 37.0076 52.2229 40.9894 49.6273C45.0483 47.0322 50.1031 29.3967 47.1932 19.7011ZM31.7243 35.0461C30.8053 37.3369 26.2875 36.5734 26.1342 34.283C26.1342 34.2068 26.2875 34.2068 26.2875 34.283C28.3548 34.741 30.2688 34.9699 31.5707 34.9699C31.6479 34.9699 31.7243 34.8937 31.7243 35.0461Z" fill="#272728"/>
<path d="M11.8913 51.3839C11.8907 51.9709 11.6566 52.5338 11.2403 52.9489C10.824 53.364 10.2595 53.5975 9.67072 53.5981C8.36882 53.5981 7.37338 52.6053 7.37338 51.3839C7.37338 50.1621 8.36882 49.0939 9.67072 49.0939C10.8958 49.0935 11.8913 50.1621 11.8913 51.3839ZM9.67072 48.7118C8.13916 48.7118 6.91406 49.8574 6.91406 51.3835C6.91406 52.8346 8.13916 54.0553 9.67072 54.0553C11.1259 54.0553 12.3506 52.8339 12.3506 51.3835C12.3506 49.857 11.1255 48.7118 9.67072 48.7118Z" fill="#272728"/>
<path d="M10.4366 51.7656C10.3598 52.1474 10.0537 52.3767 9.74723 52.3767C9.2111 52.3767 8.82821 51.9188 8.82821 51.3839C8.82821 50.8494 9.13468 50.3919 9.6708 50.3919C10.0537 50.3919 10.3598 50.6208 10.4366 50.9264H10.8195C10.7427 50.3157 10.2833 50.0101 9.6708 50.0101C8.90502 50.0101 8.3689 50.6208 8.3689 51.3839C8.3689 52.1474 8.90502 52.7581 9.74723 52.7581C10.2833 52.7581 10.6662 52.3767 10.8195 51.7656H10.4366ZM47.3465 54.8957C47.3461 55.4828 47.112 56.0458 46.6956 56.4609C46.2792 56.8761 45.7145 57.1095 45.1256 57.1099C43.8237 57.1099 42.8287 56.1175 42.8287 54.8957C42.8287 53.6735 43.8237 52.6049 45.1256 52.6049C46.3503 52.6049 47.3465 53.6739 47.3465 54.8957ZM45.1256 52.2236C43.5937 52.2236 42.3686 53.3692 42.3686 54.8957C42.3686 56.3464 43.5937 57.5674 45.1256 57.5674C46.5808 57.5674 47.8055 56.3457 47.8055 54.8957C47.8055 53.3688 46.5804 52.2236 45.1256 52.2236Z" fill="#272728"/>
<path d="M44.6657 55.0485H45.0483L45.738 56.194H46.1965L45.4311 55.0485C45.814 54.9719 46.1201 54.8191 46.1201 54.3612C46.1201 53.8267 45.814 53.5981 45.2015 53.5981H44.2825V56.194H44.665L44.6657 55.0485ZM44.6657 54.7433V53.9798H45.1251C45.4311 53.9798 45.738 53.9798 45.738 54.2858C45.738 54.7433 45.4311 54.7433 45.1251 54.7433H44.6657Z" fill="#272728"/>
</g>
<defs>
<clipPath id="clip0_787_1290">
<rect width="48.3288" height="72" fill="white"/>
</clipPath>
</defs>
</svg>
