<?xml version="1.0" encoding="utf-8"?>
<!-- Generator: Adobe Illustrator 26.0.3, SVG Export Plug-In . SVG Version: 6.00 Build 0)  -->
<svg version="1.1" id="Capa_1" xmlns="http://www.w3.org/2000/svg" xmlns:xlink="http://www.w3.org/1999/xlink" x="0px" y="0px"
	 viewBox="0 0 248.5 222.9" style="enable-background:new 0 0 248.5 222.9;" xml:space="preserve" fill="#6C767D">
<style type="text/css">
	.st0{fill-rule:evenodd;clip-rule:evenodd;fill:#ED1D24;}
	.st1{fill:#FFFFFF;}
	.st2{fill:#009055;}
	.st3{fill:#ED1D24;}
</style>
<path d="M71.5,123.2c-3.9-0.6-7.7-2.3-11.2-4.5c-1.7-1.2-3.3-2.5-4.8-3.9c-1.5-1.4-2.8-3-4.1-4.6c-5-6.6-8.2-14.4-9.7-22.4
	c-0.4-2-0.6-4-0.8-6l-0.1-1.4l-0.1-1.3l-0.3-2.6c-0.4-3.5-1.4-6.8-2.5-10.1c-0.6-1.7-1.3-3.2-2-4.8c-0.7-1.6-1.6-3.2-2.6-4.6
	c-0.9-1.5-2-3-3.2-4.4c-0.6-0.7-1.2-1.4-1.9-2c-0.7-0.7-1.4-1.2-2.2-1.8l0.2-0.5c1.9,0.6,3.5,1.7,5.1,2.8c1.5,1.2,3,2.5,4.3,3.9
	c2.6,2.9,4.7,6.1,6.3,9.6c1.7,3.5,2.8,7.2,3.6,10.9c0.4,1.9,0.7,3.8,0.9,5.7c0.2,1.9,0.5,3.8,0.9,5.6c1.4,7.4,3.9,14.7,8,21.1
	c4,6.4,9.7,11.7,16.7,14.9L71.5,123.2z"/>
<path d="M24.6,31.6c1.2-0.9,2.4-1.8,3.7-2.6c1.3-0.8,2.7-1.4,4.1-2.1c2.8-1.2,5.8-2.1,9-2.5c3.2-0.4,6.6,0,9.7,0.9
	c3.1,0.8,6,2.2,8.8,3.7c1.4,0.8,2.7,1.6,4,2.4c1.3,0.9,2.6,1.8,3.8,2.8c0.6,0.5,1.2,1,1.8,1.5c0.6,0.5,1.2,1.1,1.7,1.6
	c1,0.9,2,1.8,2.9,2.4c1.9,1.4,3.7,2.2,5.6,2.3c1.8,0.1,3.8-0.4,5.9-1.4c1-0.5,2.1-1.1,3.1-1.8c0.5-0.4,1-0.7,1.5-1.1l1.7-1.3
	c2.3-1.8,4.5-3.6,6.8-5.4c4.6-3.5,9.1-7.3,13.8-10.8C122,13.2,131.5,6.3,141.5,0l0.4,0.4c-8.7,7.8-17.5,15.5-26.4,23.2
	c-4.4,3.8-8.9,7.7-13.3,11.4c-2.2,1.9-4.5,3.8-6.8,5.6c-2.2,1.9-4.6,3.7-7.3,5c-2.7,1.3-5.7,2.1-8.8,1.8c-3-0.3-5.9-1.7-8.2-3.5
	c-2.4-1.8-4.2-4.1-6.5-6c-2.2-1.9-4.5-3.7-7-5.2c-4.9-3.1-10.4-5.5-16.2-5.3c-5.8,0.1-11.5,2-16.6,4.7L24.6,31.6z"/>
<path d="M126.9,46.8c3.4-5.3,7.4-9.9,11.6-14.3c4.2-4.4,8.6-8.4,13.2-12.3c4.6-3.8,9.4-7.4,14.5-10.7c5.1-3.3,10.3-6.3,16.2-8.7
	l0.4,0.4l-6.9,5.8l-6.9,5.8l-13.8,11.5l-13.9,11.4l-7,5.7l-7,5.6L126.9,46.8z"/>
<path d="M146.2,63c3.3-5.3,7.3-9.9,11.4-14.3c4.1-4.4,8.5-8.5,13.1-12.3c4.6-3.8,9.4-7.5,14.4-10.7c5-3.3,10.3-6.4,16.1-8.8l0.4,0.4
	l-6.8,5.9L188,29l-13.7,11.6L160.5,52l-6.9,5.7l-7,5.7L146.2,63z"/>
<path d="M167.8,79.3c3-5,6.6-9.3,10.3-13.3c3.7-4.1,7.8-7.8,12-11.3c4.2-3.5,8.6-6.8,13.3-9.7c4.7-3,9.5-5.7,15-7.7l0.3,0.4
	l-6.2,5.3l-6.3,5.3l-12.6,10.6L181,69.3l-6.4,5.2l-6.4,5.1L167.8,79.3z"/>
<path d="M159.3,116.1c4.1-6,8.8-11.3,13.7-16.4c4.9-5.1,10-9.9,15.4-14.4c5.3-4.5,10.9-8.8,16.7-12.8c5.8-4,11.8-7.8,18.4-10.9
	l0.4,0.4l-7.9,6.9l-8,6.8l-16,13.7L175.8,103l-8.1,6.8l-8.1,6.7L159.3,116.1z"/>
<path class="st0" d="M41.1,40.1c0,1.3-1.1,2.4-2.4,2.4c-1.3,0-2.4-1.1-2.4-2.4c0-1.3,1.1-2.4,2.4-2.4C40.1,37.8,41.1,38.8,41.1,40.1
	"/>
<rect x="21.3" y="148.1" width="2.1" height="20.5"/>
<polygon points="26.1,150.1 26.1,148.1 37.3,148.1 37.3,150.1 32.7,150.1 32.7,168.7 30.7,168.7 30.7,150.1 "/>
<path d="M46.3,148.1l9.6,20.5h-2.2l-3.2-6.7h-8.9l-3.2,6.7h-2.3l9.7-20.5H46.3z M46.1,152.5l-3.5,7.4h7L46.1,152.5z"/>
<polygon points="59.1,148.1 61.2,148.1 61.2,166.7 69.1,166.7 69.1,168.7 59.1,168.7 "/>
<rect x="72.1" y="148.1" width="2.1" height="20.5"/>
<path d="M87.2,148.1l9.6,20.5h-2.2l-3.2-6.7h-8.9l-3.2,6.7H77l9.7-20.5H87.2z M87,152.5l-3.5,7.4h7L87,152.5z"/>
<polygon points="100,168.7 100,148.1 100.5,148.1 114.1,163.9 114.1,148.1 116.1,148.1 116.1,168.7 115.7,168.7 102.1,153.1 
	102.1,168.7 "/>
<path d="M137.5,148.1l9.6,20.5h-2.2l-3.2-6.7h-8.9l-3.2,6.7h-2.3l9.7-20.5H137.5z M137.2,152.5l-3.5,7.4h7L137.2,152.5z"/>
<path d="M171.3,158.8c0,6.5-4.2,10.3-10.3,10.3c-7.1,0-11.6-5.1-11.6-10.7c0-5.8,4.5-10.8,11.3-10.8c3.8,0,6.7,1.4,9.4,4l-1.6,1.5
	c-2.3-2.3-5.1-3.5-7.8-3.5c-4.9,0-9.2,3.8-9.2,8.7c0,4.7,4,8.9,9.5,8.9c3.9,0,7.4-2.3,7.9-6.5h-6.5v-2H171.3z"/>
<polygon points="175.2,148.1 186.9,148.1 186.9,150.1 177.2,150.1 177.2,156.6 186.9,156.6 186.9,158.6 177.2,158.6 177.2,166.7 
	186.9,166.7 186.9,168.7 175.2,168.7 "/>
<polygon points="190.5,168.7 190.5,148.1 191,148.1 204.6,163.9 204.6,148.1 206.6,148.1 206.6,168.7 206.2,168.7 192.6,153.1 
	192.6,168.7 "/>
<path d="M230.8,165.1c-2.1,2.7-5.2,4.1-9,4.1c-6.9,0-11.1-4.8-11.1-10.9c0-6.1,4.7-10.7,11.1-10.7c3.8,0,6.9,1.5,9,4.3l-1.6,1.2
	c-1.8-2.4-4.4-3.5-7.3-3.5c-4.9,0-8.9,3.6-8.9,8.8c0,5.1,3.9,8.8,9.1,8.8c2.9,0,5.3-1.2,7.2-3.4L230.8,165.1z"/>
<polygon points="239.9,158.9 233.3,148.1 235.7,148.1 240.9,156.6 246.1,148.1 248.5,148.1 241.9,158.9 241.9,168.7 239.9,168.7 "/>
<polygon points="21.3,174 30.4,174 30.4,177.4 24.7,177.4 24.7,180.6 30.4,180.6 30.4,184 24.7,184 24.7,192.2 21.3,192.2 "/>
<path d="M51.5,183.1c0,5.4-4.2,9.5-9.4,9.5c-5.4,0-9.5-4.3-9.5-9.6c0-5.4,4.3-9.5,9.5-9.5C47.1,173.5,51.5,177.6,51.5,183.1
	 M36.1,183.1c0,3.7,2.8,6.2,6,6.2c3.3,0,5.9-2.7,5.9-6.2c0-3.4-2.5-6.2-6-6.2C38.8,176.8,36.1,179.4,36.1,183.1"/>
<path d="M55,173.9h4.2c2.3,0,3.9,0.3,5.2,1.5c0.9,0.9,1.5,2.3,1.5,3.8c0,2.4-1.2,4-3.5,4.9l4.3,8.1h-3.8l-4.1-7.7h-0.3v7.7H55V173.9
	z M58.5,181.1h1.6c1.6,0,2.4-0.6,2.4-1.9c0-1.2-0.8-1.9-2.5-1.9h-1.5V181.1z"/>
<path d="M76.7,173.9H81c3.2,0,5.5,0.4,7.4,2.3c1.7,1.6,2.6,4.1,2.6,7c0,3.1-1.2,5.7-3.1,7.2c-2.1,1.6-4.2,1.7-6.9,1.7h-4.4V173.9z
	 M80.1,177.4v11.4H82c1.9,0,3.2-0.3,4.3-1.4c0.8-0.9,1.3-2.4,1.3-4.2c0-3.8-2.1-5.9-6.1-5.9H80.1z"/>
<polygon points="94.4,174 104.4,174 104.4,177.4 97.9,177.4 97.9,180.6 104.4,180.6 104.4,184 97.9,184 97.9,188.8 104.4,188.8 
	104.4,192.2 94.4,192.2 "/>
<polygon points="106.2,174 109.8,174 114.4,186.9 119,174 122.6,174 116,192.2 112.7,192.2 "/>
<polygon points="125.4,174 135.4,174 135.4,177.4 128.9,177.4 128.9,180.6 135.4,180.6 135.4,184 128.9,184 128.9,188.8 
	135.4,188.8 135.4,192.2 125.4,192.2 "/>
<polygon points="138.6,174 142.1,174 142.1,188.9 147.1,188.9 147.1,192.2 138.6,192.2 "/>
<path d="M167.8,183.1c0,5.4-4.2,9.5-9.4,9.5c-5.4,0-9.5-4.3-9.5-9.6c0-5.4,4.3-9.5,9.5-9.5C163.4,173.5,167.8,177.6,167.8,183.1
	 M152.4,183.1c0,3.7,2.8,6.2,6,6.2c3.3,0,5.9-2.7,5.9-6.2c0-3.4-2.5-6.2-6-6.2C155.1,176.8,152.4,179.4,152.4,183.1"/>
<path d="M171.1,173.9h4.2c2.4,0,4,0.4,5.2,1.5c0.9,0.9,1.5,2.3,1.5,3.8c0,1.9-0.8,3.4-2.3,4.3c-1.5,0.9-3.2,0.9-5.1,0.9v7.7h-3.5
	V173.9z M174.6,181.1h1.6c1.6,0,2.4-0.6,2.4-1.9c0-1.2-0.9-1.9-2.5-1.9h-1.5V181.1z"/>
<polygon points="187.1,174 190.5,174 194.7,186.7 199,174 202.3,174 205.4,192.2 202,192.2 200.1,180.7 196.2,192.2 193.1,192.2 
	189.3,180.7 187.3,192.2 183.9,192.2 "/>
<polygon points="208.2,174 218.2,174 218.2,177.4 211.7,177.4 211.7,180.6 218.2,180.6 218.2,184 211.7,184 211.7,188.8 
	218.2,188.8 218.2,192.2 208.2,192.2 "/>
<polygon points="221.4,174 224.7,174 232.5,185.9 232.5,174 236,174 236,192.2 232.7,192.2 224.9,180.2 224.9,192.2 221.4,192.2 "/>
<polygon points="238.4,174 248.5,174 248.5,177.4 245.1,177.4 245.1,192.2 241.6,192.2 241.6,177.4 238.4,177.4 "/>
<path d="M42.4,214.8c-2.2,2.8-5.5,4.3-9.4,4.3c-7.2,0-11.6-5.1-11.6-11.4c0-6.4,4.9-11.2,11.6-11.2c4,0,7.3,1.6,9.4,4.5l-1.7,1.3
	c-1.9-2.5-4.6-3.7-7.7-3.7c-5.1,0-9.4,3.8-9.4,9.3c0,5.3,4.1,9.2,9.5,9.2c3,0,5.6-1.2,7.6-3.6L42.4,214.8z"/>
<path d="M70,207.7c0,6.3-5,11.3-11.3,11.3c-6.6,0-11.4-5.2-11.4-11.2c0-6.4,5-11.4,11.2-11.4C65,196.4,70,201.3,70,207.7
	 M49.5,207.8c0,5.3,4.2,9.1,9.1,9.1c5,0,9.2-3.8,9.2-9.2c0-5.5-4.4-9.2-9.2-9.2C53.8,198.5,49.5,202.3,49.5,207.8"/>
<path d="M97.6,207.7c0,6.3-5,11.3-11.3,11.3c-6.6,0-11.4-5.2-11.4-11.2c0-6.4,5-11.4,11.2-11.4C92.6,196.4,97.6,201.3,97.6,207.7
	 M77.1,207.8c0,5.3,4.2,9.1,9.1,9.1c5,0,9.2-3.8,9.2-9.2c0-5.5-4.4-9.2-9.2-9.2C81.4,198.5,77.1,202.3,77.1,207.8"/>
<path d="M103.4,197h5c2.3,0,3.9,0.1,5,0.5c2.2,0.8,3.5,2.8,3.5,5.2c0,2-1,3.8-2.5,4.7c-1.5,1-3.8,1.1-6.7,1.1h-2.1v10h-2.2V197z
	 M105.5,199.1v7.3c1.2,0,2.5,0,3.6,0c1.9,0,3.3-0.1,4.3-0.9c0.8-0.6,1.3-1.7,1.3-2.8c0-1.1-0.5-2.2-1.4-2.8c-1-0.7-2.3-0.8-3.9-0.8
	H105.5z"/>
<polygon points="122.7,197 135,197 135,199.1 124.8,199.1 124.8,205.8 135,205.8 135,207.9 124.8,207.9 124.8,216.4 135,216.4 
	135,218.5 122.7,218.5 "/>
<path d="M140.3,197h5c2.2,0,4,0.1,5,0.5c2.2,0.8,3.5,2.8,3.5,5.2c0,1.1-0.1,1.7-0.6,2.7c-1.1,2.3-3.3,3.1-6.8,3.1l7.8,10h-2.7
	l-7.7-10h-1.2v10h-2.2V197z M142.5,199.1v7.3c1.2,0,2.4,0,3.6,0c1.9,0,3.3-0.2,4.2-0.9c0.8-0.6,1.3-1.7,1.3-2.8
	c0-2.1-1.4-3.6-4.7-3.6H142.5z"/>
<path d="M168.8,197l10.1,21.6h-2.3l-3.4-7.1h-9.3l-3.4,7.1H158l10.2-21.6H168.8z M168.5,201.5l-3.7,7.8h7.4L168.5,201.5z"/>
<polygon points="179.1,199.1 179.1,197 190.9,197 190.9,199.1 186.1,199.1 186.1,218.5 183.9,218.5 183.9,199.1 "/>
<rect x="195.2" y="197" width="2.2" height="21.6"/>
<path d="M225.6,207.7c0,6.3-5,11.3-11.3,11.3c-6.6,0-11.4-5.2-11.4-11.2c0-6.4,5-11.4,11.2-11.4
	C220.6,196.4,225.6,201.3,225.6,207.7 M205.1,207.8c0,5.3,4.2,9.1,9.1,9.1c5,0,9.2-3.8,9.2-9.2c0-5.5-4.4-9.2-9.2-9.2
	C209.4,198.5,205.1,202.3,205.1,207.8"/>
<polygon points="231.4,218.5 231.4,197 231.9,197 246.2,213.5 246.2,197 248.3,197 248.3,218.5 247.8,218.5 233.6,202.2 
	233.6,218.5 "/>
<rect y="144.5" class="st1" width="10.4" height="78.4"/>
<rect y="144.5" class="st2" width="3.6" height="78.4"/>
<rect x="6.8" y="144.5" class="st3" width="3.6" height="78.4"/>
</svg>
