<svg width="135" height="39" viewBox="0 0 135 39" fill="none" xmlns="http://www.w3.org/2000/svg">
<path fill-rule="evenodd" clip-rule="evenodd" d="M117.484 29.4449C117.415 29.425 117.367 29.4117 117.377 29.4209C117.377 29.4209 108.877 28.2446 108.409 26.2785C107.911 24.1749 105.169 24.6786 105.135 22.9987C105.12 22.1619 106.153 22.4693 106.401 22.1046C106.71 21.6433 106.287 21.4483 104.996 20.6865C101.591 18.6743 102.084 15.5045 102.637 15.0099C103.353 14.3693 104.206 15.707 104.649 15.1033C105.092 14.4992 102.575 11.0888 107.89 7.21119C107.89 7.21119 108.521 9.21097 110.457 9.89555C112.514 10.6229 109.177 13.3624 109.903 15.2012C110.312 16.2343 111.143 14.9382 111.904 14.2138C112.556 13.5914 113.457 12.0007 114.589 12.3484C115.585 12.6546 115.238 13.9374 115.462 14.6187C115.752 15.5049 116.471 15.2269 116.86 15.9995C117.236 16.7413 116.969 17.0525 115.833 18.0158C113.757 19.782 114.747 21.7466 115.334 21.3599C116.209 20.7832 116.045 20.1492 117.463 20.0721C118.529 20.0131 118.896 21.045 118.611 21.7897C118.324 22.534 118.157 22.7718 118.329 23.3066C118.768 24.6757 118.51 24.2567 117.787 25.5014C117.168 26.5635 117.19 27.5634 117.914 29.2611C120.532 30.5693 120.215 28.0766 122.546 28.5994C127.766 29.7706 124.929 28.0986 125.817 27.2468C126.624 26.4718 127.096 27.1576 128.183 26.7299C129.794 25.7366 129.948 25.4001 132.069 27.0327C133.773 24.3546 134.765 21.1885 134.765 17.796C134.765 14.8452 134.015 12.0663 132.698 9.62753C131.959 8.95125 131.35 8.52972 131.527 9.6184C131.627 10.2188 134.321 15.1581 130.278 18.9755L130.269 18.8709C130.225 18.42 129.948 16.6471 128.367 16.4135C126.441 16.1302 128.041 13.2367 127.104 11.8846C125.784 9.98309 125.442 12.5948 124.979 13.1666C124.505 13.7516 122.546 14.8394 122.546 13.3383C122.546 11.6298 121.327 11.4174 120.859 10.8623C120.409 10.3279 120.594 10.0449 121.434 9.1197C122.973 7.43108 121.867 6.36978 121.416 6.75895C120.741 7.33815 120.902 7.46427 119.667 7.72566C118.742 7.92356 118.786 6.36729 118.897 5.73417C119.536 2.12459 117.096 0.753369 113.598 0.684082C105.443 2.25653 99.2925 9.31885 99.2925 17.7972C99.2925 27.431 107.232 35.2402 117.027 35.2402C119.445 35.2402 121.75 34.7618 123.85 33.9C121.376 34.4651 119.985 33.5399 119.849 33.1848C119.582 32.4869 121.659 32.9628 119.702 31.9725C118.519 31.375 118.014 30.1868 117.888 29.6681L117.484 29.4474" fill="#6C767D"/>
<path fill-rule="evenodd" clip-rule="evenodd" d="M118.483 29.9799C118.483 29.9799 106.824 25.528 106.419 14.2463C106.419 14.2463 107.546 22.8234 118.483 29.979V29.9799ZM118.396 0.381348C118.729 0.417029 121.239 0.745624 123.89 2.41018C124.876 3.31796 126.272 5.54553 124.117 10.1114C124.117 10.1114 126.877 6.44792 126.18 4.22409C128.495 6.50725 130.441 10.128 130.514 15.8652C130.514 15.8652 133.087 1.4916 118.396 0.381348ZM130.048 28.8912C129.159 29.4222 127.716 30.6731 125.358 29.9421C125.358 29.9421 126.281 30.6391 127.765 30.6018C125.872 31.5627 123.82 31.7925 120.572 30.9934C120.572 30.9934 127.148 34.808 131.742 27.5075C131.742 27.5075 130.602 28.5613 130.049 28.8908" fill="#6C767D"/>
<path fill-rule="evenodd" clip-rule="evenodd" d="M5.88926 13.4874C5.88926 14.7445 6.13226 15.093 7.04013 15.093V15.4042H3.27279V15.093C4.03385 15.093 4.47935 14.8731 4.47935 13.4326V5.45999H2.93908C1.51188 5.45999 0.862192 5.85953 0.769801 6.95444H0.45466V4.56589H0.769801C0.917457 4.69285 1.08621 4.78371 1.34608 4.85632C1.58655 4.9144 1.91983 4.9476 2.36702 4.9476H7.93071C8.85757 4.9476 9.28493 4.83848 9.61821 4.56589H9.95149V6.95444H9.74899C9.54227 6.08026 9.19212 5.45999 7.50462 5.45999H5.88926V13.4874ZM17.3571 13.8508C17.3571 14.837 17.5419 15.0926 18.413 15.0926V15.4037H15.0001V15.0926C15.8932 15.0926 16.0957 14.8909 16.0957 14.0524V10.8611C16.0957 10.0022 15.5768 9.45459 14.7803 9.45459C14.0369 9.45459 13.4986 9.80144 12.8679 10.6777V14.2184C12.8679 14.8905 13.1451 15.0926 13.9606 15.0926V15.4037H10.4379V15.0926C11.4209 15.0739 11.6082 14.8909 11.6082 13.8508V5.4409C11.6082 4.60199 11.3648 4.4742 10.4379 4.4742V4.16469L12.5528 3.9448H12.8679V10.057C13.7024 9.10773 14.3149 8.76254 15.1663 8.76254C16.2632 8.76254 17.3571 9.47367 17.3571 11.005V13.8512V13.8508ZM24.0071 11.1523C24.0628 9.72842 23.079 9.14507 22.2437 9.14507C21.1502 9.14507 20.5005 9.94748 20.4254 11.1523H24.0071ZM20.4254 11.4623C20.3904 14.3624 22.1509 15.0926 23.0419 15.0926C23.9531 15.0926 24.4146 14.7826 25.3622 13.7425V14.2184C24.564 15.2208 23.8012 15.6016 22.6537 15.6016C20.5941 15.6016 19.1087 14.1993 19.1087 12.2452C19.1087 10.296 20.5557 8.76296 22.4099 8.76296C23.932 8.76296 25.3419 9.96698 25.2504 11.4627H20.4258L20.4254 11.4623ZM42.3097 19.3241H41.8102L29.9302 4.92312H29.8712V16.5484C29.8712 18.2254 30.5483 18.8324 32.0776 18.8324V19.3245H26.9611V18.832C28.3701 18.832 29.0468 18.3993 29.0468 15.9983V6.31177C29.0468 4.46134 28.5469 3.41996 26.5476 3.2457V2.75488H30.8693L41.3985 15.6514H41.4567V5.96367C41.4567 3.79461 40.8682 3.24529 39.3992 3.24529V2.75488H44.487V3.24529C42.8409 3.24529 42.3102 3.91078 42.3102 5.8475V19.3241H42.3097ZM57.8558 9.05795H61.4721V9.8089H57.8554V16.4036C57.8554 17.8205 58.5903 18.5437 59.737 18.5437C60.5027 18.5437 61.0617 18.2532 61.6776 17.5604L62.0016 17.9354C61.0895 19.0631 60.0323 19.6406 58.8553 19.6406C57.0918 19.6406 55.8557 18.4271 55.8557 16.6625V9.80849H53.8864V9.31892C55.2972 8.6248 56.4725 7.38012 57.3563 5.61599H57.855V9.05753L57.8558 9.05795ZM73.326 17.3861C73.326 18.5146 73.7086 18.8324 75.119 18.8324V19.3245L71.3271 19.5265V17.6471H71.2689C70.2387 18.9772 69.0338 19.6415 67.6218 19.6415C65.5622 19.6415 64.2114 18.1097 64.2114 16.2012V10.9665C64.2114 9.98316 63.8583 9.60727 62.3577 9.60727V9.1152L65.7107 8.79739H66.2106V16.1136C66.2106 17.5599 67.1514 18.4275 68.563 18.4275C69.562 18.4275 70.4741 17.8782 71.3271 16.7501V11.227C71.3271 9.80932 71.0909 9.63672 69.2979 9.60727V9.1152L72.8265 8.79739H73.3264V17.3857L73.326 17.3861ZM79.7874 17.3861C79.7874 18.5146 80.1397 18.8324 81.5213 18.8324V19.3245H76.023V18.832C77.6118 18.832 77.7886 18.4275 77.7886 16.8662V11.2851C77.7886 9.78111 77.4047 9.60727 75.6412 9.60727V9.1152L79.2875 8.79739H79.7878V11.0241C81.7285 9.377 82.6397 8.79781 83.3459 8.79781C83.9345 8.79781 84.7284 9.14549 85.2583 9.60768L84.4635 11.4291C83.6113 10.9669 82.6975 10.5329 81.9934 10.5329C81.3167 10.5329 80.7278 10.8802 79.787 11.7767V17.3861H79.7874ZM93.1828 12.5866C93.2714 10.3304 91.7122 9.40438 90.3883 9.40438C88.6544 9.40438 87.6242 10.6781 87.5069 12.5866H93.1828ZM87.5073 13.0783C87.4483 17.6761 90.2411 18.8328 91.6544 18.8328C93.0942 18.8328 93.8283 18.3404 95.3289 16.692V17.445C94.0649 19.0353 92.858 19.6411 91.0355 19.6411C87.771 19.6411 85.4182 17.4156 85.4182 14.3213C85.4182 11.227 87.7123 8.79739 90.6537 8.79739C93.0647 8.79739 95.2985 10.7059 95.1521 13.0783H87.5077H87.5073ZM10.934 23.3875C10.3181 21.0496 9.01873 20.0311 6.84058 20.0311C3.8014 20.0311 2.17211 22.4345 2.17211 25.618C2.17211 29.3404 4.1313 31.7866 6.97052 31.7866C8.95207 31.7866 10.4278 30.878 11.3749 29.0587L11.704 29.3616C10.8686 31.3315 8.86474 32.5654 6.44318 32.5654C3.40568 32.5654 0.234863 30.5299 0.234863 26.3959C0.234863 22.4569 2.98718 19.5552 6.75157 19.5552C8.33655 19.5552 9.5254 20.075 10.273 20.075C10.6046 20.075 10.8235 19.9439 10.9551 19.685H11.3082V23.3871H10.9328L10.934 23.3875ZM16.7618 24.8164C15.1123 24.8164 14.1196 26.2449 14.1196 28.4517C14.1196 30.4233 14.9562 32.0684 16.7614 32.0684C18.6092 32.0684 19.4032 30.315 19.4032 28.4517C19.4032 26.5258 18.5679 24.8164 16.7614 24.8164H16.7618ZM16.7618 32.5015C14.3179 32.5015 12.4916 30.7693 12.4916 28.4522C12.4916 26.1155 14.3183 24.3833 16.7618 24.3833C19.2053 24.3833 21.032 26.1155 21.032 28.4517C21.032 30.7693 19.2053 32.5011 16.7618 32.5011V32.5015ZM30.0766 30.5972C30.0766 31.5912 30.2968 31.8949 31.3971 31.8949V32.2642H27.2374V31.8949C28.2934 31.8949 28.5802 31.6568 28.5802 30.9432V26.9378C28.5802 25.7056 27.6766 25.1857 26.8408 25.1857C26.0701 25.1857 25.3879 25.6612 24.6176 26.6785V30.4241C24.6176 31.5921 24.7707 31.8958 25.938 31.8958V32.265H21.8218V31.8958C22.8554 31.8958 23.1195 31.8086 23.1195 30.4241V26.1155C23.1195 25.1853 22.8777 24.9899 21.8218 24.9899V24.6223L24.2421 24.3833H24.6176V25.9184C25.5415 24.8812 26.4443 24.3833 27.4344 24.3833C28.7325 24.3833 30.0766 25.2936 30.0766 27.1324V30.5967V30.5972ZM36.5195 26.7424C36.3655 25.4657 35.507 24.8164 34.5818 24.8164C33.8115 24.8164 33.2825 25.228 33.2825 25.8549C33.2825 27.8037 37.3768 27.2834 37.3768 30.1408C37.3768 31.4186 36.2554 32.5015 34.9122 32.5015C34.0532 32.5015 33.3057 31.9373 32.9306 31.9373C32.6454 31.9373 32.4455 32.1767 32.4235 32.4575H32.0502V29.8383H32.4239C32.756 31.4406 33.9667 32.0688 34.9341 32.0688C35.7061 32.0688 36.2997 31.5045 36.2997 30.7469C36.2997 28.6061 32.1603 29.1886 32.1603 26.5918C32.1603 25.401 33.2403 24.3837 34.5379 24.3837C35.3543 24.3837 35.596 24.753 36.1242 24.753C36.3216 24.753 36.4752 24.6443 36.5853 24.3837H36.9599V26.7428H36.5199L36.5195 26.7424ZM44.02 27.2183C44.0854 25.5296 42.9189 24.8388 41.9284 24.8388C40.629 24.8388 39.8599 25.7906 39.77 27.2183H44.02ZM39.77 27.5875C39.7266 31.0286 41.8182 31.8949 42.8742 31.8949C43.9534 31.8949 44.5039 31.5273 45.6265 30.2934V30.8548C44.6794 32.0455 43.7766 32.5019 42.4118 32.5019C39.9692 32.5019 38.2074 30.8349 38.2074 28.5173C38.2074 26.2009 39.9236 24.3833 42.1254 24.3833C43.9302 24.3833 45.6046 25.8134 45.4945 27.5871H39.77V27.5875ZM49.3736 30.8133C49.3736 31.6568 49.6373 31.8949 50.673 31.8949V32.2642H46.5555V31.8949C47.7439 31.8949 47.876 31.5912 47.876 30.4233V26.2453C47.876 25.1197 47.5891 24.9899 46.2695 24.9899V24.6223L48.9981 24.3833H49.3736V26.0499C50.8261 24.8164 51.5083 24.3833 52.0373 24.3833C52.4778 24.3833 53.0709 24.6438 53.4683 24.9899L52.8735 26.352C52.2343 26.0076 51.5522 25.6823 51.0236 25.6823C50.5173 25.6823 50.0773 25.942 49.374 26.6129V30.8137L49.3736 30.8133ZM58.6629 30.4005L60.1816 26.5254C60.5571 25.5296 60.5571 25.0774 59.4117 24.9903V24.6223H62.2737V24.9899C61.3709 25.077 61.1515 25.2707 60.776 26.0926L58.2659 32.4364H57.8934L55.4043 26.4175C54.8761 25.1637 54.6774 25.0326 53.7535 24.9903V24.6223H57.5179V24.9899C56.7691 25.0554 56.5721 25.4657 56.9239 26.3092L58.662 30.4001L58.6629 30.4005ZM77.8114 30.5972C77.8114 31.5912 78.0329 31.8949 79.1327 31.8949V32.2642H74.973V31.8949C76.0298 31.8949 76.3154 31.6568 76.3154 30.9432V26.9378C76.3154 25.7056 75.4113 25.1857 74.5756 25.1857C73.8048 25.1857 73.1243 25.6612 72.3523 26.6785V30.4241C72.3523 31.5921 72.5071 31.8958 73.6745 31.8958V32.265H69.557V31.8958C70.5922 31.8958 70.8563 31.8086 70.8563 30.4241V26.1155C70.8563 25.1853 70.6125 24.9899 69.557 24.9899V24.6223L71.9785 24.3833H72.3523V25.9184C73.2775 24.8812 74.1799 24.3833 75.1696 24.3833C76.4702 24.3833 77.8114 25.2936 77.8114 27.1324V30.5967V30.5972ZM86.4758 27.0884H86.1004C85.7688 25.7051 84.7799 24.8164 83.4805 24.8164C81.9407 24.8164 80.8615 26.1151 80.8615 27.9974C80.8615 30.0976 82.2039 31.8526 83.7893 31.8526C84.736 31.8526 85.8806 31.3547 86.6944 30.2499V30.8133C85.8591 31.9377 84.6694 32.5019 83.2616 32.5019C80.9489 32.5019 79.3424 30.9204 79.3424 28.6256C79.3424 26.2665 81.148 24.3833 83.3704 24.3833C84.5382 24.3833 85.176 24.8164 85.5726 24.8164C85.7692 24.8164 85.9692 24.6654 86.1008 24.3833H86.4763V27.0884H86.4758ZM92.0669 30.4872L93.433 26.4387C93.7409 25.5301 93.6751 25.0322 92.817 24.9899V24.6223H95.5685V24.9899C94.7311 24.9899 94.2257 25.5097 93.7852 26.7864L90.6811 35.8136C90.0639 37.5885 89.0514 38.6058 88.1043 38.6058C87.7752 38.6058 87.5331 38.5204 87.1361 38.2822L87.6432 36.9616C87.9503 37.0915 88.1254 37.1342 88.3907 37.1342C89.3357 37.1342 89.8884 36.5928 90.3719 35.2506L91.3856 32.4791L88.5894 26.1366C88.1929 25.2488 87.906 25.0114 87.0032 24.9899V24.6223H90.7452V24.9899C90.1512 25.077 89.9091 25.5097 90.1959 26.1582L92.0661 30.4872H92.0669ZM50.4595 17.2417C50.0478 18.1089 48.9302 18.5437 48.3134 18.5437C47.4604 18.5437 46.7251 17.7043 46.7251 16.6629C46.7251 14.5802 48.4885 14.6113 50.4599 13.772V17.2417H50.4595ZM52.455 17.0936L52.4592 12.5572C52.4592 9.78152 50.4308 8.79739 48.694 8.79739C46.8124 8.79739 45.284 10.0421 44.8423 11.9506L45.3726 12.0946C45.8143 10.62 46.9596 9.89811 48.1367 9.89811C49.6061 9.89811 50.4595 10.9387 50.4595 12.385V13.1347C48.7551 14.1201 44.6954 14.0035 44.6954 16.9239C44.6954 18.4279 46.048 19.6415 47.6654 19.6415C48.7551 19.6415 49.5529 19.2191 50.5831 18.1205L50.589 18.1163V19.3486H54.2425V18.8507C52.7541 18.8507 52.455 18.4399 52.455 17.094V17.0936ZM66.4663 30.6959C66.1626 31.339 65.3331 31.6609 64.875 31.6609C64.243 31.6609 63.698 31.0398 63.698 30.2669C63.698 28.7235 65.0058 28.7463 66.4667 28.1236V30.6959H66.4663ZM67.9454 30.5847L67.9496 27.222C67.9496 25.1649 66.4448 24.4352 65.1576 24.4352C63.7633 24.4352 62.6298 25.3575 62.3024 26.7731L62.6964 26.8801C63.0225 25.7865 63.8722 25.2504 64.7446 25.2504C65.8343 25.2504 66.4659 26.0229 66.4659 27.095V27.651C65.2024 28.3812 62.1931 28.2953 62.1931 30.4606C62.1931 31.5755 63.1964 32.475 64.3953 32.475C65.2024 32.475 65.7947 32.1609 66.5587 31.3464L66.5629 31.344V32.2567H69.2692V31.8866C68.1665 31.8866 67.9445 31.5838 67.9445 30.5847H67.9454Z" fill="#6C767D"/>
</svg>
