<svg width="126" height="52" viewBox="0 0 126 52" fill="none" xmlns="http://www.w3.org/2000/svg">
<g clip-path="url(#clip0_889_848)">
<path d="M56.401 18.0087C53.581 17.1083 51.5505 14.5195 51.5505 11.368C51.5505 10.8052 51.6633 10.2425 51.7761 9.67969L56.2882 10.2425C56.2882 10.2425 57.9803 10.355 57.9803 13.394C57.8675 16.4329 56.401 18.0087 56.401 18.0087Z" fill="#6C767D"/>
<path d="M60.462 18.0087C63.2821 17.1083 65.3125 14.5195 65.3125 11.368C65.3125 10.8052 65.1997 10.2425 65.0869 9.67969L60.5748 10.2425C60.5748 10.2425 58.8828 10.355 58.8828 13.394C59.1084 16.4329 60.462 18.0087 60.462 18.0087Z" fill="#6C767D"/>
<path d="M58.4315 6.52793C58.9955 6.52793 59.4467 6.97814 59.4467 7.54091C59.4467 7.99113 59.1083 8.32879 58.7699 8.5539C58.7699 8.5539 58.6571 8.5539 58.6571 8.66646C58.6571 8.77901 58.8827 8.77901 58.9955 8.77901L64.974 9.45433C64.0716 6.64048 61.4771 4.50195 58.3187 4.50195C55.1602 4.50195 52.5657 6.52793 51.6633 9.45433L57.6418 8.77901C57.7546 8.77901 57.9803 8.77901 57.9803 8.66646C57.9803 8.5539 57.9803 8.5539 57.8674 8.5539C57.529 8.32879 57.1906 7.99113 57.1906 7.54091C57.4162 6.97814 57.8674 6.52793 58.4315 6.52793Z" fill="#6C767D"/>
<path d="M61.2515 22.8485L61.7027 22.6234C61.7027 22.6234 59.785 20.0347 55.4985 20.0347C53.2425 20.0347 52.1145 20.9351 50.5353 20.9351C50.5353 20.9351 49.8584 21.0477 49.2944 20.5974C49.2944 20.5974 49.9712 21.723 52.6785 21.723C54.5961 21.723 56.0626 20.5974 57.4162 20.5974C59.221 20.4849 60.5746 22.1732 61.2515 22.8485Z" fill="#6C767D"/>
<path d="M55.1602 22.8485L54.709 22.6234C54.709 22.6234 56.6266 20.0347 60.9131 20.0347C63.1691 20.0347 64.2972 20.9351 65.8764 20.9351C65.8764 20.9351 66.5532 21.0477 67.1172 20.5974C67.1172 20.5974 66.4404 21.723 63.7332 21.723C61.8155 21.723 60.3491 20.5974 58.9955 20.5974C57.1906 20.4849 55.7242 22.1732 55.1602 22.8485Z" fill="#6C767D"/>
<path d="M53.1297 19.8093C53.0169 20.0344 52.2273 19.8093 51.6633 19.9218C51.0993 20.1469 47.7152 20.4846 46.2488 17.108C46.2488 17.108 47.6024 18.5712 48.7304 18.6837C49.8584 18.7963 50.9865 19.0214 52.0017 19.5842H52.2273C52.2273 19.5842 52.2273 19.4716 52.1145 19.4716C52.0017 19.3591 50.9865 19.0214 50.4225 17.4456C50.1969 16.6578 50.1969 15.9824 50.0841 15.5322C50.0841 15.5322 51.2121 16.7703 51.6633 17.5582C52.1145 18.3461 52.2273 19.2465 53.1297 19.8093Z" fill="#6C767D"/>
<path d="M49.7458 18.1213C49.633 18.2339 49.4074 18.1213 49.4074 18.0088C49.2946 18.0088 48.8433 17.6711 47.8281 17.446C46.9257 17.1083 45.1209 15.6451 45.3465 13.1689C45.3465 13.1689 45.5721 14.0694 46.3617 14.7447C47.0385 15.42 47.3769 15.42 47.7153 15.9828C48.0537 16.5456 49.0689 17.6711 49.1818 17.6711V17.5586C49.0689 17.446 48.8433 16.8832 48.7305 16.6581C48.6177 16.433 48.0537 14.9698 48.8433 13.1689C48.8433 13.1689 49.633 14.5196 49.5202 15.8702C49.5202 17.2209 49.4074 16.8832 49.7458 18.0088C49.633 17.7837 49.7458 18.0088 49.7458 18.1213Z" fill="#6C767D"/>
<path d="M47.6026 14.8572C47.6026 14.8572 47.377 14.6321 47.1514 14.2944C47.0386 14.0693 45.9106 12.9438 45.7978 12.6061C45.685 12.381 44.4441 10.9178 45.3466 8.7793C45.3466 8.7793 45.4594 8.7793 45.4594 9.22951C45.4594 9.67973 45.9106 10.9178 46.3618 11.368C46.7002 11.8183 47.0386 12.6061 47.1514 13.5066C47.1514 13.5066 47.1514 13.6191 47.2642 13.6191C47.377 13.7317 47.377 13.5066 47.377 13.5066C47.377 13.5066 47.377 12.7187 47.377 12.2685C47.377 11.8183 47.6026 10.9178 48.0538 10.3551C48.0538 10.3551 48.2794 10.1299 48.3922 9.79228C48.3922 9.79228 48.505 9.56717 48.6178 9.45462C48.6178 9.45462 48.7306 10.9178 48.1666 12.2685C47.7154 13.6191 47.4898 13.8442 47.6026 14.6321V14.8572Z" fill="#6C767D"/>
<path d="M46.8128 10.8052C46.8128 10.8052 46.7 10.5801 46.7 10.4676C46.7 10.355 46.4744 9.4546 46.4744 9.34204C46.3616 9.11693 46.0232 8.32905 46.0232 7.42862C46.0232 6.52819 46.4744 5.17754 47.3768 4.16455C47.3768 4.16455 47.3768 4.50221 47.0384 5.17754C46.7 5.85286 46.9256 6.52819 46.9256 6.64074C46.9256 6.7533 47.0384 7.54117 47.0384 7.87884C47.0384 8.2165 46.9256 9.11693 46.9256 9.34204V9.45459L47.0384 9.34204C47.0384 9.34204 47.0384 8.55416 47.7152 7.87884C48.2792 7.20351 49.4073 6.7533 49.5201 6.41563C49.5201 6.41563 49.4073 7.54118 48.1664 8.77927C47.0384 9.90481 47.3768 9.34204 47.0384 10.355C47.0384 10.355 46.8128 10.6927 46.8128 10.8052Z" fill="#6C767D"/>
<path d="M47.4897 6.97829C47.4897 6.97829 47.4897 6.86574 47.6026 6.52807C47.8282 6.19041 47.6026 5.51509 47.8282 4.72721C48.0538 3.82678 48.505 2.36357 50.3098 1.35059C50.3098 1.35059 50.0842 1.46314 50.0842 1.68825C50.0842 1.91336 49.5202 2.70124 49.4074 3.37656C49.2946 4.05188 48.6178 5.06487 48.3922 5.28998C48.1666 5.51509 48.2794 5.51509 48.2794 5.51509C48.2794 5.51509 48.3922 5.51509 48.505 5.28998C48.6178 5.06487 49.1818 4.5021 49.8586 4.27699C50.5354 4.16444 51.5506 3.82678 51.5506 3.71422C51.5506 3.71422 50.4226 4.83976 49.4074 5.40253C48.3922 5.9653 48.2794 5.85275 47.6026 6.64063C47.7154 6.75318 47.4897 6.97829 47.4897 6.97829Z" fill="#6C767D"/>
<path d="M49.8586 3.60173C49.8586 3.60173 49.8586 3.48918 50.0842 3.37662C50.3099 3.26407 50.4227 2.7013 50.7611 2.13853C51.0995 1.57576 51.8891 0.337662 53.8067 0C53.8067 0 53.2427 0.450216 53.1299 0.562771C53.0171 0.675325 52.4531 1.4632 52.2275 1.68831C52.0019 1.91342 51.2123 2.47619 50.9867 2.58874L50.8739 2.7013H50.9867C50.9867 2.7013 51.7763 2.25108 52.5659 2.25108C53.3555 2.25108 54.2579 2.25108 54.3707 2.25108C54.3707 2.25108 53.5811 2.81385 51.7763 3.15152C49.9714 3.48918 50.3099 3.48918 49.8586 3.60173C49.9714 3.60173 49.9714 3.71429 49.8586 3.60173Z" fill="#6C767D"/>
<path d="M53.1299 1.57574C53.1299 1.57574 53.1299 1.46319 53.4683 1.35063C53.8067 1.23808 53.6939 1.01297 54.5963 0.562754C55.4987 -1.69128e-05 56.4012 -0.112571 57.4164 0.225091C57.4164 0.225091 56.9652 0.225091 56.9652 0.337645C56.9652 0.4502 56.2884 0.562754 56.0627 0.675308C55.8371 0.787862 54.9347 1.23808 54.4835 1.23808C54.0323 1.35063 54.2579 1.35063 54.2579 1.35063H54.3707C54.3707 1.35063 55.3859 1.23808 55.9499 1.46319C56.514 1.68829 56.514 1.68829 56.7396 1.80085C56.9652 1.9134 57.1908 1.9134 57.3036 2.02596C57.3036 2.02596 56.7396 2.02596 56.4012 2.02596C56.0627 2.02596 55.1603 1.9134 54.7091 1.68829C54.2579 1.46319 53.8067 1.35063 53.5811 1.46319C53.3555 1.57574 53.2427 1.57574 53.1299 1.57574Z" fill="#6C767D"/>
<path d="M56.7395 1.12561C56.7395 1.12561 56.7395 1.12561 57.0779 1.01306C57.4163 0.900504 57.4163 0.78795 57.9803 0.675396C58.5443 0.562842 59.5596 0.450288 60.3492 1.01306C60.3492 1.01306 59.7852 1.01306 59.6724 1.01306C59.5596 1.01306 58.6571 1.12561 58.4315 1.12561C58.2059 1.12561 57.7547 1.01306 57.6419 1.12561C57.5291 1.23817 58.0931 1.35072 58.0931 1.35072C58.0931 1.35072 58.5443 1.35072 58.9955 1.80094C59.4468 2.25115 59.6724 2.47626 59.7852 2.47626C59.7852 2.47626 58.5443 2.1386 58.2059 2.02605C57.8675 1.91349 57.3035 1.35072 57.1907 1.23817C57.0779 1.23817 56.7395 1.12561 56.7395 1.12561Z" fill="#6C767D"/>
<path d="M59.6724 1.57568C59.6724 1.57568 60.462 1.57568 61.026 1.91335C61.59 2.25101 62.0412 2.81378 62.154 3.03889C62.154 3.03889 61.8156 2.81378 61.59 2.70122C61.3644 2.58867 60.8004 2.25101 60.5748 2.25101C60.5748 2.25101 59.7852 1.68824 59.6724 1.57568Z" fill="#6C767D"/>
<path d="M63.5076 19.9221C63.5076 19.9221 63.6204 19.8095 63.9588 19.4718C64.2972 19.1342 64.41 18.684 64.8612 17.8961C65.3124 17.1082 65.6508 16.658 66.4404 15.8701C66.4404 15.8701 66.3276 16.4329 66.3276 16.658C66.3276 16.8831 66.2148 17.7835 65.6508 18.3463C65.1996 18.9091 65.0868 19.0216 64.5228 19.3593C64.5228 19.3593 64.2972 19.4718 64.2972 19.5844C64.2972 19.697 64.6356 19.5844 64.6356 19.5844C64.6356 19.5844 65.0868 19.4718 65.1996 19.3593C65.3124 19.2467 65.8764 19.0216 66.102 18.9091C66.3276 18.7965 66.5532 18.684 67.0044 18.5714C67.5684 18.4589 69.3733 18.0086 70.0501 16.7705C70.0501 16.7705 69.8245 17.4459 69.5989 17.7835C69.3733 18.1212 67.794 20.0346 65.7636 20.0346C65.7636 20.0346 64.974 19.9221 64.5228 19.9221C64.0716 19.8095 63.9588 19.8095 63.846 19.8095C63.9588 19.9221 63.5076 19.9221 63.5076 19.9221Z" fill="#6C767D"/>
<path d="M68.1324 12.8313C68.1324 12.8313 67.3428 14.0694 67.1172 15.8703C66.8916 17.6711 67.23 17.1084 67.0044 17.8962L66.8916 18.1213C66.8916 18.1213 67.1172 18.0088 67.6812 17.6711C68.2452 17.3335 68.8092 17.446 69.9373 16.3205C71.0653 15.1949 71.4037 12.9439 71.4037 12.7188C71.4037 12.7188 71.1781 12.9439 71.1781 13.169C71.1781 13.3941 70.9525 13.7317 70.8397 13.7317C70.8397 13.7317 69.4861 15.1949 69.3732 15.3075C69.2604 15.42 68.4708 16.3205 68.2452 16.6581C68.1324 16.8833 67.5684 17.446 67.5684 17.3335C67.5684 17.3335 67.5684 17.2209 67.5684 17.1084C67.5684 16.9958 68.0196 16.5456 68.1324 15.9828C68.2452 15.42 68.358 15.0824 68.358 14.7447C68.358 14.4071 68.1324 13.0564 68.1324 12.8313Z" fill="#6C767D"/>
<path d="M69.2606 14.5193C69.2606 14.5193 69.1478 14.2942 69.2606 14.1816C69.2606 14.0691 69.3734 13.5063 69.1478 13.0561C68.9222 12.6059 68.4709 11.1427 68.4709 10.2422C68.4709 9.34181 68.5837 9.22925 68.5837 9.22925C68.5837 9.22925 68.8094 10.0171 68.8094 10.1297C68.9222 10.2422 69.599 11.5929 69.599 12.3808C69.4862 13.0561 69.4862 13.3938 69.4862 13.3938C69.4862 13.3938 69.599 13.2812 69.599 13.1686C69.599 13.0561 69.7118 12.6059 69.9374 11.9306C70.163 11.3678 71.1782 10.0171 71.4038 9.1167C71.4038 9.1167 71.7422 10.6925 70.8398 12.0431C69.9374 13.5063 69.9374 13.1686 69.599 13.844C69.3734 14.4067 69.2606 14.5193 69.2606 14.5193Z" fill="#6C767D"/>
<path d="M70.0502 10.4678C69.9374 10.4678 70.0502 9.905 69.8246 9.67989C69.599 9.45478 68.3582 7.99158 68.1326 6.41582C68.1326 6.41582 68.9222 7.2037 69.1478 7.31625C69.2606 7.42881 69.8246 7.99158 70.0502 8.44179C70.163 8.89201 70.163 9.34223 70.2758 9.34223C70.3886 9.34223 70.3886 8.77946 70.3886 8.77946C70.3886 8.77946 70.3886 7.65391 70.5014 7.2037C70.6142 6.64093 70.8398 5.85305 70.727 5.40283C70.727 5.40283 71.1782 6.19071 71.1782 7.31625C71.1782 8.44179 70.727 9.34223 70.6142 9.45478C70.5014 9.56733 70.3886 10.1301 70.3886 10.2427C70.163 10.4678 70.0502 10.4678 70.0502 10.4678Z" fill="#6C767D"/>
<path d="M68.4708 2.58887C68.4708 2.58887 70.1629 3.60185 69.9373 6.97848C69.9373 6.97848 69.9373 7.09103 69.8245 6.97848C69.7117 6.86592 69.3733 6.30315 69.1477 6.30315C69.0348 6.1906 67.4556 5.29017 66.7788 3.82696C66.7788 3.82696 66.8916 3.82696 67.0044 3.93952C67.1172 4.05207 67.5684 4.27718 67.6812 4.38973C67.794 4.50229 68.358 4.50229 68.8092 4.9525C69.2605 5.40272 69.3733 5.74038 69.4861 5.96549C69.4861 5.96549 69.5989 6.07804 69.4861 5.85294C69.3733 5.62783 69.3733 5.40272 69.1477 5.17761C69.0348 4.7274 68.8092 4.16462 68.8092 3.71441C68.6964 3.37675 68.5836 2.81398 68.4708 2.58887Z" fill="#6C767D"/>
<path d="M68.1326 3.71424C68.1326 3.71424 68.1326 3.48913 68.0198 3.15147C67.907 2.81381 68.0198 2.47615 67.4558 1.68827C67.1174 1.23805 66.1021 0.900391 66.1021 0.900391C66.1021 0.900391 66.4406 1.35061 66.5534 1.57572C66.779 1.80082 66.779 2.02593 66.8918 2.13849C67.0046 2.25104 67.343 2.5887 67.4558 2.81381C67.4558 2.81381 67.5686 2.92636 67.5686 3.03892C67.5686 3.15147 67.4558 3.03892 67.343 2.92636C67.343 2.92636 66.6662 2.36359 66.3277 2.36359C65.9893 2.36359 65.1997 2.25104 64.9741 2.13849C64.9741 2.13849 65.8765 2.92636 66.779 3.15147C67.7942 3.26403 68.1326 3.71424 68.1326 3.71424Z" fill="#6C767D"/>
<path d="M66.102 1.68844C66.102 1.68844 65.1996 0.450344 63.6204 0.562898C63.6204 0.562898 63.7332 0.675452 63.846 0.675452C63.9588 0.675452 64.2972 1.01311 64.5228 1.12567C64.7484 1.12567 65.0868 1.46333 66.102 1.68844Z" fill="#6C767D"/>
<path d="M17.3715 0V14.9697C17.3715 16.3203 17.1459 17.4459 16.6947 18.4589C16.2435 19.4719 15.6795 20.2597 14.8899 20.9351C14.1003 21.6104 13.1979 22.0606 12.1826 22.3983C11.1674 22.7359 9.92659 22.961 8.68577 22.961C7.44494 22.961 6.31692 22.7359 5.1889 22.3983C4.06088 22.0606 3.15846 21.4978 2.48165 20.9351C1.80483 20.3723 1.12802 19.3593 0.676813 18.3463C0.225604 17.3333 0 16.2078 0 14.9697V0H4.62489V14.9697C4.62489 16.4329 4.96329 17.5584 5.64011 18.2338C6.31692 18.9091 7.44494 19.1342 8.68577 19.1342C9.92659 19.1342 10.9418 18.7965 11.6186 18.1212C12.2954 17.4459 12.6338 16.3203 12.6338 14.8571V0H17.3715Z" fill="#6C767D"/>
<path d="M39.5935 22.6234H34.8559L25.8317 7.76623V22.6234H21.2068V0H25.8317L34.9687 14.8571V0H39.5935V22.6234Z" fill="#6C767D"/>
<path d="M3.38406 37.1429C2.36885 37.1429 1.57923 36.8052 1.01522 36.2425C0.338406 35.6797 0 34.8918 0 33.8788V33.6537C0 32.9784 0.112802 32.3031 0.451209 31.8529C0.789615 31.4026 1.01522 30.9524 1.57923 30.6148C2.03044 30.2771 2.59445 30.1646 3.15846 30.1646C4.06088 30.1646 4.85049 30.5022 5.3017 31.065C5.75291 31.6278 6.09132 32.5282 6.09132 33.5412V34.3291H1.80483C1.80483 34.7793 2.03044 35.1169 2.36884 35.4546C2.70725 35.6797 3.04566 35.9048 3.49687 35.9048C4.17368 35.9048 4.73769 35.6797 5.0761 35.1169L5.97851 36.1299C5.75291 36.4676 5.3017 36.8052 4.85049 37.0304C4.39928 37.0304 3.94808 37.1429 3.38406 37.1429ZM3.15846 31.6278C2.82005 31.6278 2.48165 31.7403 2.25604 31.9654C2.03044 32.1905 1.91764 32.5282 1.80483 32.9784H4.28648V32.8659C4.28648 32.4156 4.17368 32.1905 3.94808 31.9654C3.83527 31.7403 3.49687 31.6278 3.15846 31.6278Z" fill="#6C767D"/>
<path d="M8.79848 30.2771V31.065C9.24969 30.5022 9.9265 30.1646 10.7161 30.1646C11.3929 30.1646 11.9569 30.3897 12.2953 30.8399C12.6337 31.2901 12.8594 31.8529 12.8594 32.7533V37.1429H11.1673V32.7533C11.1673 32.4156 11.0545 32.078 10.9417 31.9654C10.8289 31.8529 10.4905 31.7403 10.1521 31.7403C9.58809 31.7403 9.24969 31.9654 9.02408 32.4156V37.2555H7.10645V30.5022L8.79848 30.2771Z" fill="#6C767D"/>
<path d="M16.8076 34.8916L18.0484 30.2769H19.9661L17.71 37.0301H16.018L13.762 30.2769H15.5668L16.8076 34.8916Z" fill="#6C767D"/>
<path d="M20.7556 28.4761C20.7556 28.251 20.8684 28.0259 20.9812 27.8008C21.094 27.5757 21.4324 27.5757 21.658 27.5757C21.9964 27.5757 22.222 27.6882 22.3348 27.8008C22.5605 28.0259 22.5605 28.251 22.5605 28.4761C22.5605 28.7012 22.4476 29.0389 22.3348 29.1514C22.1092 29.3765 21.8836 29.3765 21.658 29.3765C21.3196 29.3765 21.094 29.264 20.9812 29.1514C20.8684 29.0389 20.7556 28.8138 20.7556 28.4761ZM22.6733 37.0302H20.8684V30.277H22.6733V37.0302Z" fill="#6C767D"/>
<path d="M27.9749 31.9654C27.7493 31.9654 27.5237 31.9654 27.2981 31.9654C26.6213 31.9654 26.1701 32.1905 25.9445 32.6407V37.0304H24.1396V30.2771H25.9445V31.065C26.2829 30.5022 26.8469 30.1646 27.4109 30.1646C27.6365 30.1646 27.7493 30.1646 27.9749 30.2771V31.9654Z" fill="#6C767D"/>
<path d="M28.426 33.6537C28.426 32.9784 28.5388 32.4156 28.7644 31.8529C28.99 31.2901 29.3284 30.9524 29.8925 30.6148C30.3437 30.2771 30.9077 30.1646 31.5845 30.1646C32.4869 30.1646 33.2765 30.3897 33.8405 31.065C34.4045 31.6278 34.7429 32.4156 34.8557 33.3161V33.7663C34.8557 34.7793 34.6301 35.6797 33.9533 36.2425C33.3893 36.9178 32.5997 37.1429 31.6973 37.1429C30.7949 37.1429 30.0053 36.8052 29.4412 36.2425C28.7644 35.5672 28.426 34.7793 28.426 33.6537ZM30.2309 33.7663C30.2309 34.4416 30.3437 34.8918 30.5693 35.2295C30.7949 35.5671 31.1333 35.7923 31.5845 35.7923C32.0357 35.7923 32.3741 35.5671 32.5997 35.2295C32.8253 34.8918 32.9381 34.3291 32.9381 33.6537C32.9381 32.9784 32.8253 32.5282 32.5997 32.1905C32.3741 31.8529 32.0357 31.6278 31.5845 31.6278C31.1333 31.6278 30.7949 31.8529 30.5693 32.1905C30.3437 32.5282 30.2309 32.9784 30.2309 33.7663Z" fill="#6C767D"/>
<path d="M37.5631 30.2771V31.065C38.0143 30.5022 38.6911 30.1646 39.4808 30.1646C40.1576 30.1646 40.7216 30.3897 41.06 30.8399C41.3984 31.2901 41.624 31.8529 41.624 32.7533V37.1429H39.8192V32.7533C39.8192 32.4156 39.7064 32.078 39.5936 31.9654C39.4808 31.8529 39.1424 31.7403 38.804 31.7403C38.2399 31.7403 37.9015 31.9654 37.6759 32.4156V37.2555H35.8711V30.5022L37.5631 30.2771Z" fill="#6C767D"/>
<path d="M44.7824 30.2771V31.065C45.2336 30.5022 45.9104 30.1646 46.7 30.1646C47.6024 30.1646 48.1664 30.5022 48.5048 31.1775C48.9561 30.5022 49.6329 30.1646 50.5353 30.1646C51.2121 30.1646 51.7761 30.3897 52.1145 30.8399C52.4529 31.2901 52.6785 31.9654 52.6785 32.7533V37.1429H50.8737V32.8659C50.8737 32.5282 50.7609 32.1905 50.6481 31.9654C50.5353 31.7403 50.1969 31.7403 49.8585 31.7403C49.2945 31.7403 48.9561 31.9654 48.7305 32.5282V37.1429H46.9256V32.8659C46.9256 32.5282 46.8128 32.1905 46.7 31.9654C46.5872 31.7403 46.2488 31.7403 45.9104 31.7403C45.3464 31.7403 45.008 31.9654 44.7824 32.4156V37.2555H42.9775V30.5022C43.0903 30.2771 44.7824 30.2771 44.7824 30.2771Z" fill="#6C767D"/>
<path d="M57.1907 37.1427C56.1755 37.1427 55.3859 36.805 54.8219 36.2422C54.2578 35.6795 53.9194 34.779 53.9194 33.766V33.5409C53.9194 32.8656 54.0322 32.1903 54.3706 31.7401C54.7091 31.2899 54.9347 30.8396 55.4987 30.502C55.9499 30.1643 56.5139 30.0518 57.0779 30.0518C57.9803 30.0518 58.7699 30.3894 59.2211 30.9522C59.6723 31.515 60.0108 32.4154 60.0108 33.4284V34.2163H55.7243C55.7243 34.6665 55.9499 35.0041 56.2883 35.3418C56.6267 35.5669 56.9651 35.792 57.4163 35.792C58.0931 35.792 58.6571 35.5669 58.9955 35.0041L59.8979 36.0171C59.6723 36.3548 59.2211 36.6925 58.7699 36.9176C58.2059 37.0301 57.7547 37.1427 57.1907 37.1427ZM56.9651 31.6275C56.6267 31.6275 56.2883 31.7401 56.0627 31.9652C55.8371 32.1903 55.7243 32.5279 55.6115 32.9782H58.0931V32.8656C58.0931 32.4154 57.9803 32.1903 57.7547 31.9652C57.6419 31.7401 57.3035 31.6275 56.9651 31.6275Z" fill="#6C767D"/>
<path d="M62.6051 30.2771V31.065C63.0563 30.5022 63.7331 30.1646 64.5228 30.1646C65.1996 30.1646 65.7636 30.3897 66.102 30.8399C66.4404 31.2901 66.666 31.8529 66.666 32.7533V37.1429H64.8612V32.7533C64.8612 32.4156 64.7484 32.078 64.6356 31.9654C64.5228 31.8529 64.1844 31.7403 63.8459 31.7403C63.2819 31.7403 62.9435 31.9654 62.7179 32.4156V37.2555H60.9131V30.5022L62.6051 30.2771Z" fill="#6C767D"/>
<path d="M70.2756 28.5889V30.2772H71.4036V31.6278H70.2756V35.0045C70.2756 35.2296 70.2756 35.4547 70.3884 35.5672C70.5012 35.6798 70.614 35.6798 70.9524 35.6798C71.178 35.6798 71.2908 35.6798 71.5164 35.6798V37.0304C71.178 37.143 70.8396 37.2555 70.3884 37.2555C69.1476 37.2555 68.4708 36.5802 68.4708 35.3421V31.7404H67.4556V30.3897H68.4708V28.7014H70.2756V28.5889Z" fill="#6C767D"/>
<path d="M6.09132 45.922C6.09132 46.935 5.86571 47.8355 5.4145 48.3982C4.96329 48.961 4.28648 49.2987 3.49687 49.2987C2.82005 49.2987 2.25604 49.0736 1.80483 48.6233V51.8874H0V42.4329H1.69203V43.1082C2.14324 42.5454 2.70725 42.3203 3.38406 42.3203C4.17368 42.3203 4.85049 42.658 5.3017 43.2207C5.75291 43.8961 6.09132 44.7965 6.09132 45.922ZM4.28648 45.8095C4.28648 45.1342 4.17368 44.684 3.94808 44.3463C3.72247 44.0086 3.38406 43.8961 2.93286 43.8961C2.36884 43.8961 2.03044 44.1212 1.80483 44.5714V47.2727C2.03044 47.7229 2.36884 47.948 2.93286 47.948C3.83527 47.948 4.28648 47.2727 4.28648 45.8095Z" fill="#6C767D"/>
<path d="M10.9417 44.2337C10.7161 44.2337 10.4905 44.2337 10.2649 44.2337C9.58808 44.2337 9.13688 44.4588 8.91127 44.909V49.4112H7.21924V42.658H8.91127V43.4458C9.24968 42.8831 9.81369 42.5454 10.3777 42.5454C10.6033 42.5454 10.7161 42.5454 10.9417 42.658V44.2337Z" fill="#6C767D"/>
<path d="M11.3931 45.8095C11.3931 45.1342 11.5059 44.5714 11.7315 44.0086C11.9571 43.4459 12.2955 43.1082 12.8595 42.7705C13.3107 42.4329 13.8747 42.3203 14.5515 42.3203C15.4539 42.3203 16.2436 42.5454 16.8076 43.2207C17.3716 43.7835 17.71 44.5714 17.8228 45.4718V45.922C17.8228 46.935 17.5972 47.8355 16.9204 48.3982C16.2436 48.961 15.5667 49.2987 14.6643 49.2987C13.7619 49.2987 12.9723 48.961 12.4083 48.3982C11.8443 47.8355 11.3931 46.935 11.3931 45.8095ZM13.1979 45.922C13.1979 46.5974 13.3107 47.0476 13.5363 47.3852C13.7619 47.7229 14.1003 47.948 14.5515 47.948C15.0027 47.948 15.3411 47.7229 15.5667 47.3852C15.7923 47.0476 15.9052 46.4848 15.9052 45.8095C15.9052 45.1342 15.7923 44.684 15.5667 44.3463C15.3411 44.0086 15.0027 43.7835 14.5515 43.7835C14.1003 43.7835 13.7619 44.0086 13.5363 44.3463C13.3107 44.684 13.1979 45.2467 13.1979 45.922Z" fill="#6C767D"/>
<path d="M18.6123 45.8097C18.6123 44.7967 18.8379 43.8963 19.2891 43.3335C19.7403 42.6582 20.4171 42.4331 21.3196 42.4331C21.9964 42.4331 22.5604 42.6582 23.0116 43.221L23.1244 42.5457H24.8164V49.0738C24.8164 49.6366 24.7036 50.1993 24.3652 50.6496C24.0268 51.0998 23.6884 51.4374 23.2372 51.6625C22.786 51.8877 22.222 52.0002 21.5452 52.0002C21.094 52.0002 20.5299 51.8877 20.0787 51.6625C19.6275 51.4374 19.2891 51.2123 19.0635 50.8747L19.8531 49.7491C20.3043 50.3119 20.8683 50.537 21.4324 50.537C21.8836 50.537 22.3348 50.4244 22.5604 50.1993C22.786 49.9742 23.0116 49.6366 23.0116 49.0738V48.7361C22.5604 49.1864 22.1092 49.4115 21.4324 49.4115C20.6427 49.4115 19.9659 49.0738 19.5147 48.511C19.0635 47.9483 18.6123 46.9353 18.6123 45.8097ZM20.4171 45.9223C20.4171 46.4851 20.5299 47.0478 20.7555 47.3855C20.9812 47.7231 21.3196 47.9483 21.7708 47.9483C22.3348 47.9483 22.6732 47.7231 22.8988 47.3855V44.5716C22.6732 44.1214 22.3348 44.0089 21.7708 44.0089C21.3196 44.0089 20.9812 44.234 20.7555 44.5716C20.5299 44.6842 20.4171 45.247 20.4171 45.9223Z" fill="#6C767D"/>
<path d="M30.0054 44.2337C29.7798 44.2337 29.5542 44.2337 29.3286 44.2337C28.6518 44.2337 28.2006 44.4588 27.975 44.909V49.4112H26.1702V42.658H27.8622V43.4458C28.2006 42.8831 28.7646 42.5454 29.3286 42.5454C29.5542 42.5454 29.667 42.5454 29.8926 42.658L30.0054 44.2337Z" fill="#6C767D"/>
<path d="M34.5174 49.2989C34.4046 49.0738 34.4046 48.9612 34.2918 48.7361C33.8406 49.1864 33.2766 49.524 32.5998 49.524C31.923 49.524 31.359 49.2989 31.0206 48.9612C30.6821 48.6236 30.4565 47.9483 30.4565 47.3855C30.4565 46.7102 30.6821 46.1474 31.2462 45.6972C31.8102 45.247 32.487 45.1344 33.5022 45.1344H34.2918V44.7967C34.2918 44.4591 34.179 44.234 34.0662 44.0089C33.9534 43.7838 33.615 43.7838 33.2766 43.7838C32.9382 43.7838 32.7126 43.8963 32.5998 44.0089C32.487 44.1214 32.3742 44.3465 32.3742 44.5716H30.5693C30.5693 44.234 30.6821 43.7838 30.9078 43.4461C31.1334 43.1084 31.4718 42.8833 31.923 42.6582C32.3742 42.4331 32.8254 42.4331 33.3894 42.4331C34.179 42.4331 34.8558 42.6582 35.307 43.1084C35.7582 43.5586 35.9839 44.1214 35.9839 44.9093V47.8357C35.9839 48.511 36.0967 48.9612 36.2095 49.2989V49.4115L34.5174 49.2989ZM33.051 48.0608C33.2766 48.0608 33.615 48.0608 33.7278 47.8357C33.9534 47.7232 34.0662 47.6106 34.179 47.3855V46.2599H33.5022C32.5998 46.2599 32.1486 46.5976 32.0358 47.1604V47.2729C32.0358 47.498 32.1486 47.7232 32.2614 47.8357C32.5998 47.9483 32.8254 48.0608 33.051 48.0608Z" fill="#6C767D"/>
<path d="M39.255 42.5457V43.3335C39.7062 42.7708 40.3831 42.4331 41.1727 42.4331C42.0751 42.4331 42.6391 42.7708 42.9775 43.4461C43.4287 42.7708 44.1055 42.4331 45.0079 42.4331C45.6848 42.4331 46.2488 42.6582 46.5872 43.1084C46.9256 43.5586 47.1512 44.234 47.1512 45.0219V49.4115H45.3463V45.1344C45.3463 44.7967 45.2335 44.4591 45.1207 44.234C45.0079 44.0089 44.6695 43.8963 44.3311 43.8963C43.7671 43.8963 43.4287 44.1214 43.2031 44.6842V49.4115H41.3983V45.1344C41.3983 44.7967 41.2855 44.4591 41.1727 44.234C41.0599 43.8963 40.8343 43.8963 40.383 43.8963C39.819 43.8963 39.4806 44.1214 39.255 44.5716V49.4115H37.4502V42.6582C37.563 42.5457 39.255 42.5457 39.255 42.5457Z" fill="#6C767D"/>
<path d="M50.1969 42.5457V43.3335C50.6481 42.7708 51.3249 42.4331 52.1146 42.4331C53.017 42.4331 53.581 42.7708 53.9194 43.4461C54.3706 42.7708 55.0474 42.4331 55.9498 42.4331C56.6266 42.4331 57.1906 42.6582 57.5291 43.1084C57.8675 43.5586 58.0931 44.234 58.0931 45.0219V49.4115H56.401V45.1344C56.401 44.7967 56.2882 44.4591 56.1754 44.234C56.0626 44.0089 55.7242 43.8963 55.3858 43.8963C54.8218 43.8963 54.4834 44.1214 54.2578 44.6842V49.4115H52.453V45.1344C52.453 44.7967 52.3402 44.4591 52.2274 44.234C52.1146 43.8963 51.7761 43.8963 51.4377 43.8963C50.8737 43.8963 50.5353 44.1214 50.3097 44.5716V49.4115H48.5049V42.6582C48.6177 42.5457 50.1969 42.5457 50.1969 42.5457Z" fill="#6C767D"/>
<path d="M62.718 49.4112C61.7028 49.4112 60.9132 49.0736 60.3492 48.5108C59.7852 47.948 59.4468 47.0476 59.4468 46.0346V45.8095C59.4468 45.1342 59.5596 44.4588 59.898 44.0086C60.2364 43.5584 60.462 43.1082 61.026 42.7705C61.4772 42.4329 62.0412 42.3203 62.6052 42.3203C63.5077 42.3203 64.2973 42.658 64.7485 43.2207C65.1997 43.7835 65.5381 44.6839 65.5381 45.6969V46.4848H61.2516C61.2516 46.935 61.4772 47.2727 61.8156 47.6104C62.154 47.8355 62.4924 48.0606 62.9436 48.0606C63.6205 48.0606 64.1845 47.8355 64.5229 47.2727L65.4253 48.2857C65.1997 48.6233 64.7485 48.961 64.2973 49.1861C63.7333 49.2987 63.1693 49.4112 62.718 49.4112ZM62.4924 43.7835C62.154 43.7835 61.8156 43.8961 61.59 44.1212C61.3644 44.3463 61.2516 44.6839 61.1388 45.1342H63.6205V45.0216C63.6205 44.5714 63.5077 44.3463 63.2821 44.1212C63.1693 43.8961 62.8308 43.7835 62.4924 43.7835Z" fill="#6C767D"/>
<path d="M78.7359 0H77.7207V49.4113H78.7359V0Z" fill="#6C767D"/>
<path d="M87.3088 41.3074H86.068V36.355H84.8271V35.4546L87.3088 35.2295V41.3074Z" fill="#6C767D"/>
<path d="M93.4001 16.0953C92.6105 16.0953 91.9337 16.2079 91.3697 16.433C90.6929 16.6581 90.2417 16.8832 89.7904 17.2209L90.3545 11.9308H99.153V8.3291H86.632L85.2784 20.9352L89.2264 21.1603C89.452 20.5975 89.7904 20.1473 90.2417 19.8096C90.6929 19.472 91.3697 19.3594 92.2721 19.3594C93.2873 19.3594 94.0769 19.6971 94.6409 20.4849C95.205 21.2728 95.4306 22.2858 95.4306 23.6365C95.4306 24.9871 95.205 25.8875 94.6409 26.6754C94.1897 27.3508 93.4001 27.6884 92.2721 27.6884C91.3697 27.6884 90.5801 27.4633 90.0161 26.9005C89.452 26.3378 89.1136 25.6624 89.1136 24.6495L84.8271 24.8746V24.9871C84.8271 26.9005 85.504 28.3637 86.9704 29.4893C88.4368 30.6148 90.2417 31.1776 92.2721 31.1776C94.8665 31.1776 96.7842 30.5023 98.025 29.0391C99.2658 27.6884 99.9426 25.8875 99.9426 23.6365C99.9426 21.2728 99.3786 19.3594 98.2506 18.1213C97.1226 16.8832 95.4306 16.0953 93.4001 16.0953Z" fill="#6C767D"/>
<path d="M91.0312 40.407C91.3696 40.407 91.5952 40.2944 91.8208 40.0693C92.0464 39.8442 92.0464 39.5066 92.0464 39.1689V38.8312C91.9336 39.0563 91.708 39.1689 91.5952 39.1689C91.3696 39.2814 91.2568 39.2814 91.0312 39.2814C90.4671 39.2814 90.0159 39.0563 89.6775 38.7187C89.3391 38.381 89.2263 37.8182 89.2263 37.2555C89.2263 36.6927 89.4519 36.1299 89.7903 35.7923C90.1287 35.4546 90.6928 35.2295 91.2568 35.2295C91.8208 35.2295 92.3848 35.4546 92.7232 35.7923C93.0616 36.2425 93.2872 36.8053 93.2872 37.4806V39.0563C93.2872 39.7317 93.0616 40.2944 92.7232 40.7446C92.3848 41.1949 91.8208 41.3074 91.144 41.3074C90.9184 41.3074 90.6927 41.3074 90.4671 41.1949C90.2415 41.0823 90.0159 41.0823 89.9031 40.9698L90.1287 40.0693C90.3543 40.1819 90.4671 40.1819 90.6928 40.1819C90.6928 40.407 90.8056 40.407 91.0312 40.407ZM91.144 38.4936C91.3696 38.4936 91.4824 38.4936 91.708 38.381C91.8208 38.2685 91.9336 38.1559 92.0464 38.0433V37.368C92.0464 37.0304 91.9336 36.6927 91.8208 36.4676C91.708 36.2425 91.4824 36.1299 91.2568 36.1299C91.0312 36.1299 90.8056 36.2425 90.6928 36.4676C90.58 36.6927 90.4671 36.9178 90.4671 37.2555C90.4671 37.5931 90.58 37.8182 90.6928 38.0433C90.8056 38.381 90.9184 38.4936 91.144 38.4936Z" fill="#6C767D"/>
<path d="M98.2506 36.2427C97.5738 37.0306 97.1226 37.7059 96.897 38.3812C96.6714 39.0566 96.5585 39.7319 96.5585 40.5198V41.3077H95.3177V40.5198C95.3177 39.7319 95.4305 38.944 95.7689 38.2687C96.1073 37.5934 96.5585 36.918 97.1226 36.2427H94.0769V35.3423H98.2506V36.2427Z" fill="#6C767D"/>
<path d="M102.988 41.3074H98.9275V40.5195L100.732 38.381C100.958 38.0433 101.184 37.8182 101.296 37.5931C101.409 37.368 101.522 37.1429 101.522 37.0304C101.522 36.8053 101.522 36.5801 101.296 36.4676C101.071 36.355 100.958 36.2425 100.732 36.2425C100.507 36.2425 100.281 36.355 100.168 36.4676C100.056 36.5801 99.9427 36.9178 99.9427 37.1429H98.8147C98.8147 36.5801 98.9275 36.1299 99.3787 35.7923C99.7171 35.4546 100.281 35.2295 100.845 35.2295C101.409 35.2295 101.973 35.342 102.312 35.6797C102.65 36.0174 102.876 36.355 102.876 36.9178C102.876 37.2555 102.763 37.5931 102.65 37.9308C102.537 38.2685 102.086 38.6061 101.635 39.1689L100.62 40.2944H103.101L102.988 41.3074Z" fill="#6C767D"/>
<path d="M106.485 38.2686H104.003V39.169H106.485V38.2686Z" fill="#6C767D"/>
<path d="M111.561 41.3074H107.501V40.5195L109.305 38.381C109.531 38.0433 109.757 37.8182 109.869 37.5931C109.982 37.368 110.095 37.1429 110.095 37.0304C110.095 36.8053 110.095 36.5801 109.869 36.4676C109.644 36.355 109.531 36.2425 109.305 36.2425C109.08 36.2425 108.854 36.355 108.741 36.4676C108.629 36.5801 108.516 36.9178 108.516 37.1429H107.388C107.388 36.5801 107.5 36.1299 107.952 35.7923C108.29 35.4546 108.854 35.2295 109.418 35.2295C109.982 35.2295 110.546 35.342 110.885 35.6797C111.223 36.0174 111.449 36.355 111.449 36.9178C111.449 37.2555 111.336 37.5931 111.223 37.9308C111.11 38.2685 110.659 38.6061 110.208 39.1689L109.193 40.2944H111.674L111.561 41.3074Z" fill="#6C767D"/>
<path d="M116.299 39.1689C116.299 39.8442 116.073 40.407 115.735 40.8572C115.396 41.3074 114.832 41.42 114.268 41.42C113.704 41.42 113.14 41.1949 112.802 40.8572C112.464 40.5195 112.238 39.9568 112.238 39.1689V37.4806C112.238 36.8052 112.464 36.2425 112.802 35.7923C113.14 35.342 113.704 35.2295 114.268 35.2295C114.832 35.2295 115.396 35.4546 115.735 35.7923C116.073 36.2425 116.299 36.6927 116.299 37.4806V39.1689ZM115.058 37.368C115.058 37.0304 114.945 36.6927 114.832 36.4676C114.72 36.2425 114.494 36.1299 114.268 36.1299C114.043 36.1299 113.817 36.2425 113.704 36.4676C113.592 36.6927 113.479 37.0304 113.479 37.368V39.2814C113.479 39.6191 113.592 39.9568 113.704 40.1819C113.817 40.407 114.043 40.5195 114.268 40.5195C114.494 40.5195 114.72 40.407 114.832 40.1819C114.945 39.9568 115.058 39.6191 115.058 39.2814V37.368Z" fill="#6C767D"/>
<path d="M121.15 41.3074H117.089V40.5195L118.893 38.381C119.119 38.0433 119.345 37.8182 119.457 37.5931C119.57 37.368 119.683 37.1429 119.683 37.0304C119.683 36.8053 119.683 36.5801 119.457 36.4676C119.232 36.355 119.119 36.2425 118.893 36.2425C118.668 36.2425 118.442 36.355 118.329 36.4676C118.217 36.5801 118.104 36.9178 118.104 37.1429H116.976C116.976 36.5801 117.089 36.1299 117.54 35.7923C117.878 35.4546 118.442 35.2295 119.006 35.2295C119.57 35.2295 120.134 35.342 120.473 35.6797C120.811 36.0174 121.037 36.355 121.037 36.9178C121.037 37.2555 120.924 37.5931 120.811 37.9308C120.698 38.2685 120.247 38.6061 119.796 39.1689L118.781 40.2944H121.262L121.15 41.3074Z" fill="#6C767D"/>
<path d="M126 41.3074H121.939V40.5195L123.744 38.381C123.969 38.0433 124.195 37.8182 124.308 37.5931C124.421 37.368 124.533 37.1429 124.533 37.0304C124.533 36.8053 124.533 36.5801 124.308 36.4676C124.082 36.355 123.969 36.2425 123.744 36.2425C123.518 36.2425 123.293 36.355 123.18 36.4676C123.067 36.5801 122.954 36.9178 122.954 37.1429H121.826C121.826 36.5801 121.939 36.1299 122.39 35.7923C122.729 35.4546 123.293 35.2295 123.857 35.2295C124.421 35.2295 124.985 35.342 125.323 35.6797C125.661 36.0174 125.887 36.355 125.887 36.9178C125.887 37.2555 125.774 37.5931 125.661 37.9308C125.549 38.2685 125.097 38.6061 124.646 39.1689L123.631 40.2944H126.113L126 41.3074Z" fill="#6C767D"/>
<path d="M116.638 22.7356C116.638 22.7356 115.51 24.1988 115.284 26.3373C115.058 28.4759 115.51 27.8005 115.058 28.8135L114.946 29.0386C114.946 29.0386 115.171 28.9261 115.961 28.4759C116.75 28.0257 117.54 28.1382 119.232 26.7876C120.924 25.4369 121.262 22.6231 121.262 22.3979C121.262 22.3979 121.037 22.6231 120.924 22.9607C120.811 23.2984 120.473 23.636 120.473 23.636C120.36 23.636 118.555 25.4369 118.33 25.5495C118.217 25.8871 117.089 27.0127 116.863 27.3503C116.638 27.688 115.961 28.2508 115.848 28.2508C115.848 28.2508 115.848 28.1382 115.961 28.0257C116.074 27.9131 116.525 27.3503 116.75 26.675C116.976 25.9997 116.976 25.5495 116.976 25.0992C116.976 24.649 116.638 23.0733 116.638 22.7356Z" fill="#6C767D"/>
<path d="M118.104 24.8741C118.104 24.8741 117.991 24.649 118.104 24.5364C118.217 24.4239 118.217 23.7485 117.878 23.0732C117.54 22.5104 116.863 20.8221 116.863 19.6966C116.976 18.5711 117.089 18.4585 117.089 18.4585C117.089 18.4585 117.427 19.3589 117.54 19.584C117.653 19.6966 118.781 21.3849 118.668 22.2853C118.555 23.1858 118.555 23.4109 118.555 23.5234C118.668 23.5234 118.781 23.4109 118.781 23.2983C118.781 23.1858 119.006 22.623 119.345 21.8351C119.683 21.1598 121.037 19.4715 121.375 18.4585C121.375 18.4585 121.826 20.3719 120.586 22.0602C119.345 23.7485 119.232 23.4109 118.781 24.1988C118.329 24.7615 118.217 24.8741 118.104 24.8741Z" fill="#6C767D"/>
<path d="M119.232 19.9219C119.119 19.9219 119.232 19.2466 119.006 19.0215C118.781 18.7964 116.976 16.883 116.525 15.0821C116.525 15.0821 117.653 16.0951 117.878 16.2076C118.104 16.3202 118.894 16.9955 119.119 17.5583C119.345 18.121 119.345 18.6838 119.345 18.6838C119.458 18.6838 119.458 18.0085 119.458 18.0085C119.458 18.0085 119.458 16.6578 119.57 16.0951C119.683 15.5323 120.022 14.4068 119.909 13.9565C119.909 13.9565 120.586 14.9695 120.586 16.3202C120.586 17.6708 119.909 18.7964 119.796 18.9089C119.683 19.0215 119.458 19.6968 119.458 19.8094L119.232 19.9219Z" fill="#6C767D"/>
<path d="M117.089 10.2422C117.089 10.2422 119.458 11.4803 119.119 15.6448C119.119 15.6448 119.119 15.8699 119.006 15.6448C118.894 15.4197 118.33 14.8569 118.104 14.7444C117.878 14.6318 115.735 13.5063 114.833 11.8179C114.833 11.8179 114.946 11.8179 115.171 11.9305C115.397 12.0431 116.074 12.3807 116.186 12.4933C116.299 12.4933 117.089 12.7184 117.54 13.2811C117.991 13.8439 118.33 14.1816 118.442 14.5192C118.442 14.5192 118.555 14.6318 118.555 14.2941C118.442 13.9565 118.442 13.7314 118.104 13.3937C117.878 13.056 117.54 12.2682 117.54 11.8179C117.427 11.2552 117.314 10.4673 117.089 10.2422Z" fill="#6C767D"/>
<path d="M116.638 11.7055C116.638 11.7055 116.75 11.4804 116.412 11.0302C116.074 10.5799 116.299 10.2423 115.622 9.2293C115.171 8.66652 113.818 8.21631 113.818 8.21631C113.818 8.21631 114.269 8.66652 114.494 9.00419C114.72 9.2293 114.833 9.4544 114.946 9.56696C115.058 9.67951 115.51 10.1297 115.735 10.3548C115.735 10.3548 115.848 10.4674 115.848 10.5799C115.848 10.6925 115.622 10.5799 115.622 10.4674C115.51 10.4674 114.72 9.90462 114.156 9.79207C113.592 9.67951 112.577 9.56696 112.238 9.4544C112.238 9.4544 113.479 10.4674 114.833 10.6925C116.186 11.0302 116.638 11.7055 116.638 11.7055Z" fill="#6C767D"/>
<path d="M115.284 29.7143C114.607 29.9394 114.269 30.0519 113.93 30.1645C113.592 30.277 112.802 30.6147 112.577 30.7273C112.351 30.8398 111.787 30.9524 111.787 30.9524C111.787 30.9524 111.223 31.0649 111.223 30.9524L111.449 30.7273C112.238 30.277 112.238 30.1645 112.915 29.4892C113.592 28.8138 113.817 27.5757 113.817 27.3506C113.817 27.1255 114.043 26.4502 114.043 26.4502C112.802 27.3506 112.351 28.026 111.787 28.9264C111.561 29.264 111.449 29.4892 111.336 29.7143C110.997 30.6147 110.546 31.29 109.982 31.29C109.869 31.4026 109.869 31.4026 109.869 31.4026C109.982 31.4026 110.546 31.4026 110.659 31.29C110.772 31.29 110.997 31.29 111.561 31.4026C112.125 31.5151 113.366 31.6277 113.366 31.6277C116.299 31.6277 118.442 29.264 118.781 28.8138C119.119 28.3636 119.458 27.5757 119.458 27.5757C118.555 29.0389 115.961 29.6017 115.284 29.7143Z" fill="#6C767D"/>
<g opacity="0.4">
<g opacity="0.4">
<path opacity="0.4" d="M114.269 31.4025C120.748 31.4025 126 26.1617 126 19.6968C126 13.232 120.748 7.99121 114.269 7.99121C107.789 7.99121 102.537 13.232 102.537 19.6968C102.537 26.1617 107.789 31.4025 114.269 31.4025Z" fill="#6C767D"/>
</g>
</g>
<g opacity="0.6">
<path opacity="0.6" d="M113.705 10.5801C113.817 10.6926 113.817 10.8052 113.93 10.8052L113.705 10.5801Z" fill="#6C767D"/>
</g>
<g opacity="0.6">
<path opacity="0.6" d="M112.69 21.3855C112.576 21.3855 112.576 21.3855 112.69 21.3855C112.69 21.3855 112.69 21.2729 112.69 21.3855Z" fill="#6C767D"/>
</g>
<g opacity="0.6">
<path opacity="0.5" d="M126.677 16.7704C126.564 16.7704 126.451 16.6578 126.451 16.5453C126.451 16.3202 126.338 15.9825 126.677 15.7574C126.79 15.6448 126.79 15.5323 126.564 15.5323C126.338 15.5323 126.338 15.4197 126.338 15.1946C126.338 14.9695 126.226 14.857 126 14.857C125.774 14.857 125.662 15.0821 125.662 15.1946C125.662 15.3072 125.774 15.5323 125.436 15.5323C125.21 15.5323 125.21 15.4197 125.098 15.3072C124.985 15.1946 124.985 15.0821 124.872 15.1946C124.759 15.3072 124.759 15.1946 124.646 15.0821C124.534 14.9695 124.421 14.7444 124.195 14.9695H124.082C123.97 14.857 123.857 14.7444 123.857 14.5193C123.744 14.5193 123.744 14.6318 123.744 14.6318C123.631 14.857 123.293 14.9695 123.067 14.857C122.954 14.7444 122.842 14.6318 122.842 14.857C122.842 14.9695 122.729 15.0821 122.954 15.1946C123.067 15.1946 123.293 15.4197 123.18 15.5323C123.067 15.7574 123.067 15.9825 123.067 16.2076C123.067 16.2076 123.067 16.3202 122.954 16.3202C122.842 16.3202 122.729 16.4327 122.616 16.4327C122.39 16.4327 122.39 16.6578 122.503 16.7704C122.503 16.8829 122.503 16.9955 122.39 16.9955C122.165 16.9955 122.165 17.2206 122.052 17.3331C121.826 17.5583 122.052 17.7834 121.939 18.0085C121.939 18.121 121.826 18.3461 121.939 18.3461C122.052 18.3461 122.165 18.2336 122.165 18.121C122.278 17.8959 122.503 17.6708 122.842 17.8959C122.729 18.121 122.503 18.2336 122.39 18.4587C122.278 18.5712 122.165 18.6838 122.278 18.9089C122.39 19.0215 122.278 19.134 122.278 19.2466C122.165 19.3591 122.165 19.2466 122.052 19.134C121.939 19.0215 121.826 19.134 121.826 19.2466C121.826 19.2466 121.826 19.3591 121.826 19.4717C121.826 19.8093 121.713 19.9219 121.375 19.8093C121.262 19.8093 121.262 19.5842 121.149 19.4717C120.585 19.9219 120.247 19.9219 119.683 19.4717C119.57 19.3591 119.57 19.4717 119.457 19.4717C119.345 19.6968 119.119 19.6968 118.893 19.6968C118.781 19.6968 118.781 19.6968 118.668 19.6968C118.442 19.6968 118.442 19.5842 118.442 19.4717C118.442 19.2466 118.555 19.134 118.668 19.134C118.781 19.134 118.893 19.134 118.893 18.9089C118.893 18.5712 118.893 18.5712 119.232 18.5712C119.457 18.5712 119.457 18.4587 119.457 18.3461C119.457 18.2336 119.345 18.121 119.345 18.121C119.232 18.0085 119.119 17.8959 119.232 17.6708C119.232 17.6708 119.232 17.6708 119.232 17.5583H119.119H119.006C118.781 17.5583 118.893 17.5583 118.893 17.7834C119.006 17.8959 119.006 18.0085 118.893 18.2336C118.781 18.3461 118.668 18.3461 118.555 18.3461C118.442 18.3461 118.329 18.3461 118.329 18.4587C118.329 18.6838 118.104 18.7963 117.878 18.9089C117.765 18.7963 117.765 18.6838 117.765 18.5712C117.765 18.4587 117.653 18.4587 117.653 18.3461C117.653 18.3461 117.653 18.2336 117.54 18.2336C117.427 18.2336 117.427 18.2336 117.427 18.3461C117.314 18.5712 117.427 19.0215 117.653 19.134C117.765 19.2466 117.765 19.3591 117.765 19.4717C117.765 19.5842 117.653 19.6968 117.54 19.6968C117.314 19.6968 117.089 19.6968 116.976 19.4717C116.75 19.134 116.75 18.7963 116.863 18.5712C116.976 18.4587 116.976 18.3461 116.863 18.3461C116.75 18.2336 116.75 18.121 116.863 18.0085C116.976 17.8959 116.976 17.7834 116.863 17.7834C116.75 17.6708 116.75 17.6708 116.863 17.5583C116.976 17.4457 116.976 17.3331 117.201 17.2206C117.314 17.2206 117.314 17.108 117.201 17.108C117.089 17.108 117.089 16.7704 116.976 16.9955C116.976 16.9955 116.863 17.108 116.863 16.9955C116.75 16.9955 116.75 16.8829 116.75 16.8829L116.863 16.7704C117.089 16.7704 116.976 16.6578 116.976 16.5453C116.976 16.5453 116.976 16.4327 116.976 16.3202C117.089 15.8699 117.201 15.5323 117.314 15.0821C117.314 14.9695 117.427 14.7444 117.54 14.6318C117.54 14.6318 117.427 14.5193 117.54 14.4067C117.653 14.4067 117.653 14.2942 117.878 14.4067C117.765 14.2942 117.653 14.1816 117.765 13.9565C117.765 13.844 117.765 13.6189 117.653 13.6189C117.54 13.6189 117.427 13.7314 117.314 13.844C117.201 13.844 117.201 14.0691 117.201 13.9565C117.201 13.844 116.976 13.844 116.863 13.7314C116.976 13.7314 116.976 13.6189 117.089 13.6189C117.201 13.6189 117.201 13.5063 117.089 13.3937C117.089 13.3937 117.089 13.2812 116.976 13.2812C116.863 13.2812 116.75 13.1686 116.75 13.0561V12.9435C116.75 12.831 116.75 12.7184 116.525 12.831C116.299 12.9435 116.073 12.831 116.073 12.7184C115.848 12.9435 115.622 12.7184 115.509 12.6059C115.397 12.4933 115.284 12.4933 115.171 12.6059C115.171 12.7184 115.058 12.7184 114.945 12.7184C114.833 12.6059 114.607 12.7184 114.381 12.6059C114.269 12.831 114.043 13.0561 113.93 12.9435C113.817 12.831 113.705 12.9435 113.592 12.9435C113.592 12.831 113.705 12.7184 113.592 12.6059C113.479 12.4933 113.253 12.3808 113.141 12.3808C112.915 12.4933 112.802 12.2682 112.689 12.1557C112.577 12.0431 112.464 11.9305 112.464 12.1557C112.464 12.2682 112.238 12.1557 112.238 12.2682C112.351 12.4933 112.351 12.6059 112.351 12.831C112.238 12.831 112.238 12.7184 112.238 12.7184C112.125 12.7184 112.125 12.6059 112.013 12.6059C111.9 12.6059 111.9 12.831 112.013 12.831V12.9435C112.125 13.2812 112.125 13.2812 111.674 13.3937C111.674 13.2812 111.674 13.2812 111.561 13.0561C111.449 12.9435 111.449 12.831 111.223 12.831H111.11C110.997 12.4933 110.884 12.7184 110.772 12.831C110.659 12.9435 110.659 13.0561 110.659 13.1686C110.659 13.2812 110.659 13.2812 110.659 13.3937C110.546 13.6189 110.433 13.844 110.32 14.0691C110.32 14.1816 110.208 14.1816 110.32 14.1816C110.546 14.2942 110.546 14.4067 110.659 14.6318V14.7444H110.546C110.433 14.7444 110.433 14.6318 110.433 14.7444C110.433 14.857 110.32 14.9695 110.208 14.9695C110.095 14.9695 109.982 14.857 109.982 14.7444C109.982 14.6318 109.982 14.5193 110.095 14.4067C109.982 14.4067 109.869 14.4067 109.756 14.5193C109.756 14.6318 109.644 14.7444 109.531 14.5193C109.531 14.4067 109.418 14.4067 109.305 14.4067C109.192 14.4067 109.192 14.5193 109.192 14.6318C109.08 14.7444 109.08 14.857 108.967 15.0821C108.854 15.3072 108.741 15.3072 108.516 15.1946C108.403 15.0821 108.29 14.9695 108.177 14.9695C108.064 14.9695 107.952 14.9695 107.952 14.857C107.839 14.7444 107.839 14.6318 107.726 14.7444C107.5 14.7444 107.388 14.7444 107.275 14.4067C107.275 14.2942 107.162 14.1816 107.049 14.0691C106.824 13.9565 106.824 13.7314 106.936 13.5063C107.049 13.3937 107.049 13.3937 106.936 13.2812C106.824 13.1686 106.824 13.1686 106.711 13.1686C106.598 13.1686 106.372 13.1686 106.26 13.0561C106.372 12.9435 106.485 13.0561 106.485 12.9435C106.485 12.831 106.372 12.831 106.26 12.7184C106.147 12.7184 106.147 12.7184 106.147 12.6059C106.147 12.4933 106.034 12.3808 106.147 12.3808C106.26 12.4933 106.372 12.2682 106.598 12.3808C106.711 12.4933 106.936 12.4933 107.049 12.4933C107.388 12.4933 107.388 12.4933 107.388 12.1557C107.388 11.9305 107.5 11.4803 107.613 11.3678C107.839 11.3678 107.839 11.1427 107.839 11.0301C107.839 10.9176 107.726 10.6925 107.613 10.5799C107.5 10.5799 107.275 10.4673 107.162 10.6925H107.049C106.824 10.5799 106.711 10.6925 106.598 10.805C106.485 10.9176 106.372 11.0301 106.26 11.0301V11.1427C106.26 11.1427 106.26 11.0301 106.372 11.0301C106.372 10.805 106.26 10.805 106.147 10.9176C106.034 11.0301 105.921 11.0301 106.034 11.1427C106.26 11.3678 105.921 11.5929 105.921 11.7054C105.921 11.818 105.921 11.818 105.808 11.9305C105.696 11.818 105.696 11.7054 105.583 11.9305C105.47 12.1557 105.357 12.0431 105.244 11.818C105.244 12.0431 105.244 12.1557 105.019 12.1557C104.906 12.1557 104.906 12.1557 104.906 12.2682C105.019 12.3808 104.906 12.4933 104.793 12.6059C104.793 12.7184 104.906 12.831 104.906 13.0561C104.906 13.1686 104.793 13.1686 104.793 13.2812C104.68 13.2812 104.568 13.3937 104.568 13.5063C104.568 13.6189 104.455 13.6189 104.455 13.6189C104.229 13.7314 104.116 13.9565 104.229 14.0691C104.229 14.2942 104.116 14.5193 104.004 14.7444C104.004 14.7444 103.778 14.7444 103.665 14.857C103.552 14.857 103.552 14.857 103.44 14.9695C103.44 15.0821 103.778 15.1946 103.552 15.3072C103.44 15.3072 103.44 15.4197 103.44 15.5323C103.44 15.6448 103.327 15.7574 103.214 15.7574C103.101 15.7574 103.101 15.6448 103.214 15.5323C103.214 15.5323 103.214 15.5323 103.214 15.4197C103.327 14.857 103.327 14.2942 103.665 13.844C103.891 13.6189 103.891 13.2812 104.116 13.0561C104.229 13.0561 104.229 12.831 104.116 12.7184C104.004 12.6059 104.004 12.4933 104.229 12.4933C104.342 12.4933 104.455 12.3808 104.568 12.4933C104.793 12.4933 104.793 12.4933 104.793 12.2682C104.793 12.0431 104.68 11.818 104.568 11.7054C104.116 11.818 103.891 12.2682 103.778 12.6059C103.778 12.9435 103.552 13.1686 103.327 13.3937C103.214 13.5063 102.988 13.7314 103.101 13.9565C103.214 14.0691 103.101 14.1816 103.101 14.4067C103.101 14.5193 102.988 14.5193 102.876 14.5193C102.763 14.5193 102.763 14.5193 102.763 14.5193C102.763 14.6318 102.65 14.7444 102.65 14.857C102.65 14.9695 102.537 15.1946 102.537 15.1946C102.312 15.3072 102.424 15.4197 102.424 15.6448C102.537 15.8699 102.537 15.9825 102.537 16.2076C102.312 16.9955 102.312 17.7834 102.199 18.5712C102.199 18.7963 102.199 19.134 102.199 19.3591C102.312 20.0344 102.424 20.7098 102.537 21.3851C102.537 22.173 102.763 22.8483 103.327 23.5236C103.665 23.8613 103.891 24.4241 104.004 24.8743C104.116 25.2119 104.342 25.5496 104.568 25.7747C104.793 26.1124 105.132 26.3375 105.357 26.6751C105.583 26.9002 105.696 27.1254 106.034 27.2379C106.147 27.2379 106.147 27.3505 106.26 27.463C106.372 27.5756 106.372 27.6881 106.485 27.8007C106.598 27.8007 106.711 27.8007 106.824 27.9132L106.936 28.0258C107.275 28.0258 107.275 28.3634 107.613 28.3634C107.726 28.3634 107.726 28.3634 107.726 28.476C107.726 28.5886 107.839 28.5886 107.952 28.476C108.064 28.3634 108.064 28.3634 107.952 28.2509C107.839 28.1383 107.726 27.9132 107.5 27.8007C107.388 27.6881 107.388 27.463 107.275 27.3505C107.049 27.1253 107.049 26.9002 107.049 26.6751C107.049 26.45 107.049 26.3375 107.049 26.1124C107.049 25.8873 106.936 25.7747 106.824 25.6621C106.598 25.5496 106.372 25.3245 106.26 25.0994C106.147 24.9868 106.034 24.8743 106.034 24.7617C106.034 24.7617 106.034 24.6492 105.921 24.6492C105.808 24.6492 105.808 24.6492 105.808 24.7617C105.808 24.7617 105.808 24.8743 105.696 24.7617C105.696 24.6492 105.696 24.5366 105.696 24.5366C105.696 24.4241 105.696 24.4241 105.583 24.4241C105.357 24.4241 105.357 24.1989 105.357 24.0864C105.357 23.8613 105.357 23.8613 105.132 23.9738C105.019 23.9738 104.906 23.9738 104.793 23.8613C104.68 23.7487 104.568 23.6362 104.342 23.6362C104.229 23.6362 104.116 23.5236 104.229 23.5236C104.342 23.2985 104.116 22.9608 104.455 22.7357C104.568 22.7357 104.455 22.6232 104.342 22.5106C104.229 22.3981 104.229 22.173 104.342 22.0604C104.568 21.7228 104.568 21.7228 104.229 21.4976C104.116 21.3851 104.004 21.2725 104.229 21.16C104.342 21.0474 104.342 21.0474 104.342 20.9349C104.342 20.7098 104.455 20.5972 104.568 20.5972C104.68 20.5972 104.906 20.5972 105.019 20.5972C105.019 20.5972 105.132 20.5972 105.132 20.4847C105.132 20.3721 105.244 20.2595 105.132 20.147C105.019 20.147 105.019 20.0344 105.019 19.9219C105.019 19.8093 105.132 19.8093 105.244 19.8093C105.357 19.8093 105.47 19.8093 105.583 19.6968C105.696 19.5842 105.808 19.6968 105.808 19.6968C106.147 19.8093 106.485 19.8093 106.711 19.6968C106.485 19.6968 106.26 19.6968 106.034 19.5842C105.921 19.5842 105.808 19.5842 105.921 19.3591C106.034 19.2466 106.034 19.134 106.147 19.2466C106.26 19.3591 106.485 19.2466 106.598 19.2466H106.936C106.936 19.134 107.049 19.0215 107.162 19.0215H107.275C107.275 18.9089 107.388 18.9089 107.388 18.7963C108.064 18.7963 108.064 18.6838 108.064 18.5712C108.064 18.3461 108.177 18.3461 108.29 18.2336C108.29 18.121 108.29 18.0085 108.403 17.8959L108.516 17.7834C108.516 17.7834 108.403 17.7834 108.403 17.6708C108.403 17.3331 108.29 17.108 107.952 17.2206C107.839 17.2206 107.839 17.2206 107.726 17.108C107.613 16.9955 107.613 16.8829 107.726 16.8829C107.952 16.7704 107.952 16.5453 107.952 16.3202C107.952 16.2076 107.952 15.8699 108.177 15.9825C108.29 15.9825 108.516 15.9825 108.628 15.9825C108.854 15.9825 108.854 16.095 108.854 16.2076C108.967 16.3202 108.741 16.3202 108.741 16.3202C108.741 16.3202 108.741 16.3202 108.854 16.3202C108.854 16.2076 108.854 16.095 108.741 16.2076C108.628 16.3202 108.628 16.4327 108.741 16.5453C108.741 16.6578 108.854 16.7704 108.967 16.6578C109.08 16.5453 109.08 16.5453 109.192 16.6578C109.305 16.7704 109.418 16.6578 109.644 16.6578C109.644 16.5453 109.756 16.3202 109.531 16.3202C109.192 16.2076 109.192 15.9825 109.305 15.7574V15.8699C109.305 16.095 109.418 15.9825 109.531 15.9825C109.756 15.9825 109.644 15.8699 109.644 15.7574C109.644 15.5323 109.756 15.4197 109.982 15.5323C110.208 15.6448 110.433 15.5323 110.433 15.7574H110.546C110.659 15.7574 110.659 15.7574 110.772 15.7574C110.772 15.7574 110.772 15.7574 110.772 15.8699C110.772 15.9825 110.659 15.9825 110.772 16.095C110.884 16.2076 110.884 15.9825 110.884 15.9825C110.997 15.9825 111.11 15.9825 111.11 15.9825C111.336 16.2076 111.336 15.9825 111.336 15.8699C111.336 15.8699 111.223 15.7574 111.336 15.6448C111.561 15.9825 111.674 15.9825 111.787 15.8699C112.013 15.7574 112.013 15.8699 112.013 15.9825C112.125 16.095 112.013 16.2076 111.9 16.3202C111.787 16.4327 111.787 16.5453 111.787 16.6578C111.9 16.7704 111.787 16.8829 111.674 16.8829C111.449 16.8829 111.223 16.8829 111.11 16.6578C110.997 16.7704 110.884 16.8829 111.223 16.8829C111.336 16.8829 111.449 16.9955 111.336 17.108C111.223 17.2206 111.223 17.4457 111.336 17.5583C111.449 17.5583 111.449 17.5583 111.449 17.4457C111.449 17.2206 111.561 17.108 111.674 17.108C111.787 17.108 111.787 17.3331 111.787 17.4457C111.787 17.5583 111.787 17.6708 111.9 17.6708C112.013 17.6708 112.013 17.6708 112.125 17.6708C112.238 17.6708 112.238 17.6708 112.351 17.6708C112.351 17.6708 112.351 17.6708 112.464 17.6708C112.577 17.6708 112.577 17.4457 112.577 17.3331C112.577 17.2206 112.689 17.108 112.802 17.108C112.915 17.108 112.915 17.2206 112.915 17.3331C112.915 17.5583 112.915 17.6708 113.141 17.6708H113.253C113.366 17.6708 113.366 17.6708 113.479 17.6708C113.366 17.4457 113.479 17.3331 113.366 17.108C113.366 16.9955 113.366 16.8829 113.253 16.7704V16.6578C113.479 16.5453 113.592 16.3202 113.705 16.3202C113.817 16.3202 114.043 16.2076 113.93 15.9825C113.93 15.7574 114.156 15.5323 114.381 15.5323H114.494C114.607 15.5323 114.607 15.3072 114.72 15.4197C114.833 15.5323 114.945 15.6448 114.945 15.7574C115.058 15.9825 114.833 15.9825 114.72 15.9825C114.494 15.9825 114.607 16.095 114.607 16.2076C114.607 16.4327 114.833 16.6578 115.058 16.7704C115.171 16.8829 115.171 16.8829 115.284 16.9955C115.509 17.2206 115.509 17.2206 115.284 17.3331C115.058 17.4457 115.058 17.7834 114.945 18.0085C114.945 18.0085 114.945 17.8959 114.833 17.8959V18.0085L114.945 18.121C114.945 18.2336 114.945 18.2336 114.945 18.3461V18.4587C115.058 18.5712 114.945 18.7963 114.833 18.9089C114.833 19.2466 114.945 19.3591 115.284 19.2466C115.622 19.2466 115.848 19.134 116.186 19.2466C116.299 19.3591 116.412 19.3591 116.412 19.5842C116.412 19.8093 116.412 20.0344 116.186 20.2596C116.412 20.147 116.525 20.2596 116.637 20.4847C116.75 20.5972 116.75 20.8223 116.637 20.9349C116.637 21.0474 116.412 20.9349 116.412 21.16C116.412 21.16 116.299 21.16 116.299 21.0474V20.9349C116.299 20.8223 116.299 20.8223 116.186 20.8223C116.073 20.8223 116.073 20.9349 116.073 21.0474C116.073 21.16 116.186 21.2725 116.186 21.2725C116.186 21.3851 116.299 21.4976 116.299 21.7228C116.299 21.8353 116.186 21.9479 116.299 21.9479C116.412 21.9479 116.525 21.9479 116.525 21.8353C116.525 21.8353 116.525 21.7228 116.637 21.7228C116.75 21.8353 117.201 22.0604 117.314 21.9479C117.427 21.9479 117.427 21.9479 117.427 21.8353C117.427 21.7228 117.314 21.6102 117.54 21.6102C117.653 21.6102 117.653 21.4976 117.765 21.6102C117.991 21.8353 118.217 21.6102 118.329 21.4976C118.442 21.3851 118.555 21.2725 118.668 21.2725C118.781 21.3851 118.668 21.3851 118.668 21.4976C118.555 21.6102 118.442 21.7228 118.555 21.9479C118.555 21.9479 118.555 21.9479 118.555 22.0604C118.329 22.2855 118.104 22.3981 118.329 22.7357C118.329 22.7357 118.329 22.8483 118.217 22.8483C118.217 22.8483 118.104 22.8483 118.104 22.7357C118.104 22.5106 117.991 22.5106 117.878 22.5106C117.991 22.6232 117.878 22.8483 117.991 22.9608C118.104 23.186 118.217 23.2985 118.442 23.4111C118.555 23.4111 118.555 23.4111 118.555 23.5236C118.442 23.6362 118.442 23.8613 118.555 23.8613C118.781 23.8613 118.668 24.0864 118.781 24.0864H118.893C119.119 24.0864 119.345 23.8613 119.457 23.6362C119.57 23.5236 119.57 23.5236 119.683 23.5236C119.796 23.5236 119.796 23.6362 119.796 23.7487C119.796 23.8613 119.796 23.9738 119.796 24.0864C119.796 24.3115 119.796 24.4241 119.909 24.4241C120.021 24.5366 120.134 24.4241 120.247 24.3115C120.36 24.3115 120.473 24.0864 120.585 24.0864C120.924 24.3115 121.037 23.9738 121.149 23.8613C121.375 23.5236 121.713 23.4111 122.052 23.2985C122.165 23.2985 122.278 23.186 122.278 23.0734C122.278 22.8483 122.503 22.7357 122.503 22.3981C122.503 22.3981 122.503 22.2855 122.616 22.2855C122.842 22.2855 122.842 21.9479 123.067 21.8353C123.18 21.7228 123.293 21.4976 123.406 21.2725C123.518 21.2725 123.518 21.3851 123.631 21.3851C123.518 21.2725 123.631 21.16 123.631 21.16C123.744 21.0474 123.744 20.8223 123.518 20.9349C123.406 20.9349 123.406 20.9349 123.293 20.8223C123.293 20.7098 123.406 20.7098 123.406 20.5972C123.406 20.4847 123.518 20.4847 123.518 20.4847C123.631 20.7098 123.744 20.4847 123.857 20.5972C124.195 20.7098 124.195 20.4847 124.195 20.3721C124.195 20.2596 124.308 20.147 124.195 20.147C124.082 20.147 124.082 20.147 124.082 20.0344C124.082 19.9219 124.082 19.9219 124.195 19.9219C124.308 19.9219 124.308 19.9219 124.308 19.8093C124.308 19.5842 124.421 19.4717 124.421 19.2466C124.421 19.2466 124.421 19.134 124.534 19.134C124.759 19.134 124.759 18.9089 124.985 18.7963C125.098 18.7963 125.323 18.6838 125.098 18.4587C125.098 18.4587 125.098 18.4587 125.098 18.3461C125.098 18.2336 125.098 18.121 124.985 18.121C124.872 18.0085 124.872 17.8959 124.985 17.7834C125.098 17.6708 125.21 17.5583 125.21 17.4457C125.21 17.3331 125.323 17.2206 125.436 17.2206C125.549 17.2206 125.549 17.2206 125.549 17.108V16.9955C125.323 16.8829 125.436 16.6578 125.436 16.4327C125.436 16.3202 125.436 16.2076 125.549 16.2076C125.662 16.2076 125.662 16.3202 125.662 16.4327C125.662 16.6578 125.774 16.7704 125.774 16.8829L125.887 16.9955C126 16.9955 126 16.8829 126 16.8829C126 16.7704 126 16.6578 126.113 16.5453C126.226 16.5453 126.338 16.7704 126.564 16.7704C126.564 16.6578 126.677 16.5453 126.79 16.4327C126.79 16.8829 126.79 16.7704 126.677 16.7704ZM107.388 18.9089C107.5 18.7963 107.5 18.7963 107.388 18.9089V18.9089ZM113.592 12.7184C113.479 12.7184 113.479 12.7184 113.479 12.6059C113.479 12.4933 113.479 12.4933 113.592 12.4933C113.592 12.4933 113.592 12.6059 113.592 12.7184ZM125.436 16.6578C125.323 16.5453 125.21 16.6578 125.098 16.7704C125.098 16.7704 124.985 16.8829 124.985 16.7704C124.985 16.7704 124.985 16.6578 124.985 16.5453C125.098 16.4327 125.436 16.3202 125.549 16.4327C125.549 16.4327 125.662 16.4327 125.662 16.5453C125.549 16.6578 125.436 16.6578 125.436 16.6578Z" fill="#6C767D"/>
</g>
<g opacity="0.6">
<path opacity="0.6" d="M116.75 28.3638C116.638 28.2512 116.75 28.1387 116.75 28.1387H116.863C116.863 28.2512 116.75 28.2512 116.75 28.3638Z" fill="#6C767D"/>
</g>
<g opacity="0.6">
<path opacity="0.6" d="M106.711 13.6191C106.711 13.7317 106.711 13.7317 106.711 13.6191C106.598 13.7317 106.598 13.7317 106.711 13.6191C106.598 13.7317 106.598 13.6191 106.711 13.6191Z" fill="#6C767D"/>
</g>
<g opacity="0.6">
<path opacity="0.6" d="M106.485 15.082C106.485 15.082 106.599 15.082 106.485 15.082C106.599 15.082 106.599 15.1946 106.485 15.082C106.485 15.1946 106.485 15.1946 106.485 15.082Z" fill="#6C767D"/>
</g>
<path opacity="0.6" d="M122.954 26.4503C123.067 26.2252 123.067 25.7749 123.293 25.6624V25.5498C123.293 25.4373 123.405 25.2122 123.293 25.0996L123.18 24.9871C123.067 24.9871 122.954 25.0996 122.954 25.2122H122.841H122.729L122.616 25.3247C122.616 25.3247 122.503 25.4373 122.39 25.4373C122.165 25.4373 122.277 25.0996 122.052 25.0996C121.939 25.0996 121.939 25.0996 121.939 24.9871V24.8745H121.826C121.713 24.8745 121.713 24.8745 121.601 24.8745C121.488 24.8745 121.488 24.8745 121.375 24.8745H121.262C121.149 24.9871 121.149 25.0996 121.037 25.0996L120.924 25.2122C120.924 25.4373 120.698 25.5498 120.811 25.6624C120.811 25.7749 120.698 25.7749 120.585 25.7749C120.247 25.8875 120.021 26.0001 119.796 26.2252C119.683 26.3377 119.57 26.5628 119.232 26.4503C119.119 26.4503 119.119 26.5628 119.006 26.5628C118.893 26.5628 118.893 26.6754 118.781 26.5628C118.668 26.4503 118.668 26.3377 118.668 26.3377C118.668 26.2252 118.668 26.1126 118.668 26.1126C118.668 26.0001 118.668 26.0001 118.555 26.0001C118.442 26.0001 118.442 26.0001 118.329 26.1126C118.217 26.2252 118.104 26.3377 117.765 26.4503H117.653C117.54 26.3377 117.653 26.2252 117.427 26.2252C117.314 26.2252 117.314 26.0001 117.427 26.0001C117.54 26.0001 117.427 25.8875 117.314 25.8875C117.089 25.8875 116.976 25.6624 116.863 25.5498C116.863 25.4373 116.863 25.3247 116.863 25.2122C116.976 25.2122 117.089 25.2122 117.089 25.4373C117.089 25.4373 117.089 25.4373 117.201 25.4373C117.314 25.4373 117.314 25.4373 117.314 25.3247C117.201 25.0996 117.427 24.9871 117.54 24.762C117.427 24.6494 117.653 24.5369 117.653 24.4243C117.653 24.4243 117.765 24.3117 117.653 24.3117C117.54 24.3117 117.427 24.4243 117.427 24.5369C117.314 24.6494 117.089 24.762 116.863 24.5369C116.75 24.4243 116.75 24.5369 116.637 24.5369C116.525 24.5369 116.525 24.5369 116.525 24.6494C116.525 24.6494 116.525 24.762 116.412 24.762C116.299 24.762 115.848 24.762 115.735 24.5369C115.622 24.5369 115.735 24.5369 115.622 24.6494C115.622 24.762 115.509 24.762 115.397 24.762C115.284 24.762 115.397 24.6494 115.397 24.6494C115.509 24.5369 115.397 24.4243 115.284 24.3117C115.284 24.3117 115.171 24.1992 115.171 24.0866C115.171 24.0866 115.171 23.9741 115.284 23.9741C115.397 23.9741 115.397 23.9741 115.397 24.0866V24.1992H115.509C115.509 24.0866 115.622 24.0866 115.735 24.0866C115.848 23.9741 115.848 23.8615 115.735 23.749C115.622 23.6364 115.509 23.5239 115.284 23.6364C115.397 23.5239 115.397 23.2988 115.397 23.1862C115.397 23.0737 115.397 23.0737 115.171 22.9611C114.945 22.8485 114.607 22.9611 114.381 22.9611C114.043 22.9611 113.93 22.9611 113.93 22.6234C113.93 22.3983 113.93 22.3983 113.817 22.3983C113.817 22.2858 113.93 22.2858 113.93 22.1732C113.93 22.0607 113.817 22.0607 113.817 21.9481C113.817 21.723 114.043 21.6104 113.93 21.3853C113.93 21.2728 113.93 21.1602 113.817 21.1602C114.043 21.0477 114.043 21.0477 113.817 20.8226C113.704 20.8226 113.704 20.71 113.592 20.5975C113.366 20.4849 113.253 20.3724 113.253 20.1472C113.253 20.0347 113.253 20.0347 113.366 20.0347C113.479 20.0347 113.592 20.0347 113.592 19.8096C113.592 19.697 113.479 19.5845 113.366 19.5845C113.253 19.5845 113.253 19.5845 113.14 19.697H113.028C112.802 19.697 112.576 19.8096 112.576 20.0347C112.576 20.2598 112.464 20.2598 112.351 20.2598C112.125 20.2598 112.125 20.4849 111.9 20.4849C111.9 20.4849 111.9 20.4849 111.9 20.5975C112.012 20.71 111.9 20.8226 112.012 20.8226C112.012 20.9351 112.012 20.9351 112.012 21.0477C111.9 21.0477 111.9 21.1602 111.9 21.1602C111.9 21.2728 111.9 21.3853 111.787 21.3853C111.674 21.3853 111.561 21.3853 111.336 21.3853C111.223 21.3853 111.223 21.2728 111.223 21.1602C111.223 21.0477 111.336 20.9351 111.11 20.9351C110.997 20.9351 110.884 21.0477 110.884 21.1602C110.884 21.1602 110.884 21.1602 110.772 21.1602C110.772 21.0477 110.659 20.9351 110.772 20.8226C110.884 20.71 110.772 20.5975 110.659 20.5975C110.433 20.5975 110.546 20.4849 110.546 20.3724C110.659 20.4849 110.884 20.5975 111.11 20.5975C111.223 20.5975 111.336 20.5975 111.223 20.4849C111.11 20.3724 111.11 20.2598 111.223 20.2598C111.336 20.2598 111.336 20.1472 111.336 20.0347C111.336 19.9221 111.223 19.8096 111.11 19.9221C110.997 20.0347 110.884 19.9221 110.659 19.697C110.546 19.697 110.659 19.8096 110.659 19.8096C110.659 19.9221 110.659 20.0347 110.546 19.9221C110.433 19.9221 110.433 19.9221 110.32 19.9221C110.32 19.9221 110.32 20.0347 110.208 20.0347C110.095 20.0347 110.208 19.9221 110.208 19.9221V19.8096C110.095 19.8096 110.095 19.8096 109.982 19.8096H109.869C109.756 19.5845 109.644 19.697 109.418 19.5845C109.305 19.5845 109.08 19.5845 109.08 19.8096C109.08 19.8096 109.192 19.9221 108.967 19.9221C108.854 19.9221 108.741 19.9221 108.741 19.8096V19.697C108.628 19.8096 108.628 19.9221 108.854 20.0347C109.08 20.0347 108.967 20.2598 108.967 20.2598C108.854 20.2598 108.741 20.3724 108.628 20.2598C108.516 20.1472 108.516 20.2598 108.403 20.2598C108.29 20.3724 108.29 20.2598 108.177 20.1472C108.064 20.0347 108.064 19.9221 108.177 19.9221C108.29 19.9221 108.29 20.0347 108.29 20.0347C108.403 20.0347 108.516 20.0347 108.403 19.9221C108.29 19.8096 108.29 19.697 108.177 19.697C108.064 19.697 107.952 19.697 107.726 19.697C108.064 19.9221 108.064 20.1472 108.064 20.2598C108.064 20.3724 108.064 20.5975 107.839 20.5975C107.726 20.5975 107.726 20.71 107.839 20.8226C107.952 20.8226 107.952 20.9351 108.064 20.9351C108.29 20.9351 108.403 20.9351 108.516 21.0477H108.403C108.29 21.0477 108.177 21.0477 108.177 21.1602H108.064H107.952C107.952 21.1602 107.952 21.2728 107.839 21.2728C107.726 21.2728 107.726 21.2728 107.613 21.2728C107.613 21.2728 107.613 21.1602 107.5 21.1602H107.388C107.275 21.1602 107.275 21.1602 107.162 21.1602H107.049V21.2728L106.936 21.3853H106.824H106.711L106.598 21.2728C106.485 21.2728 106.485 21.2728 106.372 21.2728C106.26 21.2728 106.147 21.2728 106.147 21.2728C106.034 21.2728 106.034 21.3853 105.921 21.4979C105.808 21.4979 105.808 21.4979 105.696 21.4979H105.583C105.583 21.4979 105.583 21.4979 105.47 21.4979C105.47 21.4979 105.47 21.6104 105.47 21.723V21.8356L105.583 21.9481H105.696C105.808 21.9481 105.808 21.9481 105.921 21.9481H105.808H105.696C105.583 21.9481 105.583 21.9481 105.47 21.9481C105.357 21.9481 105.357 22.0607 105.357 22.0607L105.244 22.1732C105.132 22.1732 105.132 22.1732 105.132 22.1732H105.019H104.906H105.019L105.132 22.2858C105.244 22.2858 105.244 22.3983 105.244 22.3983H105.132C105.132 22.2858 105.019 22.2858 105.019 22.2858L104.906 22.1732H104.793C104.793 22.2858 104.906 22.3983 105.019 22.5109C105.244 22.6234 105.47 22.6234 105.696 22.5109H105.808C105.921 22.5109 105.921 22.5109 105.921 22.3983C106.034 22.3983 106.034 22.3983 106.034 22.3983H106.147C106.147 22.3983 106.26 22.3983 106.26 22.5109C106.485 22.5109 106.711 22.5109 106.936 22.5109C106.598 22.6234 106.372 22.6234 106.034 22.5109C105.921 22.5109 105.921 22.3983 105.808 22.5109C105.696 22.6234 105.583 22.6234 105.47 22.6234C105.357 22.6234 105.244 22.6234 105.244 22.736C105.244 22.8485 105.244 22.8485 105.357 22.8485C105.47 22.8485 105.357 22.9611 105.357 23.0737C105.357 23.1862 105.244 23.0737 105.244 23.0737C105.132 23.0737 105.019 23.0737 104.793 23.0737C104.568 23.0737 104.568 23.1862 104.568 23.2988C104.568 23.4113 104.568 23.4113 104.455 23.5239C104.229 23.6364 104.342 23.6364 104.455 23.749C104.68 23.8615 104.68 23.8615 104.568 24.0866C104.455 24.1992 104.455 24.3117 104.568 24.4243L104.68 24.5369C104.455 24.6494 104.68 24.8745 104.455 25.0996C104.342 25.0996 104.455 25.2122 104.568 25.2122C104.68 25.2122 104.793 25.2122 104.906 25.3247C105.019 25.4373 105.019 25.4373 105.132 25.3247C105.244 25.3247 105.357 25.3247 105.357 25.4373C105.357 25.5498 105.357 25.6624 105.583 25.6624C105.696 25.6624 105.696 25.6624 105.696 25.7749C105.696 25.8875 105.696 25.8875 105.696 26.0001C105.808 26.0001 105.808 26.0001 105.808 26.0001C105.808 26.0001 105.808 26.0001 105.921 26.0001C105.921 26.0001 106.034 26.0001 106.034 26.1126C105.921 26.2252 106.034 26.3377 106.147 26.3377C106.372 26.4503 106.485 26.5628 106.711 26.6754C106.824 26.7879 106.936 26.9005 106.936 27.013C106.936 27.1256 106.936 27.2382 106.936 27.4633C106.936 27.6884 106.936 27.8009 107.162 27.9135C107.275 28.026 107.275 28.1386 107.388 28.2511C107.5 28.3637 107.613 28.4762 107.726 28.5888C107.839 28.7014 107.726 28.7014 107.726 28.8139C107.613 28.9265 107.613 28.8139 107.613 28.8139C107.613 28.8139 107.613 28.7014 107.5 28.7014C107.275 28.7014 107.162 28.4762 106.936 28.4762L106.824 28.3637C106.711 28.2511 106.711 28.2511 106.598 28.2511C106.824 28.4762 107.162 28.7014 107.388 28.9265C107.5 29.039 107.5 29.1516 107.726 29.039H107.839C108.064 29.2641 108.516 29.2641 108.741 29.4892C109.192 29.7143 109.644 29.8269 110.208 29.9395C110.32 29.9395 110.546 29.9395 110.659 30.052C110.772 30.052 110.884 29.9395 110.884 30.1646C111.223 30.2771 111.561 30.2771 111.787 30.1646C111.9 30.1646 112.012 30.1646 112.238 30.1646C112.802 30.2771 113.479 30.2771 114.043 30.1646C114.381 30.1646 114.833 30.052 115.171 30.052C115.848 30.052 116.637 29.8269 117.314 29.7143C117.54 29.7143 117.765 29.6018 117.878 29.3767C117.878 29.3767 117.991 29.3767 117.991 29.2641C118.329 29.1516 118.668 29.039 119.006 28.9265C119.232 28.8139 119.457 28.7014 119.457 28.5888C119.457 28.4762 119.683 28.3637 119.796 28.2511C120.134 28.026 120.585 28.026 120.811 27.6884C120.924 27.5758 120.924 27.5758 121.037 27.4633C121.262 27.2382 121.488 27.1256 121.713 26.9005C122.729 26.7879 122.841 26.5628 122.954 26.4503ZM108.064 24.0866C107.952 24.0866 107.952 24.1992 107.952 24.1992C107.839 24.4243 107.613 24.4243 107.388 24.3117C107.388 24.3117 107.275 24.1992 107.275 24.3117C107.275 24.3117 107.275 24.4243 107.388 24.4243C107.5 24.4243 107.613 24.5369 107.613 24.6494C107.613 24.762 107.613 24.762 107.5 24.762C107.388 24.762 107.388 24.762 107.388 24.6494V24.5369C107.388 24.4243 107.275 24.4243 107.162 24.5369C107.162 24.5369 107.049 24.6494 107.049 24.5369C106.936 24.5369 107.049 24.4243 107.049 24.4243C107.049 24.1992 106.936 24.0866 106.711 24.0866C106.598 24.0866 106.598 24.0866 106.598 23.9741C106.485 23.8615 106.711 23.4113 106.936 23.4113C106.824 23.4113 106.711 23.2988 106.824 23.1862C106.936 23.1862 106.824 22.9611 106.824 22.9611C106.824 22.8485 106.824 22.8485 106.936 22.8485C107.049 22.8485 107.049 22.8485 107.049 22.9611C107.162 23.0737 107.162 23.1862 107.275 23.1862C107.275 23.2988 107.388 23.1862 107.388 23.1862C107.5 23.1862 107.5 23.1862 107.5 23.1862C107.613 23.1862 107.613 23.1862 107.613 23.0737C107.613 22.9611 107.613 22.9611 107.726 22.9611C107.839 22.9611 107.839 23.0737 107.839 23.0737C107.952 23.1862 107.726 23.2988 107.726 23.4113C107.726 23.5239 107.613 23.6364 107.839 23.6364C107.952 23.6364 107.952 23.5239 107.952 23.4113C108.29 23.749 108.29 23.8615 108.064 24.0866ZM108.403 22.736C108.177 22.736 108.064 22.736 107.952 22.6234C107.839 22.6234 107.839 22.736 107.726 22.6234C107.839 22.6234 107.839 22.6234 107.952 22.5109C108.177 22.6234 108.29 22.5109 108.516 22.3983H108.628V22.5109C108.516 22.736 108.403 22.736 108.403 22.736ZM106.936 22.2858C106.824 22.3983 106.711 22.3983 106.598 22.3983C106.485 22.3983 106.824 22.2858 106.936 22.0607H107.049V22.1732L106.936 22.2858ZM108.741 29.1516C108.628 29.1516 108.628 29.039 108.628 28.9265C108.628 28.9265 108.628 28.8139 108.741 28.8139C108.854 28.8139 108.967 28.8139 108.967 28.9265C108.967 29.1516 108.854 29.1516 108.741 29.1516ZM109.418 22.6234C109.305 22.736 109.192 22.736 108.967 22.736C108.854 22.736 108.854 22.6234 108.854 22.5109V22.3983C108.967 22.3983 109.08 22.2858 109.192 22.2858C109.305 22.2858 109.418 22.3983 109.531 22.3983C109.531 22.5109 109.644 22.5109 109.644 22.6234C109.531 22.5109 109.418 22.5109 109.418 22.6234ZM116.863 24.9871C116.863 24.8745 116.863 24.8745 116.863 24.8745C116.863 24.762 116.976 24.762 116.863 24.6494C116.863 24.6494 116.75 24.6494 116.75 24.5369H116.863C116.976 24.5369 116.976 24.5369 116.976 24.6494C116.976 24.762 116.976 24.8745 116.976 24.8745C116.976 24.8745 116.976 24.9871 116.863 24.9871ZM117.54 28.5888C117.427 28.4762 117.54 28.4762 117.54 28.3637H117.653C117.765 28.4762 117.653 28.4762 117.54 28.5888Z" fill="#6C767D"/>
<path opacity="0.6" d="M122.165 10.3549C121.939 10.3549 121.826 10.3549 121.714 10.3549C121.601 10.3549 121.601 10.3549 121.601 10.3549C121.488 10.3549 121.488 10.3549 121.375 10.3549C121.262 10.4674 121.375 10.4674 121.488 10.58C121.488 10.6925 121.488 10.6925 121.601 10.6925C121.714 10.6925 121.714 10.6925 121.714 10.6925C121.714 10.8051 121.714 10.8051 121.601 10.8051C121.375 10.6925 121.149 10.8051 121.262 11.1428C121.375 11.3679 121.375 11.593 121.149 11.8181C121.037 11.8181 120.924 11.9306 120.698 11.9306C120.585 11.9306 120.585 11.9306 120.698 12.0432C120.698 12.1557 120.811 12.1557 120.924 12.1557C121.037 12.1557 121.149 12.1557 121.262 12.1557C121.149 12.2683 121.262 12.3808 121.375 12.4934C121.375 12.4934 121.375 12.4934 121.375 12.606C121.262 12.7185 121.262 12.7185 121.488 12.7185C121.601 12.7185 121.601 12.7185 121.601 12.7185C121.488 12.8311 121.375 12.7185 121.262 12.7185C121.037 12.7185 120.924 12.8311 120.811 13.0562C120.811 13.1687 120.698 13.2813 120.585 13.2813C120.473 13.2813 120.36 13.1687 120.36 12.9436C120.36 12.7185 120.36 12.4934 120.247 12.3808C120.134 12.2683 120.134 12.2683 120.021 12.2683C119.909 12.3808 119.909 12.3808 120.021 12.4934L120.134 12.606C119.909 12.7185 119.683 12.7185 119.796 12.9436C119.796 13.0562 119.683 13.0562 119.683 13.0562C119.57 13.0562 119.57 12.9436 119.457 12.8311C119.345 13.0562 119.232 13.1687 119.006 13.0562H118.893C118.668 13.0562 118.781 12.9436 118.781 12.8311C118.893 12.7185 118.893 12.606 118.668 12.606C118.555 12.606 118.555 12.606 118.442 12.606C118.329 12.606 118.329 12.606 118.329 12.7185C118.329 12.8311 118.217 12.8311 118.104 12.8311H117.991C117.878 13.0562 117.653 12.9436 117.314 13.0562C116.976 13.0562 116.75 13.1687 116.412 13.2813C116.637 13.3938 116.976 13.3938 117.201 13.5064C117.314 13.5064 117.314 13.5064 117.314 13.5064C117.201 13.6189 117.765 13.6189 117.314 13.7315C117.201 13.7315 117.201 13.844 117.201 13.9566C117.201 14.0692 117.314 14.0692 117.427 14.0692C117.54 14.0692 117.653 14.0692 117.653 14.0692C117.653 14.1817 117.653 14.1817 117.54 14.2943C117.427 14.4068 117.427 14.2943 117.427 14.2943C117.201 14.2943 116.976 14.1817 116.75 14.0692C116.637 14.0692 116.525 14.0692 116.412 13.9566C116.299 13.844 116.186 13.9566 116.186 14.0692C116.186 14.0692 116.186 14.1817 116.073 14.1817C115.961 14.1817 115.961 14.0692 115.961 14.0692C115.848 13.9566 115.848 13.844 115.735 13.844C115.622 13.844 115.622 14.0692 115.622 14.0692C115.509 14.1817 115.509 14.2943 115.397 14.1817C115.397 14.1817 115.397 14.1817 115.397 14.2943C115.397 14.4068 115.622 14.4068 115.509 14.5194C115.397 14.6319 115.284 14.4068 115.284 14.4068C115.171 14.2943 115.171 14.1817 115.171 14.0692C115.058 13.9566 114.833 13.9566 114.72 13.9566C114.494 13.844 114.269 13.7315 114.156 13.6189C114.043 13.5064 113.93 13.3938 114.043 13.1687C114.043 13.0562 114.043 12.9436 113.817 12.9436C113.705 12.9436 113.592 12.8311 113.479 12.8311H113.366V12.7185C113.366 12.7185 113.479 12.7185 113.479 12.606H113.366C113.253 12.606 113.253 12.606 113.253 12.4934C113.253 12.3808 113.366 12.4934 113.366 12.4934C113.479 12.4934 113.479 12.4934 113.479 12.3808C113.592 12.2683 113.705 12.0432 113.93 12.0432C114.156 11.9306 114.156 11.4804 114.156 11.2553L114.043 11.1428C114.043 10.9176 114.043 10.6925 113.817 11.0302H113.705C113.705 10.9176 113.592 10.9176 113.592 10.8051C113.592 10.6925 113.705 10.6925 113.592 10.58C113.479 10.58 113.366 10.3549 113.253 10.4674C112.915 10.1298 112.577 10.1298 112.802 10.4674C112.464 10.4674 112.351 10.9176 112.013 10.9176C111.9 10.9176 111.9 11.0302 111.9 11.1428C111.9 11.1428 112.013 11.2553 111.9 11.2553C111.787 11.2553 111.787 11.2553 111.674 11.2553L111.561 11.1428C111.674 10.9176 111.561 10.6925 111.787 10.58C111.9 10.58 111.787 10.4674 111.787 10.4674C111.674 10.3549 111.674 10.3549 111.561 10.2423C111.449 10.1298 111.561 10.1298 111.561 10.0172C111.674 10.0172 111.9 9.7921 112.013 10.0172H112.125C112.125 10.0172 112.238 9.90466 112.238 9.7921C112.238 9.67955 112.125 9.7921 112.125 9.7921C111.9 9.7921 111.9 9.56699 111.674 9.56699C111.561 9.45444 111.561 9.56699 111.561 9.56699L111.449 9.67955H111.336V9.56699C111.561 9.45444 111.674 9.34189 111.336 9.11678C111.223 9.11678 111.223 8.89167 111.336 8.89167C111.449 8.66656 111.336 8.77911 111.223 8.66656C111.561 8.55401 111.674 8.21634 111.9 7.87868C112.125 7.54102 112.577 7.31591 112.915 7.0908C113.028 7.20336 113.253 7.0908 113.253 6.97825C113.366 6.8657 113.366 6.8657 113.479 6.8657C113.592 6.8657 113.592 6.8657 113.705 6.8657C113.705 6.75314 113.817 6.75314 113.817 6.8657C113.93 6.8657 113.93 6.97825 113.93 6.97825C114.043 6.8657 114.043 6.75314 114.043 6.64059C114.156 6.64059 114.156 6.64059 114.269 6.52803C114.381 6.41548 114.607 6.41548 114.494 6.64059C114.494 6.75314 114.607 6.8657 114.72 6.8657C114.833 6.8657 115.171 6.75314 115.284 6.64059C115.397 6.64059 115.622 6.30292 115.622 6.75314C115.961 6.75314 115.961 6.75314 115.961 6.75314C116.186 6.64059 116.299 6.8657 116.412 6.97825C116.525 6.97825 116.525 7.0908 116.412 7.0908C116.412 7.0908 116.412 7.20336 116.299 7.20336C116.186 7.20336 116.186 7.20336 116.186 7.20336C116.186 7.31591 116.073 7.42847 116.299 7.42847C116.412 7.42847 116.412 7.54102 116.412 7.54102C116.412 7.54102 116.525 7.65357 116.525 7.54102C116.637 7.42847 116.863 7.54102 117.089 7.42847C117.201 7.42847 117.201 7.31591 117.314 7.42847C117.54 7.65357 117.878 7.65357 118.217 7.76613C118.329 7.87868 118.442 7.87868 118.668 7.76613H118.781C119.119 7.99124 119.57 8.10379 119.909 8.3289L120.021 8.44145C119.909 8.66656 120.021 8.66656 120.134 8.77912C120.247 8.77912 120.247 9.00422 120.134 9.00422C120.021 9.22933 120.134 9.22933 120.247 9.34189C120.247 9.34189 120.247 9.34189 120.36 9.45444C120.473 9.56699 120.36 9.7921 120.473 9.67955C120.585 9.56699 120.811 9.45444 120.811 9.22933C120.811 9.00422 120.811 8.89167 121.037 9.11678C121.149 9.22933 121.375 9.22933 121.488 9.34189C121.488 9.34189 121.601 9.34189 121.601 9.22933C121.601 9.56699 121.601 9.45444 121.714 9.45444C121.714 9.67955 121.939 9.7921 121.826 10.0172H121.939C121.939 9.90466 122.052 9.90466 122.052 9.90466V10.0172C121.826 10.1298 122.165 10.2423 122.165 10.3549ZM119.57 11.0302C119.57 11.1428 119.57 11.2553 119.683 11.3679C119.796 11.4804 119.909 11.3679 120.134 11.3679C120.134 11.2553 120.247 11.1428 120.134 11.0302C119.909 10.8051 119.796 11.0302 119.57 11.0302ZM116.637 8.55401C116.525 8.44145 116.525 8.44145 116.412 8.55401C116.299 8.66656 116.412 8.66656 116.525 8.77912L116.637 8.89167C116.637 9.00422 116.637 9.00422 116.75 9.00422C116.863 9.00422 116.863 9.00422 116.976 8.89167C116.863 8.55401 116.75 8.66656 116.637 8.55401ZM120.134 11.7055V11.8181C120.134 11.8181 120.247 11.9306 120.247 11.8181C120.36 11.8181 120.247 11.7055 120.247 11.7055C120.247 11.7055 120.247 11.7055 120.134 11.7055Z" fill="#6C767D"/>
</g>
<defs>
<clipPath id="clip0_889_848">
<rect width="126" height="52" fill="white"/>
</clipPath>
</defs>
</svg>
