<svg width="148" height="44" viewBox="0 0 148 44" fill="none" xmlns="http://www.w3.org/2000/svg">
<g clip-path="url(#clip0_889_967)">
<path d="M76.3115 42.4434L74.9645 40.4577C75.2419 40.3643 75.4866 40.1827 75.6662 39.9368C75.8458 39.6909 75.9519 39.3922 75.9706 39.0802C75.9961 38.7127 75.8855 38.3494 75.6629 38.0694C75.3821 37.8455 75.0618 37.6855 74.7215 37.5994C74.3812 37.5133 74.0282 37.5027 73.6841 37.5685H72.3953V37.8815H72.52C72.7445 37.8815 72.8609 38.0336 72.8609 38.3467V42.2288C72.8609 42.6402 72.678 42.6939 72.52 42.6939H72.3953V43.0159H74.2245V42.6939H74.1164C73.867 42.6939 73.7672 42.5597 73.7672 42.2288V40.6097H73.9501L75.613 43.0427H76.7854V42.7207H76.6773C76.4944 42.7207 76.4196 42.5866 76.3115 42.4434ZM75.0144 39.0802C75.0155 39.2136 74.992 39.346 74.9453 39.4697C74.8985 39.5934 74.8295 39.7059 74.7422 39.8007C74.6548 39.8955 74.5509 39.9707 74.4363 40.0221C74.3218 40.0734 74.1989 40.0999 74.0748 40.0999H73.7672V38.1678C73.8616 38.1144 73.9696 38.0955 74.0748 38.1141C74.1959 38.1093 74.3167 38.1307 74.4299 38.177C74.5432 38.2233 74.6467 38.2935 74.7343 38.3836C74.8219 38.4737 74.8918 38.5817 74.9399 38.7014C74.988 38.821 75.0134 38.9498 75.0144 39.0802ZM96.5243 37.9084H96.649C96.807 37.9084 96.9982 37.962 96.9982 38.3735V42.2556C96.9982 42.5866 96.8901 42.7207 96.649 42.7207H96.5243V43.0427H98.3535V42.7207H98.2537C98.0043 42.7207 97.8962 42.5866 97.8962 42.2556V38.3735C97.8962 37.962 98.104 37.9084 98.2537 37.9084H98.3535V37.5685H96.5243V37.9084ZM68.5872 37.5685H64.7375C64.7095 37.5705 64.6831 37.5835 64.6633 37.6048C64.6434 37.6262 64.6314 37.6546 64.6294 37.6847V38.9907H64.8539V38.9102C64.8539 38.3914 65.0452 38.1409 65.3611 38.1409H66.1926V42.2645C66.1926 42.5687 66.0762 42.6939 65.8184 42.6939H65.7187V43.0159H67.5312V42.6939H67.4398C67.182 42.6939 67.0823 42.5776 67.0823 42.2645V38.1678H67.9137C68.1216 38.1678 68.371 38.2483 68.4126 38.937V39.0175H68.687L68.6288 37.7116C68.6371 37.6861 68.6376 37.6584 68.6301 37.6326C68.6226 37.6068 68.6076 37.5843 68.5872 37.5685ZM52.8643 37.8815H53.0721C53.1056 37.88 53.139 37.8863 53.17 37.9C53.201 37.9137 53.2289 37.9343 53.2518 37.9607C53.2747 37.987 53.2921 38.0183 53.3027 38.0525C53.3133 38.0867 53.3169 38.123 53.3133 38.1588V41.2448C53.3103 41.4183 53.2745 41.5894 53.2081 41.7475C53.1417 41.9057 53.0461 42.0477 52.9271 42.1648C52.8081 42.282 52.6682 42.3718 52.5159 42.429C52.3636 42.4861 52.202 42.5093 52.0411 42.4971C51.8901 42.4908 51.7419 42.451 51.6059 42.3802C51.4698 42.3094 51.3489 42.2091 51.2505 42.0857C51.1521 41.9622 51.0786 41.8183 51.0343 41.6628C50.9901 41.5073 50.9762 41.3437 50.9935 41.1822V38.3288C50.9941 38.2278 51.0278 38.1303 51.0886 38.0534C51.1495 37.9766 51.2335 37.9252 51.3261 37.9084H51.4258V37.5685H49.6465V37.8815H49.7214C49.8162 37.8928 49.9034 37.9426 49.9652 38.0207C50.027 38.0989 50.0588 38.1995 50.0539 38.3019V41.1464C50.052 41.4119 50.1014 41.6749 50.199 41.9187C50.2966 42.1625 50.4403 42.3818 50.6209 42.5626C50.8016 42.7435 51.0152 42.882 51.2482 42.9692C51.4813 43.0565 51.7286 43.0907 51.9746 43.0696C52.2085 43.0987 52.4455 43.0741 52.6698 42.9973C52.8942 42.9206 53.1009 42.7934 53.2762 42.6243C53.4514 42.4552 53.5914 42.2479 53.6866 42.0163C53.7819 41.7847 53.8303 41.5339 53.8288 41.2806V38.1857C53.8288 38.0604 53.8288 37.9084 54.0533 37.9084H54.2778V37.5685H52.8643V37.8815ZM92.5665 41.4595C92.3753 42.1483 92.0593 42.4613 91.5438 42.4613H90.4629C90.3798 42.4613 90.2883 42.3272 90.2883 42.2109V38.3646C90.2883 38.0247 90.4047 37.8726 90.6542 37.8726H90.7623V37.5685H88.9663V37.8815H89.0744C89.1658 37.8815 89.4236 37.8815 89.4236 38.3735V42.2198C89.4236 42.6492 89.224 42.6939 89.0744 42.6939H88.9663V43.0159H92.4834L92.9074 41.4058H92.6164L92.5665 41.4595ZM59.3081 39.5274L59.2166 39.4737C59.0797 39.4038 58.9619 39.2971 58.8745 39.1639C58.7871 39.0308 58.7331 38.8756 58.7178 38.7134C58.7195 38.5956 58.7505 38.4804 58.8075 38.3797C58.8646 38.2791 58.9455 38.1967 59.042 38.1409C59.1577 38.0622 59.2918 38.0205 59.4287 38.0205C59.5655 38.0205 59.6996 38.0622 59.8153 38.1409C60.0023 38.2693 60.1561 38.4466 60.2622 38.6562C60.3683 38.8658 60.4234 39.1009 60.4222 39.3396V39.429H60.6966V37.5685H60.4222V37.6311C60.4204 37.6641 60.4121 37.6964 60.3977 37.7257C60.3834 37.755 60.3634 37.7807 60.3391 37.801C60.3011 37.819 60.2601 37.8283 60.2185 37.8283C60.177 37.8283 60.136 37.819 60.098 37.801C59.8387 37.6108 59.5269 37.5214 59.2141 37.5474C58.9012 37.5734 58.6059 37.7134 58.3769 37.9441C58.2301 38.106 58.1177 38.3002 58.0474 38.5133C57.977 38.7264 57.9504 38.9533 57.9694 39.1785C57.9896 39.396 58.0555 39.6056 58.1621 39.7915C58.2687 39.9775 58.4132 40.135 58.5847 40.2519L58.9506 40.5113C59.342 40.7395 59.6914 41.0427 59.9816 41.4058C60.0881 41.5592 60.1355 41.7508 60.1138 41.9408C60.0921 42.1309 60.003 42.3045 59.8652 42.4255C59.7525 42.5314 59.6125 42.5976 59.4638 42.6152C59.3151 42.6328 59.165 42.6009 59.0337 42.5239C58.8111 42.3922 58.6261 42.1977 58.4987 41.9612C58.3712 41.7248 58.3061 41.4555 58.3103 41.1822V41.1464H58.0193V43.0964H58.2023V43.0249C58.2066 42.9859 58.2194 42.9487 58.2397 42.916C58.2599 42.8834 58.2869 42.8563 58.3187 42.837C58.3457 42.8221 58.3756 42.8143 58.406 42.8143C58.4363 42.8143 58.4662 42.8221 58.4933 42.837C58.793 43.019 59.1303 43.1174 59.4744 43.1232C59.7762 43.1214 60.0688 43.0112 60.3058 42.8102C60.5613 42.597 60.7411 42.296 60.8153 41.9574C60.8894 41.6188 60.8534 41.2631 60.7133 40.9496C60.3534 40.3646 59.8613 39.8876 59.2831 39.5632L59.3081 39.5274ZM84.809 42.3182L82.9881 37.5685C82.9772 37.5399 82.9603 37.5145 82.9386 37.4943C82.917 37.4741 82.8912 37.4597 82.8634 37.4522C82.8326 37.4474 82.8012 37.4525 82.7731 37.4668C82.745 37.4811 82.7214 37.504 82.7054 37.5327L80.976 42.2645C80.8928 42.4524 80.7598 42.685 80.5685 42.685H80.4023V43.007H81.7908V42.685H81.6578C81.6234 42.6854 81.5894 42.6766 81.5589 42.6594C81.5285 42.6423 81.5024 42.6172 81.4831 42.5866C81.4715 42.5648 81.4653 42.5401 81.4653 42.515C81.4653 42.4899 81.4715 42.4652 81.4831 42.4434L81.8989 41.3253H83.4537L83.8778 42.4434C83.8888 42.4686 83.8946 42.4961 83.8946 42.5239C83.8946 42.5518 83.8888 42.5793 83.8778 42.6044C83.8619 42.629 83.8407 42.6491 83.8162 42.6631C83.7916 42.6771 83.7642 42.6846 83.7364 42.685H83.5285V43.007H85.3079V42.685H85.1832C85.0169 42.7207 84.9005 42.5955 84.809 42.3182ZM83.2292 40.7976H82.0818L82.6472 39.3574L83.2292 40.7976ZM106.776 42.7207C106.635 42.7207 106.518 42.5955 106.419 42.3182L104.598 37.5685C104.598 37.5685 104.598 37.4611 104.473 37.4522C104.442 37.4474 104.411 37.4525 104.383 37.4668C104.355 37.4811 104.331 37.504 104.315 37.5327L102.577 42.2645C102.502 42.4524 102.361 42.685 102.17 42.685H102.004V43.007H103.4V42.685H103.267C103.232 42.6853 103.197 42.6766 103.165 42.6595C103.133 42.6424 103.106 42.6174 103.085 42.5866C103.072 42.5651 103.065 42.5403 103.065 42.515C103.065 42.4897 103.072 42.4649 103.085 42.4434L103.5 41.3253H105.047L105.479 42.4434C105.492 42.4679 105.499 42.4957 105.499 42.5239C105.499 42.5522 105.492 42.58 105.479 42.6044C105.464 42.6296 105.443 42.6501 105.418 42.6642C105.393 42.6783 105.366 42.6854 105.338 42.685H105.138V43.007H106.909V42.685L106.776 42.7207ZM104.839 40.7976H103.683L104.257 39.3217L104.839 40.7976ZM45.5225 42.3182L43.7016 37.5685C43.6907 37.5399 43.6738 37.5145 43.6521 37.4943C43.6304 37.4741 43.6047 37.4597 43.5769 37.4522C43.5769 37.4522 43.4854 37.4522 43.4189 37.5327L41.6894 42.2645C41.6063 42.4524 41.4733 42.685 41.282 42.685H41.1157V43.007H42.5126V42.685H42.4045C42.3701 42.6854 42.3361 42.6766 42.3057 42.6594C42.2752 42.6423 42.2492 42.6172 42.2299 42.5866C42.2196 42.5643 42.2143 42.5398 42.2143 42.515C42.2143 42.4902 42.2196 42.4657 42.2299 42.4434L42.6539 41.3253H44.1506L44.5746 42.4434C44.5857 42.4686 44.5915 42.4961 44.5915 42.5239C44.5915 42.5518 44.5857 42.5793 44.5746 42.6044C44.5587 42.629 44.5376 42.6491 44.513 42.6631C44.4884 42.6771 44.4611 42.6846 44.4333 42.685H44.2254V43.007H46.0047V42.685H45.88C45.7303 42.7207 45.6139 42.5955 45.5058 42.3182H45.5225ZM43.9427 40.7976H42.7953L43.3607 39.3574L43.9427 40.7976ZM122.025 7.03055L122.616 7.44202C123.307 7.83304 123.936 8.34035 124.478 8.94476C124.583 9.08394 124.66 9.24533 124.703 9.41846C124.746 9.59158 124.755 9.77258 124.73 9.9497C124.704 10.1268 124.644 10.2961 124.553 10.4466C124.462 10.5971 124.343 10.7254 124.204 10.8232C124.004 11.0197 123.753 11.1443 123.485 11.1796C123.216 11.2148 122.944 11.159 122.707 11.02C122.311 10.7913 121.981 10.4521 121.749 10.0381C121.518 9.62401 121.395 9.15049 121.393 8.66747V8.54224H120.928V11.9413H121.393V11.8519C121.409 11.7745 121.441 11.7017 121.485 11.6384C121.53 11.5751 121.586 11.5229 121.651 11.4851C121.694 11.4593 121.743 11.4457 121.792 11.4457C121.842 11.4457 121.89 11.4593 121.934 11.4851C122.44 11.7994 123.012 11.9687 123.597 11.9771C124.016 11.9843 124.43 11.8758 124.799 11.6621C125.168 11.4483 125.48 11.1364 125.705 10.756C125.93 10.3757 126.061 9.9396 126.085 9.48941C126.109 9.03922 126.025 8.58994 125.842 8.18444C125.359 7.14683 124.179 6.39546 123.04 5.72459C122.82 5.60172 122.632 5.42373 122.49 5.20573C122.348 4.98773 122.257 4.73614 122.225 4.47231C122.224 4.25797 122.274 4.04693 122.37 3.85912C122.466 3.67131 122.605 3.51293 122.773 3.39892C122.991 3.26967 123.238 3.20871 123.487 3.22294C123.735 3.23717 123.975 3.32602 124.179 3.47942C124.509 3.70205 124.78 4.01238 124.967 4.38054C125.153 4.7487 125.248 5.16228 125.243 5.58147V5.7067H125.675V2.42392H125.26V2.53126C125.259 2.58315 125.247 2.63417 125.225 2.6806C125.204 2.72702 125.173 2.76768 125.135 2.79961C125.054 2.82468 124.97 2.83127 124.887 2.81894C124.804 2.80662 124.724 2.77565 124.653 2.72805C123.414 2.09296 122.474 2.18241 121.676 3.00534C121.417 3.28292 121.218 3.61828 121.093 3.98771C120.968 4.35713 120.92 4.75158 120.953 5.14317C120.988 5.5285 121.107 5.89963 121.299 6.2272C121.49 6.55478 121.751 6.82981 122.058 7.03055H122.025ZM111.299 9.20416H110.817V9.29361C110.493 10.4743 109.927 11.0021 109.013 11.0021H106.951C106.911 11.0021 106.871 10.9935 106.834 10.9767C106.797 10.96 106.764 10.9355 106.736 10.9046C106.708 10.8738 106.686 10.8372 106.672 10.7971C106.657 10.757 106.65 10.7142 106.651 10.6711V7.3794H108.888C109.271 7.3794 109.379 7.85348 109.379 8.13077V8.30967H109.753V5.49202H109.287V5.67987C109.287 5.9661 109.154 6.4223 108.797 6.4223H106.593V3.30947H109.021C109.603 3.30947 110.011 3.84616 110.052 4.67804V4.80327H110.493L110.318 2.42392H104.215V2.93378H104.382C104.814 2.93378 105.005 3.19318 105.005 3.7746V10.5906C105.005 11.181 104.822 11.4314 104.382 11.4314H104.215V11.9413H110.485L111.299 9.20416ZM130.789 11.4314H130.622C130.182 11.4314 129.982 11.172 129.982 10.5906V3.7746C129.982 3.20213 130.182 2.93378 130.622 2.93378H130.789V2.42392H127.613V2.93378H127.812C128.245 2.93378 128.436 3.19318 128.436 3.7746V10.5906C128.436 11.181 128.245 11.4314 127.812 11.4314H127.613V11.9413H130.789V11.4314ZM53.0805 11.4314H52.9142C52.4901 11.4314 52.2989 11.172 52.2989 10.5906V7.54041H55.5582V10.5906C55.5582 11.181 55.367 11.4314 54.9097 11.4314H54.7434V11.9413H57.9362V11.4314H57.7034C57.2627 11.4314 57.0798 11.181 57.0798 10.5906V3.7746C57.0798 3.19318 57.271 2.93378 57.7034 2.93378H57.9029V2.42392H54.7101V2.93378H54.8764C55.3171 2.93378 55.5249 3.20213 55.5249 3.7746V6.61908H52.2656V3.7746C52.2656 3.21107 52.4652 2.93378 52.8809 2.93378H53.0472V2.42392H49.8876V2.93378H50.0539C50.5029 2.93378 50.6775 3.17529 50.6775 3.7746V10.5906C50.6775 11.2078 50.5112 11.4314 50.0539 11.4314H49.8876V11.9413H53.0472L53.0805 11.4314ZM66.2258 9.20416H65.6854V9.29361C65.3778 10.4743 64.8539 11.0021 63.8728 11.0021H61.8191C61.7791 11.0021 61.7395 10.9935 61.7026 10.9767C61.6657 10.96 61.6324 10.9355 61.6045 10.9046C61.5765 10.8738 61.5547 10.8372 61.5401 10.7971C61.5256 10.757 61.5187 10.7142 61.5198 10.6711V7.3794H63.773C64.0973 7.3794 64.247 7.76403 64.247 8.13077V8.30967H64.7126V5.49202H64.247V5.67987C64.247 5.99294 64.0973 6.4223 63.773 6.4223H61.5281V3.30947H63.956C64.5463 3.30947 64.9454 3.82827 64.987 4.67804V4.80327H65.4193L65.2697 2.42392H59.1501V2.93378H59.3164C59.7571 2.93378 59.9566 3.20213 59.9566 3.7746V10.5906C59.9566 11.172 59.7571 11.4314 59.3164 11.4314H59.1501V11.9413H65.436L66.2258 9.20416ZM140.816 3.63148L143.311 7.93399V10.6175C143.311 11.2257 143.119 11.5119 142.662 11.5119H142.504V12.0218H145.713V11.4493H145.506C145.032 11.4493 144.849 11.2257 144.849 10.6264V7.87137L147.06 3.57781C147.136 3.40234 147.252 3.25079 147.397 3.13792C147.543 3.02505 147.713 2.95472 147.892 2.93378H148V2.42392H145.763V2.95167H146.088C146.122 2.95659 146.154 2.9718 146.18 2.99554C146.207 3.01928 146.227 3.05058 146.237 3.08585C146.262 3.13041 146.275 3.18143 146.275 3.23344C146.275 3.28544 146.262 3.33647 146.237 3.38103L144.458 6.81587L142.512 3.44364C142.484 3.39061 142.469 3.33045 142.469 3.26922C142.469 3.20798 142.484 3.14782 142.512 3.09479C142.532 3.05482 142.56 3.02075 142.595 2.99574C142.63 2.97072 142.67 2.95557 142.712 2.95167H143.011V2.42392H139.885V2.95167H140.001C140.209 2.95167 140.475 3.03218 140.766 3.63148H140.816ZM82.3146 3.16635C82.4227 3.30052 82.5058 3.41681 82.5973 3.54204L82.8301 3.84616V10.8679C82.8261 10.9476 82.8069 11.0256 82.7737 11.097C82.7405 11.1684 82.6939 11.2316 82.637 11.2828C82.5801 11.334 82.5139 11.372 82.4427 11.3945C82.3715 11.417 82.2968 11.4235 82.2232 11.4136H82.0236V11.9413H84.518V11.4136H84.3517C84.0357 11.4136 83.7115 11.2257 83.7115 10.8679V5.08056L88.9663 11.8966H89.3072V3.50626C89.3113 3.42388 89.3309 3.34325 89.3649 3.26929C89.3988 3.19533 89.4464 3.12957 89.5048 3.07602C89.5631 3.02247 89.631 2.98225 89.7042 2.9578C89.7774 2.93334 89.8545 2.92517 89.9308 2.93378H90.0971V2.42392H87.6027V2.93378H87.7856C87.861 2.9251 87.9373 2.93334 88.0096 2.95797C88.0819 2.9826 88.1487 3.02309 88.2058 3.07688C88.2628 3.13067 88.3088 3.1966 88.341 3.2705C88.3732 3.34441 88.3907 3.42468 88.3926 3.50626V8.44384L83.8112 2.42392H81.5663V2.93378H81.6744C81.9987 2.93378 82.1899 2.93378 82.3312 3.16635H82.3146ZM96.0088 3.63148L99.1267 11.8071C99.156 11.8485 99.1937 11.8822 99.237 11.9054C99.2802 11.9287 99.3278 11.941 99.3762 11.9413C99.4205 11.939 99.4633 11.9235 99.5 11.8967C99.5367 11.8699 99.5658 11.8327 99.584 11.7892L102.419 3.64937C102.644 3.11268 102.818 2.90695 103.068 2.90695H103.184V2.42392H101.106V2.93378H101.347C101.396 2.93686 101.445 2.95218 101.488 2.97855C101.531 3.00491 101.568 3.04162 101.596 3.08585C101.617 3.13188 101.628 3.18233 101.628 3.23344C101.628 3.28454 101.617 3.33499 101.596 3.38103L99.6755 8.80164L97.6135 3.38103C97.5894 3.33615 97.5767 3.28525 97.5767 3.23344C97.5767 3.18162 97.5894 3.13072 97.6135 3.08585C97.6375 3.04364 97.6703 3.00797 97.7092 2.9816C97.7482 2.95522 97.7922 2.93886 97.838 2.93378H98.2288V2.42392H95.2189V2.93378H95.3353C95.593 2.93378 95.7843 3.14846 95.9838 3.63148H96.0088ZM71.6885 1.56521V7.89821C71.6885 10.367 73.4097 12.1023 75.8458 12.1023C78.282 12.1023 79.92 10.4475 79.92 8.05027V1.29686C79.92 0.822783 80.1112 0.608106 80.5103 0.608106H80.9676V-0.000148183H77.7748V0.608106H78.282C78.6479 0.608106 78.8557 0.849618 78.8557 1.29686V8.05027C78.8556 8.44066 78.7806 8.82682 78.6353 9.18456C78.4901 9.54231 78.2777 9.86393 78.0115 10.1293C77.7454 10.3946 77.4311 10.598 77.0885 10.7266C76.7459 10.8553 76.3823 10.9064 76.0205 10.8769C74.607 10.8769 73.6175 9.66035 73.6175 7.9161V1.56521C73.6095 1.44259 73.6251 1.3195 73.6633 1.20365C73.7015 1.08779 73.7615 0.981641 73.8395 0.891831C73.9175 0.802021 74.0119 0.730475 74.1168 0.681659C74.2216 0.632843 74.3347 0.607804 74.449 0.608106H74.6984V-0.000148183H70.6742V0.608106H70.907C71.0212 0.607804 71.1343 0.632843 71.2392 0.681659C71.3441 0.730475 71.4385 0.802021 71.5165 0.891831C71.5945 0.981641 71.6545 1.08779 71.6927 1.20365C71.7309 1.3195 71.7464 1.44259 71.7384 1.56521H71.6885ZM94.296 11.4046H94.1463C93.7056 11.4046 93.5061 11.1452 93.5061 10.5638V3.7746C93.5061 3.20213 93.7139 2.93378 94.1463 2.93378H94.296V2.42392H91.153V2.93378H91.3027C91.7683 2.93378 91.9762 3.19318 91.9762 3.7746V10.5906C91.9762 11.181 91.7766 11.4314 91.3027 11.4314H91.153V11.9413H94.296V11.4046ZM139.045 2.42392H132.294C132.25 2.42994 132.21 2.45189 132.18 2.4861C132.149 2.5203 132.131 2.56468 132.127 2.61177L132.053 4.87483H132.468V4.75854C132.518 3.86405 132.818 3.38103 133.383 3.38103H134.913V10.6532C134.913 11.1989 134.713 11.4314 134.239 11.4314H134.09V11.9413H137.233V11.4314H137.083C136.626 11.4314 136.443 11.2168 136.443 10.6532V3.38103H137.964C138.313 3.38103 138.796 3.52415 138.854 4.75854V4.87483H139.286L139.195 2.61177C139.193 2.56409 139.175 2.51875 139.145 2.48419C139.114 2.44964 139.073 2.42822 139.029 2.42392H139.045ZM114.575 3.38997C114.755 3.30358 114.953 3.26965 115.149 3.29158C115.58 3.29129 115.995 3.47116 116.305 3.79323C116.615 4.1153 116.797 4.55441 116.812 5.01795C116.812 5.49241 116.637 5.94745 116.325 6.28295C116.013 6.61845 115.59 6.80693 115.149 6.80693H114.575V3.38997ZM115.407 11.4404H115.24C114.8 11.4404 114.6 11.181 114.6 10.5996V7.67458H114.958L117.826 11.9413H119.847V11.4314H119.68C119.448 11.4314 119.273 11.1899 119.073 10.9305L116.696 7.41518C117.184 7.25912 117.617 6.94568 117.935 6.51707C118.253 6.08846 118.442 5.56526 118.475 5.01795C118.496 4.6914 118.453 4.36374 118.35 4.05577C118.247 3.7478 118.086 3.46624 117.876 3.22896C117.261 2.56704 116.147 2.33447 114.484 2.39709H112.247V2.90695H112.447C112.862 2.90695 113.07 3.18424 113.07 3.80144V10.6085C113.07 11.1899 112.879 11.4493 112.447 11.4493H112.247V11.9592H115.423L115.407 11.4404ZM57.4373 20.0543H50.9602V20.5731H51.1265C51.5672 20.5731 51.7667 20.8415 51.7667 21.4676V28.2658C51.7667 28.8472 51.5672 29.1066 51.1265 29.1066H50.9602V29.5986H54.1364V29.1066H53.9369C53.5045 29.1066 53.3133 28.8651 53.3133 28.2837V25.0456H55.5831C56.0321 25.0456 56.0488 25.6807 56.0488 25.8059V25.9401H56.5393V23.1224H56.082V23.3103C56.082 23.4355 56.082 24.0527 55.6164 24.0527H53.3133V20.9488H56.1319C56.7056 20.9488 57.1214 21.5034 57.1712 22.3263V22.4516H57.5953L57.4373 20.0543ZM82.3146 29.0797H82.1483V29.5717H88.4342L89.1742 26.8256H88.7085V26.9151C88.376 28.1137 87.8189 28.6504 86.9043 28.6504H84.809C84.765 28.6516 84.7212 28.6432 84.6804 28.6257C84.6395 28.6081 84.6024 28.5818 84.5713 28.5483C84.5402 28.5149 84.5157 28.4749 84.4994 28.431C84.4831 28.387 84.4753 28.3399 84.4764 28.2926V25.0456H86.7463C87.0539 25.0456 87.2369 25.4302 87.2369 25.8059V25.9401H87.6692V23.1135H87.2369V23.3013C87.2369 23.6681 87.0623 24.0527 86.7463 24.0527H84.4764V20.9488H86.9043C87.5196 20.9488 87.927 21.4766 87.9519 22.3174V22.4426H88.3676L88.218 20.0543H82.14V20.5731H82.3146C82.7636 20.5731 82.9548 20.8325 82.9548 21.4676V28.2837C82.9548 28.8651 82.7636 29.1245 82.3146 29.1245V29.0797ZM103.434 20.5731H103.6C103.754 20.5581 103.907 20.6087 104.027 20.7141C104.147 20.8195 104.223 20.9712 104.24 21.1367V26.0921L99.6589 20.108H97.3641V20.5731H97.4805C97.8297 20.5731 98.0126 20.6358 98.1124 20.7968L98.2371 20.9488C98.3784 21.1188 98.4948 21.2619 98.6694 21.4945V28.4983C98.6654 28.5807 98.6457 28.6613 98.6118 28.7353C98.5778 28.8093 98.5302 28.875 98.4719 28.9286C98.4135 28.9821 98.3457 29.0223 98.2724 29.0468C98.1992 29.0712 98.1221 29.0794 98.0458 29.0708H97.8629V29.5807H100.357V29.0708H100.191C100.115 29.0808 100.037 29.0735 99.9632 29.0496C99.8894 29.0257 99.8211 28.9855 99.7625 28.9317C99.7039 28.8779 99.6563 28.8116 99.6227 28.737C99.5891 28.6624 99.5703 28.5812 99.5674 28.4983V22.702L104.764 29.518V29.5628H105.105V21.1277C105.109 21.0473 105.128 20.9687 105.161 20.8965C105.194 20.8242 105.241 20.7599 105.297 20.7073C105.354 20.6547 105.42 20.6149 105.491 20.5903C105.562 20.5658 105.637 20.5569 105.712 20.5642H105.887V20.0543H103.392L103.434 20.5731ZM120.063 26.8346V26.924C119.73 28.1495 119.173 28.713 118.259 28.713H116.355C116.197 28.713 116.039 28.4804 116.039 28.2568V21.4676C116.039 20.8594 116.247 20.5731 116.696 20.5731H116.862V20.0633H113.686V20.5731H113.869C114.284 20.5731 114.492 20.8594 114.492 21.4676V28.221C114.492 28.9903 114.135 29.1155 113.869 29.1155H113.686V29.6254H119.83L120.562 26.8346H120.063ZM146.537 24.8309C146.537 27.3265 145.24 28.7577 142.995 28.7577C142.762 28.7644 142.529 28.7343 142.304 28.6683V20.913C142.515 20.8098 142.75 20.7785 142.978 20.8236C143.475 20.7712 143.977 20.8433 144.445 21.0341C144.912 21.225 145.332 21.5295 145.672 21.9238C146.243 22.7489 146.536 23.7582 146.503 24.7862L146.537 24.8309ZM146.927 21.5124C146.414 20.9746 145.797 20.5651 145.121 20.3131C144.444 20.0611 143.723 19.9727 143.011 20.0543H139.785V20.5731H139.968C140.234 20.5731 140.592 20.6715 140.592 21.4676V28.221C140.592 28.8114 140.4 29.1155 139.968 29.1155H139.785V29.6254H143.693C144.269 29.6243 144.839 29.4997 145.37 29.2589C145.9 29.018 146.381 28.6657 146.784 28.2226C147.186 27.7795 147.503 27.2545 147.714 26.6783C147.926 26.102 148.029 25.4862 148.017 24.8667C148.065 23.664 147.691 22.4857 146.969 21.566L146.927 21.5124ZM123.73 25.7344L124.761 23.0509L125.783 25.7344H123.73ZM128.511 28.4178L125.351 20.1438C125.333 20.0952 125.304 20.0516 125.268 20.016C125.232 19.9804 125.19 19.9538 125.143 19.9381C125.092 19.932 125.04 19.9414 124.993 19.965C124.946 19.9887 124.906 20.0258 124.877 20.0722L121.842 28.3731C121.701 28.7219 121.46 29.1334 121.111 29.1334H120.836V29.6433H123.239V29.1334H123.023C122.959 29.131 122.897 29.1128 122.84 29.0802C122.784 29.0477 122.736 29.0016 122.699 28.9456C122.68 28.9036 122.671 28.8578 122.671 28.8114C122.671 28.765 122.68 28.7192 122.699 28.6772L123.447 26.6915H126.191L126.947 28.6683C126.97 28.7153 126.982 28.7674 126.982 28.8203C126.982 28.8733 126.97 28.9254 126.947 28.9724C126.918 29.0201 126.879 29.0597 126.833 29.0877C126.786 29.1157 126.734 29.1314 126.681 29.1334H126.349V29.6433H129.425V29.1334H129.217C128.968 29.1334 128.752 28.9008 128.569 28.4178H128.511ZM136.152 20.6358H136.26C136.414 20.6207 136.567 20.6713 136.687 20.7767C136.807 20.8821 136.883 21.0338 136.9 21.1993V26.1548L132.335 20.1706H130.082V20.5731H130.19C130.531 20.5731 130.706 20.6358 130.814 20.7968L130.938 20.9488L131.362 21.4945V28.4983C131.358 28.5807 131.339 28.6613 131.305 28.7353C131.271 28.8093 131.223 28.875 131.165 28.9286C131.107 28.9821 131.039 29.0223 130.965 29.0468C130.892 29.0712 130.815 29.0794 130.739 29.0708H130.573V29.5807H133.067V29.0708H132.917C132.84 29.082 132.761 29.0759 132.686 29.0526C132.61 29.0294 132.541 28.9896 132.48 28.9358C132.42 28.882 132.371 28.8153 132.336 28.74C132.301 28.6647 132.281 28.5824 132.277 28.4983V22.702L137.324 29.518V29.5628H137.665V21.1277C137.669 21.0473 137.688 20.9687 137.721 20.8965C137.754 20.8242 137.801 20.7599 137.857 20.7073C137.914 20.6547 137.98 20.6149 138.051 20.5903C138.122 20.5658 138.197 20.5569 138.272 20.5642H138.471V20.0543H136.035L136.152 20.6358ZM96.4494 26.9151C96.1335 28.1316 95.618 28.6236 94.6618 28.6236H92.5998C92.5579 28.6225 92.5167 28.6122 92.4786 28.5934C92.4405 28.5746 92.4064 28.5476 92.3784 28.5141C92.3504 28.4806 92.329 28.4413 92.3156 28.3986C92.3022 28.3559 92.2971 28.3107 92.3005 28.2658V25.0456H94.5371C94.878 25.0456 95.0609 25.4302 95.0609 25.8059V25.9401H95.4933V23.1135H95.0609V23.3013C95.0609 23.6681 94.8946 24.0527 94.5371 24.0527H92.2921V20.9488H94.72C95.3103 20.9488 95.7094 21.4766 95.751 22.3263V22.4426H96.1667L96.0171 20.0543H89.9308V20.5731H90.0805C90.5128 20.5731 90.7207 20.8504 90.7207 21.4676V28.2837C90.7207 28.8561 90.5211 29.1245 90.0805 29.1245H89.9308V29.6164H96.1834L96.9566 26.8704H96.4827L96.4494 26.9151ZM64.0225 23.5965C64.0225 21.6018 64.4465 20.1527 65.253 19.2851C65.693 18.8006 66.2871 18.513 66.916 18.48C68.396 18.48 69.8926 20.0633 69.8926 23.5965C69.8926 26.1369 68.9863 28.7041 66.9575 28.7041C65.1616 28.7041 64.0059 26.7004 64.0059 23.5965H64.0225ZM71.913 32.282H72.0211V31.7185H71.9213C71.2445 31.6566 70.5942 31.4063 70.0345 30.9923C69.4747 30.5783 69.0247 30.0148 68.7285 29.357C70.7407 28.552 71.9879 26.3873 71.9879 23.677C71.9297 18.802 68.662 17.505 66.916 17.505C64.0142 17.505 61.9272 20.0901 61.9272 23.5965C61.9272 26.6557 63.5402 29.0619 65.9265 29.5986C66.6935 30.4801 67.6264 31.1754 68.6631 31.6381C69.6997 32.1009 70.8162 32.3204 71.938 32.282H71.913ZM80.3357 26.4857V21.0741C80.3357 20.7431 80.4854 20.5642 80.7515 20.5642H81.1256V20.0543H78.6312V20.5731H78.9888C79.051 20.5687 79.1133 20.5791 79.1714 20.6035C79.2294 20.628 79.2817 20.6659 79.3246 20.7146C79.3675 20.7633 79.3998 20.8215 79.4194 20.8852C79.439 20.9489 79.4452 21.0164 79.4378 21.083V26.4947C79.434 26.8029 79.3717 27.107 79.2547 27.3884C79.1377 27.6698 78.9686 27.9225 78.7576 28.1311C78.5466 28.3396 78.2983 28.4996 78.0278 28.6012C77.7572 28.7028 77.4703 28.7439 77.1845 28.722C76.9159 28.7105 76.6525 28.6392 76.4108 28.5128C76.1691 28.3863 75.9544 28.2073 75.7802 27.9872C75.606 27.767 75.4761 27.5103 75.3987 27.2335C75.3212 26.9566 75.298 26.6654 75.3303 26.3784V21.3245C75.3245 21.1418 75.3815 20.9632 75.4904 20.8229C75.5993 20.6826 75.7525 20.5905 75.9207 20.5642H76.087V20.0543H73.0189V20.43V20.5642H73.1685C73.3405 20.5844 73.4989 20.6743 73.6116 20.8154C73.7243 20.9566 73.7829 21.1386 73.7755 21.3245V26.3158C73.7732 26.7758 73.8594 27.2313 74.0286 27.6537C74.1978 28.0762 74.4464 28.4564 74.7587 28.7706C75.071 29.0847 75.4403 29.326 75.8435 29.4793C76.2466 29.6325 76.6749 29.6945 77.1014 29.6612C79.0387 29.6612 80.3357 28.391 80.3357 26.4857ZM44.849 28.7041C44.5364 28.7026 44.2275 28.6319 43.9414 28.4965C43.6554 28.3611 43.3982 28.1638 43.1861 27.9169C42.2735 26.6959 41.8195 25.1511 41.9139 23.5876C41.9139 22.4247 42.1135 18.6321 44.8573 18.4711C45.9382 18.5426 47.7591 19.2761 47.8173 23.4981C47.8173 26.611 46.6283 28.6951 44.8656 28.6951L44.849 28.7041ZM44.8656 17.4961C43.6322 17.4882 42.4426 17.9874 41.5398 18.8915C40.4348 20.1619 39.8376 21.8482 39.8769 23.5876C39.8769 27.1029 41.9804 29.6522 44.8656 29.6522C47.7508 29.6522 49.8544 27.1029 49.8544 23.5876C49.8544 20.0722 47.7924 17.5498 44.8656 17.4961ZM112.073 25.8775C111.607 24.8577 110.41 24.0885 109.437 23.5071L109.271 23.3997C109.028 23.2758 108.819 23.0862 108.664 22.8495C108.51 22.6127 108.415 22.3369 108.389 22.049C108.393 21.8387 108.448 21.6331 108.549 21.4527C108.65 21.2722 108.792 21.1232 108.963 21.0204C109.168 20.8804 109.406 20.806 109.649 20.806C109.892 20.806 110.13 20.8804 110.335 21.0204C110.683 21.2564 110.967 21.5879 111.157 21.9809C111.347 22.3739 111.436 22.8142 111.416 23.2566V23.3818H111.881V20.0543H111.416V20.1527C111.411 20.2125 111.394 20.2704 111.367 20.3228C111.34 20.3752 111.302 20.4209 111.258 20.4569C111.185 20.4818 111.107 20.4891 111.031 20.4783C110.955 20.4675 110.882 20.4388 110.817 20.3942C110.364 20.063 109.82 19.9082 109.274 19.9554C108.728 20.0026 108.213 20.2489 107.816 20.6536C107.559 20.9338 107.362 21.2714 107.24 21.6424C107.118 22.0134 107.073 22.4087 107.109 22.8004C107.15 23.1864 107.271 23.5575 107.464 23.8859C107.657 24.2143 107.916 24.4915 108.223 24.6967L108.855 25.1261C109.539 25.5151 110.156 26.0297 110.676 26.6467C110.776 26.7874 110.85 26.9486 110.891 27.1205C110.932 27.2924 110.941 27.4716 110.916 27.6471C110.891 27.8226 110.833 27.9909 110.746 28.1418C110.659 28.2927 110.545 28.4231 110.41 28.5252C110.205 28.7189 109.949 28.8394 109.678 28.8698C109.407 28.9003 109.134 28.8392 108.896 28.6951C108.501 28.4672 108.172 28.1258 107.946 27.709C107.72 27.2922 107.606 26.8161 107.616 26.3337V26.2084H107.142V29.5717H107.591V29.4912C107.601 29.4173 107.627 29.3469 107.666 29.285C107.704 29.2231 107.756 29.1713 107.816 29.1334C107.864 29.1036 107.918 29.0879 107.973 29.0879C108.029 29.0879 108.083 29.1036 108.131 29.1334C108.657 29.4443 109.245 29.6131 109.844 29.6254C110.392 29.638 110.927 29.4451 111.358 29.0797C111.793 28.7114 112.099 28.1948 112.226 27.6146C112.353 27.0344 112.293 26.4251 112.056 25.8864L112.073 25.8775ZM48.6488 0.223475C48.6488 0.125081 48.5656 -0.000148183 48.4742 -0.000148183H40.1596C40.1292 -0.00524504 40.0982 -0.00332169 40.0686 0.00549366C40.039 0.014309 40.0114 0.0298138 39.9878 0.0509745C39.9642 0.0721353 39.9451 0.0984657 39.9317 0.128211C39.9183 0.157956 39.9109 0.190432 39.9101 0.223475L39.802 3.14846H40.2843V3.02323C40.2843 2.19135 40.5503 1.23425 41.4899 1.23425H43.2858V10.3759C43.2928 10.6239 43.21 10.8651 43.0549 11.0486C42.8998 11.2322 42.6845 11.3438 42.4544 11.3599H41.8807V11.9413H46.5618V11.3599H46.0629C45.8328 11.3438 45.6175 11.2322 45.4624 11.0486C45.3073 10.8651 45.2245 10.6239 45.2315 10.3759V1.18952H47.0607C48.0002 1.18952 48.233 2.19135 48.2746 3.02323V3.14846H48.7652L48.6488 0.223475ZM31.9364 0.894343V22.7915C31.9364 31.2355 25.4344 39.8494 16.3881 43.0427C7.30854 39.8494 0.831461 31.2355 0.831461 22.7915V0.894343H31.9364ZM32.7679 -0.000148183H0V22.7915C0 31.7364 6.79303 40.6276 16.147 43.9193L16.3881 43.9999L16.6292 43.9193C25.9665 40.6276 32.7429 31.7364 32.7429 22.7915V-0.000148183H32.7679ZM8.21483 15.895C8.04854 15.895 7.89056 16.0917 7.83236 16.3511H8.5973C8.5391 16.1007 8.38112 15.895 8.21483 15.895ZM8.21483 17.2725C8.38112 17.2725 8.5391 17.0757 8.5973 16.8163H7.83236C7.89056 17.0757 8.04854 17.2725 8.21483 17.2725ZM8.21483 21.1903C8.38112 21.1903 8.5391 20.9935 8.5973 20.7341H7.83236C7.89056 20.9935 8.04854 21.1903 8.21483 21.1903ZM8.21483 19.8128C8.04854 19.8128 7.89056 20.0096 7.83236 20.269H8.5973C8.5391 20.0096 8.38112 19.8128 8.21483 19.8128ZM28.5025 7.49569C27.3717 10.1792 25.609 11.9681 21.5598 12.6658C22.2083 8.05027 23.7465 6.08239 26.1245 4.80327H6.65169C8.9964 6.08239 10.5429 8.05027 11.1831 12.6658C7.13393 11.9413 5.36292 10.1881 4.24045 7.49569V29.5896C5.37124 26.9061 7.13393 25.1172 11.1831 24.4194C10.5429 29.0082 8.9964 31.0029 6.61843 32.282H26.1245C23.7465 31.0029 22.2083 29.0082 21.5598 24.4194C25.609 25.144 27.38 26.8882 28.5025 29.5896V7.49569ZM16.7789 14.6516C16.7789 13.9718 17.4025 13.5603 18.2173 13.5603C19.4312 13.5603 20.0798 14.0076 20.7533 13.8555V21.1993H18.6413C18.0008 21.1313 17.3555 21.2584 16.7789 21.566V14.6516ZM11.9897 13.8376C12.6631 13.9807 13.3117 13.5335 14.484 13.5335C15.3155 13.5335 15.9225 13.945 15.9225 14.6248V21.5392C15.3642 21.2616 14.7468 21.1503 14.1348 21.2172H11.9897V13.8376ZM24.3369 19.7681C24.5067 19.7681 24.6695 19.8407 24.7896 19.9698C24.9096 20.099 24.9771 20.2742 24.9771 20.4569C24.9771 20.6395 24.9096 20.8147 24.7896 20.9439C24.6695 21.073 24.5067 21.1456 24.3369 21.1456H22.3746V22.9346H18.6413C18.2159 22.8696 17.7823 22.951 17.4025 23.1672C17.0814 23.3411 16.7304 23.4416 16.3715 23.4623C16.0116 23.4407 15.6602 23.337 15.3405 23.1582C14.9637 22.9721 14.5443 22.9099 14.1348 22.9793H10.3683V21.1903H8.86337C8.80282 21.3216 8.71078 21.4331 8.59677 21.5133C8.48275 21.5935 8.3509 21.6395 8.21483 21.6465C8.00002 21.6281 7.79833 21.528 7.64596 21.364C7.49358 21.2001 7.40048 20.9831 7.38337 20.752H7.20045C7.14312 20.752 7.08813 20.7275 7.04759 20.6839C7.00705 20.6403 6.98427 20.5812 6.98427 20.5195C6.98427 20.4578 7.00705 20.3986 7.04759 20.355C7.08813 20.3114 7.14312 20.2869 7.20045 20.2869H7.41663C7.43536 20.0564 7.52898 19.8404 7.68103 19.6769C7.83309 19.5133 8.03387 19.4126 8.24809 19.3924C8.38479 19.4012 8.51687 19.4489 8.63082 19.5306C8.74477 19.6124 8.8365 19.7252 8.89663 19.8575H10.4016V17.2725H8.86337C8.80282 17.4037 8.71078 17.5152 8.59677 17.5954C8.48275 17.6756 8.3509 17.7216 8.21483 17.7287C8.00002 17.7102 7.79833 17.6101 7.64596 17.4462C7.49358 17.2822 7.40048 17.0653 7.38337 16.8342H7.20045C7.14312 16.8342 7.08813 16.8097 7.04759 16.7661C7.00705 16.7224 6.98427 16.6633 6.98427 16.6016C6.98427 16.5399 7.00705 16.4808 7.04759 16.4371C7.08813 16.3935 7.14312 16.369 7.20045 16.369H7.41663C7.43536 16.1386 7.52898 15.9226 7.68103 15.759C7.83309 15.5954 8.03387 15.4947 8.24809 15.4745C8.38479 15.4833 8.51687 15.531 8.63082 15.6128C8.74477 15.6945 8.8365 15.8073 8.89663 15.9397H10.4016V14.589L11.233 14.0702V22.058H14.1348C14.6698 21.9876 15.212 22.0937 15.6897 22.3621C15.9117 22.4875 16.1548 22.5635 16.4047 22.5857C16.6548 22.5647 16.8982 22.4886 17.1198 22.3621C17.5976 22.0942 18.1397 21.9882 18.6746 22.058H21.6013V14.1775L22.4328 14.589V15.895H24.3951C24.5649 15.895 24.7277 15.9675 24.8478 16.0967C24.9678 16.2259 25.0353 16.401 25.0353 16.5837C25.0353 16.7664 24.9678 16.9416 24.8478 17.0707C24.7277 17.1999 24.5649 17.2725 24.3951 17.2725H22.3746V19.8128L24.3369 19.7681Z" fill="#6C767D"/>
</g>
<defs>
<clipPath id="clip0_889_967">
<rect width="148" height="44" fill="white"/>
</clipPath>
</defs>
</svg>
