<svg width="39" height="59" viewBox="0 0 39 59" fill="none" xmlns="http://www.w3.org/2000/svg">
<g clip-path="url(#clip0_889_955)">
<path d="M13.6127 48.237C13.242 48.237 12.933 48.4253 12.8094 48.7374L11.2645 52.8039L11.1408 53.2419L11.0175 52.8039L9.78153 48.8626V48.8002C9.65788 48.4874 9.34889 48.237 8.97824 48.237H7.00069C6.56805 48.2994 6.25907 48.6123 6.25907 49.113C6.25907 49.2379 6.32074 49.363 6.32074 49.4876L6.56774 50.3636L5.64079 52.803L5.45547 53.2413L5.33181 52.803L4.15755 48.862V48.7996H4.09588C4.03421 48.4867 3.72523 48.2364 3.35426 48.2364H1.37702C0.944385 48.2988 0.57373 48.6113 0.57373 49.1124C0.57373 49.2372 0.635714 49.3624 0.697074 49.487L3.60126 58.3711C3.72492 58.7457 4.0339 58.9961 4.40486 58.9961C4.77552 58.9961 5.0845 58.7457 5.20816 58.4332L7.24738 53.1782L7.4327 52.6778L7.55636 53.1782L9.2866 58.3711C9.34827 58.7457 9.71924 58.9961 10.0899 58.9961C10.4609 58.9961 10.7698 58.7457 10.8935 58.4332L14.354 49.4249C14.4156 49.3 14.4156 49.1748 14.4156 49.0496C14.416 48.6122 14.045 48.237 13.6127 48.237ZM28.2582 48.237C27.8875 48.237 27.5779 48.4253 27.4549 48.7374L25.91 52.8039L25.7866 53.2419L25.6633 52.8039L24.427 48.8626V48.8002C24.3037 48.4874 23.9944 48.237 23.6241 48.237H21.6462C21.2136 48.2994 20.9046 48.6123 20.9046 49.113C20.9046 49.2379 20.9046 49.363 20.9663 49.4876L21.2136 50.3636L20.2863 52.803L20.1007 53.2413L19.9773 52.803L18.8031 48.862L18.7414 48.7996C18.6797 48.4867 18.3707 48.2364 18.0001 48.2364H16.0225C15.5899 48.2988 15.2192 48.6113 15.2192 49.1124C15.2192 49.2372 15.2812 49.3624 15.3429 49.487L18.2474 58.3711C18.3707 58.7457 18.68 58.9961 19.051 58.9961C19.4213 58.9961 19.7306 58.7457 19.854 58.4332L21.8938 53.1782L22.0792 52.6778L22.2025 53.1782L23.9334 58.3711C23.9947 58.7457 24.366 58.9961 24.7363 58.9961C25.107 58.9961 25.4166 58.7457 25.5399 58.4332L29.0001 49.4249C29.0618 49.3 29.0618 49.1748 29.0618 49.0496C29.0615 48.6122 28.6905 48.237 28.2582 48.237ZM37.7743 48.237H30.9147C30.4821 48.237 30.1737 48.5498 30.1737 48.9878V58.1841C30.2351 58.6224 30.5441 58.9349 30.9767 58.9349H32.892C33.3246 58.9349 33.6336 58.6224 33.6336 58.1841V53.8679H36.4764C36.8465 53.8679 37.2177 53.4926 37.2177 53.1171C37.2177 52.6791 36.8474 52.3035 36.4764 52.3035H33.6336V49.8641H37.774C38.207 49.8641 38.5773 49.4892 38.5773 49.0509C38.5776 48.6126 38.2073 48.237 37.7743 48.237ZM27.1456 18.834C28.3818 20.2105 28.5049 24.4646 31.6564 22.7754C33.5099 21.7745 33.5099 17.5204 30.9767 15.9563C28.9369 14.7676 27.8249 16.3943 27.0833 18.3961C27.0219 18.5837 27.0219 18.7089 27.1456 18.834ZM22.2639 18.146C20.9046 19.2096 20.0393 22.2749 17.6294 21.2113C15.6522 20.2105 15.4669 16.3316 18.8654 14.5175C21.2136 13.3915 22.3878 15.5811 22.3878 17.8956C22.3875 17.9581 22.3258 18.0832 22.2639 18.146ZM25.4773 25.8407C26.7749 25.7158 26.466 24.4646 25.4773 24.2142C24.6121 23.9014 23.3145 23.7138 22.3258 23.7762C20.6573 23.7762 20.7193 25.0899 21.5839 25.3403C22.2639 25.5279 22.6959 25.5903 23.2522 26.3411C23.7468 27.3423 23.4998 26.0283 25.4773 25.8407ZM31.595 4.06998C33.2016 1.31746 36.0441 1.81789 37.4657 3.19431C39.0109 4.69559 39.3196 6.44725 38.7019 7.63605C37.8983 9.26252 35.7977 11.2021 34.4381 9.32527C33.8208 8.4496 32.5842 7.44842 31.8429 7.19805C30.7914 6.69762 30.6064 5.75889 31.595 4.06998Z" fill="#6C767D"/>
<path d="M38.0836 16.1439C37.9603 15.6435 37.7127 15.7059 37.7127 16.0815C37.8363 21.0861 34.8705 26.4666 28.5675 26.529C26.9609 26.529 27.4555 29.0942 24.489 27.7802C22.3878 26.3414 21.1519 29.2191 19.6687 26.1537C19.298 25.2778 18.8034 24.9025 18.1854 24.7149C11.9441 23.1509 9.96655 14.455 15.4666 7.44836C16.5172 8.13673 16.9495 8.2616 18.1237 7.13555C18.68 6.57237 19.7303 5.94676 20.2863 5.75914C21.5839 5.25871 22.3258 4.69553 21.1513 2.13063C20.6106 0.92229 19.8739 0.278701 19.089 0.00341797H16.99C16.3898 0.184239 15.8303 0.481786 15.3426 0.879405C13.736 2.19307 12.6854 4.25754 14.6623 6.69756C9.10158 10.5137 8.11296 15.2055 8.23631 19.3344C8.35965 23.651 7.30936 23.2757 8.66895 27.6547C8.79229 28.0303 8.48362 28.0303 8.29829 27.9054C2.48961 24.1517 -0.661889 12.6406 8.42195 6.322C8.60727 6.13438 8.5456 5.88401 7.80398 6.322C-0.0442359 10.5137 -0.785545 18.6464 0.512057 24.1517C1.13002 26.779 0.203075 27.2798 1.19201 30.7831C3.54021 38.0401 5.51745 38.6651 8.35996 38.8533C13.489 38.8533 9.96655 35.9756 10.2139 32.4096C10.2139 32.1589 10.4612 32.0968 10.5845 32.5344C13.427 38.9151 15.4046 44.7336 22.8198 44.1704C27.0833 43.6076 24.7351 41.4804 24.4261 40.2288C21.2749 29.6567 28.9369 27.1543 26.7743 37.4763C25.3534 43.4196 29.8641 42.7937 33.0773 40.6668C36.3528 38.5402 40.4318 24.089 38.0836 16.1439ZM25.6007 28.7183C24.8591 30.5955 21.2133 29.9699 21.0896 28.093C21.0896 28.0306 21.2133 28.0306 21.2133 28.093C22.8815 28.4683 24.4261 28.6559 25.4767 28.6559C25.539 28.6559 25.6007 28.5935 25.6007 28.7183Z" fill="#6C767D"/>
<path d="M9.59581 42.1062C9.5954 42.5872 9.40648 43.0484 9.07053 43.3886C8.73458 43.7287 8.27904 43.9201 7.8039 43.9206C6.75329 43.9206 5.95 43.107 5.95 42.1062C5.95 41.105 6.75329 40.2296 7.8039 40.2296C8.79251 40.2293 9.59581 41.105 9.59581 42.1062ZM7.8039 39.9165C6.56797 39.9165 5.57935 40.8552 5.57935 42.1058C5.57935 43.2949 6.56797 44.2952 7.8039 44.2952C8.97815 44.2952 9.96646 43.2943 9.96646 42.1058C9.96646 40.8549 8.97784 39.9165 7.8039 39.9165Z" fill="#6C767D"/>
<path d="M8.42198 42.419C8.36 42.7318 8.113 42.9198 7.86569 42.9198C7.43305 42.9198 7.12407 42.5445 7.12407 42.1062C7.12407 41.6682 7.37138 41.2933 7.80402 41.2933C8.113 41.2933 8.36 41.4809 8.42198 41.7313H8.73097C8.66898 41.2308 8.29833 40.9805 7.80402 40.9805C7.18606 40.9805 6.75342 41.4809 6.75342 42.1062C6.75342 42.7318 7.18606 43.2322 7.86569 43.2322C8.29833 43.2322 8.60731 42.9197 8.73097 42.419H8.42198ZM38.2073 44.9839C38.207 45.465 38.0181 45.9263 37.682 46.2665C37.346 46.6067 36.8903 46.798 36.4151 46.7983C35.3645 46.7983 34.5615 45.9851 34.5615 44.9839C34.5615 43.9824 35.3645 43.1067 36.4151 43.1067C37.4034 43.1067 38.2073 43.9827 38.2073 44.9839ZM36.4151 42.7942C35.1789 42.7942 34.1902 43.733 34.1902 44.9839C34.1902 46.1727 35.1789 47.1732 36.4151 47.1732C37.5894 47.1732 38.5777 46.1721 38.5777 44.9839C38.5777 43.7327 37.589 42.7942 36.4151 42.7942Z" fill="#6C767D"/>
<path d="M36.0442 45.1094H36.3528L36.9094 46.0481H37.2795L36.6618 45.1094C36.9708 45.0466 37.2178 44.9214 37.2178 44.5462C37.2178 44.1082 36.9708 43.9209 36.4765 43.9209H35.7349V46.0481H36.0435L36.0442 45.1094ZM36.0442 44.8593V44.2337H36.4148C36.6618 44.2337 36.9094 44.2337 36.9094 44.4844C36.9094 44.8593 36.6618 44.8593 36.4148 44.8593H36.0442Z" fill="#6C767D"/>
</g>
<defs>
<clipPath id="clip0_889_955">
<rect width="39" height="59" fill="white"/>
</clipPath>
</defs>
</svg>
