<svg xmlns="http://www.w3.org/2000/svg" width="30" height="30" viewBox="0 0 30 30" fill="none">
    <path d="M17.2871 23.75C17.1004 23.7506 16.9158 23.7094 16.7471 23.6294C16.5784 23.5494 16.4297 23.4325 16.3121 23.2875L10.2746 
    15.7875C10.0907 15.5638 9.99023 15.2833 9.99023 14.9938C9.99023 14.7042 10.0907 14.4237 10.2746 14.2L16.5246 6.70001C16.7368 6.44474 
    17.0417 6.28421 17.3722 6.25373C17.7027 6.22326 18.0318 6.32534 18.2871 6.53751C18.5424 6.74968 18.7029 7.05457 18.7334 7.3851C18.7638
    7.71564 18.6618 8.04474 18.4496 8.30001L12.8621 15L18.2621 21.7C18.4149 21.8835 18.512 22.1069 18.5419 22.3439C18.5717 22.5808 18.5331 
    22.8213 18.4305 23.037C18.328 23.2526 18.1658 23.4344 17.9631 23.5608C17.7605 23.6871 17.5259 23.7528 17.2871 23.75Z" fill="black"/>
</svg>