<svg xmlns="http://www.w3.org/2000/svg" width="77" height="77" viewBox="0 0 77 77" fill="none">
    <path d="M4.8125 13.6097C9.07156 11.8291 15.1786 9.90893 21.1173 9.31218C27.5179 8.6673 32.9464 9.61537 36.0938 12.9312V59.8338C31.5941 
    57.2832 25.8913 56.9319 20.6312 57.4612C14.9524 58.0387 9.22556 59.6798 4.8125 61.3642V13.6097ZM40.9062 12.9312C44.0536 9.61537 49.4821 
    8.6673 55.8828 9.31218C61.8214 9.90893 67.9284 11.8291 72.1875 13.6097V61.3642C67.7696 59.6798 62.0476 58.0339 56.3688 57.4661C51.1039 
    56.9319 45.4059 57.2784 40.9062 59.8338V12.9312ZM38.5 8.58068C33.7597 4.50449 26.8874 3.89812 20.6312 4.52374C13.3451 5.26005 5.99156 
    7.75774 1.41006 9.84155C0.989686 10.0327 0.633206 10.3409 0.383176 10.7291C0.133146 11.1174 0.000127875 11.5694 0 12.0312L0 
    64.9687C0.000111467 65.3713 0.101241 65.7675 0.294126 66.1209C0.487011 66.4743 0.765485 66.7736 1.10404 66.9915C1.44259 67.2094 1.83041 
    67.3388 2.23196 67.368C2.63351 67.3972 3.03595 67.3251 3.40244 67.1584C7.64706 65.2334 14.4856 62.9186 21.1124 62.2497C27.8933 61.5663 
    33.5768 62.6684 36.6231 66.4702C36.8486 66.7513 37.1343 66.9781 37.4591 67.1339C37.784 67.2898 38.1397 67.3707 38.5 67.3707C38.8603 
    67.3707 39.216 67.2898 39.5409 67.1339C39.8657 66.9781 40.1514 66.7513 40.3769 66.4702C43.4232 62.6684 49.1068 61.5663 55.8828 
    62.2497C62.5144 62.9186 69.3577 65.2334 73.5976 67.1584C73.9641 67.3251 74.3665 67.3972 74.768 67.368C75.1696 67.3388 75.5574 67.2094 
    75.896 66.9915C76.2345 66.7736 76.513 66.4743 76.7059 66.1209C76.8988 65.7675 76.9999 65.3713 77 64.9687V12.0312C76.9999 11.5694 76.8669 
    11.1174 76.6168 10.7291C76.3668 10.3409 76.0103 10.0327 75.5899 9.84155C71.0084 7.75774 63.6549 5.26005 56.3688 4.52374C50.1126 3.8933
     43.2403 4.50449 38.5 8.58068Z" fill="black"/>

    <defs>
        <clipPath id="clip0_3625_2771">
            <rect width="77" height="77" fill="white"/>
        </clipPath>
    </defs>
</svg>