<svg xmlns="http://www.w3.org/2000/svg" width="77" height="77" viewBox="0 0 77 77" fill="none">
    <g id="Group">
        <path id="Vector" d="M26.4688 33.6875C25.8306 33.6875 25.2185 33.941 24.7673 34.3923C24.316 34.8435 24.0625 35.4556 24.0625 
        36.0938C24.0625 36.7319 24.316 37.344 24.7673 37.7952C25.2185 38.2465 25.8306 38.5 26.4688 38.5H50.5312C51.1694 38.5 51.7815 
        38.2465 52.2327 37.7952C52.684 37.344 52.9375 36.7319 52.9375 36.0938C52.9375 35.4556 52.684 34.8435 52.2327 34.3923C51.7815 
        33.941 51.1694 33.6875 50.5312 33.6875H26.4688ZM24.0625 45.7188C24.0625 45.0806 24.316 44.4685 24.7673 44.0173C25.2185 43.566 
        25.8306 43.3125 26.4688 43.3125H50.5312C51.1694 43.3125 51.7815 43.566 52.2327 44.0173C52.684 44.4685 52.9375 45.0806 52.9375 
        45.7188C52.9375 46.3569 52.684 46.969 52.2327 47.4202C51.7815 47.8715 51.1694 48.125 50.5312 48.125H26.4688C25.8306 48.125 25.2185 
        47.8715 24.7673 47.4202C24.316 46.969 24.0625 46.3569 24.0625 45.7188ZM24.0625 55.3438C24.0625 54.7056 24.316 54.0935 24.7673 
        53.6423C25.2185 53.191 25.8306 52.9375 26.4688 52.9375H36.0938C36.7319 52.9375 37.344 53.191 37.7952 53.6423C38.2465 54.0935 38.5 
        54.7056 38.5 55.3438C38.5 55.9819 38.2465 56.594 37.7952 57.0452C37.344 57.4965 36.7319 57.75 36.0938 57.75H26.4688C25.8306 57.75 
        25.2185 57.4965 24.7673 57.0452C24.316 56.594 24.0625 55.9819 24.0625 55.3438Z" fill="black"/>
        <path id="Vector_2" d="M45.7188 0H19.25C16.6973 0 14.2491 1.01406 12.4441 2.8191C10.6391 4.62414 9.625 7.07229 9.625 
        9.625V67.375C9.625 69.9277 10.6391 72.3759 12.4441 74.1809C14.2491 75.9859 16.6973 77 19.25 77H57.75C60.3027 77 62.7509 
        75.9859 64.5559 74.1809C66.3609 72.3759 67.375 69.9277 67.375 67.375V21.6562L45.7188 0ZM45.7188 4.8125V14.4375C45.7188 16.352 
        46.4793 18.1882 47.8331 19.5419C49.1869 20.8957 51.023 21.6562 52.9375 21.6562H62.5625V67.375C62.5625 68.6514 62.0555 69.8754 
        61.153 70.778C60.2504 71.6805 59.0264 72.1875 57.75 72.1875H19.25C17.9736 72.1875 16.7496 71.6805 15.847 70.778C14.9445 69.8754 
        14.4375 68.6514 14.4375 67.375V9.625C14.4375 8.34865 14.9445 7.12457 15.847 6.22205C16.7496 5.31953 17.9736 4.8125 19.25 
        4.8125H45.7188Z" fill="black"/>
    </g>
</svg>