<svg xmlns="http://www.w3.org/2000/svg" width="77" height="77" viewBox="0 0 77 77" fill="none">
    <path d="M28.875 21.6562C28.875 23.5708 28.1145 25.4069 26.7607 26.7607C25.4069 28.1145 23.5708 28.875 21.6562 28.875C19.7417 28.875 
    17.9056 28.1145 16.5518 26.7607C15.198 25.4069 14.4375 23.5708 14.4375 21.6562C14.4375 19.7417 15.198 17.9056 16.5518 16.5518C17.9056 
    15.198 19.7417 14.4375 21.6562 14.4375C23.5708 14.4375 25.4069 15.198 26.7607 16.5518C28.1145 17.9056 28.875 19.7417 28.875 
    21.6562ZM24.0625 21.6562C24.0625 21.0181 23.809 20.406 23.3577 19.9548C22.9065 19.5035 22.2944 19.25 21.6562 19.25C21.0181 19.25 20.406 
    19.5035 19.9548 19.9548C19.5035 20.406 19.25 21.0181 19.25 21.6562C19.25 22.2944 19.5035 22.9065 19.9548 23.3577C20.406 23.809 21.0181 
    24.0625 21.6562 24.0625C22.2944 24.0625 22.9065 23.809 23.3577 23.3577C23.809 22.9065 24.0625 22.2944 24.0625 21.6562Z" fill="black"/>
    <path d="M9.625 4.8125H31.6951C32.9714 4.81277 34.1953 5.31998 35.0976 6.22256L68.7851 39.9101C69.6873 40.8125 70.1941 42.0364 70.1941 
    43.3125C70.1941 44.5886 69.6873 45.8125 68.7851 46.7149L46.7149 68.7851C45.8125 69.6873 44.5886 70.1941 43.3125 70.1941C42.0364 70.1941 
    40.8125 69.6873 39.9101 68.7851L6.22256 35.0976C5.31998 34.1953 4.81277 32.9714 4.8125 31.6951V9.625C4.8125 8.34865 5.31953 7.12457 
    6.22205 6.22205C7.12457 5.31953 8.34865 4.8125 9.625 4.8125ZM9.625 31.6951L43.3125 65.3826L65.3826 43.3125L31.6951 
    9.625H9.625V31.6951Z" fill="black"/>
</svg>