<svg xmlns="http://www.w3.org/2000/svg" width="77" height="77" viewBox="0 0 77 77" fill="none">
    <g clip-path="url(#clip0_3625_2767)">
        <path d="M58.5489 43.0237C56.0271 48.1346 52.6103 53.2262 49.1164 57.7981C45.802 62.1083 42.2581 66.237 38.5 70.1663C34.7418 66.237 
        31.1979 62.1083 27.8836 57.7981C24.3898 53.2262 20.9729 48.1346 18.4511 43.0237C15.9005 37.8599 14.4375 33.0234 14.4375 28.875C14.4375 
        22.4932 16.9726 16.3728 21.4852 11.8602C25.9978 7.34765 32.1182 4.8125 38.5 4.8125C44.8818 4.8125 51.0022 7.34765 55.5148 
        11.8602C60.0274 16.3728 62.5625 22.4932 62.5625 28.875C62.5625 33.0234 61.0947 37.8599 58.5489 43.0237ZM38.5 77C38.5 77 67.375 49.6361 
        67.375 28.875C67.375 21.2169 64.3328 13.8724 58.9177 8.45729C53.5026 3.04218 46.1581 0 38.5 0C30.8419 0 23.4974 3.04218 18.0823 
        8.45729C12.6672 13.8724 9.625 21.2169 9.625 28.875C9.625 49.6361 38.5 77 38.5 77Z" fill="black"/>
        <path d="M38.5 38.5C35.9473 38.5 33.4991 37.4859 31.6941 35.6809C29.8891 33.8759 28.875 31.4277 28.875 28.875C28.875 26.3223 29.8891 
        23.8741 31.6941 22.0691C33.4991 20.2641 35.9473 19.25 38.5 19.25C41.0527 19.25 43.5009 20.2641 45.3059 22.0691C47.1109 23.8741 48.125 
        26.3223 48.125 28.875C48.125 31.4277 47.1109 33.8759 45.3059 35.6809C43.5009 37.4859 41.0527 38.5 38.5 38.5ZM38.5 43.3125C42.3291 
        43.3125 46.0013 41.7914 48.7089 39.0839C51.4164 36.3763 52.9375 32.7041 52.9375 28.875C52.9375 25.0459 51.4164 21.3737 48.7089 
        18.6661C46.0013 15.9586 42.3291 14.4375 38.5 14.4375C34.6709 14.4375 30.9987 15.9586 28.2911 18.6661C25.5836 21.3737 24.0625 25.0459 
        24.0625 28.875C24.0625 32.7041 25.5836 36.3763 28.2911 39.0839C30.9987 41.7914 34.6709 43.3125 38.5 43.3125Z" fill="black"/>
    </g>
    <defs>
        <clipPath id="clip0_3625_2767">
            <rect width="77" height="77" fill="white"/>
        </clipPath>
    </defs>
</svg>