<svg xmlns="http://www.w3.org/2000/svg" fill="currentColor" viewBox="0 0 112 47">
  <title>United Nations Environmetal Programme</title>
  <path d="M50 16c-2.5-.8-4.3-3.1-4.3-5.9 0-.5.1-1 .2-1.5l4 .5s1.5.1 1.5 2.8C51.3 14.6 50 16 50 16Zm3.6 0c2.5-.8 4.3-3.1 4.3-5.9 0-.5-.1-1-.2-1.5l-4 .5s-1.5.1-1.5 2.8c.2 2.7 1.4 4.1 1.4 4.1ZM51.8 5.8c.5 0 .9.4.9.9 0 .4-.3.7-.6.9 0 0-.1 0-.1.1s.2.1.3.1l5.3.6C56.8 5.9 54.5 4 51.7 4c-2.8 0-5.1 1.8-5.9 4.4l5.3-.6c.1 0 .3 0 .3-.1s0-.1-.1-.1c-.3-.2-.6-.5-.6-.9.2-.5.6-.9 1.1-.9Zm2.5 14.5.4-.2s-1.7-2.3-5.5-2.3c-2 0-3 .8-4.4.8 0 0-.6.1-1.1-.3 0 0 .6 1 3 1 1.7 0 3-1 4.2-1 1.6-.1 2.8 1.4 3.4 2Z"/>
  <path d="m48.9 20.3-.4-.2s1.7-2.3 5.5-2.3c2 0 3 .8 4.4.8 0 0 .6.1 1.1-.3 0 0-.6 1-3 1-1.7 0-3-1-4.2-1-1.6-.1-2.9 1.4-3.4 2Zm-1.8-2.7c-.1.2-.8 0-1.3.1-.5.2-3.5.5-4.8-2.5 0 0 1.2 1.3 2.2 1.4 1 .1 2 .3 2.9.8h.2s0-.1-.1-.1c-.1-.1-1-.4-1.5-1.8-.2-.7-.2-1.3-.3-1.7 0 0 1 1.1 1.4 1.8.4.7.5 1.5 1.3 2Z"/>
  <path d="M44.1 16.1c-.1.1-.3 0-.3-.1-.1 0-.5-.3-1.4-.5-.8-.3-2.4-1.6-2.2-3.8 0 0 .2.8.9 1.4.6.6.9.6 1.2 1.1.3.5 1.2 1.5 1.3 1.5v-.1c-.1-.1-.3-.6-.4-.8-.1-.2-.6-1.5.1-3.1 0 0 .7 1.2.6 2.4 0 1.2-.1.9.2 1.9-.1-.2 0 0 0 .1Z"/>
  <path d="M42.2 13.2s-.2-.2-.4-.5c-.1-.2-1.1-1.2-1.2-1.5-.1-.2-1.2-1.5-.4-3.4 0 0 .1 0 .1.4s.4 1.5.8 1.9c.3.4.6 1.1.7 1.9 0 0 0 .1.1.1.1.1.1-.1.1-.1v-1.1c0-.4.2-1.2.6-1.7 0 0 .2-.2.3-.5 0 0 .1-.2.2-.3 0 0 .1 1.3-.4 2.5-.4 1.2-.6 1.4-.5 2.1v.2Z"/>
  <path d="M41.5 9.6s-.1-.2-.1-.3c0-.1-.2-.9-.2-1-.1-.2-.4-.9-.4-1.7 0-.8.4-2 1.2-2.9 0 0 0 .3-.3.9-.3.6-.1 1.2-.1 1.3 0 .1.1.8.1 1.1 0 .3-.1 1.1-.1 1.3v.1l.1-.1s0-.7.6-1.3c.5-.6 1.5-1 1.6-1.3 0 0-.1 1-1.2 2.1-1 1-.7.5-1 1.4 0 0-.2.3-.2.4Z"/>
  <path d="M42.1 6.2s0-.1.1-.4c.2-.3 0-.9.2-1.6.2-.8.6-2.1 2.2-3 0 0-.2.1-.2.3 0 .2-.5.9-.6 1.5-.1.6-.7 1.5-.9 1.7-.2.2-.1.2-.1.2s.1 0 .2-.2.6-.7 1.2-.9c.6-.1 1.5-.4 1.5-.5 0 0-1 1-1.9 1.5-.9.5-1 .4-1.6 1.1.1.1-.1.3-.1.3Z"/>
  <path d="M44.2 3.2s0-.1.2-.2.3-.6.6-1.1c.3-.5 1-1.6 2.7-1.9 0 0-.5.4-.6.5-.1.1-.6.8-.8 1-.2.2-.9.7-1.1.8l-.1.1h.1s.7-.4 1.4-.4h1.6s-.7.5-2.3.8c-1.6.3-1.3.3-1.7.4.1 0 .1.1 0 0Z"/>
  <path d="M47.1 1.4s0-.1.3-.2.2-.3 1-.7c.8-.5 1.6-.6 2.5-.3 0 0-.4 0-.4.1s-.6.2-.8.3c-.2.1-1 .5-1.4.5-.4.1-.2.1-.2.1h.1s.9-.1 1.4.1c.5.2.5.2.7.3.2.1.4.1.5.2H50c-.3 0-1.1-.1-1.5-.3-.4-.2-.8-.3-1-.2-.2.1-.3.1-.4.1Z"/>
  <path d="m50.3 1 .3-.1c.3-.1.3-.2.8-.3.5-.1 1.4-.2 2.1.3h-.6c-.1 0-.9.1-1.1.1-.2 0-.6-.1-.7 0-.1.1.4.2.4.2s.4 0 .8.4.6.6.7.6c0 0-1.1-.3-1.4-.4-.3-.1-.8-.6-.9-.7-.1 0-.4-.1-.4-.1Z"/>
  <path d="M52.9 1.4s.7 0 1.2.3.9.8 1 1c0 0-.3-.2-.5-.3-.2-.1-.7-.4-.9-.4 0 0-.7-.5-.8-.6Zm3.4 16.3.4-.4c.3-.3.4-.7.8-1.4s.7-1.1 1.4-1.8c0 0-.1.5-.1.7 0 .2-.1 1-.6 1.5-.4.5-.5.6-1 .9 0 0-.2.1-.2.2s.3 0 .3 0 .4-.1.5-.2c.1-.1.6-.3.8-.4.2-.1.4-.2.8-.3.5-.1 2.1-.5 2.7-1.6 0 0-.2.6-.4.9-.2.3-1.6 2-3.4 2 0 0-.7-.1-1.1-.1-.4-.1-.5-.1-.6-.1.1.1-.3.1-.3.1Z"/>
  <path d="M60.4 11.4s-.7 1.1-.9 2.7c-.2 1.6.1 1.1-.1 1.8l-.1.2s.2-.1.7-.4c.5-.3 1-.2 2-1.2s1.3-3 1.3-3.2c0 0-.2.2-.2.4s-.2.5-.3.5c0 0-1.2 1.3-1.3 1.4-.1.1-.8.9-1 1.2-.1.2-.6.7-.6.6v-.2c0-.1.4-.5.5-1 .1-.5.2-.8.2-1.1 0-.3-.2-1.5-.2-1.7Z"/>
  <path d="M61.4 12.9s-.1-.2 0-.3c0-.1.1-.6-.1-1s-.6-1.7-.6-2.5.1-.9.1-.9.2.7.2.8c.1.1.7 1.3.7 2-.1.6-.1.9-.1.9s.1-.1.1-.2.1-.5.3-1.1c.2-.5 1.1-1.7 1.3-2.5 0 0 .3 1.4-.5 2.6-.8 1.3-.8 1-1.1 1.6-.2.5-.3.6-.3.6Z"/>
  <path d="M62.1 9.3c-.1 0 0-.5-.2-.7-.2-.2-1.3-1.5-1.5-2.9 0 0 .7.7.9.8.1.1.6.6.8 1 .1.4.1.8.2.8s.1-.5.1-.5 0-1 .1-1.4c.1-.5.3-1.2.2-1.6 0 0 .4.7.4 1.7s-.4 1.8-.5 1.9c-.1.1-.2.6-.2.7-.2.2-.3.2-.3.2Z"/>
  <path d="M60.7 2.3s1.5.9 1.3 3.9c0 0 0 .1-.1 0s-.4-.6-.6-.6c-.1-.1-1.5-.9-2.1-2.2 0 0 .1 0 .2.1s.5.3.6.4c.1.1.6.1 1 .5s.5.7.6.9c0 0 .1.1 0-.1s-.1-.4-.3-.6c-.1-.4-.3-.9-.3-1.3-.1-.3-.2-.8-.3-1Z"/>
  <path d="M60.4 3.3s0-.2-.1-.5 0-.6-.5-1.3c-.3-.4-1.2-.7-1.2-.7s.3.4.4.6c.2.2.2.4.3.5.1.1.4.4.5.6 0 0 .1.1.1.2s-.1 0-.2-.1c0 0-.6-.5-.9-.5-.3 0-1-.1-1.2-.2 0 0 .8.7 1.6.9.9.1 1.2.5 1.2.5Z"/>
  <path d="M58.6 1.5s-.8-1.1-2.2-1c0 0 .1.1.2.1s.4.3.6.4c.2 0 .5.3 1.4.5ZM15.4 0v13.3c0 1.2-.2 2.2-.6 3.1-.4.9-.9 1.6-1.6 2.2-.7.6-1.5 1-2.4 1.3-.9.3-2 .5-3.1.5s-2.1-.2-3.1-.5-1.8-.8-2.4-1.3c-.6-.5-1.2-1.4-1.6-2.3-.4-.9-.6-1.9-.6-3V0h4.1v13.3c0 1.3.3 2.3.9 2.9.6.6 1.6.8 2.7.8s2-.3 2.6-.9c.6-.6.9-1.6.9-2.9V0h4.2Zm19.7 20.1h-4.2l-8-13.2v13.2h-4.1V0h4.1L31 13.2V0h4.1v20.1ZM3 33c-.9 0-1.6-.3-2.1-.8-.6-.5-.9-1.2-.9-2.1v-.2c0-.6.1-1.2.4-1.6.3-.4.5-.8 1-1.1.4-.3.9-.4 1.4-.4.8 0 1.5.3 1.9.8.4.5.7 1.3.7 2.2v.7H1.6c0 .4.2.7.5 1 .3.2.6.4 1 .4.6 0 1.1-.2 1.4-.7l.8.9c-.2.3-.6.6-1 .8-.4 0-.8.1-1.3.1Zm-.2-4.9c-.3 0-.6.1-.8.3-.2.2-.3.5-.4.9h2.2v-.1c0-.4-.1-.6-.3-.8-.1-.2-.4-.3-.7-.3Zm5-1.2v.7c.4-.5 1-.8 1.7-.8.6 0 1.1.2 1.4.6.3.4.5.9.5 1.7V33H9.9v-3.9c0-.3-.1-.6-.2-.7-.1-.1-.4-.2-.7-.2-.5 0-.8.2-1 .6v4.3H6.3v-6l1.5-.2Zm7.1 4.1 1.1-4.1h1.7l-2 6h-1.5l-2-6h1.6l1.1 4.1Zm3.5-5.7c0-.2.1-.4.2-.6.1-.2.4-.2.6-.2.3 0 .5.1.6.2.2.2.2.4.2.6 0 .2-.1.5-.2.6-.2.2-.4.2-.6.2-.3 0-.5-.1-.6-.2-.1-.1-.2-.3-.2-.6Zm1.7 7.6h-1.6v-6h1.6v6Zm4.7-4.5h-.6c-.6 0-1 .2-1.2.6v3.9h-1.6v-6H23v.7c.3-.5.8-.8 1.3-.8.2 0 .3 0 .5.1v1.5Zm.4 1.5c0-.6.1-1.1.3-1.6.2-.5.5-.8 1-1.1.4-.3.9-.4 1.5-.4.8 0 1.5.2 2 .8.5.5.8 1.2.9 2v.4c0 .9-.2 1.7-.8 2.2-.5.6-1.2.8-2 .8s-1.5-.3-2-.8c-.6-.6-.9-1.3-.9-2.3Zm1.6.1c0 .6.1 1 .3 1.3.2.3.5.5.9.5s.7-.2.9-.5c.2-.3.3-.8.3-1.4 0-.6-.1-1-.3-1.3-.2-.3-.5-.5-.9-.5s-.7.2-.9.5c-.2.3-.3.7-.3 1.4Zm6.5-3.1v.7c.4-.5 1-.8 1.7-.8.6 0 1.1.2 1.4.6.3.4.5.9.5 1.7V33h-1.6v-3.9c0-.3-.1-.6-.2-.7-.1-.1-.4-.2-.7-.2-.5 0-.8.2-1 .6v4.3h-1.6v-6l1.5-.2Zm6.4 0v.7c.4-.5 1-.8 1.7-.8.8 0 1.3.3 1.6.9.4-.6 1-.9 1.8-.9.6 0 1.1.2 1.4.6.3.4.5 1 .5 1.7V33h-1.6v-3.8c0-.3-.1-.6-.2-.8-.1-.2-.4-.2-.7-.2-.5 0-.8.2-1 .7V33h-1.6v-3.8c0-.3-.1-.6-.2-.8-.1-.2-.4-.2-.7-.2-.5 0-.8.2-1 .6v4.3h-1.6v-6c.1-.2 1.6-.2 1.6-.2Zm11 6.1c-.9 0-1.6-.3-2.1-.8s-.8-1.3-.8-2.2v-.2c0-.6.1-1.2.4-1.6.3-.4.5-.8 1-1.1.4-.3.9-.4 1.4-.4.8 0 1.5.3 1.9.8.4.5.7 1.3.7 2.2v.7h-3.8c0 .4.2.7.5 1 .3.2.6.4 1 .4.6 0 1.1-.2 1.4-.7l.8.9c-.2.3-.6.6-1 .8-.5.1-.9.2-1.4.2Zm-.2-4.9c-.3 0-.6.1-.8.3-.2.2-.3.5-.4.9h2.2v-.1c0-.4-.1-.6-.3-.8-.1-.2-.4-.3-.7-.3Zm5-1.2v.7c.4-.5 1-.8 1.7-.8.6 0 1.1.2 1.4.6.3.4.5.9.5 1.7V33h-1.6v-3.9c0-.3-.1-.6-.2-.7-.1-.1-.4-.2-.7-.2-.5 0-.8.2-1 .6v4.3H54v-6l1.5-.2Zm6.8-1.5v1.5h1v1.2h-1v3c0 .2 0 .4.1.5.1.1.2.1.5.1h.5v1.2c-.3.1-.6.2-1 .2-1.1 0-1.7-.6-1.7-1.7v-3.2h-.9V27h.9v-1.5h1.6v-.1ZM5.4 40.8c0 .9-.2 1.7-.6 2.2-.4.5-1 .8-1.7.8-.6 0-1.1-.2-1.5-.6v2.9H0v-8.4h1.5v.6c.4-.5.9-.7 1.5-.7.7 0 1.3.3 1.7.8.4.6.7 1.4.7 2.4Zm-1.6-.1c0-.6-.1-1-.3-1.3-.2-.3-.5-.4-.9-.4-.5 0-.8.2-1 .6V42c.2.4.5.6 1 .6.8 0 1.2-.6 1.2-1.9Zm5.9-1.4h-.6c-.6 0-1 .2-1.2.6v4H6.4v-6h1.5v.7c.3-.5.8-.8 1.3-.8.2 0 .3 0 .5.1v1.4Zm.4 1.4c0-.6.1-1.1.3-1.6.2-.5.5-.8 1-1.1.4-.3.9-.4 1.5-.4.8 0 1.5.2 2 .8.5.5.8 1.2.9 2v.4c0 .9-.2 1.7-.8 2.2-.6.5-1.2.8-2 .8s-1.5-.3-2-.8-.9-1.3-.9-2.3Zm1.6.1c0 .6.1 1 .3 1.3.2.3.5.5.9.5s.7-.2.9-.5c.2-.3.3-.8.3-1.4 0-.6-.1-1-.3-1.3-.2-.3-.5-.5-.9-.5s-.7.2-.9.5c-.2.3-.3.8-.3 1.4Zm4.8-.1c0-.9.2-1.7.6-2.2.4-.6 1-.8 1.8-.8.6 0 1.1.2 1.5.7l.1-.6H22v5.8c0 .5-.1 1-.4 1.4-.3.4-.6.7-1 .9-.4.2-.9.3-1.5.3-.4 0-.9-.1-1.3-.3-.4-.2-.7-.4-.9-.7l.7-1c.4.5.9.7 1.4.7.4 0 .8-.1 1-.3.2-.2.4-.5.4-1v-.3c-.4.4-.8.6-1.4.6-.7 0-1.3-.3-1.7-.8-.4-.5-.8-1.4-.8-2.4Zm1.6.1c0 .5.1 1 .3 1.3.2.3.5.5.9.5.5 0 .8-.2 1-.5v-2.5c-.2-.4-.5-.5-1-.5-.4 0-.7.2-.9.5-.2.1-.3.6-.3 1.2Zm8.5-1.5H26c-.6 0-1 .2-1.2.6v4h-1.6v-6h1.5v.7c.3-.5.8-.8 1.3-.8.2 0 .3 0 .5.1l.1 1.4Zm4 4.5c-.1-.2-.1-.3-.2-.5-.4.4-.9.7-1.5.7s-1.1-.2-1.4-.5c-.3-.3-.5-.9-.5-1.4 0-.6.2-1.1.7-1.5.5-.4 1.1-.5 2-.5h.7v-.3c0-.3-.1-.5-.2-.7-.1-.2-.4-.2-.7-.2-.3 0-.5.1-.6.2-.1.1-.2.3-.2.5h-1.6c0-.3.1-.7.3-1 .2-.3.5-.5.9-.7.4-.2.8-.2 1.3-.2.7 0 1.3.2 1.7.6.4.4.6.9.6 1.6v2.6c0 .6.1 1 .2 1.3v.1l-1.5-.1Zm-1.3-1.1c.2 0 .5 0 .6-.2.2-.1.3-.2.4-.4v-1h-.6c-.8 0-1.2.3-1.3.8v.1c0 .2.1.4.2.5.3.1.5.2.7.2Zm5.5-4.9v.7c.4-.5 1-.8 1.7-.8.8 0 1.3.3 1.6.9.4-.6 1-.9 1.8-.9.6 0 1.1.2 1.4.6.3.4.5 1 .5 1.7v3.9h-1.6v-3.8c0-.3-.1-.6-.2-.8-.1-.2-.4-.3-.7-.3-.5 0-.8.2-1 .7v4.2h-1.6v-3.8c0-.3-.1-.6-.2-.8-.1-.3-.3-.3-.7-.3-.5 0-.8.2-1 .6v4.3h-1.6v-6c.1-.1 1.6-.1 1.6-.1Zm9.7 0v.7c.4-.5 1-.8 1.7-.8.8 0 1.3.3 1.6.9.4-.6 1-.9 1.8-.9.6 0 1.1.2 1.4.6.3.4.5 1 .5 1.7v3.9H50v-3.8c0-.3-.1-.6-.2-.8-.1-.2-.4-.3-.7-.3-.5 0-.8.2-1 .7v4.2h-1.6v-3.8c0-.3-.1-.6-.2-.8-.1-.3-.4-.3-.7-.3-.5 0-.8.2-1 .6v4.3H43v-6c.1-.1 1.5-.1 1.5-.1Zm11.1 6.1c-.9 0-1.6-.3-2.1-.8s-.8-1.3-.8-2.2v-.2c0-.6.1-1.2.4-1.6.3-.4.5-.8 1-1.1.4-.3.9-.4 1.4-.4.8 0 1.5.3 1.9.8.4.5.7 1.3.7 2.2v.7h-3.8c0 .4.2.7.5 1 .3.2.6.4 1 .4.6 0 1.1-.2 1.4-.7l.8.9c-.2.3-.6.6-1 .8-.5.1-1 .2-1.4.2Zm-.2-5c-.3 0-.6.1-.8.3-.2.2-.3.5-.4.9h2.2V40c0-.4-.1-.6-.3-.8-.1-.2-.4-.3-.7-.3ZM69.8 0h-.9v43.9h.9V0Zm7.6 36.7h-1.1v-4.4h-1.1v-.8l2.2-.2v5.4Zm5.4-22.4c-.7 0-1.3.1-1.8.3-.6.2-1 .4-1.4.7l.5-4.7h7.8V7.4H76.8l-1.2 11.2 3.5.2c.2-.5.5-.9.9-1.2.4-.3 1-.4 1.8-.4.9 0 1.6.3 2.1 1s.7 1.6.7 2.8c0 1.2-.2 2-.7 2.7-.4.6-1.1.9-2.1.9-.8 0-1.5-.2-2-.7-.5-.5-.8-1.1-.8-2l-3.8.2v.1c0 1.7.6 3 1.9 4 1.3 1 2.9 1.5 4.7 1.5 2.3 0 4-.6 5.1-1.9 1.1-1.2 1.7-2.8 1.7-4.8 0-2.1-.5-3.8-1.5-4.9-1-1.1-2.5-1.8-4.3-1.8Zm-2.1 21.6c.3 0 .5-.1.7-.3.2-.2.2-.5.2-.8v-.3c-.1.2-.3.3-.4.3-.2.1-.3.1-.5.1-.5 0-.9-.2-1.2-.5-.3-.3-.4-.8-.4-1.3s.2-1 .5-1.3c.3-.3.8-.5 1.3-.5s1 .2 1.3.5c.3.4.5.9.5 1.5v1.4c0 .6-.2 1.1-.5 1.5-.3.4-.8.5-1.4.5-.2 0-.4 0-.6-.1-.2-.1-.4-.1-.5-.2l.2-.8c.2.1.3.1.5.1 0 .2.1.2.3.2Zm.1-1.7c.2 0 .3 0 .5-.1l.3-.3v-.6c0-.3-.1-.6-.2-.8-.1-.2-.3-.3-.5-.3s-.4.1-.5.3c-.1.2-.2.4-.2.7 0 .3.1.5.2.7.1.3.2.4.4.4Zm6.3-2c-.6.7-1 1.3-1.2 1.9-.2.6-.3 1.2-.3 1.9v.7h-1.1V36c0-.7.1-1.4.4-2 .3-.6.7-1.2 1.2-1.8h-2.7v-.8h3.7v.8Zm4.2 4.5h-3.6V36l1.6-1.9c.2-.3.4-.5.5-.7.1-.2.2-.4.2-.5 0-.2 0-.4-.2-.5-.2-.1-.3-.2-.5-.2s-.4.1-.5.2c-.1.1-.2.4-.2.6h-1c0-.5.1-.9.5-1.2.3-.3.8-.5 1.3-.5s1 .1 1.3.4c.3.3.5.6.5 1.1 0 .3-.1.6-.2.9-.1.3-.5.6-.9 1.1l-.9 1h2.2l-.1.9Zm3.1-2.7h-2.2v.8h2.2V34Zm4.5 2.7h-3.6V36l1.6-1.9c.2-.3.4-.5.5-.7.1-.2.2-.4.2-.5 0-.2 0-.4-.2-.5-.2-.1-.3-.2-.5-.2s-.4.1-.5.2c-.1.1-.2.4-.2.6h-1c0-.5.1-.9.5-1.2.3-.3.8-.5 1.3-.5s1 .1 1.3.4c.3.3.5.6.5 1.1 0 .3-.1.6-.2.9-.1.3-.5.6-.9 1.1l-.9 1H99l-.1.9Zm4.2-1.9c0 .6-.2 1.1-.5 1.5-.3.4-.8.5-1.3.5s-1-.2-1.3-.5c-.3-.3-.5-.8-.5-1.5v-1.5c0-.6.2-1.1.5-1.5.3-.4.8-.5 1.3-.5s1 .2 1.3.5c.3.4.5.8.5 1.5v1.5Zm-1.1-1.6c0-.3-.1-.6-.2-.8-.1-.2-.3-.3-.5-.3s-.4.1-.5.3c-.1.2-.2.5-.2.8v1.7c0 .3.1.6.2.8.1.2.3.3.5.3s.4-.1.5-.3c.1-.2.2-.5.2-.8v-1.7Zm5.4 3.5h-3.6V36l1.6-1.9c.2-.3.4-.5.5-.7.1-.2.2-.4.2-.5 0-.2 0-.4-.2-.5-.2-.1-.3-.2-.5-.2s-.4.1-.5.2c-.1.1-.2.4-.2.6h-1c0-.5.1-.9.5-1.2.3-.3.8-.5 1.3-.5s1 .1 1.3.4c.3.3.5.6.5 1.1 0 .3-.1.6-.2.9-.1.3-.5.6-.9 1.1l-.9 1h2.2l-.1.9Zm4.3 0h-3.6V36l1.6-1.9c.2-.3.4-.5.5-.7.1-.2.2-.4.2-.5 0-.2 0-.4-.2-.5-.2-.1-.3-.2-.5-.2s-.4.1-.5.2c-.1.1-.2.4-.2.6h-1c0-.5.1-.9.5-1.2.3-.3.8-.5 1.3-.5s1 .1 1.3.4c.3.3.5.6.5 1.1 0 .3-.1.6-.2.9-.1.3-.5.6-.9 1.1l-.9 1h2.2l-.1.9Z"/>
</svg>