<svg xmlns="http://www.w3.org/2000/svg" fill="currentColor" viewBox="0 0 184 54">
  <title>University of Queensland</title>
  <path d="m94.874 52.09-1.675-2.437a1.79 1.79 0 0 0 .872-.64c.224-.301.356-.668.379-1.05a1.783 1.783 0 0 0-.383-1.241 3.113 3.113 0 0 0-1.17-.577 3.013 3.013 0 0 0-1.29-.038h-1.602v.384h.155c.28 0 .424.187.424.571v4.764c0 .505-.228.571-.424.571h-.155v.395h2.274v-.395h-.134c-.31 0-.434-.164-.434-.57v-1.988h.227l2.067 2.986h1.458v-.395h-.134c-.228 0-.32-.164-.455-.34Zm-1.613-4.128c.002.164-.028.326-.086.478a1.25 1.25 0 0 1-.252.407 1.167 1.167 0 0 1-.38.271 1.11 1.11 0 0 1-.45.096h-.382v-2.372a.579.579 0 0 1 .382-.065c.15-.006.3.02.441.077.141.057.27.143.379.253.109.11.196.243.256.39.06.147.09.305.092.465Zm26.742-1.438h.155c.197 0 .434.066.434.57v4.765c0 .407-.134.571-.434.571h-.155v.395h2.274v-.395h-.124c-.31 0-.444-.164-.444-.57v-4.765c0-.505.258-.57.444-.57h.124v-.418h-2.274v.417Zm-34.732-.417h-4.787a.141.141 0 0 0-.092.045.158.158 0 0 0-.042.098v1.602h.28v-.098c0-.637.237-.944.63-.944h1.033v5.06c0 .373-.144.527-.465.527h-.124v.395h2.254v-.395h-.114c-.32 0-.444-.142-.444-.527v-5.028h1.033c.259 0 .569.1.62.944v.1h.342l-.073-1.603a.164.164 0 0 0 .002-.097.154.154 0 0 0-.053-.08Zm-19.548.384h.259a.273.273 0 0 1 .121.023.291.291 0 0 1 .102.074.313.313 0 0 1 .076.243v3.788a1.65 1.65 0 0 1-.13.617 1.57 1.57 0 0 1-.35.512 1.463 1.463 0 0 1-.511.324 1.4 1.4 0 0 1-.59.084 1.3 1.3 0 0 1-.541-.144c-.17-.087-.32-.21-.442-.361a1.479 1.479 0 0 1-.269-.52 1.534 1.534 0 0 1-.05-.589V47.04a.54.54 0 0 1 .118-.338.49.49 0 0 1 .295-.178h.124v-.417h-2.212v.384h.093a.458.458 0 0 1 .303.171c.077.096.116.22.11.345v3.491c-.002.326.06.649.18.948.122.299.3.568.525.79.225.222.49.392.78.5.29.106.597.148.903.122.29.036.585.006.864-.088a2.04 2.04 0 0 0 .754-.458c.218-.208.392-.462.51-.746a2.31 2.31 0 0 0 .177-.903v-3.799c0-.153 0-.34.28-.34h.278v-.417h-1.757v.384Zm49.36 4.391c-.238.846-.631 1.23-1.272 1.23h-1.344c-.103 0-.217-.165-.217-.308v-4.72c0-.417.145-.604.455-.604h.135v-.373h-2.233v.384h.134c.114 0 .434 0 .434.604v4.72c0 .527-.248.582-.434.582h-.134v.395h4.372l.528-1.976h-.362l-.062.066Zm-41.349-2.37-.113-.067a1.115 1.115 0 0 1-.426-.38 1.208 1.208 0 0 1-.194-.553.85.85 0 0 1 .111-.41.787.787 0 0 1 .292-.292.861.861 0 0 1 .96 0c.233.157.425.375.557.632.131.257.2.546.198.839v.11h.342v-2.284h-.341v.077a.298.298 0 0 1-.104.208.355.355 0 0 1-.3 0 1.64 1.64 0 0 0-2.14.176 1.943 1.943 0 0 0-.409.699 2.03 2.03 0 0 0-.097.816c.025.267.107.524.24.752.132.228.312.422.525.565l.455.319c.486.28.92.652 1.282 1.097a.954.954 0 0 1-.145 1.252.865.865 0 0 1-1.034.12 1.79 1.79 0 0 1-.665-.69c-.158-.29-.24-.62-.234-.956v-.044h-.362v2.393h.228v-.088a.318.318 0 0 1 .046-.133.296.296 0 0 1 .098-.097.227.227 0 0 1 .217 0c.373.223.792.344 1.22.351a1.62 1.62 0 0 0 1.034-.384c.317-.262.541-.631.633-1.047a1.971 1.971 0 0 0-.127-1.236 4.9 4.9 0 0 0-1.778-1.702l.031-.044Zm31.704 3.424-2.264-5.83a.234.234 0 0 0-.155-.142.186.186 0 0 0-.112.018.2.2 0 0 0-.084.081l-2.15 5.807c-.104.23-.269.516-.507.516h-.206v.395h1.726v-.395h-.166a.243.243 0 0 1-.122-.031.266.266 0 0 1-.095-.09.19.19 0 0 1 0-.175l.517-1.372h1.933l.527 1.372a.239.239 0 0 1 0 .197.21.21 0 0 1-.175.099h-.259v.395h2.212v-.395h-.155c-.206.044-.351-.11-.465-.45Zm-1.964-1.866h-1.426l.703-1.767.723 1.767Zm29.275 2.36c-.176 0-.321-.154-.445-.494l-2.264-5.83s0-.13-.155-.142a.186.186 0 0 0-.112.018.2.2 0 0 0-.084.081l-2.16 5.807c-.093.23-.269.516-.507.516h-.207v.395h1.737v-.395h-.165a.268.268 0 0 1-.128-.031.287.287 0 0 1-.1-.09.169.169 0 0 1-.024-.087c0-.031.008-.062.024-.088l.517-1.372h1.923l.537 1.372a.2.2 0 0 1 .025.099.2.2 0 0 1-.025.099.21.21 0 0 1-.076.073.197.197 0 0 1-.1.025h-.248v.395h2.202v-.395l-.165.044Zm-2.409-2.36h-1.437l.714-1.811.723 1.81Zm-73.745 1.866-2.263-5.83a.242.242 0 0 0-.062-.09.224.224 0 0 0-.093-.052s-.114 0-.197.099l-2.15 5.807c-.103.23-.269.516-.506.516h-.207v.395h1.736v-.395h-.134a.246.246 0 0 1-.123-.031.264.264 0 0 1-.094-.09.209.209 0 0 1 0-.175l.527-1.372h1.86l.528 1.372a.242.242 0 0 1 0 .197.222.222 0 0 1-.077.072.208.208 0 0 1-.099.027h-.258v.395h2.212v-.395h-.155c-.186.044-.33-.11-.465-.45h.02Zm-1.963-1.866h-1.427l.703-1.767.724 1.767Zm97.075-41.441.734.505a9.184 9.184 0 0 1 2.315 1.844 1.6 1.6 0 0 1 .28.581 1.665 1.665 0 0 1-.186 1.262 1.53 1.53 0 0 1-.435.462 1.57 1.57 0 0 1-.894.438 1.531 1.531 0 0 1-.966-.196 3.194 3.194 0 0 1-1.191-1.205 3.46 3.46 0 0 1-.443-1.683v-.153h-.579v4.171h.579v-.11a.69.69 0 0 1 .321-.45.346.346 0 0 1 .351 0 4.06 4.06 0 0 0 2.068.604 2.906 2.906 0 0 0 1.494-.386 3.13 3.13 0 0 0 1.127-1.112 3.407 3.407 0 0 0 .17-3.156c-.6-1.274-2.068-2.196-3.484-3.02a1.958 1.958 0 0 1-.684-.636 2.11 2.11 0 0 1-.329-.9 1.63 1.63 0 0 1 .18-.753c.12-.23.293-.425.502-.564a1.576 1.576 0 0 1 1.747.098c.411.274.748.654.98 1.106.232.452.35.96.343 1.474v.154h.538V2.975h-.517v.132a.43.43 0 0 1-.155.33.703.703 0 0 1-.6-.089c-1.54-.78-2.708-.67-3.7.34a3.33 3.33 0 0 0-.725 1.206 3.494 3.494 0 0 0-.175 1.418c.045.473.192.929.431 1.33.238.403.562.74.944.987h-.041Zm-13.335 2.667h-.599v.11c-.404 1.449-1.106 2.097-2.244 2.097h-2.563a.372.372 0 0 1-.267-.12.406.406 0 0 1-.105-.287v-4.04h2.78c.476 0 .61.583.61.923v.22h.465V6.74h-.578v.23c0 .352-.166.912-.61.912h-2.74v-3.82h3.019c.723 0 1.23.658 1.282 1.68v.153h.547l-.217-2.92h-7.587v.626h.207c.537 0 .775.318.775 1.032v8.365c0 .724-.227 1.032-.775 1.032h-.207v.625h7.794l1.013-3.359Zm24.23 2.734h-.206c-.548 0-.796-.319-.796-1.032V4.633c0-.703.248-1.032.796-1.032h.206v-.626h-3.949v.626h.249c.537 0 .775.318.775 1.032v8.365c0 .724-.238 1.032-.775 1.032h-.249v.625h3.949v-.625Zm-96.61 0h-.207c-.527 0-.765-.319-.765-1.032V9.254h4.052v3.744c0 .724-.237 1.032-.806 1.032h-.207v.625h3.97v-.625h-.29c-.547 0-.775-.308-.775-1.032V4.633c0-.714.238-1.032.775-1.032h.248v-.626h-3.969v.626h.207c.548 0 .806.33.806 1.032v3.49h-4.052v-3.49c0-.692.248-1.032.765-1.032h.207v-.626h-3.928v.626h.206c.558 0 .776.296.776 1.032v8.365c0 .757-.207 1.032-.776 1.032h-.206v.625h3.928l.04-.625Zm16.343-2.734h-.672v.11c-.383 1.449-1.034 2.097-2.254 2.097h-2.553a.371.371 0 0 1-.267-.12.396.396 0 0 1-.105-.286v-4.04h2.801c.404 0 .59.472.59.922v.22h.579V6.74h-.58v.23c0 .385-.185.912-.589.912h-2.79v-3.82h3.018c.734 0 1.23.637 1.282 1.68v.153h.537l-.186-2.92h-7.608v.626h.207c.548 0 .796.33.796 1.032v8.365c0 .713-.248 1.032-.796 1.032h-.207v.625h7.815l.982-3.359Zm92.734-6.839 3.101 5.28v3.294c0 .746-.238 1.098-.806 1.098h-.197v.625h3.99v-.702h-.258c-.589 0-.817-.275-.817-1.01V9.66l2.75-5.27c.093-.215.238-.401.419-.54.181-.138.393-.225.615-.25H184v-.626h-2.781v.648h.403a.222.222 0 0 1 .116.054.247.247 0 0 1 .071.11.367.367 0 0 1 0 .363l-2.213 4.215-2.418-4.139a.442.442 0 0 1-.054-.214c0-.075.018-.149.054-.214a.303.303 0 0 1 .248-.176h.372v-.647h-3.887v.648h.145c.258 0 .589.098.951.834h.062Zm-72.732-.57c.134.164.238.307.352.46l.289.373v8.618a.755.755 0 0 1-.07.281.702.702 0 0 1-.17.228.66.66 0 0 1-.515.16h-.248v.648h3.101v-.647h-.206c-.393 0-.796-.23-.796-.67V6.235l6.533 8.366h.424V4.303a.762.762 0 0 1 .245-.528.665.665 0 0 1 .53-.175h.207v-.625h-3.102v.626h.228a.656.656 0 0 1 .522.175.755.755 0 0 1 .232.527v6.06l-5.695-7.388h-2.791v.626h.134c.403 0 .641 0 .817.285h-.021Zm17.025.57 3.877 10.034a.393.393 0 0 0 .31.164.29.29 0 0 0 .154-.054.32.32 0 0 0 .104-.132l3.525-9.99c.279-.659.496-.911.806-.911h.145v-.593h-2.584v.626h.3a.387.387 0 0 1 .175.055c.054.032.1.077.135.131a.45.45 0 0 1 0 .363l-2.388 6.652-2.564-6.652a.378.378 0 0 1-.045-.182c0-.063.015-.126.045-.18a.364.364 0 0 1 .279-.187h.486v-.626h-3.742v.626h.145c.32 0 .558.263.806.856h.031ZM89.126 1.921v7.772c0 3.03 2.14 5.16 5.169 5.16 3.029 0 5.065-2.03 5.065-4.973V1.592c0-.582.238-.846.734-.846h.568V0h-3.969v.746h.63c.455 0 .714.297.714.846V9.88c0 .48-.094.953-.274 1.392-.18.44-.445.834-.776 1.16-.33.325-.721.575-1.147.733a3.1 3.1 0 0 1-1.328.184c-1.757 0-2.987-1.493-2.987-3.634V1.921c-.01-.15.009-.301.056-.444.048-.142.122-.272.22-.382.096-.11.214-.198.344-.258.13-.06.271-.09.413-.09h.31V0h-5.003v.746h.29a.988.988 0 0 1 .757.349 1.12 1.12 0 0 1 .276.826h-.062Zm28.107 12.076h-.186c-.548 0-.796-.319-.796-1.032V4.633c0-.703.258-1.032.796-1.032h.186v-.626h-3.908v.626h.186c.579 0 .838.318.838 1.032v8.365c0 .724-.248 1.032-.838 1.032h-.186v.625h3.908v-.658Zm55.634-11.022h-8.394a.235.235 0 0 0-.142.076.261.261 0 0 0-.064.155l-.094 2.777h.517V5.84c.062-1.098.434-1.69 1.137-1.69h1.902v8.925c0 .67-.248.955-.837.955h-.186v.625h3.907v-.625h-.186c-.568 0-.796-.264-.796-.955V4.15h1.892c.434 0 1.034.175 1.106 1.69v.143h.538l-.114-2.777a.243.243 0 0 0-.063-.157.222.222 0 0 0-.144-.074h.021Zm-30.422 1.186c.224-.106.47-.148.713-.121.536 0 1.051.22 1.437.616.386.395.612.934.631 1.503 0 .582-.218 1.14-.606 1.552a2.008 2.008 0 0 1-1.462.643h-.713V4.161Zm1.034 9.88h-.207c-.548 0-.796-.319-.796-1.032v-3.59h.444l3.567 5.236h2.512v-.625h-.207c-.29 0-.507-.297-.755-.615L145.081 9.1a3.1 3.1 0 0 0 1.541-1.103c.395-.526.63-1.168.671-1.84.026-.4-.027-.802-.155-1.18a2.939 2.939 0 0 0-.589-1.015c-.765-.812-2.15-1.098-4.218-1.02h-2.78v.625h.248c.517 0 .775.34.775 1.098v8.354c0 .713-.238 1.032-.775 1.032h-.248v.625h3.948l-.02-.636Zm-72.07 10.571h-8.053v.637h.207c.548 0 .796.33.796 1.098v8.343c0 .714-.248 1.032-.796 1.032h-.207v.604h3.949v-.604h-.248c-.538 0-.776-.297-.776-1.01v-3.974h2.822c.559 0 .58.78.58.933v.165h.61v-3.458h-.57v.23c0 .154 0 .911-.578.911H66.28V25.71h3.505c.713 0 1.23.68 1.292 1.69v.154h.527l-.197-2.942Zm30.928 11.077h-.207v.604h7.815l.92-3.37h-.579v.11c-.413 1.47-1.106 2.129-2.243 2.129h-2.605a.386.386 0 0 1-.295-.125.44.44 0 0 1-.118-.314v-3.985h2.822c.382 0 .61.472.61.933v.165h.537v-3.47h-.537v.231c0 .45-.217.922-.61.922h-2.822V25.71h3.018c.765 0 1.272.648 1.303 1.68v.153h.516l-.186-2.93h-7.556v.636h.217c.558 0 .796.318.796 1.098v8.365c0 .713-.238 1.032-.796 1.032v-.055Zm26.256-10.44h.207a.705.705 0 0 1 .531.173c.149.13.244.316.265.519v6.081l-5.696-7.344h-2.853v.571h.145c.434 0 .661.077.786.274l.155.187c.175.209.32.384.537.67v8.595a.767.767 0 0 1-.246.528.685.685 0 0 1-.529.175h-.228v.626h3.102v-.626h-.207a.654.654 0 0 1-.283-.026.683.683 0 0 1-.25-.145.733.733 0 0 1-.242-.532v-7.113l6.46 8.365v.055h.424V25.93a.737.737 0 0 1 .239-.516.675.675 0 0 1 .516-.176h.217v-.626h-3.101l.051.637Zm20.674 7.685v.11c-.413 1.503-1.106 2.195-2.243 2.195h-2.367c-.196 0-.393-.286-.393-.56v-8.332c0-.747.259-1.098.817-1.098h.207v-.626h-3.949v.626h.227c.517 0 .776.351.776 1.098v8.288c0 .944-.445 1.098-.776 1.098h-.227v.626h7.639l.91-3.425h-.621Zm32.914-2.46c0 3.063-1.613 4.82-4.404 4.82a2.796 2.796 0 0 1-.858-.11v-9.518a1.33 1.33 0 0 1 .837-.11 3.815 3.815 0 0 1 1.824.259 4.032 4.032 0 0 1 1.526 1.092 5.807 5.807 0 0 1 1.033 3.513l.042.054Zm.486-4.072a6.012 6.012 0 0 0-2.247-1.472 5.725 5.725 0 0 0-2.622-.318h-4.011v.637h.227c.331 0 .776.12.776 1.098v8.288c0 .725-.238 1.098-.776 1.098h-.227v.626h4.858a5.12 5.12 0 0 0 2.085-.45 5.388 5.388 0 0 0 1.758-1.272c.5-.544.894-1.188 1.157-1.895a6.043 6.043 0 0 0 .376-2.224 6.118 6.118 0 0 0-1.303-4.05l-.051-.066Zm-28.841 5.181 1.282-3.293 1.271 3.293h-2.553Zm5.944 3.294-3.928-10.155a.436.436 0 0 0-.259-.252.334.334 0 0 0-.187.033.355.355 0 0 0-.143.131l-3.773 10.188c-.176.428-.476.933-.91.933h-.341v.626h2.987v-.626h-.269a.496.496 0 0 1-.227-.065.537.537 0 0 1-.176-.166.404.404 0 0 1 0-.329l.931-2.437h3.411l.941 2.426a.427.427 0 0 1 0 .373.437.437 0 0 1-.143.142.397.397 0 0 1-.188.056h-.414v.626h3.825v-.626h-.258c-.311 0-.579-.286-.807-.878h-.072Zm9.5-9.551h.134a.704.704 0 0 1 .531.173c.149.13.244.315.265.518V32.1l-5.675-7.344h-2.801v.494h.134c.424 0 .641.077.775.274l.155.187.528.67v8.595a.806.806 0 0 1-.072.291.746.746 0 0 1-.174.237.666.666 0 0 1-.53.175h-.207v.626h3.102v-.626h-.186a.663.663 0 0 1-.288-.022.693.693 0 0 1-.256-.144.759.759 0 0 1-.252-.537v-7.113l6.274 8.365v.055h.424V25.93a.737.737 0 0 1 .239-.516.675.675 0 0 1 .516-.176h.248v-.626h-3.029l.145.714Zm-49.36 7.706c-.393 1.493-1.034 2.097-2.222 2.097h-2.564a.368.368 0 0 1-.275-.134.428.428 0 0 1-.097-.305v-3.952h2.781c.423 0 .651.472.651.933v.165h.537v-3.47h-.537v.231c0 .45-.207.922-.651.922h-2.791V25.71h3.018c.734 0 1.23.648 1.282 1.69v.143h.517l-.186-2.93h-7.567v.636h.186c.537 0 .796.34.796 1.098v8.365c0 .702-.248 1.032-.796 1.032h-.186v.604h7.773l.962-3.37h-.59l-.041.054ZM79.596 28.96c0-2.448.527-4.227 1.53-5.292a3.023 3.023 0 0 1 2.067-.988c1.84 0 3.7 1.943 3.7 6.28 0 3.117-1.126 6.268-3.648 6.268-2.233 0-3.67-2.46-3.67-6.269h.02Zm9.81 10.659h.134v-.692h-.124a4.692 4.692 0 0 1-2.346-.89 5.096 5.096 0 0 1-1.624-2.008c2.502-.988 4.052-3.644 4.052-6.97-.072-5.984-4.134-7.575-6.305-7.575-3.608 0-6.202 3.172-6.202 7.475 0 3.755 2.005 6.708 4.972 7.367a9.821 9.821 0 0 0 3.402 2.503 9.307 9.307 0 0 0 4.071.79h-.03Zm10.47-7.114v-6.641c0-.406.187-.626.518-.626h.465v-.626h-3.101v.637h.444a.5.5 0 0 1 .418.174.595.595 0 0 1 .14.452v6.641a2.925 2.925 0 0 1-.227 1.097 2.779 2.779 0 0 1-.618.912 2.59 2.59 0 0 1-.908.577 2.473 2.473 0 0 1-1.048.148 2.307 2.307 0 0 1-.962-.257 2.443 2.443 0 0 1-.784-.645 2.618 2.618 0 0 1-.474-.925 2.721 2.721 0 0 1-.085-1.05v-6.202a.948.948 0 0 1 .199-.615.846.846 0 0 1 .535-.318h.207v-.626H90.78v.626h.186a.834.834 0 0 1 .551.308.94.94 0 0 1 .204.625v6.126a4.314 4.314 0 0 0 .315 1.642c.21.518.519.985.907 1.37.389.386.848.682 1.349.87a3.647 3.647 0 0 0 1.564.224c2.408 0 4.02-1.56 4.02-3.898Zm-44.118 2.723a2.692 2.692 0 0 1-1.128-.255 2.841 2.841 0 0 1-.94-.711c-1.134-1.499-1.698-3.395-1.58-5.313 0-1.428.247-6.082 3.659-6.28 1.343.088 3.607.988 3.68 6.17 0 3.82-1.479 6.378-3.67 6.378l-.02.01Zm.02-13.755c-1.532-.01-3.012.603-4.134 1.712-1.374 1.56-2.116 3.629-2.067 5.764 0 4.314 2.615 7.442 6.202 7.442 3.587 0 6.202-3.128 6.202-7.442 0-4.315-2.564-7.41-6.202-7.476Zm83.555 10.286c-.578-1.252-2.067-2.196-3.276-2.91l-.207-.131a1.968 1.968 0 0 1-.754-.675 2.132 2.132 0 0 1-.342-.983c.005-.258.074-.51.199-.732.125-.221.302-.404.514-.53.255-.172.551-.263.853-.263.302 0 .598.091.853.263a3 3 0 0 1 1.022 1.179 3.23 3.23 0 0 1 .322 1.565v.154h.579v-4.084h-.579v.121a.56.56 0 0 1-.061.209.516.516 0 0 1-.136.164.614.614 0 0 1-.547-.077 2.857 2.857 0 0 0-1.919-.538 2.909 2.909 0 0 0-1.813.857c-.32.344-.564.758-.716 1.213-.152.456-.207.94-.163 1.422.051.473.202.929.442 1.332s.562.743.943.995l.786.527a8.364 8.364 0 0 1 2.264 1.866 1.695 1.695 0 0 1 .087 1.835c-.108.185-.25.345-.418.47a1.554 1.554 0 0 1-1.881.209 3.106 3.106 0 0 1-1.182-1.21 3.358 3.358 0 0 1-.41-1.688v-.154h-.589v4.128h.558v-.1a.631.631 0 0 1 .279-.438.375.375 0 0 1 .393 0 4.392 4.392 0 0 0 2.129.604 2.824 2.824 0 0 0 1.881-.67 3.255 3.255 0 0 0 1.081-1.798 3.415 3.415 0 0 0-.212-2.121l.02-.011ZM60.483.274c0-.12-.104-.274-.218-.274H49.928a.253.253 0 0 0-.213.063.299.299 0 0 0-.097.212l-.134 3.59h.6V3.71c0-1.021.33-2.196 1.498-2.196h2.233v11.22c.009.304-.094.6-.287.825-.193.225-.46.362-.747.382h-.713v.713h5.82v-.713h-.62a1.082 1.082 0 0 1-.747-.382 1.218 1.218 0 0 1-.287-.826V1.46h2.274c1.168 0 1.457 1.23 1.51 2.25v.154h.609l-.145-3.59Zm-20.778.824V27.97c0 10.364-8.084 20.935-19.33 24.854C9.085 48.906 1.033 38.335 1.033 27.971V1.098h38.67ZM40.738 0H0v27.971c0 10.978 8.445 21.89 20.075 25.93l.3.099.3-.099c11.608-4.04 20.032-14.952 20.032-25.93V0h.031ZM10.213 19.508c-.207 0-.403.241-.475.56h.95c-.072-.308-.268-.56-.475-.56Zm0 1.69c.207 0 .403-.241.476-.56h-.951c.072.319.268.56.475.56Zm0 4.808c.207 0 .403-.241.476-.56h-.951c.072.319.268.56.475.56Zm0-1.69c-.207 0-.403.241-.475.56h.95c-.072-.319-.268-.56-.475-.56ZM35.435 9.199c-1.405 3.294-3.597 5.49-8.631 6.346.806-5.665 2.719-8.08 5.675-9.65H8.27c2.916 1.57 4.838 3.985 5.634 9.65-5.034-.89-7.236-3.041-8.631-6.346v27.116c1.406-3.294 3.597-5.49 8.631-6.345-.796 5.631-2.718 8.08-5.675 9.649H32.48c-2.956-1.57-4.869-4.018-5.675-9.65 5.034.89 7.236 3.03 8.631 6.346V9.199ZM20.86 17.982c0-.835.776-1.34 1.788-1.34 1.51 0 2.316.55 3.153.363v9.012h-2.625a4.054 4.054 0 0 0-2.316.45v-8.485Zm-5.954-1c.837.176 1.644-.372 3.101-.372 1.034 0 1.788.505 1.788 1.339v8.486a4.05 4.05 0 0 0-2.222-.396h-2.667v-9.056Zm15.35 7.279c.212 0 .414.09.564.248a.871.871 0 0 1 .233.597c0 .224-.084.44-.233.598a.773.773 0 0 1-.563.248h-2.44v2.195h-4.641a2.405 2.405 0 0 0-1.54.286 3.09 3.09 0 0 1-1.282.362 3.023 3.023 0 0 1-1.282-.373 2.478 2.478 0 0 0-1.499-.22H12.89v-2.196h-1.87a.993.993 0 0 1-.332.397.915.915 0 0 1-.475.163 1.1 1.1 0 0 1-.707-.346 1.23 1.23 0 0 1-.327-.751h-.227a.261.261 0 0 1-.19-.084.295.295 0 0 1-.079-.202c0-.075.028-.148.079-.202a.261.261 0 0 1 .19-.083h.269a1.24 1.24 0 0 1 .328-.749c.19-.2.439-.324.705-.349.17.01.335.07.476.17.142.1.256.238.33.4h1.872v-3.172h-1.913a.993.993 0 0 1-.331.397.914.914 0 0 1-.475.163 1.1 1.1 0 0 1-.707-.347 1.23 1.23 0 0 1-.327-.75h-.227a.261.261 0 0 1-.19-.084.295.295 0 0 1-.079-.202c0-.076.028-.148.079-.202a.261.261 0 0 1 .19-.084h.269a1.24 1.24 0 0 1 .328-.748c.19-.201.439-.325.705-.35.17.012.335.07.476.17.142.1.256.24.33.401h1.872v-1.657l1.033-.637v9.803h3.608a3.142 3.142 0 0 1 1.933.374c.276.153.578.247.89.274.31-.026.613-.12.888-.274a3.152 3.152 0 0 1 1.933-.374h3.639V17.4l1.033.505v1.603h2.44c.211 0 .413.089.563.247.15.159.233.374.233.598 0 .224-.084.44-.233.598a.773.773 0 0 1-.563.247h-2.512v3.118l2.44-.055Z"/>
</svg>