<svg xmlns="http://www.w3.org/2000/svg" width="77" height="77" viewBox="0 0 77 77" fill="none">
  <title>User</title>
  <path d="M38.5 38.5C42.3291 38.5 46.0013 36.9789 48.7089 34.2714C51.4164 31.5638 52.9375 27.8916 52.9375 24.0625C52.9375 20.2334 51.4164 
  16.5612 48.7089 13.8536C46.0013 11.1461 42.3291 9.625 38.5 9.625C34.6709 9.625 30.9987 11.1461 28.2911 13.8536C25.5836 16.5612 24.0625 
  20.2334 24.0625 24.0625C24.0625 27.8916 25.5836 31.5638 28.2911 34.2714C30.9987 36.9789 34.6709 38.5 38.5 38.5ZM48.125 24.0625C48.125 
  26.6152 47.1109 29.0634 45.3059 30.8684C43.5009 32.6734 41.0527 33.6875 38.5 33.6875C35.9473 33.6875 33.4991 32.6734 31.6941 30.8684C29.8891 
  29.0634 28.875 26.6152 28.875 24.0625C28.875 21.5098 29.8891 19.0616 31.6941 17.2566C33.4991 15.4516 35.9473 14.4375 38.5 14.4375C41.0527 
  14.4375 43.5009 15.4516 45.3059 17.2566C47.1109 19.0616 48.125 21.5098 48.125 24.0625ZM67.375 62.5625C67.375 67.375 62.5625 67.375 62.5625 
  67.375H14.4375C14.4375 67.375 9.625 67.375 9.625 62.5625C9.625 57.75 14.4375 43.3125 38.5 43.3125C62.5625 43.3125 67.375 57.75 67.375 
  62.5625ZM62.5625 62.5433C62.5577 61.3594 61.8214 57.7981 58.5585 54.5352C55.4207 51.3975 49.5158 48.125 38.5 48.125C27.4794 48.125 21.5793 
  51.3975 18.4415 54.5352C15.1786 57.7981 14.4471 61.3594 14.4375 62.5433H62.5625Z" fill="black"/>
</svg>


