<svg xmlns="http://www.w3.org/2000/svg" fill="currentColor" viewBox="0 0 49 72">
  <title>World Wildlife Fund</title>
  <g clip-path="url(#a)">
    <path d="M16.869 58.865c-.46 0-.842.23-.996.611L13.96 64.44l-.153.534-.153-.534-1.532-4.81v-.076a1.09 1.09 0 0 0-.995-.688h-2.45c-.537.077-.92.458-.92 1.07 0 .152.077.304.077.456l.306 1.07-1.149 2.976-.23.535-.153-.535-1.455-4.809v-.076h-.076c-.077-.382-.46-.687-.92-.687h-2.45c-.536.076-.995.457-.995 1.069 0 .152.077.305.153.457l3.599 10.841c.153.458.536.763.995.763.46 0 .843-.306.996-.687l2.527-6.413.23-.61.153.61 2.144 6.337c.076.458.536.763.995.763.46 0 .843-.306.996-.687l4.288-10.993c.077-.152.077-.305.077-.458 0-.534-.46-.992-.995-.992Zm18.148 0c-.459 0-.843.23-.995.611l-1.914 4.963-.153.534-.153-.534-1.532-4.81v-.076a1.09 1.09 0 0 0-.995-.688h-2.451c-.536.077-.92.458-.92 1.07 0 .152 0 .304.077.456l.307 1.07-1.15 2.976-.23.535-.152-.535-1.455-4.809-.077-.076c-.076-.382-.459-.687-.918-.687h-2.45c-.537.076-.996.457-.996 1.069 0 .152.076.305.153.457l3.6 10.841c.152.458.535.763.995.763.459 0 .842-.306.995-.687l2.528-6.413.23-.61.152.61 2.145 6.337c.076.458.536.763.995.763.46 0 .843-.306.996-.687l4.288-10.993c.076-.152.076-.305.076-.458 0-.534-.46-.992-.995-.992Zm11.793 0h-8.5c-.537 0-.919.382-.919.917v11.222c.076.535.46.916.995.916h2.374c.536 0 .919-.38.919-.916v-5.267h3.523c.458 0 .918-.458.918-.916 0-.535-.459-.993-.918-.993h-3.523V60.85h5.13c.537 0 .996-.457.996-.992 0-.535-.459-.994-.995-.994ZM33.639 22.984c1.532 1.68 1.684 6.871 5.59 4.81 2.297-1.222 2.297-6.413-.843-8.322-2.528-1.45-3.905.534-4.824 2.977-.076.23-.076.382.077.535Zm-6.05-.84c-1.684 1.298-2.756 5.039-5.743 3.74-2.45-1.22-2.68-5.954 1.532-8.168 2.91-1.374 4.365 1.298 4.365 4.123 0 .076-.077.229-.154.305Zm3.983 9.39c1.607-.152 1.225-1.679 0-1.985-1.073-.381-2.68-.61-3.906-.534-2.068 0-1.99 1.603-.92 1.909.843.229 1.379.305 2.068 1.221.613 1.222.307-.382 2.758-.61Zm7.58-26.567c1.991-3.36 5.514-2.749 7.275-1.069 1.915 1.832 2.298 3.97 1.532 5.42-.995 1.985-3.599 4.352-5.283 2.062-.765-1.069-2.298-2.29-3.216-2.596-1.303-.61-1.533-1.756-.307-3.817Z"/>
    <path d="M47.193 19.701c-.153-.61-.46-.534-.46-.076.154 6.107-3.521 12.673-11.332 12.75-1.991 0-1.378 3.13-5.054 1.526-2.604-1.756-4.136 1.756-5.974-1.985-.459-1.069-1.072-1.526-1.838-1.755-7.734-1.91-10.184-12.521-3.369-21.071 1.302.84 1.838.992 3.293-.382.69-.687 1.99-1.45 2.68-1.68 1.608-.61 2.527-1.298 1.072-4.428-.67-1.474-1.583-2.26-2.556-2.596h-2.601a5.975 5.975 0 0 0-2.041 1.07c-1.991 1.602-3.293 4.122-.843 7.1-6.891 4.656-8.116 10.382-7.964 15.42.153 5.268-1.148 4.81.537 10.154.152.459-.23.459-.46.306-7.198-4.58-11.103-18.628.154-26.339.23-.229.153-.534-.766 0C-.055 12.83-.973 22.755.635 29.473c.765 3.206-.383 3.818.842 8.093 2.91 8.856 5.36 9.618 8.883 9.848 6.356 0 1.99-3.511 2.297-7.863 0-.306.306-.382.46.152 3.522 7.787 5.972 14.887 15.161 14.2 5.284-.687 2.374-3.283 1.99-4.81-3.904-12.902 5.59-15.956 2.91-3.36-1.76 7.254 3.83 6.49 7.811 3.894 4.06-2.595 9.114-20.23 6.204-29.926ZM31.724 35.046c-.919 2.29-5.436 1.527-5.59-.763 0-.076.154-.076.154 0 2.067.458 3.98.687 5.283.687.077 0 .153-.076.153.076Z"/>
    <path d="M11.891 51.384a2.21 2.21 0 0 1-.65 1.565 2.237 2.237 0 0 1-1.57.65c-1.302 0-2.298-.994-2.298-2.215a2.3 2.3 0 0 1 2.298-2.29c1.225 0 2.22 1.068 2.22 2.29Zm-2.22-2.672c-1.532 0-2.757 1.145-2.757 2.671 0 1.452 1.225 2.672 2.757 2.672 1.455 0 2.68-1.221 2.68-2.672 0-1.526-1.226-2.671-2.68-2.671Z"/>
    <path d="M10.437 51.766c-.077.381-.383.61-.69.61-.536 0-.919-.457-.919-.992 0-.535.307-.992.843-.992.383 0 .689.229.766.534h.383c-.077-.61-.537-.916-1.15-.916-.765 0-1.301.61-1.301 1.374 0 .763.536 1.374 1.378 1.374.536 0 .92-.381 1.072-.992h-.382Zm36.91 3.13c0 .587-.235 1.15-.651 1.565a2.226 2.226 0 0 1-1.57.649c-1.302 0-2.297-.992-2.297-2.214a2.3 2.3 0 0 1 2.297-2.291c1.224 0 2.22 1.069 2.22 2.29Zm-2.221-2.672c-1.532 0-2.757 1.145-2.757 2.672 0 1.45 1.225 2.671 2.757 2.671 1.455 0 2.68-1.221 2.68-2.671 0-1.527-1.226-2.672-2.68-2.672Z"/>
    <path d="M44.666 55.048h.382l.69 1.146h.459l-.766-1.146c.383-.076.69-.229.69-.687 0-.534-.307-.763-.92-.763h-.919v2.596h.383v-1.146Zm0-.305v-.763h.46c.305 0 .612 0 .612.306 0 .457-.307.457-.613.457h-.46Z"/>
  </g>
  <defs>
    <clipPath id="a">
      <path fill="#fff" d="M0 0h48.329v72H0z"/>
    </clipPath>
  </defs>
</svg>
