<svg version="1.1" id="Layer_1" xmlns="http://www.w3.org/2000/svg" xmlns:xlink="http://www.w3.org/1999/xlink" x="0px" y="0px"
	 viewBox="0 0 405.9 260.7" fill="currentColor" xml:space="preserve">
<g>
	<path d="M296.1,2.1c1.7,0.2,3.4,0.5,5,0.7c7.2,1.1,14,3.4,20.4,7c0.6,0.3,0.8,0.7,0.7,1.3c-0.1,5.4-0.3,10.8-0.4,16.2
		c0,0.5-0.2,0.7-0.7,1c-10.5,6.4-16.9,15.7-18.9,27.8c-2.3,14,1.8,26.2,11.9,36.1c6.5,6.4,14.3,10,23.4,11.1
		c20.8,2.5,39.3-11.1,44.2-30.2c0.8-3.3,1.3-6.6,1.3-9.9c0-6.9,0-13.7,0-20.6c0-0.9,0.2-1.3,1.2-1.3c6,0.1,11.9,0,17.9,0
		c0.9,0,1.1,0.2,1.1,1.1c0,7.5,0.1,15-0.1,22.5c-0.4,13.9-5.1,26.2-14,36.9c-9.1,10.9-20.5,17.9-34.5,20.7
		c-18.7,3.7-35.7-0.4-50.6-12.3c-11.7-9.4-19-21.6-21.6-36.3c-3.2-18.4,1.1-35.1,12.9-49.7c0.4-0.5,1.2-0.9,1-1.5
		c-0.2-0.5-1.1-0.2-1.7-0.3c-10.8-0.7-20.4,2.3-28.7,9.2c-7.7,6.3-12.4,14.4-14.2,24.1c-0.4,2.2-0.6,4.3-0.6,6.5
		c0,5,0.1,10.1-0.1,15.1c-0.8,22.8-17.3,41.9-39.8,45.7c-15.1,2.5-28.5-1.3-40.1-11.4c-9.1-8-14.3-18.1-15.9-30.1
		c-0.4-2.6-0.3-5.3-0.3-7.9c0-4.5-0.1-9,0.1-13.5c0.6-13.8,5.4-26,14.3-36.5c0.2-0.3,0.4-0.5,0.8-0.9c-2.3-0.3-4.5-0.5-6.6-0.3
		c-7.5,0.4-14.6,2.5-20.8,6.7c-10.2,6.9-16.3,16.5-18,28.7c-0.4,2.7-0.3,5.4-0.4,8.1c-0.9,17.1-7.5,31.5-20.6,42.8
		c-9.6,8.3-21,12.9-33.6,14.6c-17.8,2.3-33.9-1.9-47.9-13.3C10.7,100.4,3.6,88.1,1,73.3c-0.3-1.8-0.5-3.6-0.7-5.5
		c0-0.2,0-0.4-0.2-0.5c0-2.9,0-5.8,0-8.6c0.4-0.2,0.2-0.6,0.2-0.9c0.2-2.1,0.5-4.1,0.9-6.2C3.9,37.4,10.9,25.6,22,16.2
		C30.7,9,40.6,4.5,51.8,2.8c1.6-0.2,3.2-0.2,4.8-0.7c3.3,0,6.6,0,9.8,0c2.5,0.4,5,0.7,7.5,1.2c6.3,1.2,12.1,3.5,17.3,7.4
		c0.7,0.5,0.6,0.8,0.1,1.4c-4,4.6-8.1,9.3-12.1,14c-0.4,0.4-0.6,0.5-1.1,0.1c-1-0.8-2.2-1.4-3.5-1.8c-6.6-2.4-13.4-2.7-20.3-1.6
		c-10.2,1.7-18.6,6.6-25.1,14.6c-5.7,6.9-8.5,15-9.1,23.9c-0.2,3.2,0.2,6.5,0.9,9.7c1.5,7.5,4.8,14.1,10.1,19.6
		c8.7,9.1,19.3,13.5,32,13c5.4-0.2,10.5-1.2,15.5-3.1c15.4-5.9,25.1-19.5,25.5-35.9c0.1-3.4,0.2-6.7,0.7-10.1
		c2.2-14.3,8.5-26.4,19.1-36.3c4-3.7,8.5-6.8,13.3-9.3c5.9-3,12.1-5,18.6-6c1.7-0.3,3.5-0.2,5.2-0.7c2.7,0,5.4,0,8.2,0
		c0.2,0.2,0.5,0.2,0.8,0.2c8.7,0.7,16.8,3.1,24.5,7.3c0.8,0.5,1.2,1,1.2,1.9c0,4.8,0,9.6,0,14.4c0,1,0.1,1.7-0.9,2.4
		c-12.7,8-19.1,19.6-19.5,34.5c-0.1,4.4,0,8.7,0,13.1c0,1.9,0.2,3.8,0.6,5.7c3.5,15.3,17.6,24.4,33,21.5
		c11.9-2.3,21.6-13.3,22.1-25.4c0.2-4.7,0-9.4,0.1-14.1c0.1-5.1,0.6-10.1,1.8-15c5.8-23.8,25.8-42,50-45.7c1.6-0.2,3.3-0.2,4.9-0.7
		C290.5,2.1,293.3,2.1,296.1,2.1z"/>
	<path d="M403.9,247.6c-0.2,0.6-0.8,0.6-1.4,0.6c-5.9,0-11.8,0-17.7,0c-1.4,0-1.5,0.1-1.2,1.5c0.9,5,6.2,7.3,10.4,4.4
		c0.9-0.6,1.5-1.4,1.8-2.4c0.2-0.7,0.6-0.8,1.2-0.8c1.8,0,3.5,0.1,5.3,0c1.1,0,1.3,0.3,1,1.3c-1.2,3.7-3.6,6.4-7.3,7.7
		c-5.3,2-10.4,1.5-14.9-2.1c-1.9-1.5-3.1-3.4-3.8-5.7c-1.1-3.7-1.2-7.5,0.2-11.2c1.8-5,5.6-7.6,10.8-8.3c2.1-0.3,4.3-0.2,6.4,0.4
		c4.9,1.4,7.9,4.7,9,9.7c0,0.2,0,0.5,0.2,0.6C403.9,244.9,403.9,246.2,403.9,247.6z M390.1,245c1.6,0,3.3,0,4.9,0c1.8,0,2-0.2,1.6-2
		c0,0,0-0.1,0-0.1c-0.7-3.1-3.6-5-7.2-4.6c-3.2,0.3-5.8,3-5.9,6c0,0.7,0.3,0.8,0.9,0.7C386.2,245,388.2,245,390.1,245z"/>
	<path d="M395,2.1c0.4,0.4,1,0.4,1.5,0.5c4.9,1.7,7.7,6.7,6.6,11.8c-1,4.9-5.8,8.2-11,7.8c-4.9-0.5-8.8-4.8-8.9-9.8
		c-0.1-4.7,2.9-8.7,7.6-10c0.3-0.1,0.7,0,0.9-0.3C392.7,2.1,393.9,2.1,395,2.1z"/>
	<path d="M0.3,185.9c-0.1,0-0.2,0-0.3,0.1c0-1.8,0-3.7,0-5.5c0.1,0,0.2,0,0.3,0.1C0.3,182.3,0.3,184.1,0.3,185.9z"/>
	<path d="M0.3,185.9c0-1.8,0-3.6,0-5.4c0.6-7.4,5.9-14.3,14.5-15.2c3.9-0.4,7.7,0,11.3,2c3.8,2.1,6.2,5.4,7.5,9.5
		c0.2,0.8,0.1,1.2-0.9,1.1c-1.8-0.1-3.6,0-5.4,0c-0.6,0-1-0.2-1.3-0.8c-2.2-4.1-6.3-6.1-10.7-5.3c-4.4,0.9-7.4,4.3-7.9,8.9
		c-0.4,3-0.2,6,1.3,8.7c1.8,3.3,4.6,5,8.4,5c3.9,0,6.9-1.6,8.7-5.1c0.4-0.8,0.9-1.1,1.8-1.1c1.6,0.1,3.3,0.1,4.9,0
		c1,0,1.3,0.3,0.9,1.2c-2,6.1-6,9.9-12.3,11.1c-5.2,1-10.3,0.4-14.7-3C2.7,194.8,0.7,190.7,0.3,185.9z"/>
	<path d="M231.2,178.4c-4.3-6.4-13.6-6.8-19-3.6c-4.1,2.4-5.9,6.3-6.2,10.9c-0.3,5.1,0.9,9.6,5.1,12.9c3.2,2.4,6.9,3,10.8,2.6
		c5-0.5,9.4-4,10.8-8.7c0.4-1.3,0.4-1.3-0.9-1.3c-1.7,0-3.4,0-5.2,0c-0.7,0-1.1,0.2-1.4,0.9c-0.5,1.4-1.5,2.4-2.9,3
		c-4,1.6-9-0.2-9.4-5.6c-0.1-0.8,0.1-0.9,0.8-0.9c3.1,0,6.2,0,9.2,0c3,0,6,0,9,0c0.8,0,1.2-0.1,1.3-1
		C233.7,184.1,233,181.1,231.2,178.4z M223.9,185.3c-1.4,0-2.9,0-4.3,0c-1.9,0-3.8,0-5.7,0c-0.8,0-0.9-0.2-0.8-0.9
		c0.4-3,2.5-5.4,5.4-5.8c3.4-0.5,6.2,0.8,7.4,3.4c0,0.1,0.1,0.2,0.1,0.3C226.8,184.8,226.6,185.3,223.9,185.3z"/>
	<path d="M211.9,238.1c2.5-4.3,6.2-5.9,10.7-5.4c5.2,0.6,8.5,4.1,9,9.3c0.5,5.9,0.1,11.9,0.2,17.8c0,0.7-0.4,0.9-1,0.8
		c-1.6,0-3.3-0.1-4.9,0c-1,0-1.3-0.2-1.3-1.3c0.1-4.8,0-9.6,0-14.4c0-1.3-0.2-2.6-0.9-3.8c-1.4-2.3-3.5-3-6.1-2.8
		c-2.4,0.2-4.1,1.4-5.1,3.6c-0.5,1.2-0.7,2.4-0.7,3.7c0,4.6,0,9.1,0,13.7c0,0.9-0.3,1.3-1.2,1.2c-1.7-0.1-3.4,0-5,0
		c-0.6,0-0.9-0.2-0.9-0.9c0-8.7,0-17.3,0-26c0-0.7,0.3-0.9,0.9-0.9c1.8,0,3.5,0.1,5.3,0c0.8,0,1,0.3,1,1
		C211.8,235.3,211.9,236.5,211.9,238.1z"/>
	<path d="M138,256c-1.5,2.3-3.4,3.9-6,4.6c-6.6,1.8-13-1.5-13.7-9.1c-0.5-5.1-0.1-10.1-0.2-15.2c0-1.1-0.5-2.5,0.2-3.1
		c0.6-0.5,2-0.2,3-0.2c0.9,0,1.8,0.1,2.8,0c0.9-0.1,1.1,0.2,1.1,1.1c0,5,0,9.9,0,14.9c0,3.2,2,5.6,4.7,6.1c4.5,0.8,7.9-1.8,8-6.5
		c0.1-4.5,0-9,0-13.5c0-2,0-2,2.1-2c1.4,0,2.7,0,4.1,0c0.7,0,1,0.2,1,0.9c0,8.6,0,17.3,0,25.9c0,0.6-0.2,0.9-0.9,0.9
		c-1.8,0-3.6,0-5.4,0c-0.7,0-0.9-0.3-0.9-0.9C138,258.5,138,257.2,138,256z"/>
	<path d="M110.4,243.5c-0.3,0-0.6,0-0.8,0c-1.7,0.2-2.9,0.1-3.7-2c-0.9-2.3-3.3-2.9-5.6-2.8c-2.4,0.2-4.3,1.4-5.2,3.7
		c-1.2,3-1.2,6,0,9c1,2.4,3.3,3.6,6,3.5c2.7-0.1,4.5-1.4,5.4-3.9c0.2-0.6,0.5-0.7,1-0.7c1.9,0,3.8,0.1,5.8,0c0.9,0,0.9,0.3,0.7,1.1
		c-1.1,4.9-5.1,8.7-10.1,9.5c-3.6,0.6-7,0.3-10.2-1.5c-4.7-2.6-6.5-6.8-6.7-11.9c-0.2-5.9,2.1-11,7.2-13.3c5.7-2.5,11.3-2.2,16.2,2
		c2,1.7,3.1,4.1,3.7,6.7c0.1,0.5,0,0.7-0.5,0.7C112.5,243.5,111.5,243.5,110.4,243.5z"/>
	<path d="M64.3,251.6c0.3,0,0.6,0,1,0c1.4-0.2,2.4,0,3,1.7c0.9,2.4,5,3.4,7.3,2.2c1.8-1,2.1-3.5,0.4-4.8c-1.1-0.8-2.4-1.1-3.6-1.4
		c-1.9-0.5-3.8-0.9-5.7-1.5c-3.8-1.2-5.5-3.4-5.6-6.9c-0.1-3.4,1.8-6.3,5.3-7.4c4.9-1.6,9.6-1.4,13.7,2.2c1.7,1.5,2.6,3.4,3.1,5.5
		c0.2,0.7,0,0.9-0.7,0.8c-1.7,0-3.4,0-5,0c-0.6,0-0.8-0.2-1-0.8c-1.1-2.9-3.6-4.2-6.6-3.5c-1.3,0.3-2.1,1.1-2.3,2.5
		c-0.2,1.3,0.3,2.2,1.4,2.8c1.7,0.9,3.5,1.2,5.3,1.7c2.1,0.6,4.2,1,6.1,2.1c2.4,1.5,3.4,3.8,3.3,6.6c-0.2,3-1.7,5.2-4.4,6.3
		c-4.7,2-9.4,1.7-13.8-0.8c-2.4-1.3-3.8-3.6-4.4-6.3c-0.2-0.8-0.1-1.2,0.9-1.1C62.7,251.7,63.5,251.6,64.3,251.6z"/>
	<path d="M360,253.4c2.2-6.5,4.3-12.8,6.4-19c0.4-1.1,0.8-1.6,2-1.5c1.6,0.1,3.2,0.1,4.8,0c1.1-0.1,1.3,0.2,0.9,1.2
		c-2.7,7.1-5.3,14.3-8,21.4c-0.5,1.4-1.1,2.8-1.6,4.3c-0.2,0.7-0.6,0.8-1.2,0.8c-2.2,0-4.5,0-6.7,0c-0.7,0-1.1-0.2-1.3-0.9
		c-3.2-8.6-6.3-17.2-9.6-25.8c-0.3-0.9-0.2-1.1,0.7-1.1c1.8,0.1,3.7,0.1,5.5,0c0.8,0,1.1,0.3,1.3,1c2,6,4.1,11.9,6.1,17.9
		C359.6,252.3,359.8,252.7,360,253.4z"/>
	<path d="M246,190c0,3.2-0.1,6.4,0,9.6c0,1.1-0.3,1.3-1.3,1.3c-1.5-0.1-3-0.1-4.6,0c-1,0-1.2-0.3-1.2-1.2c0-6.3,0-12.6,0-18.9
		c0-1.6,0-1.6-1.6-1.6c-2,0-2,0-2-2c0-1,0-2.1,0-3.1c0-0.6,0.2-0.8,0.8-0.8c0.9,0,2,0.4,2.5-0.2c0.6-0.6,0.2-1.7,0.3-2.5
		c0.5-4.3,3.5-7.3,7.9-7.9c1.2-0.2,2.5-0.3,3.7-0.3c0.6,0,0.9,0.2,0.9,0.9c0,1.5,0,3,0,4.6c0,0.6-0.2,0.8-0.8,0.8
		c-0.4,0-0.7,0-1.1,0c-2.3,0.2-3.7,1.6-3.7,4c0,0.6,0.2,0.8,0.7,0.8c1.3,0,2.6,0,3.8,0c0.7,0,1,0.1,1,0.9c0,1.4,0,2.8,0,4.2
		c0,0.6-0.2,0.8-0.9,0.8c-1.3,0-2.6,0-3.8,0c-0.8,0-0.9,0.2-0.9,1C246,183.4,246,186.7,246,190z"/>
	<path d="M251.8,245.9c0-2,0-4,0-6c0-0.7-0.1-1.1-0.9-1c-0.1,0-0.2,0-0.4,0c-2.6,0-2.6,0-2.6-2.5c0-0.9,0-1.8,0-2.6
		c0-0.6,0.2-0.9,0.8-0.8c0.1,0,0.2,0,0.4,0c2.7,0,2.7,0,2.7-2.7c0-1.1,0-2.2,0-3.2c0-0.7,0.2-1,0.9-1c1.8,0,3.5,0,5.3,0
		c0.7,0,1,0.3,0.9,1c0,1.6,0,3.3,0,4.9c0,0.8,0.3,1,1,1c1.4-0.1,2.9,0,4.3,0c0.7,0,0.9,0.2,0.9,0.9c0,1.4,0,2.9,0,4.3
		c0,0.6-0.2,0.8-0.8,0.8c-1.5,0-3,0-4.4,0c-0.6,0-0.9,0.1-0.9,0.8c0,4,0,7.9,0,11.9c0,1.8,1,2.8,2.8,2.9c0.9,0.1,1.8,0,2.6,0
		c0.6,0,0.8,0.2,0.8,0.8c0,1.5,0,3,0,4.6c0,0.5-0.1,0.8-0.7,0.8c-2.2,0-4.5,0.1-6.7-0.5c-3.9-1-5.9-3.9-6-8.6
		C251.7,249.8,251.8,247.8,251.8,245.9z"/>
	<path d="M317.2,246.1c0-2.1,0-4.2,0-6.2c0-0.7-0.1-0.9-0.9-0.9c-0.9,0-2.2,0.4-2.8-0.2c-0.6-0.6-0.2-1.9-0.2-2.9
		c0-0.9-0.4-2.1,0.2-2.8c0.6-0.6,1.8-0.2,2.7-0.2c0.8,0,1-0.3,1-1c-0.1-1.6,0-3.3,0-4.9c0-0.7,0.2-0.9,0.9-0.9c1.8,0,3.5,0,5.3,0
		c0.7,0,0.9,0.2,0.9,0.9c0,1.7,0,3.4,0,5c0,0.7,0.2,0.9,0.9,0.9c1.5,0,3,0,4.4,0c0.7,0,0.9,0.2,0.9,0.9c0,1.4,0,2.9,0,4.3
		c0,0.6-0.2,0.8-0.8,0.8c-1.5,0-3,0-4.6,0c-0.6,0-0.8,0.2-0.8,0.8c0,3.8,0,7.6,0,11.4c0,2.5,1,3.4,3.6,3.4c2.6,0,2.6,0,2.6,2.6
		c0,0.9,0,1.8,0,2.8c0,0.5-0.2,0.7-0.7,0.7c-1.8,0-3.6,0.1-5.4-0.2c-4.6-0.7-7-3.5-7.2-8.4C317.2,250.1,317.2,248.1,317.2,246.1z"/>
	<path d="M77,178.3c0.8-1.2,1.5-1.9,2.2-2.6c1.9-1.8,4.1-2.7,6.7-2.9c0.6,0,0.9,0.1,0.9,0.8c0,2,0,3.9,0,5.9c0,0.7-0.3,0.9-0.9,0.9
		c-0.8,0-1.5,0-2.3,0c-4.3,0.2-6.6,2.6-6.6,6.9c0,4.1,0,8.2,0,12.3c0,0.9-0.2,1.3-1.2,1.2c-1.7-0.1-3.4,0-5,0
		c-0.6,0-0.9-0.1-0.9-0.8c0-8.7,0-17.3,0-26c0-0.6,0.2-0.9,0.9-0.9c1.8,0,3.6,0,5.4,0c0.7,0,0.9,0.3,0.9,0.9
		C77,175.3,77,176.6,77,178.3z"/>
	<path d="M130.5,182.5c0,5.7,0,11.4,0,17.1c0,0.9-0.1,1.3-1.2,1.2c-1.7-0.1-3.4-0.1-5.2,0c-0.7,0-0.9-0.2-0.9-0.9
		c0-11.7,0-23.5,0-35.2c0-0.7,0.3-0.9,0.9-0.9c1.7,0,3.4,0.1,5.2,0c0.9,0,1.2,0.2,1.1,1.1C130.5,170.9,130.5,176.7,130.5,182.5z"/>
	<path d="M198.9,242.9c0,5.5,0,10.9,0,16.4c0,1.2-0.4,1.4-1.4,1.4c-1.6-0.1-3.2,0-4.8,0c-0.7,0-1-0.3-1-1c0-11.1,0-22.3,0-33.4
		c0-0.8,0.3-1,1-0.9c1.7,0,3.4,0.1,5,0c0.9,0,1.1,0.3,1.1,1.2C198.9,232,198.9,237.5,198.9,242.9z"/>
	<path d="M237.3,246.7c0-4.2,0-8.5,0-12.7c0-0.8,0.2-1.1,1.1-1.1c1.7,0.1,3.4,0,5.2,0c0.7,0,1,0.1,1,0.9c0,8.6,0,17.2,0,25.9
		c0,0.7-0.2,1-1,1c-1.7,0-3.4-0.1-5.2,0c-0.8,0-1.1-0.2-1.1-1.1C237.3,255.3,237.3,251,237.3,246.7z"/>
	<path d="M342.2,246.9c0,4.2,0,8.4,0,12.6c0,1-0.3,1.3-1.3,1.3c-1.6-0.1-3.3,0-4.9,0c-0.7,0-1-0.2-1-1c0-8.6,0-17.3,0-25.9
		c0-0.6,0.1-0.9,0.9-0.9c1.8,0,3.6,0.1,5.4,0c0.8,0,0.9,0.3,0.9,1C342.2,238.3,342.2,242.6,342.2,246.9z"/>
	<path d="M276.7,246.8c0,4.3,0,8.5,0,12.8c0,0.8-0.2,1.1-1.1,1.1c-1.7-0.1-3.4,0-5,0c-0.7,0-1-0.2-1-0.9c0-8.6,0-17.2,0-25.9
		c0-0.7,0.2-0.9,0.9-0.9c1.8,0,3.5,0.1,5.3,0c0.8,0,0.9,0.3,0.9,1C276.7,238.2,276.7,242.5,276.7,246.8z"/>
	<path d="M273.1,221.2c2.8,0,4.7,1.9,4.4,4.3c-0.3,2.3-2.4,3.7-5.1,3.3c-2.2-0.3-3.7-1.9-3.6-4C268.9,222.7,270.6,221.2,273.1,221.2
		z"/>
	<path d="M240.9,221.2c3.2,0,5.1,2.4,4.2,5.1c-0.7,1.9-3,3-5.4,2.4c-2.1-0.5-3.3-2.1-3.1-4.2C236.8,222.6,238.5,221.2,240.9,221.2z"
		/>
	<path d="M338.6,228.9c-2.1,0-3.6-0.9-4.2-2.6c-0.5-1.5-0.1-3.2,1.2-4.2c1.7-1.2,3.5-1.2,5.3-0.4c1.5,0.7,2.1,2,2,3.6
		C342.8,227.5,341.1,228.9,338.6,228.9z"/>
	<path d="M26.9,259.9c-2.6-4.1-5.1-8.3-7.7-12.4c-0.4-0.6-0.5-0.9,0.4-1.2c6.2-1.8,8.4-6.6,7.4-12.5c-0.8-4.7-4.7-7.9-9.7-8.3
		c-5-0.4-9.9-0.1-14.9-0.2c-1,0-1.2,0.3-1.2,1.2c0,7.2,0,14.3,0,21.5c0,3.8,0,7.7,0,11.5c0,1,0.3,1.2,1.2,1.2c1.5-0.1,3-0.1,4.6,0
		c1.1,0.1,1.4-0.2,1.4-1.4c-0.1-3.8,0-7.5,0-11.3c0-0.4-0.2-0.8,0.3-1.1c0.7-0.4,2.8,0.1,3.2,0.8c2.4,4,4.8,8,7.2,12
		c0.3,0.5,0.5,1,1.2,0.9c2.3,0,4.6,0,7.2,0C27.1,260.3,27,260.1,26.9,259.9z M14.8,242c-1.9,0.1-3.8,0-5.7,0c-0.7,0-0.8-0.3-0.8-0.9
		c0-1.5,0-3,0-4.4c0-0.7,0-1.4,0-2.1c0-0.7,0-1.4,0-2.1c0-0.8,0.2-1.1,1.1-1.1c1.7,0.1,3.4,0,5.2,0c3.5,0.1,5.4,1.8,5.5,5
		C20.1,239.9,18.4,241.8,14.8,242z"/>
	<path d="M172.4,200.1c-2.6-4.1-5.1-8.2-7.7-12.3c-0.5-0.9-0.4-1.1,0.5-1.3c2-0.5,3.8-1.5,5.1-3.1c2.7-3.4,3-7.2,1.6-11.1
		c-1.4-3.9-4.6-5.9-8.6-6.4c-5.3-0.6-10.7-0.1-16.1-0.3c-0.6,0-0.7,0.3-0.7,0.8c0,11.2,0,22.4,0,33.6c0,0.7,0.2,0.9,0.9,0.9
		c1.7,0,3.4-0.1,5,0c1,0.1,1.3-0.3,1.2-1.3c-0.1-3.8,0-7.6,0-11.4c0-0.4-0.2-0.8,0.3-1c1.1-0.4,2.8,0.1,3.4,1.1
		c2.4,3.9,4.7,7.9,7.1,11.8c0.3,0.5,0.6,0.8,1.2,0.8c2.3,0,4.6,0,7.1,0C172.6,200.5,172.5,200.3,172.4,200.1z M160.9,182.1
		c-1.1,0.1-2.2,0-3.2,0c0,0,0,0,0,0.1c-1,0-2,0-3,0c-0.6,0-0.9-0.2-0.9-0.8c0-3,0-6.1,0-9.1c0-0.4,0-0.7,0.5-0.7
		c2.4,0.1,4.7-0.2,7.1,0.2c2.8,0.5,4.3,2.5,4.1,5.4C165.4,180.1,163.8,181.9,160.9,182.1z"/>
	<path d="M116.6,173.1c-1.7,0-3.4,0.1-5,0c-0.9,0-1.2,0.3-1.1,1.2c0.1,1.2,0,2.4,0,3.6c-0.9-0.9-1.5-1.9-2.4-2.7
		c-5-4.2-13.3-2.8-16.9,2.7c-2.2,3.4-2.7,7.1-2.4,11c0.5,6.4,4.3,11.9,11.6,12.2c3.9,0.2,7.2-1.1,9.4-4.5c0.2-0.2,0.2-0.6,0.6-0.7
		c0,1.3,0,2.6,0,4c0,0.6,0.1,1,0.8,0.9c1.8,0,3.6,0,5.4,0c0.7,0,0.9-0.3,0.9-0.9c0-8.6,0-17.3,0-25.9
		C117.6,173.4,117.3,173.1,116.6,173.1z M106.2,194.3c-3.7,1.6-9.5,0.4-10.2-6c-0.3-2.8,0-5.5,2.3-7.5c2.2-2,4.9-2.3,7.6-1.3
		c2.7,1,4.1,3.2,4.5,6c0.1,0.5,0.1,1,0.1,1.4C110.5,190.2,109.4,193,106.2,194.3z"/>
	<path d="M61.1,176.3c-4.9-4.1-10.6-4.5-16.3-2.1c-5.5,2.4-7.6,7-7.7,15c-0.2,5.4,5,11.9,14.2,12c7.8,0,13.4-4.8,14.1-12.3
		C65.9,184.1,64.9,179.5,61.1,176.3z M56.5,192.7c-1.9,2.2-4.8,2.9-7.5,1.9c-2.9-1.1-4.3-3.3-4.6-6.3c0-0.5,0-1,0-1.4
		c-0.1-3.3,1-6,4.2-7.4c4.6-2,9.3,1.1,9.7,6.3C58.5,188.3,58.2,190.7,56.5,192.7z"/>
	<path d="M51.5,234.6c-3-1.9-6.4-2.3-9.8-1.8c-4.3,0.5-7.8,2.5-9.9,6.5c-1.7,3-2,6.3-1.7,9.6c0.3,3.4,1.6,6.5,4.3,8.8
		c3.7,3.2,8.1,3.9,12.7,3c4.9-1,8.3-3.8,9.8-8.7c0.2-0.7,0.2-1.1-0.8-1.1c-1.9,0.1-3.8,0-5.6,0c-0.6,0-0.9,0.2-1.1,0.8
		c-0.6,1.6-1.7,2.6-3.3,3.2c-4.4,1.6-8.5-1.1-9-5.7c-0.1-0.8,0.2-1,0.9-0.9c3,0,6.1,0,9.1,0c3.1,0,6.2,0,9.2,0c0.6,0,1,0,1.1-0.8
		C57.8,242.4,56.2,237.5,51.5,234.6z M49.3,245c-1.9,0-3.8,0-5.7,0c-1.9,0-3.7,0-5.6,0c-0.9,0-1-0.3-0.9-1.1c0.9-6.1,8-6.9,11.2-4.1
		c1.3,1.2,1.9,2.6,2,4.3C50.3,244.8,50,245,49.3,245z"/>
	<path d="M202.6,182.8c-2.5-11.4-16.6-12.2-22.7-6.8c-2.9,2.6-4.2,6-4.4,9.8c-0.3,4.9,0.9,9.3,4.9,12.5c3.2,2.6,7,3.2,11.1,2.8
		c5.1-0.5,9.5-4.1,10.9-8.9c0.2-0.8,0.1-1.1-0.8-1.1c-1.8,0.1-3.7,0-5.5,0c-0.7,0-1,0.2-1.2,0.8c-0.4,1.3-1.3,2.2-2.4,2.8
		c-3.8,2-9.3,0.4-9.9-5.2c-0.1-1,0.2-1.2,1.1-1.1c3,0,5.9,0,8.9,0c3.1,0,6.2,0,9.2,0c0.7,0,1-0.1,1.1-0.9
		C203.1,185.9,203,184.4,202.6,182.8z M194.9,185.3c-2-0.1-3.9,0-5.9,0c-1,0-1.9,0-2.9,0c-1,0-1.9,0-2.9,0c-0.7,0-0.8-0.1-0.8-0.9
		c0.7-6.3,7.7-7.1,10.9-4.7c1.6,1.2,2.2,2.7,2.4,4.6C195.9,185,195.7,185.3,194.9,185.3z"/>
</g>
<g>
	<path d="M144.2,233c-1.4,0-2.7,0-4.1,0c-2.1,0-2.1,0-2.1,2c0,4.5,0.1,9,0,13.5c-0.1,4.6-3.4,7.2-8,6.5c-2.8-0.5-4.7-2.9-4.7-6.1
		c0-5,0-9.9,0-14.9c0-0.9-0.2-1.2-1.1-1.1c-0.9,0.1-1.8,0-2.8,0c-1,0-2.4-0.3-3,0.2c-0.7,0.6-0.3,2-0.2,3.1
		c0.1,5.1-0.3,10.2,0.2,15.2c0.8,7.6,7.1,10.9,13.7,9.1c2.6-0.7,4.5-2.3,6-4.6c0,1.3,0,2.6,0,3.8c0,0.7,0.2,0.9,0.9,0.9
		c1.8,0,3.6,0,5.4,0c0.7,0,0.9-0.3,0.9-0.9c0-8.6,0-17.3,0-25.9C145.2,233.1,144.9,232.9,144.2,233z"/>
	<path d="M198.9,242.9c0-5.5,0-10.9,0-16.4c0-0.9-0.2-1.2-1.1-1.2c-1.7,0.1-3.4,0-5,0c-0.7,0-1,0.2-1,0.9c0,11.1,0,22.3,0,33.4
		c0,0.7,0.2,1,1,1c1.6,0,3.2-0.1,4.8,0c1.1,0.1,1.4-0.2,1.4-1.4C198.9,253.9,198.9,248.4,198.9,242.9z"/>
	<path d="M85.9,172.8c-2.6,0.2-4.8,1.1-6.7,2.9c-0.7,0.7-1.4,1.5-2.2,2.6c0-1.7,0-3,0-4.3c0-0.6-0.1-0.9-0.9-0.9c-1.8,0-3.6,0-5.4,0
		c-0.7,0-0.9,0.3-0.9,0.9c0,8.7,0,17.3,0,26c0,0.7,0.3,0.8,0.9,0.8c1.7,0,3.4-0.1,5,0c1,0.1,1.2-0.3,1.2-1.2c0-4.1,0-8.2,0-12.3
		c0-4.3,2.4-6.7,6.6-6.9c0.8,0,1.5-0.1,2.3,0c0.7,0,0.9-0.2,0.9-0.9c0-2,0-3.9,0-5.9C86.9,172.9,86.6,172.8,85.9,172.8z"/>
	<path d="M231.6,242c-0.4-5.2-3.8-8.7-9-9.3c-4.6-0.5-8.2,1-10.7,5.4c0-1.5,0-2.8,0-4.1c0-0.7-0.1-1.1-1-1c-1.8,0.1-3.5,0-5.3,0
		c-0.7,0-0.9,0.2-0.9,0.9c0,8.7,0,17.3,0,26c0,0.7,0.3,0.9,0.9,0.9c1.7,0,3.4-0.1,5,0c1,0,1.2-0.3,1.2-1.2c0-4.6,0-9.1,0-13.7
		c0-1.3,0.2-2.5,0.7-3.7c1-2.2,2.7-3.4,5.1-3.6c2.5-0.2,4.7,0.5,6.1,2.8c0.7,1.2,0.9,2.4,0.9,3.8c0,4.8,0,9.6,0,14.4
		c0,1,0.3,1.3,1.3,1.3c1.6-0.1,3.3,0,4.9,0c0.6,0,1-0.1,1-0.8C231.7,253.9,232.1,248,231.6,242z"/>
	<path d="M124.2,200.9c1.7,0,3.4-0.1,5.2,0c1,0.1,1.2-0.3,1.2-1.2c0-5.7,0-11.4,0-17.1c0-5.8,0-11.7,0-17.5c0-0.9-0.3-1.2-1.1-1.1
		c-1.7,0.1-3.4,0-5.2,0c-0.7,0-0.9,0.1-0.9,0.9c0,11.7,0,23.5,0,35.2C123.3,200.7,123.5,200.9,124.2,200.9z"/>
	<path d="M100.2,238.8c2.4-0.2,4.7,0.5,5.6,2.8c0.8,2,2.1,2.1,3.7,2c0.3,0,0.6,0,0.8,0c1,0,2.1,0,3.1,0c0.5,0,0.7-0.2,0.5-0.7
		c-0.6-2.6-1.7-4.9-3.7-6.7c-5-4.2-10.5-4.5-16.2-2c-5.1,2.2-7.4,7.4-7.2,13.3c0.2,5.1,2,9.3,6.7,11.9c3.2,1.8,6.7,2,10.2,1.5
		c5-0.8,9-4.6,10.1-9.5c0.2-0.7,0.2-1.1-0.7-1.1c-1.9,0.1-3.8,0-5.8,0c-0.6,0-0.8,0.2-1,0.7c-0.9,2.5-2.7,3.8-5.4,3.9
		c-2.7,0.1-5-1.2-6-3.5c-1.3-3-1.3-6,0-9C96,240.2,97.8,238.9,100.2,238.8z"/>
	<path d="M80.4,246.9c-1.9-1.2-4-1.6-6.1-2.1c-1.8-0.5-3.7-0.7-5.3-1.7c-1.1-0.6-1.6-1.5-1.4-2.8c0.2-1.4,1-2.1,2.3-2.5
		c3-0.8,5.5,0.6,6.6,3.5c0.2,0.5,0.4,0.8,1,0.8c1.7,0,3.4,0,5,0c0.7,0,0.9-0.2,0.7-0.8c-0.5-2.1-1.4-4.1-3.1-5.5
		c-4.1-3.6-8.9-3.7-13.7-2.2c-3.5,1.1-5.4,4-5.3,7.4c0.1,3.5,1.8,5.7,5.6,6.9c1.9,0.6,3.8,1,5.7,1.5c1.3,0.4,2.6,0.6,3.6,1.4
		c1.7,1.3,1.4,3.8-0.4,4.8c-2.3,1.2-6.4,0.2-7.3-2.2c-0.6-1.7-1.6-1.9-3-1.7c-0.3,0-0.6,0-1,0c-0.8,0-1.6,0.1-2.4,0
		c-1-0.1-1.1,0.4-0.9,1.1c0.7,2.7,2,4.9,4.4,6.3c4.5,2.5,9.1,2.8,13.8,0.8c2.7-1.2,4.2-3.3,4.4-6.3
		C83.8,250.7,82.8,248.4,80.4,246.9z"/>
	<path d="M327.9,254.6c-2.6,0-3.5-0.9-3.6-3.4c-0.1-3.8,0-7.6,0-11.4c0-0.6,0.2-0.8,0.8-0.8c1.5,0,3,0,4.6,0c0.6,0,0.8-0.2,0.8-0.8
		c0-1.4,0-2.9,0-4.3c0-0.7-0.2-0.9-0.9-0.9c-1.5,0-3,0-4.4,0c-0.7,0-0.9-0.2-0.9-0.9c0-1.7,0-3.4,0-5c0-0.7-0.2-0.9-0.9-0.9
		c-1.8,0-3.5,0-5.3,0c-0.7,0-0.9,0.2-0.9,0.9c0,1.6,0,3.3,0,4.9c0,0.8-0.2,1.1-1,1c-0.9,0-2.1-0.4-2.7,0.2c-0.6,0.6-0.2,1.8-0.2,2.8
		c0,1-0.4,2.2,0.2,2.9c0.6,0.6,1.8,0.2,2.8,0.2c0.7,0,0.9,0.3,0.9,0.9c0,2.1,0,4.2,0,6.2c0,2,0,4,0,6c0.1,4.9,2.5,7.7,7.2,8.4
		c1.8,0.3,3.6,0.1,5.4,0.2c0.5,0,0.7-0.2,0.7-0.7c0-0.9,0-1.8,0-2.8C330.5,254.6,330.5,254.6,327.9,254.6z"/>
	<path d="M273.1,221.2c-2.5,0-4.2,1.5-4.4,3.7c-0.1,2.1,1.4,3.7,3.6,4c2.7,0.3,4.7-1,5.1-3.3C277.9,223.1,276,221.2,273.1,221.2z"/>
	<path d="M342.2,246.9c0-4.3,0-8.6,0-12.9c0-0.7-0.1-1-0.9-1c-1.8,0.1-3.6,0-5.4,0c-0.7,0-0.9,0.3-0.9,0.9c0,8.6,0,17.3,0,25.9
		c0,0.7,0.2,1,1,1c1.6,0,3.3-0.1,4.9,0c1,0,1.3-0.2,1.3-1.3C342.1,255.3,342.2,251.1,342.2,246.9z"/>
	<path d="M309,233c-1.7,0-3.4,0.1-5.2,0c-0.8,0-1,0.2-1,1c0.1,1.3,0,2.7,0,4c-0.8-1.2-1.6-2.3-2.6-3.1c-5.3-4.2-13.7-2.6-17,3.4
		c-2.9,5.3-2.9,10.9-0.4,16.3c2,4.2,5.6,6.2,10.2,6.4c4.3,0.1,7.6-1.6,9.8-5.8c0,1.7,0,3.1,0,4.5c0,0.7,0.1,1,0.9,1
		c1.8-0.1,3.5,0,5.3,0c0.7,0,1-0.3,1-1c0-8.6,0-17.2,0-25.9C310,233.1,309.7,233,309,233z M302.7,248.8c-0.8,3.9-3.9,6.3-7.7,6
		c-3.9-0.3-6.4-3.1-6.6-7.2c0-0.2,0-0.5,0-0.7c0-3,0.9-5.3,2.7-6.6c0.6-0.4,1.3-0.8,2.1-1c5.2-1.5,9.3,1.6,9.7,6.7
		C302.9,246.9,302.9,247.8,302.7,248.8z"/>
	<path d="M373.2,233c-1.6,0.1-3.2,0.1-4.8,0c-1.2-0.1-1.6,0.4-2,1.5c-2.1,6.2-4.2,12.5-6.4,19c-0.3-0.7-0.4-1.1-0.6-1.6
		c-2-6-4.1-11.9-6.1-17.9c-0.2-0.7-0.5-1-1.3-1c-1.8,0.1-3.7,0.1-5.5,0c-0.9,0-1.1,0.2-0.7,1.1c3.2,8.6,6.4,17.2,9.6,25.8
		c0.3,0.7,0.6,0.9,1.3,0.9c2.2,0,4.5,0,6.7,0c0.7,0,1-0.2,1.2-0.8c0.5-1.4,1.1-2.8,1.6-4.3c2.6-7.1,5.3-14.3,8-21.4
		C374.5,233.2,374.3,232.9,373.2,233z"/>
	<path d="M341,221.8c-1.8-0.9-3.6-0.8-5.3,0.4c-1.3,0.9-1.8,2.7-1.2,4.2c0.6,1.6,2.1,2.6,4.2,2.6c2.5,0,4.2-1.4,4.4-3.5
		C343.1,223.8,342.4,222.5,341,221.8z"/>
	<path d="M264.4,254.5c-0.9,0-1.8,0-2.6,0c-1.8-0.1-2.8-1-2.8-2.9c0-4,0-7.9,0-11.9c0-0.7,0.3-0.8,0.9-0.8c1.5,0,3,0,4.4,0
		c0.6,0,0.9-0.2,0.8-0.8c0-1.4,0-2.9,0-4.3c0-0.7-0.2-0.9-0.9-0.9c-1.4,0-2.9,0-4.3,0c-0.8,0-1-0.2-1-1c0.1-1.6,0-3.3,0-4.9
		c0-0.7-0.2-1-0.9-1c-1.8,0-3.5,0-5.3,0c-0.8,0-1,0.3-0.9,1c0,1.1,0,2.2,0,3.2c0,2.6,0,2.6-2.7,2.7c-0.1,0-0.2,0-0.4,0
		c-0.6-0.1-0.8,0.2-0.8,0.8c0,0.9,0,1.8,0,2.6c0,2.5,0,2.5,2.6,2.5c0.1,0,0.2,0,0.4,0c0.8-0.1,0.9,0.3,0.9,1c0,2,0,4,0,6
		c0,1.9,0,3.8,0,5.8c0.1,4.7,2.1,7.6,6,8.6c2.2,0.6,4.4,0.5,6.7,0.5c0.6,0,0.7-0.3,0.7-0.8c0-1.5,0-3,0-4.6
		C265.2,254.8,265,254.5,264.4,254.5z"/>
	<path d="M243.5,233c-1.7,0-3.4,0.1-5.2,0c-0.9,0-1.1,0.2-1.1,1.1c0,4.2,0,8.5,0,12.7c0,4.3,0,8.6,0,12.9c0,0.8,0.3,1.1,1.1,1.1
		c1.7-0.1,3.4,0,5.2,0c0.7,0,1-0.2,1-1c0-8.6,0-17.2,0-25.9C244.5,233.1,244.2,233,243.5,233z"/>
	<path d="M251.6,178.3c0-1.4,0-2.8,0-4.2c0-0.8-0.3-0.9-1-0.9c-1.3,0-2.6,0-3.8,0c-0.6,0-0.8-0.2-0.7-0.8c0-2.3,1.4-3.8,3.7-4
		c0.4,0,0.7,0,1.1,0c0.6,0,0.8-0.2,0.8-0.8c0-1.5,0-3,0-4.6c0-0.7-0.3-0.9-0.9-0.9c-1.2,0-2.5,0.1-3.7,0.3c-4.4,0.6-7.4,3.7-7.9,7.9
		c-0.1,0.9,0.3,2-0.3,2.5c-0.6,0.6-1.7,0.2-2.5,0.2c-0.6,0-0.8,0.2-0.8,0.8c0,1,0,2.1,0,3.1c0,2,0,2,2,2c1.6,0,1.6,0,1.6,1.6
		c0,6.3,0,12.6,0,18.9c0,0.9,0.2,1.2,1.2,1.2c1.5-0.1,3-0.1,4.6,0c1,0.1,1.4-0.2,1.3-1.3c-0.1-3.2,0-6.4,0-9.6c0-3.3,0-6.6,0-9.9
		c0-0.7,0.2-1,0.9-1c1.3,0.1,2.6,0,3.8,0C251.3,179.1,251.6,178.9,251.6,178.3z"/>
	<path d="M240.9,221.2c-2.4,0-4.2,1.4-4.3,3.4c-0.2,2.1,1,3.7,3.1,4.2c2.4,0.6,4.7-0.5,5.4-2.4C246.1,223.7,244.1,221.2,240.9,221.2
		z"/>
	<path d="M276.7,246.8c0-4.3,0-8.5,0-12.8c0-0.7-0.1-1-0.9-1c-1.8,0.1-3.5,0-5.3,0c-0.7,0-0.9,0.2-0.9,0.9c0,8.6,0,17.2,0,25.9
		c0,0.8,0.3,1,1,0.9c1.7,0,3.4-0.1,5,0c0.9,0,1.1-0.3,1.1-1.1C276.7,255.3,276.7,251,276.7,246.8z"/>
</g>
<path d="M172.5,235.7c-3.5-3-7.7-3.5-12.1-2.8c-4.1,0.7-7.2,2.8-9.2,6.4c-1,1.8-1.5,3.8-1.6,5.8c-0.3,4.2,0.4,8.2,3.2,11.4
	c4.6,5.3,13.6,6,19.3,1.6c2.1-1.6,3.5-3.8,4.3-6.3c0.2-0.7,0.1-1-0.7-1c-1.9,0-3.8,0-5.8,0c-0.6,0-0.9,0.2-1.1,0.8
	c-0.6,1.7-1.9,2.8-3.7,3.3c-3.6,1-8-0.4-8.6-5.8c-0.1-0.9,0.1-1,0.9-1c3,0,6.1,0,9.1,0s6.1,0,9.1,0c0.6,0,1.1,0.1,1.2-0.8
	C177.4,242.8,176.2,238.7,172.5,235.7z M169,245c-2,0-3.9,0-5.9,0c-0.9,0-1.9,0-2.8,0c-0.9,0-1.9,0-2.8,0c-0.7,0-1.1-0.1-0.9-1
	c0.4-2.6,1.7-4.5,4.2-5.3c2.7-0.9,5.2-0.6,7.4,1.4c1.2,1.1,1.6,2.6,1.7,4.2C169.9,245,169.5,245,169,245z"/>
</svg>
