<svg xmlns="http://www.w3.org/2000/svg" width="38" height="68" viewBox="0 0 38 68" fill="none">
  <path d="M5.89996 49.5999H2.20001C2.04243 49.5999 1.88637 49.5689 1.74078 49.5085C1.59519 49.4482 1.46287 49.3598 1.35144 49.2484C1.24001 49.137 1.15161 49.0047 1.09131 48.8591C1.031 48.7135 1 48.5575 1 48.3999V2.19989C1 2.0423 1.031 1.88625 1.09131 1.74066C1.15161 1.59507 1.24001 1.46281 1.35144 1.35138C1.46287 1.23995 1.59519 1.15155 1.74078 1.09125C1.88637 1.03094 2.04243 0.999907 2.20001 0.999907H23.7C23.8466 0.994027 23.9929 1.01754 24.1303 1.06906C24.2677 1.12058 24.3934 1.19906 24.5 1.29989L36.6 13.4999C36.7306 13.5868 36.8362 13.7063 36.9064 13.8467C36.9765 13.987 37.0088 14.1433 37 14.2999V48.3999C37 48.7182 36.8735 49.0234 36.6485 49.2484C36.4235 49.4735 36.1182 49.5999 35.8 49.5999H5.89996Z" fill="#F9F9F9"/>
  <path d="M1 11.7999V2.19989C1 1.88163 1.1264 1.57642 1.35144 1.35138C1.57648 1.12633 1.88175 0.999907 2.20001 0.999907H23.7C23.8466 0.994027 23.9929 1.01754 24.1303 1.06906C24.2677 1.12058 24.3934 1.19906 24.5 1.29989L36.6 13.4999C36.7306 13.5868 36.8362 13.7063 36.9064 13.8467C36.9765 13.987 37.0088 14.1433 37 14.2999V48.3999C37 48.7182 36.8735 49.0234 36.6485 49.2484C36.4235 49.4735 36.1182 49.5999 35.8 49.5999H32.9" stroke="#2A2A2A" stroke-width="2" stroke-miterlimit="10"/>
  <path d="M5 49.5998H2.20001C1.88175 49.5998 1.57648 49.4734 1.35144 49.2483C1.1264 49.0233 1 48.7181 1 48.3998V31.7998" stroke="#2A2A2A" stroke-width="2" stroke-miterlimit="10"/>
  <path d="M23.2 45.8998V35.3998C23.2 35.321 23.1844 35.243 23.1543 35.1702C23.1241 35.0974 23.0799 35.0313 23.0242 34.9756C22.9685 34.9198 22.9024 34.8756 22.8296 34.8455C22.7568 34.8153 22.6788 34.7998 22.6 34.7998H15.4C15.3212 34.7998 15.2431 34.8153 15.1703 34.8455C15.0975 34.8756 15.0314 34.9198 14.9757 34.9756C14.92 35.0313 14.8758 35.0974 14.8456 35.1702C14.8155 35.243 14.8 35.321 14.8 35.3998V45.8998C14.8 46.0589 14.7368 46.2115 14.6243 46.3241C14.5117 46.4366 14.3591 46.4998 14.2 46.4998H8.70001C8.58819 46.5083 8.48096 46.548 8.39056 46.6144C8.30016 46.6807 8.23018 46.7711 8.18853 46.8752C8.14688 46.9794 8.13527 47.0931 8.15496 47.2035C8.17466 47.3139 8.2249 47.4165 8.29998 47.4998L18.6 57.7998C18.71 57.8982 18.8524 57.9526 19 57.9526C19.1476 57.9526 19.29 57.8982 19.4 57.7998L29.7 47.4998C29.7751 47.4165 29.8253 47.3139 29.845 47.2035C29.8647 47.0931 29.853 46.9794 29.8114 46.8752C29.7697 46.7711 29.6998 46.6807 29.6094 46.6144C29.519 46.548 29.4118 46.5083 29.3 46.4998H23.8C23.6409 46.4998 23.4882 46.4366 23.3757 46.3241C23.2632 46.2115 23.2 46.0589 23.2 45.8998Z" fill="#66CFD6"/>
  <path d="M25.4 13.8H37L24.2 1V12.5C24.1862 12.6658 24.2069 12.8326 24.261 12.99C24.315 13.1473 24.4012 13.2917 24.5141 13.4139C24.6269 13.5362 24.764 13.6336 24.9165 13.7001C25.069 13.7665 25.2336 13.8006 25.4 13.8Z" fill="#D9D9D9" stroke="#2A2A2A" stroke-width="2" stroke-linecap="round" stroke-linejoin="round"/>
</svg>