<svg xmlns="http://www.w3.org/2000/svg" xml:space="preserve" fill="currentColor" viewBox="0 0 248.5 222.9">
  <title>Italian Agency for Development Cooperation</title>
  <path d="M71.5 123.2c-3.9-.6-7.7-2.3-11.2-4.5-1.7-1.2-3.3-2.5-4.8-3.9s-2.8-3-4.1-4.6c-5-6.6-8.2-14.4-9.7-22.4-.4-2-.6-4-.8-6l-.1-1.4-.1-1.3-.3-2.6C40 73 39 69.7 37.9 66.4c-.6-1.7-1.3-3.2-2-4.8-.7-1.6-1.6-3.2-2.6-4.6-.9-1.5-2-3-3.2-4.4-.6-.7-1.2-1.4-1.9-2-.7-.7-1.4-1.2-2.2-1.8l.2-.5c1.9.6 3.5 1.7 5.1 2.8 1.5 1.2 3 2.5 4.3 3.9 2.6 2.9 4.7 6.1 6.3 9.6 1.7 3.5 2.8 7.2 3.6 10.9.4 1.9.7 3.8.9 5.7.2 1.9.5 3.8.9 5.6 1.4 7.4 3.9 14.7 8 21.1 4 6.4 9.7 11.7 16.7 14.9l-.5.4zM24.6 31.6c1.2-.9 2.4-1.8 3.7-2.6 1.3-.8 2.7-1.4 4.1-2.1 2.8-1.2 5.8-2.1 9-2.5 3.2-.4 6.6 0 9.7.9 3.1.8 6 2.2 8.8 3.7 1.4.8 2.7 1.6 4 2.4 1.3.9 2.6 1.8 3.8 2.8l1.8 1.5c.6.5 1.2 1.1 1.7 1.6 1 .9 2 1.8 2.9 2.4 1.9 1.4 3.7 2.2 5.6 2.3 1.8.1 3.8-.4 5.9-1.4 1-.5 2.1-1.1 3.1-1.8.5-.4 1-.7 1.5-1.1l1.7-1.3c2.3-1.8 4.5-3.6 6.8-5.4 4.6-3.5 9.1-7.3 13.8-10.8 9.5-7 19-13.9 29-20.2l.4.4c-8.7 7.8-17.5 15.5-26.4 23.2-4.4 3.8-8.9 7.7-13.3 11.4-2.2 1.9-4.5 3.8-6.8 5.6-2.2 1.9-4.6 3.7-7.3 5-2.7 1.3-5.7 2.1-8.8 1.8-3-.3-5.9-1.7-8.2-3.5-2.4-1.8-4.2-4.1-6.5-6-2.2-1.9-4.5-3.7-7-5.2-4.9-3.1-10.4-5.5-16.2-5.3-5.8.1-11.5 2-16.6 4.7l-.2-.5zm102.3 15.2c3.4-5.3 7.4-9.9 11.6-14.3 4.2-4.4 8.6-8.4 13.2-12.3 4.6-3.8 9.4-7.4 14.5-10.7 5.1-3.3 10.3-6.3 16.2-8.7l.4.4-6.9 5.8-6.9 5.8-13.8 11.5-13.9 11.4-7 5.7-7 5.6-.4-.2zM146.2 63c3.3-5.3 7.3-9.9 11.4-14.3 4.1-4.4 8.5-8.5 13.1-12.3 4.6-3.8 9.4-7.5 14.4-10.7 5-3.3 10.3-6.4 16.1-8.8l.4.4-6.8 5.9L188 29l-13.7 11.6L160.5 52l-6.9 5.7-7 5.7-.4-.4zm21.6 16.3c3-5 6.6-9.3 10.3-13.3 3.7-4.1 7.8-7.8 12-11.3 4.2-3.5 8.6-6.8 13.3-9.7 4.7-3 9.5-5.7 15-7.7l.3.4-6.2 5.3-6.3 5.3-12.6 10.6L181 69.3l-6.4 5.2-6.4 5.1-.4-.3zm-8.5 36.8c4.1-6 8.8-11.3 13.7-16.4 4.9-5.1 10-9.9 15.4-14.4 5.3-4.5 10.9-8.8 16.7-12.8 5.8-4 11.8-7.8 18.4-10.9l.4.4-7.9 6.9-8 6.8-16 13.7-16.2 13.6-8.1 6.8-8.1 6.7-.3-.4z"/>
  <path fill="#ed1d24" fill-rule="evenodd" d="M41.1 40.1c0 1.3-1.1 2.4-2.4 2.4-1.3 0-2.4-1.1-2.4-2.4 0-1.3 1.1-2.4 2.4-2.4 1.4.1 2.4 1.1 2.4 2.4" clip-rule="evenodd"/>
  <path d="M21.3 148.1h2.1v20.5h-2.1zm4.8 2v-2h11.2v2h-4.6v18.6h-2v-18.6zm20.2-2 9.6 20.5h-2.2l-3.2-6.7h-8.9l-3.2 6.7h-2.3l9.7-20.5h.5zm-.2 4.4-3.5 7.4h7l-3.5-7.4zm13-4.4h2.1v18.6h7.9v2h-10zm13 0h2.1v20.5h-2.1zm15.1 0 9.6 20.5h-2.2l-3.2-6.7h-8.9l-3.2 6.7H77l9.7-20.5h.5zm-.2 4.4-3.5 7.4h7l-3.5-7.4zm13 16.2v-20.6h.5l13.6 15.8v-15.8h2v20.6h-.4l-13.6-15.6v15.6zm37.5-20.6 9.6 20.5h-2.2l-3.2-6.7h-8.9l-3.2 6.7h-2.3l9.7-20.5h.5zm-.3 4.4-3.5 7.4h7l-3.5-7.4zm34.1 6.3c0 6.5-4.2 10.3-10.3 10.3-7.1 0-11.6-5.1-11.6-10.7 0-5.8 4.5-10.8 11.3-10.8 3.8 0 6.7 1.4 9.4 4l-1.6 1.5c-2.3-2.3-5.1-3.5-7.8-3.5-4.9 0-9.2 3.8-9.2 8.7 0 4.7 4 8.9 9.5 8.9 3.9 0 7.4-2.3 7.9-6.5h-6.5v-2h8.9zm3.9-10.7h11.7v2h-9.7v6.5h9.7v2h-9.7v8.1h9.7v2h-11.7zm15.3 20.6v-20.6h.5l13.6 15.8v-15.8h2v20.6h-.4l-13.6-15.6v15.6zm40.3-3.6c-2.1 2.7-5.2 4.1-9 4.1-6.9 0-11.1-4.8-11.1-10.9 0-6.1 4.7-10.7 11.1-10.7 3.8 0 6.9 1.5 9 4.3l-1.6 1.2c-1.8-2.4-4.4-3.5-7.3-3.5-4.9 0-8.9 3.6-8.9 8.8 0 5.1 3.9 8.8 9.1 8.8 2.9 0 5.3-1.2 7.2-3.4l1.5 1.3zm9.1-6.2-6.6-10.8h2.4l5.2 8.5 5.2-8.5h2.4l-6.6 10.8v9.8h-2zM21.3 174h9.1v3.4h-5.7v3.2h5.7v3.4h-5.7v8.2h-3.4zm30.2 9.1c0 5.4-4.2 9.5-9.4 9.5-5.4 0-9.5-4.3-9.5-9.6 0-5.4 4.3-9.5 9.5-9.5 5 0 9.4 4.1 9.4 9.6m-15.4 0c0 3.7 2.8 6.2 6 6.2 3.3 0 5.9-2.7 5.9-6.2 0-3.4-2.5-6.2-6-6.2-3.2-.1-5.9 2.5-5.9 6.2m18.9-9.2h4.2c2.3 0 3.9.3 5.2 1.5.9.9 1.5 2.3 1.5 3.8 0 2.4-1.2 4-3.5 4.9l4.3 8.1h-3.8l-4.1-7.7h-.3v7.7H55v-18.3zm3.5 7.2h1.6c1.6 0 2.4-.6 2.4-1.9 0-1.2-.8-1.9-2.5-1.9h-1.5v3.8zm18.2-7.2H81c3.2 0 5.5.4 7.4 2.3 1.7 1.6 2.6 4.1 2.6 7 0 3.1-1.2 5.7-3.1 7.2-2.1 1.6-4.2 1.7-6.9 1.7h-4.4v-18.2zm3.4 3.5v11.4H82c1.9 0 3.2-.3 4.3-1.4.8-.9 1.3-2.4 1.3-4.2 0-3.8-2.1-5.9-6.1-5.9h-1.4zm14.3-3.4h10v3.4h-6.5v3.2h6.5v3.4h-6.5v4.8h6.5v3.4h-10zm11.8 0h3.6l4.6 12.9L119 174h3.6l-6.6 18.2h-3.3zm19.2 0h10v3.4h-6.5v3.2h6.5v3.4h-6.5v4.8h6.5v3.4h-10zm13.2 0h3.5v14.9h5v3.3h-8.5zm29.2 9.1c0 5.4-4.2 9.5-9.4 9.5-5.4 0-9.5-4.3-9.5-9.6 0-5.4 4.3-9.5 9.5-9.5 5 0 9.4 4.1 9.4 9.6m-15.4 0c0 3.7 2.8 6.2 6 6.2 3.3 0 5.9-2.7 5.9-6.2 0-3.4-2.5-6.2-6-6.2-3.2-.1-5.9 2.5-5.9 6.2m18.7-9.2h4.2c2.4 0 4 .4 5.2 1.5.9.9 1.5 2.3 1.5 3.8 0 1.9-.8 3.4-2.3 4.3-1.5.9-3.2.9-5.1.9v7.7h-3.5v-18.2zm3.5 7.2h1.6c1.6 0 2.4-.6 2.4-1.9 0-1.2-.9-1.9-2.5-1.9h-1.5v3.8zm12.5-7.1h3.4l4.2 12.7L199 174h3.3l3.1 18.2H202l-1.9-11.5-3.9 11.5h-3.1l-3.8-11.5-2 11.5h-3.4zm21.1 0h10v3.4h-6.5v3.2h6.5v3.4h-6.5v4.8h6.5v3.4h-10zm13.2 0h3.3l7.8 11.9V174h3.5v18.2h-3.3l-7.8-12v12h-3.5zm17 0h10.1v3.4h-3.4v14.8h-3.5v-14.8h-3.2zm-196 40.8c-2.2 2.8-5.5 4.3-9.4 4.3-7.2 0-11.6-5.1-11.6-11.4 0-6.4 4.9-11.2 11.6-11.2 4 0 7.3 1.6 9.4 4.5l-1.7 1.3c-1.9-2.5-4.6-3.7-7.7-3.7-5.1 0-9.4 3.8-9.4 9.3 0 5.3 4.1 9.2 9.5 9.2 3 0 5.6-1.2 7.6-3.6l1.7 1.3zm27.6-7.1c0 6.3-5 11.3-11.3 11.3-6.6 0-11.4-5.2-11.4-11.2 0-6.4 5-11.4 11.2-11.4 6.5 0 11.5 4.9 11.5 11.3m-20.5.1c0 5.3 4.2 9.1 9.1 9.1 5 0 9.2-3.8 9.2-9.2 0-5.5-4.4-9.2-9.2-9.2-4.8 0-9.1 3.8-9.1 9.3m48.1-.1c0 6.3-5 11.3-11.3 11.3-6.6 0-11.4-5.2-11.4-11.2 0-6.4 5-11.4 11.2-11.4 6.5 0 11.5 4.9 11.5 11.3m-20.5.1c0 5.3 4.2 9.1 9.1 9.1 5 0 9.2-3.8 9.2-9.2 0-5.5-4.4-9.2-9.2-9.2-4.8 0-9.1 3.8-9.1 9.3m26.3-10.8h5c2.3 0 3.9.1 5 .5 2.2.8 3.5 2.8 3.5 5.2 0 2-1 3.8-2.5 4.7-1.5 1-3.8 1.1-6.7 1.1h-2.1v10h-2.2V197zm2.1 2.1v7.3h3.6c1.9 0 3.3-.1 4.3-.9.8-.6 1.3-1.7 1.3-2.8 0-1.1-.5-2.2-1.4-2.8-1-.7-2.3-.8-3.9-.8h-3.9zm17.2-2.1H135v2.1h-10.2v6.7H135v2.1h-10.2v8.5H135v2.1h-12.3zm17.6 0h5c2.2 0 4 .1 5 .5 2.2.8 3.5 2.8 3.5 5.2 0 1.1-.1 1.7-.6 2.7-1.1 2.3-3.3 3.1-6.8 3.1l7.8 10h-2.7l-7.7-10h-1.2v10h-2.2V197zm2.2 2.1v7.3h3.6c1.9 0 3.3-.2 4.2-.9.8-.6 1.3-1.7 1.3-2.8 0-2.1-1.4-3.6-4.7-3.6h-4.4zm26.3-2.1 10.1 21.6h-2.3l-3.4-7.1h-9.3l-3.4 7.1H158l10.2-21.6h.6zm-.3 4.5-3.7 7.8h7.4l-3.7-7.8zm10.6-2.4V197h11.8v2.1h-4.8v19.4h-2.2v-19.4zm16.1-2.1h2.2v21.6h-2.2zm30.4 10.7c0 6.3-5 11.3-11.3 11.3-6.6 0-11.4-5.2-11.4-11.2 0-6.4 5-11.4 11.2-11.4 6.5 0 11.5 4.9 11.5 11.3m-20.5.1c0 5.3 4.2 9.1 9.1 9.1 5 0 9.2-3.8 9.2-9.2 0-5.5-4.4-9.2-9.2-9.2-4.8 0-9.1 3.8-9.1 9.3m26.3 10.7V197h.5l14.3 16.5V197h2.1v21.5h-.5l-14.2-16.3v16.3z"/>
  <path fill="#fff" d="M0 144.5h10.4v78.4H0z"/>
  <path fill="#009055" d="M0 144.5h3.6v78.4H0z"/>
  <path fill="#ed1d24" d="M6.8 144.5h3.6v78.4H6.8z"/>
</svg>