<svg width="52" height="46" viewBox="0 0 52 46" fill="none" xmlns="http://www.w3.org/2000/svg">
  <path d="M21.9003 25.588H15.6943C15.6939 23.5037 16.3128 21.4661 17.4727 19.7329C18.6325 17.9998 20.2813 16.6489 22.2103 15.8513C24.1394 15.0536 26.2622 14.8449 28.3101 15.2517C30.358 15.6584 32.239 16.6623 33.7153 18.1363L29.3572 22.511C28.7468 21.9004 27.9686 21.4843 27.1211 21.3154C26.2737 21.1466 25.3951 21.2326 24.5966 21.5625C23.7981 21.8924 23.1157 22.4514 22.6357 23.1687C22.1557 23.886 21.8998 24.7294 21.9003 25.592V25.588Z" fill="white"/>
  <path d="M44.2876 25.588H38.098C38.098 22.4568 36.8519 19.4539 34.6339 17.2399C32.4159 15.0258 29.4075 13.782 26.2708 13.782C23.134 13.782 20.1257 15.0258 17.9076 17.2399C15.6896 19.4539 14.4435 22.4568 14.4435 25.588H8.25391C8.25391 20.8182 10.1521 16.2438 13.5309 12.871C16.9097 9.4983 21.4924 7.60352 26.2708 7.60352C31.0491 7.60352 35.6318 9.4983 39.0106 12.871C42.3894 16.2438 44.2876 20.8182 44.2876 25.588V25.588Z" fill="white"/>
  <path d="M45.5591 25.5879C45.5666 28.1174 45.0711 30.6232 44.1012 32.9602C43.1314 35.2971 41.7065 37.4186 39.9092 39.2018L39.7007 39.4099L42.4766 45.3639L44.2836 43.5601C47.2473 40.6027 49.4344 36.9612 50.6511 32.9584C51.8679 28.9555 52.0767 24.7148 51.2591 20.6121C50.4415 16.5095 48.6226 12.6714 45.9638 9.43815C43.305 6.20487 39.8882 3.67617 36.0163 2.07612C32.1443 0.47607 27.9368 -0.145922 23.7665 0.265258C19.5962 0.676438 15.5918 2.10809 12.1083 4.43336C8.6248 6.75864 5.76966 9.90572 3.7959 13.5958C1.82214 17.2858 0.790701 21.4049 0.792972 25.5879H6.98256C6.98256 20.4816 9.01471 15.5843 12.632 11.9736C16.2492 8.36284 21.1553 6.33434 26.2708 6.33434C31.3864 6.33434 36.2925 8.36284 39.9097 11.9736C43.527 15.5843 45.5591 20.4816 45.5591 25.5879V25.5879Z" fill="white"/>
</svg>
