<svg fill="none" xmlns="http://www.w3.org/2000/svg" viewBox="0 0 113 57">
  <g clip-path="url(#a)">
    <path d="M14 50 1.8 28.8l-.1-.3H0V57h2V33.2l11.2 19.5.2.3h1.2l11.3-19.9V57h2V28.4h-1.6L14 50.1ZM53.3 38c0-6-4.2-9.6-11.2-9.6h-9.8V57h2v-9.3h7.8c7 0 11.2-3.6 11.2-9.6Zm-2 0c0 4.9-3.3 7.6-9.1 7.6h-7.9V30.4h7.9c5.9 0 9 2.7 9 7.6ZM63 28.4h-1.7L48.2 57h2.3l3.8-8.2H70l3.8 8.2H76L63 28.8v-.4Zm6 18.3H55.2l7-15 6.8 15ZM89.8 54c-.7.6-1.8 1-2.8 1-2.4 0-3.5-1.2-3.5-3.8V37.5h6.8v-2h-6.8v-4.4h-2v4.4h-4v2h4v14c0 3.4 2 5.5 5.4 5.5a6 6 0 0 0 4.4-1.6l.4-.5-1.4-1.4-.5.4ZM104.4 35.4c-3.4 0-6 1.3-7.8 3.6V26.8h-2v30.1h2V45.3c0-4.8 3.1-7.9 7.8-7.9 4.3 0 6.6 2.5 6.6 7v12.5h2V44.4c0-5.6-3.2-9-8.6-9Z" fill="#fff"/>
    <path opacity=".9" d="M56.5 0a23 23 0 0 1 21.3 14.4 23.4 23.4 0 0 1-5 25.3l-1 1.2-2.2-4.5A18.6 18.6 0 0 0 55 4.7a18.4 18.4 0 0 0-17 18h-4.7A23.4 23.4 0 0 1 56.5 0" fill="#186BB5"/>
    <path opacity=".9" d="M56.5 7a16.2 16.2 0 0 1 16.1 15.7H68a11.7 11.7 0 0 0-11.5-11.1 11.5 11.5 0 0 0-11.6 11.1h-4.6A16.4 16.4 0 0 1 56.5 7" fill="#619FCE"/>
    <path d="M56.5 14c2.2 0 4.4.8 6 2.3l-3.2 3.3a4.6 4.6 0 0 0-5.9.2c-.8.7-1.4 1.8-1.5 3h-4.7a9.3 9.3 0 0 1 9.3-8.8" fill="#9DDAE4"/>
  </g>
  <defs>
    <clipPath id="a">
      <path fill="#fff" d="M0 0h113v57H0z"/>
    </clipPath>
  </defs>
</svg>