<svg xmlns="http://www.w3.org/2000/svg" fill="currentColor" viewBox="0 0 168 49">
  <title>The Nature Conservancy</title>
  <path fill-rule="evenodd" d="M146.202 36.995c-.086-.025-.145-.042-.133-.03 0 0-10.578-1.478-11.16-3.948-.62-2.643-4.032-2.01-4.074-4.121-.019-1.052 1.267-.665 1.575-1.123.385-.58-.142-.825-1.748-1.782-4.238-2.528-3.624-6.51-2.936-7.132.892-.805 1.952.875 2.503.117.552-.759-2.581-5.044 4.034-9.916 0 0 .785 2.513 3.195 3.373 2.559.914-1.593 4.356-.69 6.666.509 1.298 1.543-.33 2.49-1.24.811-.783 1.933-2.781 3.341-2.344 1.24.384.809 1.996 1.087 2.852.361 1.114 1.256.764 1.74 1.735.467.932.135 1.323-1.279 2.533-2.583 2.22-1.351 4.688-.62 4.202 1.088-.725.884-1.521 2.65-1.618 1.326-.074 1.782 1.222 1.428 2.158-.357.935-.566 1.234-.351 1.906.546 1.72.225 1.193-.675 2.757-.77 1.335-.743 2.591.158 4.724 3.258 1.644 2.864-1.488 5.764-.831 6.497 1.471 2.967-.63 4.072-1.7 1.004-.973 1.591-.112 2.944-.65 2.004-1.247 2.196-1.67 4.835.381a21.695 21.695 0 0 0 3.355-11.605 21.69 21.69 0 0 0-2.571-10.263c-.92-.85-1.678-1.38-1.458-.011.125.754 3.477 6.96-1.554 11.756l-.011-.131c-.056-.567-.4-2.794-2.368-3.088-2.396-.356-.405-3.991-1.571-5.69-1.643-2.389-2.068.892-2.645 1.61-.59.736-3.028 2.102-3.028.216 0-2.146-1.517-2.413-2.099-3.11-.559-.672-.329-1.027.716-2.19 1.915-2.121.538-3.455-.022-2.966-.84.728-.64.886-2.177 1.215-1.151.248-1.097-1.707-.958-2.502.795-4.536-2.242-6.258-6.594-6.345-10.149 1.975-17.803 10.848-17.803 21.5 0 12.105 9.88 21.916 22.07 21.916 3.008 0 5.877-.6 8.49-1.684-3.078.71-4.81-.452-4.979-.898-.332-.877 2.252-.28-.183-1.523-1.471-.751-2.1-2.244-2.257-2.896l-.503-.277" clip-rule="evenodd"/>
  <path fill-rule="evenodd" d="M147.445 37.667s-14.508-5.593-15.012-19.767c0 0 1.402 10.776 15.012 19.766v.002ZM147.337.48c.415.044 3.539.457 6.838 2.549 1.226 1.14 2.963 3.939.282 9.676 0 0 3.435-4.603 2.567-7.397 2.881 2.868 5.303 7.417 5.394 14.626 0 0 3.202-18.06-15.081-19.454Zm14.501 35.82c-1.106.667-2.902 2.239-5.836 1.32 0 0 1.148.876 2.995.829-2.356 1.207-4.909 1.496-8.951.492 0 0 8.183 4.793 13.9-4.38 0 0-1.419 1.324-2.107 1.738M7.33 16.946c0 1.58.301 2.017 1.431 2.017v.391H4.073v-.391c.947 0 1.502-.276 1.502-2.086V6.86H3.658c-1.776 0-2.585.502-2.7 1.878H.566V5.737h.392c.184.16.394.273.717.365.3.073.714.114 1.27.114H9.87c1.153 0 1.685-.137 2.1-.48h.414v3.002h-.252C11.875 7.639 11.44 6.86 9.34 6.86H7.33v10.086Zm14.27.456c0 1.24.23 1.56 1.314 1.56v.391h-4.247v-.39c1.111 0 1.363-.254 1.363-1.307v-4.01c0-1.08-.645-1.767-1.637-1.767-.925 0-1.595.436-2.38 1.537v4.448c0 .845.345 1.098 1.36 1.098v.391H12.99v-.39c1.223-.024 1.456-.254 1.456-1.56V6.835c0-1.054-.303-1.215-1.456-1.215v-.388l2.631-.277h.393v7.68c1.038-1.193 1.8-1.627 2.86-1.627 1.365 0 2.726.894 2.726 2.818v3.576Zm8.276-3.39c.069-1.79-1.155-2.522-2.195-2.522-1.36 0-2.17 1.008-2.262 2.522h4.457Zm-4.457.39c-.044 3.643 2.147 4.56 3.255 4.56 1.134 0 1.709-.389 2.888-1.696v.598c-.993 1.26-1.943 1.738-3.37 1.738-2.564 0-4.412-1.762-4.412-4.217 0-2.449 1.8-4.375 4.108-4.375 1.894 0 3.649 1.513 3.535 3.392h-6.004Zm27.233 9.877h-.621L37.247 6.185h-.074v14.607c0 2.107.843 2.87 2.746 2.87v.617h-6.367v-.618c1.753 0 2.595-.544 2.595-3.56V7.93c0-2.326-.622-3.634-3.11-3.853V3.46h5.378l13.103 16.204h.073V7.493c0-2.725-.733-3.416-2.56-3.416v-.616h6.33v.616c-2.048 0-2.708.837-2.708 3.27v16.932ZM72 11.38h4.5v.944H72v8.286c0 1.78.914 2.689 2.34 2.689.953 0 1.65-.365 2.416-1.236l.403.471c-1.135 1.417-2.451 2.143-3.916 2.143-2.194 0-3.732-1.525-3.732-3.742v-8.611H67.06v-.616c1.755-.872 3.218-2.436 4.318-4.652h.62v4.324H72Zm19.25 10.465c0 1.418.477 1.817 2.232 1.817v.618l-4.72.254v-2.361h-.072c-1.282 1.671-2.781 2.506-4.538 2.506-2.563 0-4.244-1.925-4.244-4.323v-6.577c0-1.235-.44-1.707-2.307-1.707v-.619l4.173-.399h.622v9.192c0 1.817 1.17 2.907 2.927 2.907 1.243 0 2.378-.69 3.44-2.107v-6.94c0-1.78-.294-1.997-2.525-2.034v-.619l4.39-.399h.623v10.79Zm8.041 0c0 1.418.439 1.817 2.158 1.817v.618h-6.842v-.618c1.977 0 2.197-.509 2.197-2.47V14.18c0-1.89-.478-2.108-2.672-2.108v-.619l4.537-.399h.623v2.798c2.415-2.07 3.549-2.797 4.428-2.797.732 0 1.72.437 2.379 1.017l-.989 2.289c-1.06-.581-2.197-1.126-3.074-1.126-.842 0-1.575.436-2.745 1.562v7.048Zm16.67-6.03c.11-2.835-1.83-3.998-3.478-3.998-2.157 0-3.439 1.6-3.585 3.998h7.063Zm-7.063.618c-.073 5.777 3.402 7.23 5.161 7.23 1.792 0 2.705-.619 4.573-2.69v.946c-1.573 1.998-3.075 2.76-5.343 2.76-4.063 0-6.991-2.797-6.991-6.685 0-3.887 2.855-6.94 6.516-6.94 3 0 5.78 2.398 5.598 5.379h-9.514ZM13.607 29.384c-.766-2.937-2.383-4.217-5.094-4.217-3.782 0-5.81 3.02-5.81 7.02 0 4.677 2.438 7.75 5.972 7.75 2.466 0 4.302-1.142 5.48-3.427l.41.38c-1.04 2.475-3.533 4.026-6.547 4.026-3.78 0-7.726-2.558-7.726-7.752 0-4.949 3.426-8.595 8.11-8.595 1.973 0 3.452.654 4.382.654.413 0 .685-.165.85-.49h.439v4.65h-.468l.002.001Zm7.252 1.796c-2.052 0-3.288 1.794-3.288 4.567 0 2.477 1.041 4.544 3.288 4.544 2.3 0 3.287-2.203 3.287-4.544 0-2.42-1.04-4.567-3.287-4.567Zm0 9.655c-3.041 0-5.314-2.176-5.314-5.087 0-2.936 2.274-5.113 5.314-5.113 3.041 0 5.314 2.177 5.314 5.112 0 2.912-2.273 5.088-5.314 5.088Zm16.57-2.392c0 1.249.274 1.63 1.643 1.63v.464h-5.176v-.464c1.314 0 1.67-.3 1.67-1.196v-5.032c0-1.548-1.124-2.201-2.164-2.201-.959 0-1.808.597-2.767 1.875v4.706c0 1.468.191 1.85 1.644 1.85v.463h-5.123v-.464c1.287 0 1.615-.11 1.615-1.849v-5.413c0-1.169-.3-1.414-1.615-1.414v-.462l3.012-.3h.467v1.928c1.15-1.303 2.274-1.929 3.506-1.929 1.615 0 3.288 1.144 3.288 3.454v4.353Zm8.018-4.844c-.192-1.604-1.26-2.42-2.412-2.42-.958 0-1.617.518-1.617 1.305 0 2.449 5.096 1.795 5.096 5.385 0 1.606-1.396 2.966-3.068 2.966-1.069 0-1.999-.709-2.465-.709-.355 0-.604.301-.632.654h-.464v-3.29h.465c.413 2.012 1.92 2.801 3.124 2.801.96 0 1.7-.708 1.7-1.66 0-2.69-5.152-1.958-5.152-5.22 0-1.497 1.344-2.775 2.959-2.775 1.016 0 1.316.464 1.974.464.245 0 .437-.137.574-.464h.466V33.6h-.548Zm9.334.598c.081-2.121-1.37-2.99-2.603-2.99-1.617 0-2.574 1.197-2.686 2.99h5.289Zm-5.29.464c-.053 4.324 2.55 5.412 3.864 5.412 1.343 0 2.028-.462 3.425-2.012v.705c-1.179 1.496-2.302 2.07-4 2.07-3.04 0-5.233-2.095-5.233-5.007 0-2.91 2.136-5.194 4.876-5.194 2.246 0 4.33 1.797 4.192 4.026h-7.123Zm11.952 4.053c0 1.06.328 1.36 1.617 1.36v.463h-5.124v-.464c1.479 0 1.643-.381 1.643-1.849v-5.25c0-1.413-.357-1.576-1.999-1.576v-.462l3.396-.3h.467v2.093c1.808-1.55 2.656-2.094 3.315-2.094.548 0 1.286.328 1.78.762l-.74 1.712c-.795-.433-1.644-.842-2.302-.842-.63 0-1.177.327-2.053 1.17v5.278Zm11.56-.518 1.89-4.87c.467-1.25.467-1.819-.958-1.928v-.462h3.561v.462c-1.123.109-1.396.352-1.863 1.385l-3.124 7.97h-.464l-3.097-7.562c-.657-1.575-.905-1.74-2.054-1.793v-.462h4.684v.462c-.932.082-1.177.597-.74 1.657l2.164 5.14Zm23.83.247c0 1.249.275 1.63 1.643 1.63v.464H93.3v-.464c1.315 0 1.67-.3 1.67-1.196v-5.032c0-1.548-1.125-2.201-2.165-2.201-.959 0-1.806.597-2.766 1.875v4.706c0 1.468.192 1.85 1.645 1.85v.463H86.56v-.464c1.288 0 1.617-.11 1.617-1.849v-5.413c0-1.169-.303-1.414-1.617-1.414v-.462l3.013-.3h.466v1.928c1.151-1.303 2.274-1.929 3.506-1.929 1.618 0 3.287 1.144 3.287 3.454v4.353Zm10.782-4.409h-.468c-.412-1.738-1.643-2.854-3.26-2.854-1.916 0-3.259 1.631-3.259 3.996 0 2.639 1.67 4.844 3.643 4.844 1.178 0 2.603-.626 3.616-2.014v.708c-1.04 1.413-2.52 2.122-4.272 2.122-2.878 0-4.878-1.987-4.878-4.87 0-2.965 2.247-5.33 5.013-5.33 1.453 0 2.247.544 2.741.544.244 0 .493-.19.657-.545h.467v3.4Zm6.957 4.27 1.7-5.086c.384-1.142.302-1.767-.766-1.82v-.462h3.424v.462c-1.042 0-1.671.653-2.219 2.257l-3.863 11.342c-.768 2.23-2.028 3.508-3.207 3.508-.409 0-.711-.108-1.205-.407l.631-1.659c.382.163.6.217.931.217 1.176 0 1.863-.68 2.465-2.367l1.262-3.482-3.48-7.969c-.494-1.115-.851-1.413-1.974-1.44v-.462h4.657v.462c-.74.109-1.041.653-.684 1.467l2.327 5.44h.001ZM62.794 21.663c-.512 1.09-1.903 1.636-2.67 1.636-1.062 0-1.977-1.055-1.977-2.363 0-2.617 2.195-2.578 4.648-3.633v4.36Zm2.484-.186.005-5.7c0-3.487-2.524-4.724-4.686-4.724-2.341 0-4.243 1.564-4.793 3.962l.66.18c.55-1.852 1.975-2.759 3.44-2.759 1.828 0 2.89 1.307 2.89 3.125v.942c-2.12 1.238-7.173 1.091-7.173 4.76 0 1.89 1.683 3.415 3.696 3.415 1.356 0 2.349-.53 3.631-1.911l.007-.005v1.548h4.547v-.626c-1.852 0-2.224-.516-2.224-2.207Zm17.436 17.09c-.378.808-1.41 1.212-1.98 1.212-.787 0-1.465-.78-1.465-1.751 0-1.94 1.627-1.91 3.445-2.693v3.232Zm1.84-.14.006-4.225c0-2.584-1.873-3.501-3.475-3.501-1.735 0-3.145 1.158-3.553 2.937l.49.135c.406-1.375 1.464-2.048 2.55-2.048 1.355 0 2.141.97 2.141 2.317v.699c-1.572.917-5.317.81-5.317 3.53 0 1.4 1.249 2.53 2.74 2.53 1.005 0 1.742-.394 2.693-1.417l.005-.003v1.147h3.368v-.465c-1.372 0-1.649-.38-1.649-1.636h.002Z" clip-rule="evenodd"/>
</svg>