<?xml version="1.0" encoding="utf-8"?>
<!-- Generator: Adobe Illustrator 26.0.3, SVG Export Plug-In . SVG Version: 6.00 Build 0)  -->
<svg version="1.1" id="Capa_1" xmlns="http://www.w3.org/2000/svg" xmlns:xlink="http://www.w3.org/1999/xlink" x="0px" y="0px"
	 viewBox="0 0 166 113.4" style="enable-background:new 0 0 166 113.4;" xml:space="preserve">
<g>
	<path d="M6.9,42c0,3.7,1.8,5.8,5.2,5.8c3.7,0,5.9-1.6,5.9-6v-9.9c0-1.8-1-2.1-3-2.2v-1.5H23v1.5c-2,0.1-2.9,0.4-2.9,2.2v10.6
		c0,5.2-3.9,7.7-8.4,7.7c-5.4,0-8.8-2.4-8.8-7.7V31.8C2.9,30,2,29.7,0,29.6v-1.5h9.8v1.5c-2,0.1-2.9,0.4-2.9,2.2V42L6.9,42z"/>
	<path d="M37.2,38.4c0-1.9-0.8-2.7-2.6-2.7c-1.5,0-3,0.6-4,1.3v9.7c0,1.4,0.8,1.6,2.2,1.8v1.4h-8.1v-1.4c1.4-0.2,2.2-0.3,2.2-1.8
		V36.6l-2.1-1.3v-0.8l4.9-1.6h0.9v3.2c1.4-1.5,3.3-3.1,5.9-3.1c2.8,0,4.5,1.5,4.5,5.1v8.7c0,1.4,0.8,1.6,2.2,1.8v1.4H35v-1.4
		c1.4-0.2,2.2-0.3,2.2-1.8V38.4L37.2,38.4z"/>
	<path d="M51,46.7c0,1.4,0.8,1.6,2.2,1.8v1.4h-8.2v-1.4c1.4-0.2,2.2-0.3,2.2-1.8V36.6l-2.1-1.3v-0.7l4.9-1.5H51V46.7L51,46.7z
		 M46.7,28.8c0-1.3,1-2.3,2.4-2.3c1.4,0,2.3,1.1,2.3,2.3c0,1.3-1,2.3-2.3,2.3C47.7,31.1,46.7,30.1,46.7,28.8L46.7,28.8z"/>
	<path d="M71.3,34.6c-1.3,0.5-1.5,0.6-1.8,1.2l-6.3,14.2h-1l-6.5-14.2c-0.3-0.6-0.5-0.7-1.8-1.2v-1.4h8.2v1.4
		c-1.6,0.2-2.2,0.4-2.2,1.1c0,0.2,0.1,0.5,0.2,0.9l3.4,8.4l3.5-8.4c0.2-0.4,0.2-0.6,0.2-0.9c0-0.7-0.6-0.9-2.2-1.1v-1.4h6.1V34.6
		L71.3,34.6z"/>
	<path d="M85.8,39.9v1H75c0,3.7,2.1,6.2,5.4,6.2c2.2,0,3.6-1,4.8-2.5l0.7,0.4c-0.8,3-3.1,5.1-6.7,5.1c-4.5,0-7.4-3.4-7.4-8.1
		c0-5.5,3.3-9.1,7.7-9.1C83.6,33,85.8,35.9,85.8,39.9L85.8,39.9z M75.1,39.4h7.2c0-2.8-1.1-4.7-3.4-4.7
		C76.7,34.7,75.4,36.9,75.1,39.4L75.1,39.4z"/>
	<path d="M94.2,38c1.8-3.8,2.7-5,4.7-5c0.6,0,1,0.2,1.2,0.4v3.4h-0.7c-1.9,0-3.4,0.2-5.2,2.2v7.6c0,1.5,0.7,1.6,2.8,1.8v1.4h-8.8
		v-1.4c1.4-0.2,2.2-0.3,2.2-1.8V36.6l-2.1-1.3v-0.8l4.9-1.6h0.9V38L94.2,38z"/>
	<path d="M101.9,48.6l-0.2-4h1.6c0.6,2.5,2,4,4.5,4c1.8,0,3-0.8,3-2.3c0-1.8-1.2-2.4-4-3.2c-3.1-0.9-4.9-2.2-4.9-5.1
		c0-3,2.2-5,5.7-5c2.1,0,3.9,0.5,5.3,1.3V38h-1.6c-0.5-2.3-1.7-3.4-3.8-3.4c-1.6,0-2.5,1-2.5,2.2c0,1.5,1,2.3,3.6,3
		c3.2,0.9,5.4,1.9,5.4,5.2c0,3.1-2.3,5.2-6.1,5.2C105.5,50.2,103.4,49.7,101.9,48.6L101.9,48.6z"/>
	<path d="M122.1,46.7c0,1.4,0.8,1.6,2.2,1.8v1.4h-8.2v-1.4c1.4-0.2,2.2-0.3,2.2-1.8V36.6l-2.1-1.3v-0.7l4.9-1.5h0.9V46.7L122.1,46.7
		z M117.8,28.8c0-1.3,1-2.3,2.4-2.3c1.4,0,2.3,1.1,2.3,2.3c0,1.3-1,2.3-2.3,2.3C118.8,31.1,117.8,30.1,117.8,28.8L117.8,28.8z"/>
	<path d="M131.7,33.3h4.5v1.9h-4.5v10.4c0,1.6,0.7,2.2,2.3,2.2c0.9,0,1.9-0.2,2.7-0.6l0.4,1c-1.2,1.3-2.9,2.1-5,2.1
		c-2.5,0-4-1.2-4-4v-11h-2.2V34c1.7-0.9,3.4-2.3,4.8-4.3h1.1V33.3L131.7,33.3z"/>
	<path d="M151.3,45.8c0,1.2,0.4,1.9,1.3,1.9c0.3,0,1-0.1,1.4-0.2l0.2,1c-1,1.1-2.2,1.6-3.5,1.6c-1.6,0-2.5-1.1-2.9-2.8
		c-1.1,1.3-2.7,2.8-5.1,2.8c-2.8,0-4.2-1.9-4.2-4.2c0-2.8,2.2-3.8,4.3-4.5l4.9-1.8V38c0-2-0.6-3.4-2.7-3.4c-1.5,0-2.3,0.7-2.3,2.2
		c0,0.6,0.1,1.1,0.2,1.8l-2.7,0.4c-0.6-0.4-0.9-1-0.9-1.8c0-2.7,2.6-4.1,6.2-4.1c3.8,0,5.8,1.7,5.8,5.7
		C151.4,39.4,151.3,44.8,151.3,45.8L151.3,45.8z M147.7,46.5v-5.4l-3.6,1.4c-1.1,0.4-1.8,1.3-1.8,2.4c0,1.7,0.8,2.7,2.3,2.7
		C145.8,47.6,146.6,47.3,147.7,46.5L147.7,46.5z"/>
	<path d="M160.7,33.3h4.5v1.9h-4.5v10.4c0,1.6,0.7,2.2,2.3,2.2c0.9,0,1.9-0.2,2.7-0.6l0.4,1c-1.2,1.3-2.9,2.1-5,2.1
		c-2.5,0-4-1.2-4-4v-11h-2.2V34c1.7-0.9,3.4-2.3,4.8-4.3h1.1V33.3L160.7,33.3z"/>
	<path d="M12.4,80.3c-1.2,1.7-2.7,2.8-5.1,2.8c-4.1,0-6.5-3.3-6.5-7.8c0-5.8,3.5-9.3,8.1-9.3c1.5,0,2.9,0.5,3.6,1.4v-4.6l-2.1-1.3
		v-0.8l5-1.5h0.8v19.8c0,1.1,0.3,1.4,1.6,1.5l0.8,0.1v1.4l-5.4,1.1h-0.7V80.3L12.4,80.3z M4.6,74.1c0,3.6,1.5,6.5,4.5,6.5
		c1.3,0,2.5-0.5,3.3-1.2v-7.8c0-2.7-1.3-3.9-3.4-3.9C6.3,67.7,4.6,70.3,4.6,74.1L4.6,74.1z"/>
	<path d="M34.6,72.9v1H23.8c0,3.7,2.1,6.2,5.4,6.2c2.2,0,3.6-1,4.8-2.5l0.7,0.4c-0.8,3-3.1,5.1-6.7,5.1c-4.5,0-7.4-3.4-7.4-8.1
		c0-5.5,3.3-9.1,7.7-9.1C32.4,66,34.6,69,34.6,72.9L34.6,72.9z M23.9,72.4h7.2c0-2.8-1.1-4.7-3.4-4.7C25.5,67.7,24.1,69.9,23.9,72.4
		L23.9,72.4z"/>
	<path d="M54.7,60.9c3.2,0,5.5,0.8,7,2v4.8H60c-0.8-3.4-2.7-5.1-5.5-5.1c-4.5,0-6.6,4.1-6.6,8.9c0,5.6,2.2,9.8,6.9,9.8
		c1.6,0,2.6-0.3,3.6-1v-4.2c0-1.8-0.8-2.1-2.8-2.2v-1.5h9.2v1.5c-2,0.1-2.7,0.4-2.7,2.2V81c-2,1.4-4.6,2.2-7.7,2.2
		c-6.8,0-10.8-4.4-10.8-10.7C43.7,65.3,48.7,60.9,54.7,60.9L54.7,60.9z"/>
	<path d="M72.6,79.7c0,1.4,0.8,1.6,2.2,1.8v1.4h-8.2v-1.4c1.4-0.2,2.2-0.3,2.2-1.8V69.6l-2.1-1.3v-0.7l4.9-1.5h0.9V79.7L72.6,79.7z
		 M68.2,61.8c0-1.3,1-2.3,2.4-2.3c1.4,0,2.3,1.1,2.3,2.3s-1,2.3-2.3,2.3C69.2,64.1,68.2,63.1,68.2,61.8L68.2,61.8z"/>
	<path d="M82.9,71c1.8-3.8,2.7-5,4.7-5c0.6,0,1,0.2,1.2,0.4v3.4h-0.7c-1.9,0-3.4,0.2-5.2,2.2v7.6c0,1.5,0.7,1.6,2.8,1.8v1.4h-8.8
		v-1.4c1.4-0.2,2.2-0.3,2.2-1.8V69.6l-2.1-1.3v-0.8l4.9-1.6h0.9V71L82.9,71z"/>
	<path d="M90.4,74.9c0-5.4,3.6-8.9,8.1-8.9c4.8,0,7.8,3.5,7.8,8.3c0,5.4-3.6,8.9-8.1,8.9C93.4,83.2,90.4,79.7,90.4,74.9L90.4,74.9z
		 M102.4,75c0-4-1.6-7.3-4.4-7.3c-2.6,0-3.8,2.6-3.8,6.4c0,4,1.6,7.3,4.4,7.3C101.1,81.4,102.4,78.8,102.4,75L102.4,75z"/>
	<path d="M121.3,71.4c0-1.9-0.8-2.7-2.6-2.7c-1.5,0-3,0.6-4,1.3v9.7c0,1.4,0.8,1.6,2.2,1.8v1.4h-8.1v-1.4c1.4-0.2,2.2-0.3,2.2-1.8
		V69.6l-2.1-1.3v-0.8l4.9-1.6h0.9v3.2c1.4-1.5,3.3-3.1,5.9-3.1c2.8,0,4.4,1.5,4.4,5.1v8.7c0,1.4,0.8,1.6,2.2,1.8v1.4h-8.2v-1.4
		c1.4-0.2,2.2-0.3,2.2-1.8V71.4L121.3,71.4z"/>
	<path d="M142,78.8c0,1.2,0.4,1.9,1.3,1.9c0.3,0,1-0.1,1.4-0.2l0.2,1c-1,1.1-2.2,1.6-3.5,1.6c-1.6,0-2.5-1.1-2.9-2.8
		c-1.1,1.3-2.8,2.8-5.1,2.8c-2.8,0-4.2-1.9-4.2-4.2c0-2.8,2.2-3.8,4.3-4.5l4.9-1.8V71c0-2-0.6-3.4-2.7-3.4c-1.5,0-2.3,0.7-2.3,2.2
		c0,0.6,0.1,1.1,0.2,1.8l-2.7,0.4c-0.6-0.4-0.9-1-0.9-1.8c0-2.7,2.6-4.1,6.2-4.1c3.8,0,5.8,1.7,5.8,5.7
		C142.1,72.4,142,77.9,142,78.8L142,78.8z M138.4,79.5v-5.4l-3.6,1.4c-1.1,0.4-1.8,1.3-1.8,2.4c0,1.7,0.8,2.7,2.3,2.7
		C136.5,80.6,137.3,80.3,138.4,79.5L138.4,79.5z"/>
	<path d="M33.4,0c0.7,3.4,2.6,5.9,7.1,5.9h15.8c5.6,0,9.1,4.9,9.1,11.6H64c-0.4-4.1-2.2-6.5-7-6.5h-16c-4.9,0-6.6-2.4-8-7.2
		c-1.4,4.8-3.1,7.2-8,7.2h-16c-4.8,0-6.6,2.4-7,6.5H0.6c0-6.8,3.5-11.6,9.1-11.6h15.8c4.6,0,6.4-2.5,7.1-5.9H33.4L33.4,0z"/>
	<path d="M32.7,113.4c-0.7-3.4-2.6-5.9-7.1-5.9H9.7c-5.6,0-9.1-4.9-9.1-11.6h1.5c0.4,4.1,2.2,6.5,7,6.5h16c4.9,0,6.6,2.4,8,7.2
		c1.4-4.8,3.1-7.2,8-7.2h16c4.8,0,6.6-2.4,7-6.5h1.5c0,6.8-3.5,11.6-9.1,11.6H40.5c-4.6,0-6.4,2.5-7.1,5.9H32.7L32.7,113.4z"/>
</g>
</svg>
