<svg version="1.1" id="Layer_1" xmlns="http://www.w3.org/2000/svg" xmlns:xlink="http://www.w3.org/1999/xlink" x="0px" y="0px"
	 viewBox="0 0 300 200" style="enable-background:new 0 0 300 200;" xml:space="preserve">
<title>UN Environment Programme</title>
<g>
	<g>
		<g>
			<g>
				<g>
					<g>
						<path class="st0" d="M189.4,85.9c-9-2.7-15.5-11-15.5-20.9c0-1.8,0.2-3.5,0.6-5.2l14.2,1.8c0,0,5.4,0.2,5.2,9.9
							C193.7,80.8,189.4,85.9,189.4,85.9z"/>
						<path class="st0" d="M202,85.9c9-2.7,15.5-11,15.5-20.9c0-1.8-0.2-3.5-0.6-5.2l-14.2,1.8c0,0-5.4,0.2-5.2,9.9
							C197.7,80.8,202,85.9,202,85.9z"/>
						<path class="st0" d="M195.7,49.3c1.8,0,3.3,1.5,3.3,3.3c0,1.4-1,2.5-2.2,3.1c-0.1,0.1-0.3,0.1-0.2,0.4s0.7,0.4,1,0.4l19.1,2.2
							c-2.7-9-11-15.6-20.9-15.6l0,0c-9.9,0-18.2,6.6-20.9,15.6l19.1-2.2c0.3-0.1,1-0.2,1-0.4s-0.1-0.3-0.2-0.4
							c-1.2-0.6-2.2-1.7-2.2-3.1C192.4,50.8,193.9,49.3,195.7,49.3L195.7,49.3z"/>
					</g>
					<g>
						<path class="st0" d="M204.4,101.3l1.3-0.8c0,0-6.1-8.3-19.8-8.3c-7,0-10.6,2.8-15.6,2.8c0,0-2,0.2-3.9-1c0,0,2.3,3.4,10.8,3.4
							c6.2,0,10.6-3.6,15-3.6C198.1,93.8,202.6,99.1,204.4,101.3z"/>
					</g>
					<g>
						<path class="st0" d="M185.4,101.3l-1.3-0.8c0,0,6.1-8.3,19.8-8.3c7,0,10.6,2.8,15.6,2.8c0,0,2,0.2,3.9-1c0,0-2.3,3.4-10.8,3.4
							c-6.2,0-10.6-3.6-15-3.6C191.7,93.8,187.2,99.1,185.4,101.3z"/>
					</g>
					<path class="st0" d="M178.9,91.5c-0.2,0.6-2.9-0.1-4.6,0.4c-2,0.6-12.4,1.8-17-9c0,0,4.4,4.7,7.7,5c3.4,0.3,7.1,1.1,10.2,2.9
						l0.7,0.2c0,0-0.1-0.3-0.4-0.5c-0.4-0.2-3.7-1.3-5.2-6.4c-0.8-2.7-0.6-4.6-1-6c0,0,3.6,3.9,5,6.4
						C175.7,87,175.9,89.8,178.9,91.5z"/>
					<path class="st0" d="M168.2,86c-0.3,0.3-0.9-0.2-1.2-0.3c-0.2-0.1-2-0.9-5-2c-2.9-1.1-8.4-5.7-7.9-13.6c0,0,0.8,3,3,5
						c2.3,2,3.1,2.2,4.4,3.8s4.5,5.3,4.6,5.2s0.2-0.2-0.1-0.4c-0.2-0.2-1.1-2.2-1.6-2.9s-2.1-5.4,0.2-11.2c0,0,2.5,4.2,2.3,8.5
						s-0.4,3.3,0.7,6.8C167.8,84.9,168.3,85.9,168.2,86z"/>
					<path class="st0" d="M161.3,75.6c-0.1,0.2-0.8-0.8-1.2-1.6c-0.5-0.8-3.9-4.5-4.3-5.2c-0.4-0.7-4.2-5.3-1.4-12.1
						c0,0,0.3-0.1,0.3,1.5s1.5,5.2,2.7,6.7c1.2,1.5,2.3,4,2.5,6.6c0,0,0.2,0.5,0.4,0.5s0.2-0.5,0.2-0.5s-0.2-2.4-0.2-4.1
						s0.7-4.5,2.3-6.1c0,0,0.7-0.8,1.2-1.8c0,0,0.3-0.6,0.7-1c0,0,0.3,4.6-1.2,8.9c-1.6,4.3-2.1,5-1.9,7.4
						C161.4,75,161.4,75.6,161.3,75.6z"/>
					<path class="st0" d="M158.7,62.9c-0.2,0-0.3-0.6-0.4-1c-0.1-0.4-0.6-3-0.9-3.6c-0.3-0.6-1.5-3.1-1.6-6.2c0-3,1.3-7.1,4.4-10.4
						c0,0-0.1,1-0.9,3.1c-0.8,2.1-0.3,4.2-0.2,4.5s0.4,2.9,0.4,4c0,0.9-0.2,4.1-0.4,4.8c0,0-0.1,0.4,0.1,0.4s0.3-0.4,0.3-0.4
						s0.2-2.5,2-4.8c1.9-2.3,5.2-3.6,5.7-4.6c0,0-0.2,3.6-4.1,7.7c-3.5,3.7-2.5,1.8-3.6,4.8c0,0-0.5,1.1-0.5,1.4
						C158.9,63,158.7,62.9,158.7,62.9z"/>
					<path class="st0" d="M160.8,51c0,0-0.1-0.5,0.5-1.6s0-3,0.8-5.8s2.3-7.7,8-10.5c0,0-0.6,0.5-0.9,0.9c-0.3,0.4-1.8,3.3-2.3,5.3
						c-0.4,2-2.4,5.4-3.1,6.2c-0.7,0.8-0.4,0.8-0.4,0.8s0.4-0.1,0.7-0.6c0.4-0.6,2.2-2.7,4.3-3.1c2.1-0.5,5.3-1.4,5.5-1.7
						c0,0-3.6,3.6-6.8,5.5c-3.3,1.8-3.6,1.3-5.6,3.8C161.6,50.1,161,51,160.8,51z"/>
					<path class="st0" d="M168.6,40.2c0,0,0-0.3,0.6-0.9c0.6-0.6,1.2-2.3,2.3-3.8c1.1-1.6,3.4-5.7,9.6-6.7c0,0-1.9,1.4-2.1,1.8
						c-0.3,0.4-2.1,2.8-2.9,3.6c-0.8,0.8-3.1,2.5-3.9,2.9c0,0-0.4,0.3-0.3,0.4c0.1,0.1,0.5-0.1,0.5-0.1s2.1-1.7,4.7-1.7
						c2.6-0.1,5.3,0,5.7,0.1c0,0-2.4,1.7-8.2,2.7c-5.8,1.1-4.7,1.1-5.6,1.7C169,40.2,168.8,40.4,168.6,40.2z"/>
					<path class="st0" d="M178.9,33.5c0,0,0.1-0.3,1.1-0.6c0.9-0.3,0.9-1.2,3.7-2.7s5.8-2.2,8.7-0.9c0,0-1.2,0.2-1.4,0.2
						s-2.3,0.6-2.9,1c-0.6,0.3-3.7,1.7-5,1.9c-1.3,0.2-0.6,0.3-0.6,0.3s0.3,0.1,0.5,0.1s3-0.3,4.8,0.4c1.8,0.6,1.8,0.9,2.5,1.1
						s1.6,0.4,1.7,0.7c0,0-1.8,0.2-2.9,0.2s-3.9-0.3-5.3-0.9c-1.4-0.6-2.9-0.9-3.5-0.8C179.7,33.7,179.1,33.7,178.9,33.5z"/>
					<path class="st0" d="M190.4,32.1c0,0,0.1-0.2,0.9-0.3s1-0.6,2.9-1s4.8-0.8,7.5,1.1c0,0-1.6,0-2,0s-3.5,0.6-4.2,0.6
						s-2.2-0.3-2.4-0.1s1.3,0.6,1.6,0.6c0.2,0.1,1.3,0.2,2.7,1.5c1.4,1.3,2.3,2.1,2.5,2.1c0,0-4-0.9-5-1.5s-2.7-2.3-3-2.4
						C191.5,32.5,190.4,32.1,190.4,32.1z"/>
					<path class="st0" d="M199.6,33.8c0,0,2.5-0.1,4.4,1.1s3.3,2.7,3.5,3.6c0,0-1.1-0.9-1.7-1.1c-0.7-0.2-2.6-1.3-3-1.5
						S200.1,34.1,199.6,33.8z"/>
					<path class="st0" d="M211.6,91.9c0,0,0.4-0.4,1.6-1.4s1.5-2.6,2.9-5s2.5-4,5.2-6.4c0,0-0.5,1.8-0.5,2.4s-0.5,3.7-2,5.5
						s-1.6,2.2-3.4,3.3c0,0-0.7,0.5-0.6,0.6c0,0.2,1.2,0,1.2,0s1.3-0.5,1.7-0.7s2.2-1.2,2.9-1.4c0.7-0.3,1.3-0.6,2.9-1.1
						c1.6-0.5,7.4-2,9.8-5.7c0,0-0.7,2.2-1.5,3.2c-0.9,1-5.6,7.3-12.3,7.2c0,0-2.6-0.2-4-0.4c-1.4-0.2-1.9-0.2-2.1-0.2
						C213.1,91.8,211.8,92,211.6,91.9z"/>
					<path class="st0" d="M226.4,69.3c0,0-2.5,3.9-3.1,9.6s0.4,3.9-0.5,6.4c0,0-0.3,0.6-0.2,0.7c0.1,0,0.6-0.2,2.4-1.3
						c1.8-1.1,3.5-0.8,7.3-4.4s4.6-10.8,4.6-11.4c0,0-0.6,0.6-0.9,1.5c-0.3,1-0.9,1.7-1,1.8c-0.1,0.1-4.2,4.6-4.7,5
						c-0.5,0.4-2.9,3.3-3.4,4.2c-0.5,0.8-2.1,2.4-2.3,2.3c0,0,0-0.4,0.2-0.6c0.1-0.3,1.2-1.8,1.7-3.6s0.6-2.9,0.6-4
						C227.2,74.4,226.5,70.2,226.4,69.3z"/>
					<path class="st0" d="M229.8,74.8c0,0-0.2-0.6,0-1c0.1-0.2,0.2-2.2-0.5-3.8c-0.7-1.6-2.3-5.9-2.2-8.8c0.1-2.9,0.4-3.3,0.4-3.3
						s0.8,2.4,1.1,2.8s2.7,4.7,2.5,7s-0.3,3.1-0.2,3.1s0.4-0.3,0.4-0.6s0.4-1.9,1.2-3.8c0.8-1.9,3.9-6.1,4.6-8.9c0,0,1,4.8-1.7,9.3
						s-3,3.5-4.1,5.6C230.1,74.5,230,74.8,229.8,74.8z"/>
					<path class="st0" d="M232.3,62c-0.2,0-0.1-1.9-0.6-2.5s-4.6-5.5-5.5-10.4c0,0,2.6,2.7,3.1,2.9s2.2,2.1,2.7,3.6s0.4,2.8,0.6,2.9
						s0.2-1.7,0.2-1.7s0-3.4,0.3-5s1-4.3,0.7-5.7c0,0,1.6,2.5,1.5,6c-0.1,3.6-1.6,6.4-1.8,6.8c-0.2,0.4-0.8,2.1-0.8,2.5
						S232.3,62,232.3,62z"/>
					<path class="st0" d="M227.4,36.8c0,0,5.4,3.2,4.6,14c0,0,0,0.5-0.3,0s-1.5-2-2-2.3s-5.4-3.3-7.4-7.8c0,0,0.3-0.1,0.8,0.4
						c0.5,0.4,2,1.2,2.2,1.3c0.2,0.1,1.9,0.6,3.2,1.9s1.7,2.4,2.1,3.2c0,0,0.4,0.3,0.1-0.5c-0.2-0.8-0.3-1.3-0.9-2.3
						c-0.6-1-1.2-2.8-1.3-4.1C228.3,39.3,227.9,37.4,227.4,36.8z"/>
					<path class="st0" d="M226.4,40.6c0,0,0.1-0.7-0.4-1.7s-0.1-2.1-1.8-4.8c-0.9-1.5-4.1-2.7-4.1-2.7s0.9,1.3,1.5,2s0.8,1.2,1,1.6
						c0.2,0.4,1.3,1.4,1.7,2.1c0.1,0.1,0.2,0.4,0.2,0.6c0,0.2-0.4-0.1-0.6-0.2c-0.1-0.1-2.1-1.6-3.3-1.8c-1.2-0.2-3.6-0.5-4.3-0.8
						c0,0,2.8,2.5,5.9,3.3C225.4,38.9,226.4,40.6,226.4,40.6z"/>
					<path class="st0" d="M220.1,33.9c0,0-2.8-3.8-7.9-3.8c0,0,0.3,0.3,0.9,0.4c0.6,0.1,1.6,1.1,2.1,1.5
						C215.7,32.3,216.8,33.1,220.1,33.9z"/>
				</g>
			</g>
		</g>
	</g>
	<path class="st0" d="M65.4,28.7V76c0,4.1-0.7,7.8-2.1,11s-3.3,5.8-5.7,7.9s-5.3,3.7-8.6,4.8c-3.4,1.1-7,1.6-11,1.6
		s-7.7-0.5-11.1-1.6s-6.3-2.7-8.7-4.8c-2.4-2.1-4.3-4.8-5.7-7.9c-1.4-3.2-2-6.8-2-11V28.7h14.8V76c0,4.7,1.1,8.1,3.4,10.3
		s5.4,3.2,9.3,3.2c4,0,7.1-1.1,9.3-3.2c2.2-2.2,3.3-5.6,3.3-10.3V28.7H65.4z"/>
	<path class="st0" d="M135.9,100.4h-14.8L92.3,53.2v47.2H77.6V28.7h14.8L121.2,76V28.7h14.7V100.4L135.9,100.4z"/>
	<g>
		<path class="st0" d="M21.2,146.7c-3.1,0-5.6-1-7.6-2.9s-2.9-4.5-2.9-7.8v-0.6c0-2.2,0.4-4.1,1.2-5.8c0.8-1.7,2-3,3.5-3.9
			s3.2-1.4,5.1-1.4c2.9,0,5.2,0.9,6.8,2.8c1.7,1.9,2.5,4.5,2.5,7.9v2.4H16.4c0.2,1.4,0.7,2.5,1.7,3.4c0.9,0.9,2.1,1.3,3.5,1.3
			c2.2,0,3.9-0.8,5.1-2.4l2.8,3.2c-0.8,1.2-2,2.2-3.4,2.9C24.5,146.3,22.9,146.7,21.2,146.7z M20.5,129c-1.1,0-2,0.4-2.7,1.2
			c-0.7,0.8-1.1,1.9-1.3,3.3h7.9V133c0-1.3-0.4-2.3-1-3C22.6,129.3,21.7,129,20.5,129z"/>
		<path class="st0" d="M38.5,124.7l0.2,2.5c1.5-1.9,3.5-2.9,6.1-2.9c2.2,0,3.9,0.7,5,2s1.7,3.4,1.7,6v13.9h-5.7v-13.8
			c0-1.2-0.3-2.1-0.8-2.7s-1.4-0.8-2.6-0.8c-1.6,0-2.8,0.7-3.6,2.1v15.2h-5.7v-21.5H38.5z"/>
		<path class="st0" d="M63.9,139.3l3.9-14.5h5.9l-7.1,21.6h-5.4L54,124.7h5.9L63.9,139.3z"/>
		<path class="st0" d="M76.4,119.1c0-0.9,0.3-1.6,0.8-2.1s1.3-0.8,2.3-0.8s1.7,0.3,2.3,0.8c0.6,0.6,0.9,1.3,0.9,2.1
			c0,0.9-0.3,1.6-0.9,2.1s-1.3,0.8-2.3,0.8c-0.9,0-1.7-0.3-2.3-0.8C76.7,120.7,76.4,120,76.4,119.1z M82.4,146.3h-5.7v-21.6h5.7
			V146.3z"/>
		<path class="st0" d="M99.2,130.1c-0.8-0.1-1.4-0.2-2-0.2c-2.1,0-3.5,0.7-4.2,2.2v14.1h-5.7v-21.5h5.3l0.2,2.6c1.1-2,2.7-3,4.7-3
			c0.6,0,1.2,0.1,1.8,0.3L99.2,130.1z"/>
		<path class="st0" d="M100.6,135.3c0-2.1,0.4-4.1,1.2-5.7c0.8-1.7,2-3,3.5-3.9s3.3-1.4,5.3-1.4c2.8,0,5.2,0.9,7,2.7s2.8,4.2,3,7.3
			v1.5c0,3.3-0.9,6-2.7,8s-4.2,3-7.3,3c-3.1,0-5.5-1-7.3-3s-2.7-4.7-2.7-8.1V135.3L100.6,135.3z M106.2,135.7c0,2.1,0.4,3.6,1.1,4.7
			s1.8,1.6,3.2,1.6c1.4,0,2.4-0.5,3.2-1.6c0.8-1.1,1.1-2.8,1.1-5.1c0-2-0.4-3.6-1.1-4.7c-0.8-1.1-1.8-1.7-3.2-1.7
			c-1.4,0-2.4,0.6-3.2,1.6C106.6,131.7,106.2,133.4,106.2,135.7z"/>
		<path class="st0" d="M129.5,124.7l0.2,2.5c1.5-1.9,3.5-2.9,6.1-2.9c2.2,0,3.9,0.7,5,2s1.7,3.4,1.7,6v13.9h-5.6v-13.8
			c0-1.2-0.3-2.1-0.8-2.7s-1.4-0.8-2.6-0.8c-1.6,0-2.8,0.7-3.6,2.1v15.2h-5.6v-21.5H129.5z"/>
		<path class="st0" d="M152.3,124.7l0.2,2.4c1.5-1.9,3.5-2.8,6.1-2.8c2.7,0,4.6,1.1,5.6,3.3c1.5-2.2,3.6-3.3,6.4-3.3
			c2.3,0,4,0.7,5.1,2s1.7,3.4,1.7,6.1v13.8h-5.7v-13.8c0-1.2-0.2-2.1-0.7-2.7s-1.3-0.9-2.5-0.9c-1.7,0-2.9,0.8-3.5,2.5v14.8h-5.6
			v-13.7c0-1.2-0.2-2.1-0.7-2.7s-1.3-0.8-2.5-0.8c-1.6,0-2.8,0.7-3.5,2v15.3H147v-21.5H152.3z"/>
		<path class="st0" d="M191.6,146.7c-3.1,0-5.6-1-7.6-2.9s-2.9-4.5-2.9-7.8v-0.6c0-2.2,0.4-4.1,1.2-5.8c0.8-1.7,2-3,3.5-3.9
			s3.2-1.4,5.1-1.4c2.9,0,5.2,0.9,6.8,2.8s2.5,4.5,2.5,7.9v2.4h-13.5c0.2,1.4,0.7,2.5,1.6,3.4s2.1,1.3,3.5,1.3
			c2.2,0,3.9-0.8,5.1-2.4l2.8,3.2c-0.9,1.2-2,2.2-3.4,2.9C195,146.3,193.4,146.7,191.6,146.7z M191,129c-1.1,0-2,0.4-2.7,1.2
			c-0.7,0.8-1.1,1.9-1.3,3.3h7.9V133c0-1.3-0.4-2.3-1-3C193.1,129.3,192.2,129,191,129z"/>
		<path class="st0" d="M209,124.7l0.2,2.5c1.5-1.9,3.5-2.9,6.1-2.9c2.2,0,3.9,0.7,5,2s1.7,3.4,1.7,6v13.9h-5.6v-13.8
			c0-1.2-0.3-2.1-0.8-2.7s-1.4-0.8-2.6-0.8c-1.6,0-2.8,0.7-3.6,2.1v15.2h-5.6v-21.5H209z"/>
		<path class="st0" d="M233.2,119.4v5.3h3.6v4.2h-3.6v10.8c0,0.8,0.1,1.4,0.4,1.7c0.3,0.4,0.9,0.5,1.7,0.5c0.6,0,1.2-0.1,1.7-0.1
			v4.4c-1.1,0.4-2.2,0.5-3.4,0.5c-4,0-6-2-6.1-6.1V129h-3.1v-4.3h3.1v-5.3H233.2L233.2,119.4z"/>
	</g>
	<g>
		<path class="st0" d="M30.5,174.5c0,3.3-0.7,6-2.2,8s-3.5,3-6,3c-2.1,0-3.9-0.8-5.2-2.3v10.2h-5.6v-29.9h5.2l0.2,2.1
			c1.4-1.7,3.2-2.5,5.4-2.5c2.6,0,4.6,1,6.1,2.9c1.5,2,2.2,4.7,2.2,8.1L30.5,174.5L30.5,174.5z M24.8,174.1c0-2-0.3-3.6-1-4.6
			s-1.7-1.6-3-1.6c-1.8,0-3,0.7-3.7,2.1v8.8c0.7,1.4,1.9,2.1,3.7,2.1C23.5,180.9,24.8,178.6,24.8,174.1z"/>
		<path class="st0" d="M46.1,168.9c-0.8-0.1-1.5-0.2-2-0.2c-2.1,0-3.5,0.7-4.2,2.2V185h-5.7v-21.6h5.3l0.2,2.6c1.1-2,2.7-3,4.7-3
			c0.6,0,1.2,0.1,1.8,0.3L46.1,168.9z"/>
		<path class="st0" d="M47.5,174.1c0-2.1,0.4-4.1,1.2-5.7c0.8-1.7,2-3,3.5-3.9s3.3-1.4,5.3-1.4c2.8,0,5.2,0.9,7,2.7
			c1.8,1.8,2.8,4.2,3,7.3v1.5c0,3.3-0.9,6-2.7,8s-4.2,3-7.3,3s-5.5-1-7.3-3s-2.7-4.7-2.7-8.1L47.5,174.1L47.5,174.1z M53.1,174.5
			c0,2.1,0.4,3.6,1.1,4.7c0.8,1.1,1.8,1.6,3.2,1.6s2.4-0.5,3.2-1.6s1.2-2.8,1.2-5.1c0-2-0.4-3.6-1.2-4.7c-0.8-1.1-1.8-1.7-3.2-1.7
			s-2.4,0.6-3.2,1.6C53.5,170.5,53.1,172.2,53.1,174.5z"/>
		<path class="st0" d="M70.4,174.2c0-3.3,0.8-6,2.3-8c1.6-2,3.6-3,6.2-3c2.3,0,4.1,0.8,5.4,2.4l0.2-2h5.1v20.9
			c0,1.9-0.4,3.5-1.3,4.9c-0.8,1.4-2,2.5-3.6,3.2c-1.5,0.7-3.3,1.1-5.4,1.1c-1.6,0-3.1-0.3-4.5-0.9c-1.5-0.6-2.6-1.4-3.3-2.4
			l2.5-3.5c1.4,1.6,3.1,2.4,5.1,2.4c1.5,0,2.7-0.4,3.5-1.2s1.2-2,1.2-3.5v-1.2c-1.3,1.5-3,2.2-5.1,2.2c-2.5,0-4.6-1-6.2-3
			s-2.4-4.7-2.4-8.1L70.4,174.2L70.4,174.2z M76.1,174.6c0,2,0.4,3.5,1.2,4.6c0.8,1.1,1.8,1.7,3.2,1.7c1.7,0,2.9-0.7,3.7-2v-9.1
			c-0.8-1.3-2-2-3.7-2c-1.3,0-2.4,0.6-3.2,1.7C76.4,170.6,76.1,172.3,76.1,174.6z"/>
		<path class="st0" d="M106.2,168.9c-0.8-0.1-1.4-0.2-2-0.2c-2.1,0-3.5,0.7-4.2,2.2V185h-5.7v-21.6h5.3l0.2,2.6c1.1-2,2.7-3,4.7-3
			c0.6,0,1.2,0.1,1.8,0.3L106.2,168.9z"/>
		<path class="st0" d="M120.8,185.1c-0.3-0.5-0.4-1.2-0.6-1.9c-1.4,1.6-3.1,2.3-5.3,2.3c-2.1,0-3.8-0.6-5.2-1.8s-2-2.8-2-4.6
			c0-2.3,0.8-4,2.5-5.3c1.7-1.2,4.1-1.8,7.2-1.9h2.6v-1.2c0-1-0.2-1.8-0.8-2.4c-0.5-0.6-1.3-0.9-2.4-0.9c-0.9,0-1.7,0.2-2.2,0.7
			s-0.8,1.1-0.8,1.9h-5.7c0-1.2,0.4-2.4,1.1-3.5c0.8-1.1,1.8-1.9,3.2-2.5c1.4-0.6,2.9-0.9,4.6-0.9c2.6,0,4.7,0.7,6.2,2
			s2.3,3.2,2.3,5.6v9.4c0,2.1,0.3,3.6,0.8,4.6v0.3L120.8,185.1L120.8,185.1z M116.2,181.1c0.8,0,1.6-0.2,2.3-0.6
			c0.7-0.4,1.2-0.9,1.6-1.5v-3.7H118c-2.8,0-4.3,1-4.5,3v0.3c0,0.7,0.2,1.3,0.7,1.8C114.6,180.9,115.3,181.1,116.2,181.1z"/>
		<path class="st0" d="M135.6,163.5l0.2,2.4c1.5-1.9,3.5-2.8,6.1-2.8c2.7,0,4.6,1.1,5.6,3.3c1.5-2.2,3.6-3.3,6.4-3.3
			c2.3,0,4,0.7,5.1,2s1.7,3.4,1.7,6.1V185H155v-13.8c0-1.2-0.2-2.1-0.7-2.7c-0.5-0.6-1.3-0.9-2.5-0.9c-1.7,0-2.9,0.8-3.5,2.5v14.8
			h-5.6v-13.7c0-1.2-0.2-2.1-0.7-2.7c-0.5-0.6-1.3-0.8-2.5-0.8c-1.6,0-2.8,0.7-3.5,2V185h-5.6v-21.6L135.6,163.5L135.6,163.5z"/>
		<path class="st0" d="M170.5,163.5l0.2,2.4c1.5-1.9,3.5-2.8,6.1-2.8c2.7,0,4.6,1.1,5.6,3.3c1.5-2.2,3.6-3.3,6.4-3.3
			c2.3,0,4,0.7,5.1,2s1.7,3.4,1.7,6.1V185h-5.7v-13.8c0-1.2-0.2-2.1-0.7-2.7c-0.5-0.6-1.3-0.9-2.5-0.9c-1.7,0-2.9,0.8-3.5,2.5v14.8
			h-5.6v-13.7c0-1.2-0.2-2.1-0.7-2.7c-0.5-0.6-1.3-0.8-2.5-0.8c-1.6,0-2.8,0.7-3.5,2V185h-5.6v-21.6L170.5,163.5L170.5,163.5z"/>
		<path class="st0" d="M209.8,185.5c-3.1,0-5.6-1-7.6-2.9s-2.9-4.5-2.9-7.8v-0.6c0-2.2,0.4-4.1,1.2-5.8s2-3,3.5-3.9s3.2-1.4,5.1-1.4
			c2.9,0,5.2,0.9,6.8,2.8s2.5,4.5,2.5,7.9v2.4H205c0.2,1.4,0.7,2.5,1.6,3.4s2.1,1.3,3.5,1.3c2.2,0,3.9-0.8,5.1-2.4l2.8,3.2
			c-0.9,1.2-2,2.2-3.4,2.9C213.2,185.2,211.6,185.5,209.8,185.5z M209.2,167.8c-1.1,0-2,0.4-2.7,1.2s-1.1,1.9-1.3,3.3h7.9v-0.5
			c0-1.3-0.4-2.3-1-3S210.4,167.8,209.2,167.8z"/>
	</g>
</g>
</svg>
